G04 #@! TF.FileFunction,Legend,Top*
%FSLAX46Y46*%
G04 Gerber Fmt 4.6, Leading zero omitted, Abs format (unit mm)*
G04 Created by KiCad (PCBNEW 0.201508100901+6080~28~ubuntu14.04.1-product) date Mon 10 Aug 2015 02:14:21 PM EDT*
%MOMM*%
G01*
G04 APERTURE LIST*
%ADD10C,0.100000*%
%ADD11C,0.190500*%
%ADD12C,0.381000*%
%ADD13C,0.254000*%
%ADD14C,0.508000*%
%ADD15C,0.228600*%
%ADD16O,1.854200X2.540000*%
%ADD17R,1.854200X2.540000*%
%ADD18R,1.590040X2.667000*%
%ADD19C,1.930400*%
%ADD20O,4.572000X3.556000*%
%ADD21O,4.064000X5.080000*%
%ADD22O,5.080000X3.556000*%
%ADD23O,2.540000X1.524000*%
%ADD24C,3.937000*%
%ADD25O,1.524000X2.540000*%
%ADD26O,6.350000X3.810000*%
%ADD27R,2.540000X1.524000*%
%ADD28R,1.498600X2.997200*%
%ADD29O,2.540000X1.854200*%
%ADD30R,2.540000X1.854200*%
%ADD31O,5.080000X3.048000*%
%ADD32O,2.032000X1.524000*%
%ADD33O,1.524000X2.032000*%
%ADD34O,4.648200X3.378200*%
G04 APERTURE END LIST*
D10*
D11*
X196505286Y-107732285D02*
X196469000Y-107695999D01*
X196432714Y-107623428D01*
X196432714Y-107441999D01*
X196469000Y-107369428D01*
X196505286Y-107333142D01*
X196577857Y-107296857D01*
X196650429Y-107296857D01*
X196759286Y-107333142D01*
X197194714Y-107768571D01*
X197194714Y-107296857D01*
X197122143Y-106970285D02*
X197158429Y-106934000D01*
X197194714Y-106970285D01*
X197158429Y-107006571D01*
X197122143Y-106970285D01*
X197194714Y-106970285D01*
X196432714Y-106244571D02*
X196432714Y-106607428D01*
X196795571Y-106643714D01*
X196759286Y-106607428D01*
X196723000Y-106534857D01*
X196723000Y-106353428D01*
X196759286Y-106280857D01*
X196795571Y-106244571D01*
X196868143Y-106208286D01*
X197049571Y-106208286D01*
X197122143Y-106244571D01*
X197158429Y-106280857D01*
X197194714Y-106353428D01*
X197194714Y-106534857D01*
X197158429Y-106607428D01*
X197122143Y-106643714D01*
X197194714Y-105954286D02*
X196686714Y-105555143D01*
X196686714Y-105954286D02*
X197194714Y-105555143D01*
X196432714Y-104902000D02*
X196432714Y-105264857D01*
X196795571Y-105301143D01*
X196759286Y-105264857D01*
X196723000Y-105192286D01*
X196723000Y-105010857D01*
X196759286Y-104938286D01*
X196795571Y-104902000D01*
X196868143Y-104865715D01*
X197049571Y-104865715D01*
X197122143Y-104902000D01*
X197158429Y-104938286D01*
X197194714Y-105010857D01*
X197194714Y-105192286D01*
X197158429Y-105264857D01*
X197122143Y-105301143D01*
X197122143Y-104539143D02*
X197158429Y-104502858D01*
X197194714Y-104539143D01*
X197158429Y-104575429D01*
X197122143Y-104539143D01*
X197194714Y-104539143D01*
X196432714Y-103813429D02*
X196432714Y-104176286D01*
X196795571Y-104212572D01*
X196759286Y-104176286D01*
X196723000Y-104103715D01*
X196723000Y-103922286D01*
X196759286Y-103849715D01*
X196795571Y-103813429D01*
X196868143Y-103777144D01*
X197049571Y-103777144D01*
X197122143Y-103813429D01*
X197158429Y-103849715D01*
X197194714Y-103922286D01*
X197194714Y-104103715D01*
X197158429Y-104176286D01*
X197122143Y-104212572D01*
X197122143Y-102434573D02*
X197158429Y-102470859D01*
X197194714Y-102579716D01*
X197194714Y-102652287D01*
X197158429Y-102761144D01*
X197085857Y-102833716D01*
X197013286Y-102870001D01*
X196868143Y-102906287D01*
X196759286Y-102906287D01*
X196614143Y-102870001D01*
X196541571Y-102833716D01*
X196469000Y-102761144D01*
X196432714Y-102652287D01*
X196432714Y-102579716D01*
X196469000Y-102470859D01*
X196505286Y-102434573D01*
X197158429Y-101817716D02*
X197194714Y-101890287D01*
X197194714Y-102035430D01*
X197158429Y-102108001D01*
X197085857Y-102144287D01*
X196795571Y-102144287D01*
X196723000Y-102108001D01*
X196686714Y-102035430D01*
X196686714Y-101890287D01*
X196723000Y-101817716D01*
X196795571Y-101781430D01*
X196868143Y-101781430D01*
X196940714Y-102144287D01*
X196686714Y-101454858D02*
X197194714Y-101454858D01*
X196759286Y-101454858D02*
X196723000Y-101418573D01*
X196686714Y-101346001D01*
X196686714Y-101237144D01*
X196723000Y-101164573D01*
X196795571Y-101128287D01*
X197194714Y-101128287D01*
X196686714Y-100874287D02*
X196686714Y-100584001D01*
X196432714Y-100765429D02*
X197085857Y-100765429D01*
X197158429Y-100729144D01*
X197194714Y-100656572D01*
X197194714Y-100584001D01*
X197158429Y-100039715D02*
X197194714Y-100112286D01*
X197194714Y-100257429D01*
X197158429Y-100330000D01*
X197085857Y-100366286D01*
X196795571Y-100366286D01*
X196723000Y-100330000D01*
X196686714Y-100257429D01*
X196686714Y-100112286D01*
X196723000Y-100039715D01*
X196795571Y-100003429D01*
X196868143Y-100003429D01*
X196940714Y-100366286D01*
X197194714Y-99676857D02*
X196686714Y-99676857D01*
X196831857Y-99676857D02*
X196759286Y-99640572D01*
X196723000Y-99604286D01*
X196686714Y-99531715D01*
X196686714Y-99459143D01*
X196904429Y-98624572D02*
X196904429Y-98044001D01*
X197194714Y-98334287D02*
X196614143Y-98334287D01*
D12*
X181591857Y-92074999D02*
X181664429Y-91857285D01*
X181664429Y-91494428D01*
X181591857Y-91349285D01*
X181519286Y-91276714D01*
X181374143Y-91204142D01*
X181229000Y-91204142D01*
X181083857Y-91276714D01*
X181011286Y-91349285D01*
X180938714Y-91494428D01*
X180866143Y-91784714D01*
X180793571Y-91929856D01*
X180721000Y-92002428D01*
X180575857Y-92074999D01*
X180430714Y-92074999D01*
X180285571Y-92002428D01*
X180213000Y-91929856D01*
X180140429Y-91784714D01*
X180140429Y-91421856D01*
X180213000Y-91204142D01*
X180140429Y-90696142D02*
X181664429Y-90333285D01*
X180575857Y-90042999D01*
X181664429Y-89752713D01*
X180140429Y-89389856D01*
X181664429Y-88809285D02*
X180140429Y-88809285D01*
X180140429Y-88301285D02*
X180140429Y-87430428D01*
X181664429Y-87865857D02*
X180140429Y-87865857D01*
X181519286Y-86051571D02*
X181591857Y-86124142D01*
X181664429Y-86341856D01*
X181664429Y-86486999D01*
X181591857Y-86704714D01*
X181446714Y-86849856D01*
X181301571Y-86922428D01*
X181011286Y-86994999D01*
X180793571Y-86994999D01*
X180503286Y-86922428D01*
X180358143Y-86849856D01*
X180213000Y-86704714D01*
X180140429Y-86486999D01*
X180140429Y-86341856D01*
X180213000Y-86124142D01*
X180285571Y-86051571D01*
X181664429Y-85398428D02*
X180140429Y-85398428D01*
X180866143Y-85398428D02*
X180866143Y-84527571D01*
X181664429Y-84527571D02*
X180140429Y-84527571D01*
X98679000Y-117819714D02*
X98679000Y-117094000D01*
X99114429Y-117964857D02*
X97590429Y-117456857D01*
X99114429Y-116948857D01*
X99114429Y-116440857D02*
X97590429Y-116440857D01*
X99114429Y-115715143D02*
X97590429Y-115715143D01*
X99114429Y-114844286D01*
X97590429Y-114844286D01*
X97735571Y-114191143D02*
X97663000Y-114118572D01*
X97590429Y-113973429D01*
X97590429Y-113610572D01*
X97663000Y-113465429D01*
X97735571Y-113392858D01*
X97880714Y-113320286D01*
X98025857Y-113320286D01*
X98243571Y-113392858D01*
X99114429Y-114263715D01*
X99114429Y-113320286D01*
X98679000Y-91784714D02*
X98679000Y-91059000D01*
X99114429Y-91929857D02*
X97590429Y-91421857D01*
X99114429Y-90913857D01*
X99114429Y-90405857D02*
X97590429Y-90405857D01*
X99114429Y-89680143D02*
X97590429Y-89680143D01*
X99114429Y-88809286D01*
X97590429Y-88809286D01*
X99114429Y-87285286D02*
X99114429Y-88156143D01*
X99114429Y-87720715D02*
X97590429Y-87720715D01*
X97808143Y-87865858D01*
X97953286Y-88011000D01*
X98025857Y-88156143D01*
D13*
X102476905Y-111832571D02*
X103251000Y-111832571D01*
X102863952Y-112219619D02*
X102863952Y-111445524D01*
X104218619Y-111203619D02*
X103734810Y-111203619D01*
X103686429Y-111687429D01*
X103734810Y-111639048D01*
X103831572Y-111590667D01*
X104073476Y-111590667D01*
X104170238Y-111639048D01*
X104218619Y-111687429D01*
X104267000Y-111784190D01*
X104267000Y-112026095D01*
X104218619Y-112122857D01*
X104170238Y-112171238D01*
X104073476Y-112219619D01*
X103831572Y-112219619D01*
X103734810Y-112171238D01*
X103686429Y-112122857D01*
X104557286Y-111203619D02*
X104895953Y-112219619D01*
X105234619Y-111203619D01*
X102476905Y-85797571D02*
X103251000Y-85797571D01*
X102863952Y-86184619D02*
X102863952Y-85410524D01*
X104218619Y-85168619D02*
X103734810Y-85168619D01*
X103686429Y-85652429D01*
X103734810Y-85604048D01*
X103831572Y-85555667D01*
X104073476Y-85555667D01*
X104170238Y-85604048D01*
X104218619Y-85652429D01*
X104267000Y-85749190D01*
X104267000Y-85991095D01*
X104218619Y-86087857D01*
X104170238Y-86136238D01*
X104073476Y-86184619D01*
X103831572Y-86184619D01*
X103734810Y-86136238D01*
X103686429Y-86087857D01*
X104557286Y-85168619D02*
X104895953Y-86184619D01*
X105234619Y-85168619D01*
X109347000Y-115430905D02*
X109298619Y-115527667D01*
X109298619Y-115672810D01*
X109347000Y-115817952D01*
X109443762Y-115914714D01*
X109540524Y-115963095D01*
X109734048Y-116011476D01*
X109879190Y-116011476D01*
X110072714Y-115963095D01*
X110169476Y-115914714D01*
X110266238Y-115817952D01*
X110314619Y-115672810D01*
X110314619Y-115576048D01*
X110266238Y-115430905D01*
X110217857Y-115382524D01*
X109879190Y-115382524D01*
X109879190Y-115576048D01*
X110314619Y-114947095D02*
X109298619Y-114947095D01*
X110314619Y-114366524D01*
X109298619Y-114366524D01*
X110314619Y-113882714D02*
X109298619Y-113882714D01*
X109298619Y-113640809D01*
X109347000Y-113495667D01*
X109443762Y-113398905D01*
X109540524Y-113350524D01*
X109734048Y-113302143D01*
X109879190Y-113302143D01*
X110072714Y-113350524D01*
X110169476Y-113398905D01*
X110266238Y-113495667D01*
X110314619Y-113640809D01*
X110314619Y-113882714D01*
X109347000Y-89395905D02*
X109298619Y-89492667D01*
X109298619Y-89637810D01*
X109347000Y-89782952D01*
X109443762Y-89879714D01*
X109540524Y-89928095D01*
X109734048Y-89976476D01*
X109879190Y-89976476D01*
X110072714Y-89928095D01*
X110169476Y-89879714D01*
X110266238Y-89782952D01*
X110314619Y-89637810D01*
X110314619Y-89541048D01*
X110266238Y-89395905D01*
X110217857Y-89347524D01*
X109879190Y-89347524D01*
X109879190Y-89541048D01*
X110314619Y-88912095D02*
X109298619Y-88912095D01*
X110314619Y-88331524D01*
X109298619Y-88331524D01*
X110314619Y-87847714D02*
X109298619Y-87847714D01*
X109298619Y-87605809D01*
X109347000Y-87460667D01*
X109443762Y-87363905D01*
X109540524Y-87315524D01*
X109734048Y-87267143D01*
X109879190Y-87267143D01*
X110072714Y-87315524D01*
X110169476Y-87363905D01*
X110266238Y-87460667D01*
X110314619Y-87605809D01*
X110314619Y-87847714D01*
X109347000Y-81140905D02*
X109298619Y-81237667D01*
X109298619Y-81382810D01*
X109347000Y-81527952D01*
X109443762Y-81624714D01*
X109540524Y-81673095D01*
X109734048Y-81721476D01*
X109879190Y-81721476D01*
X110072714Y-81673095D01*
X110169476Y-81624714D01*
X110266238Y-81527952D01*
X110314619Y-81382810D01*
X110314619Y-81286048D01*
X110266238Y-81140905D01*
X110217857Y-81092524D01*
X109879190Y-81092524D01*
X109879190Y-81286048D01*
X110314619Y-80657095D02*
X109298619Y-80657095D01*
X110314619Y-80076524D01*
X109298619Y-80076524D01*
X110314619Y-79592714D02*
X109298619Y-79592714D01*
X109298619Y-79350809D01*
X109347000Y-79205667D01*
X109443762Y-79108905D01*
X109540524Y-79060524D01*
X109734048Y-79012143D01*
X109879190Y-79012143D01*
X110072714Y-79060524D01*
X110169476Y-79108905D01*
X110266238Y-79205667D01*
X110314619Y-79350809D01*
X110314619Y-79592714D01*
X102476905Y-77542571D02*
X103251000Y-77542571D01*
X102863952Y-77929619D02*
X102863952Y-77155524D01*
X104218619Y-76913619D02*
X103734810Y-76913619D01*
X103686429Y-77397429D01*
X103734810Y-77349048D01*
X103831572Y-77300667D01*
X104073476Y-77300667D01*
X104170238Y-77349048D01*
X104218619Y-77397429D01*
X104267000Y-77494190D01*
X104267000Y-77736095D01*
X104218619Y-77832857D01*
X104170238Y-77881238D01*
X104073476Y-77929619D01*
X103831572Y-77929619D01*
X103734810Y-77881238D01*
X103686429Y-77832857D01*
X104557286Y-76913619D02*
X104895953Y-77929619D01*
X105234619Y-76913619D01*
D12*
X98679000Y-83529714D02*
X98679000Y-82804000D01*
X99114429Y-83674857D02*
X97590429Y-83166857D01*
X99114429Y-82658857D01*
X99114429Y-82150857D02*
X97590429Y-82150857D01*
X99114429Y-81425143D02*
X97590429Y-81425143D01*
X99114429Y-80554286D01*
X97590429Y-80554286D01*
X97590429Y-79538286D02*
X97590429Y-79393143D01*
X97663000Y-79248000D01*
X97735571Y-79175429D01*
X97880714Y-79102858D01*
X98171000Y-79030286D01*
X98533857Y-79030286D01*
X98824143Y-79102858D01*
X98969286Y-79175429D01*
X99041857Y-79248000D01*
X99114429Y-79393143D01*
X99114429Y-79538286D01*
X99041857Y-79683429D01*
X98969286Y-79756000D01*
X98824143Y-79828572D01*
X98533857Y-79901143D01*
X98171000Y-79901143D01*
X97880714Y-79828572D01*
X97735571Y-79756000D01*
X97663000Y-79683429D01*
X97590429Y-79538286D01*
D14*
X157129238Y-89891809D02*
X155097238Y-89891809D01*
X156548667Y-89214476D01*
X155097238Y-88537143D01*
X157129238Y-88537143D01*
X156064857Y-86892190D02*
X156064857Y-87569523D01*
X157129238Y-87569523D02*
X155097238Y-87569523D01*
X155097238Y-86601904D01*
X156935714Y-84666667D02*
X157032476Y-84763429D01*
X157129238Y-85053714D01*
X157129238Y-85247238D01*
X157032476Y-85537524D01*
X156838952Y-85731048D01*
X156645429Y-85827809D01*
X156258381Y-85924571D01*
X155968095Y-85924571D01*
X155581048Y-85827809D01*
X155387524Y-85731048D01*
X155194000Y-85537524D01*
X155097238Y-85247238D01*
X155097238Y-85053714D01*
X155194000Y-84763429D01*
X155290762Y-84666667D01*
X155290762Y-83892571D02*
X155194000Y-83795809D01*
X155097238Y-83602286D01*
X155097238Y-83118476D01*
X155194000Y-82924952D01*
X155290762Y-82828190D01*
X155484286Y-82731429D01*
X155677810Y-82731429D01*
X155968095Y-82828190D01*
X157129238Y-83989333D01*
X157129238Y-82731429D01*
D15*
X211455000Y-75565000D02*
X93345000Y-75565000D01*
X211455000Y-130175000D02*
X211455000Y-75565000D01*
X93345000Y-130175000D02*
X211455000Y-130175000D01*
X93345000Y-75565000D02*
X93345000Y-130175000D01*
D13*
X198894095Y-123014619D02*
X198313524Y-123014619D01*
X198603810Y-123014619D02*
X198603810Y-121998619D01*
X198507048Y-122143762D01*
X198410286Y-122240524D01*
X198313524Y-122288905D01*
X199281143Y-122095381D02*
X199329524Y-122047000D01*
X199426286Y-121998619D01*
X199668190Y-121998619D01*
X199764952Y-122047000D01*
X199813333Y-122095381D01*
X199861714Y-122192143D01*
X199861714Y-122288905D01*
X199813333Y-122434048D01*
X199232762Y-123014619D01*
X199861714Y-123014619D01*
X200152000Y-121998619D02*
X200490667Y-123014619D01*
X200829333Y-121998619D01*
X200926095Y-123111381D02*
X201700190Y-123111381D01*
X201942095Y-123014619D02*
X201942095Y-121998619D01*
X202184000Y-121998619D01*
X202329142Y-122047000D01*
X202425904Y-122143762D01*
X202474285Y-122240524D01*
X202522666Y-122434048D01*
X202522666Y-122579190D01*
X202474285Y-122772714D01*
X202425904Y-122869476D01*
X202329142Y-122966238D01*
X202184000Y-123014619D01*
X201942095Y-123014619D01*
X203538666Y-122917857D02*
X203490285Y-122966238D01*
X203345142Y-123014619D01*
X203248380Y-123014619D01*
X203103238Y-122966238D01*
X203006476Y-122869476D01*
X202958095Y-122772714D01*
X202909714Y-122579190D01*
X202909714Y-122434048D01*
X202958095Y-122240524D01*
X203006476Y-122143762D01*
X203103238Y-122047000D01*
X203248380Y-121998619D01*
X203345142Y-121998619D01*
X203490285Y-122047000D01*
X203538666Y-122095381D01*
X203732190Y-123111381D02*
X204506285Y-123111381D01*
X204748190Y-123014619D02*
X204748190Y-121998619D01*
X204990095Y-121998619D01*
X205135237Y-122047000D01*
X205231999Y-122143762D01*
X205280380Y-122240524D01*
X205328761Y-122434048D01*
X205328761Y-122579190D01*
X205280380Y-122772714D01*
X205231999Y-122869476D01*
X205135237Y-122966238D01*
X204990095Y-123014619D01*
X204748190Y-123014619D01*
X206344761Y-122917857D02*
X206296380Y-122966238D01*
X206151237Y-123014619D01*
X206054475Y-123014619D01*
X205909333Y-122966238D01*
X205812571Y-122869476D01*
X205764190Y-122772714D01*
X205715809Y-122579190D01*
X205715809Y-122434048D01*
X205764190Y-122240524D01*
X205812571Y-122143762D01*
X205909333Y-122047000D01*
X206054475Y-121998619D01*
X206151237Y-121998619D01*
X206296380Y-122047000D01*
X206344761Y-122095381D01*
X197853905Y-96592571D02*
X198628000Y-96592571D01*
X198240952Y-96979619D02*
X198240952Y-96205524D01*
X199063429Y-96060381D02*
X199111810Y-96012000D01*
X199208572Y-95963619D01*
X199450476Y-95963619D01*
X199547238Y-96012000D01*
X199595619Y-96060381D01*
X199644000Y-96157143D01*
X199644000Y-96253905D01*
X199595619Y-96399048D01*
X199015048Y-96979619D01*
X199644000Y-96979619D01*
X200514857Y-96302286D02*
X200514857Y-96979619D01*
X200272953Y-95915238D02*
X200031048Y-96640952D01*
X200660000Y-96640952D01*
X200901905Y-95963619D02*
X201240572Y-96979619D01*
X201579238Y-95963619D01*
X201917905Y-96979619D02*
X201917905Y-95963619D01*
X202159810Y-95963619D01*
X202304952Y-96012000D01*
X202401714Y-96108762D01*
X202450095Y-96205524D01*
X202498476Y-96399048D01*
X202498476Y-96544190D01*
X202450095Y-96737714D01*
X202401714Y-96834476D01*
X202304952Y-96931238D01*
X202159810Y-96979619D01*
X201917905Y-96979619D01*
X203514476Y-96882857D02*
X203466095Y-96931238D01*
X203320952Y-96979619D01*
X203224190Y-96979619D01*
X203079048Y-96931238D01*
X202982286Y-96834476D01*
X202933905Y-96737714D01*
X202885524Y-96544190D01*
X202885524Y-96399048D01*
X202933905Y-96205524D01*
X202982286Y-96108762D01*
X203079048Y-96012000D01*
X203224190Y-95963619D01*
X203320952Y-95963619D01*
X203466095Y-96012000D01*
X203514476Y-96060381D01*
D14*
X115219238Y-89891809D02*
X113187238Y-89891809D01*
X114638667Y-89214476D01*
X113187238Y-88537143D01*
X115219238Y-88537143D01*
X114154857Y-86892190D02*
X114154857Y-87569523D01*
X115219238Y-87569523D02*
X113187238Y-87569523D01*
X113187238Y-86601904D01*
X115025714Y-84666667D02*
X115122476Y-84763429D01*
X115219238Y-85053714D01*
X115219238Y-85247238D01*
X115122476Y-85537524D01*
X114928952Y-85731048D01*
X114735429Y-85827809D01*
X114348381Y-85924571D01*
X114058095Y-85924571D01*
X113671048Y-85827809D01*
X113477524Y-85731048D01*
X113284000Y-85537524D01*
X113187238Y-85247238D01*
X113187238Y-85053714D01*
X113284000Y-84763429D01*
X113380762Y-84666667D01*
X113187238Y-83408762D02*
X113187238Y-83215238D01*
X113284000Y-83021714D01*
X113380762Y-82924952D01*
X113574286Y-82828190D01*
X113961333Y-82731429D01*
X114445143Y-82731429D01*
X114832190Y-82828190D01*
X115025714Y-82924952D01*
X115122476Y-83021714D01*
X115219238Y-83215238D01*
X115219238Y-83408762D01*
X115122476Y-83602286D01*
X115025714Y-83699048D01*
X114832190Y-83795809D01*
X114445143Y-83892571D01*
X113961333Y-83892571D01*
X113574286Y-83795809D01*
X113380762Y-83699048D01*
X113284000Y-83602286D01*
X113187238Y-83408762D01*
X136174238Y-89891809D02*
X134142238Y-89891809D01*
X135593667Y-89214476D01*
X134142238Y-88537143D01*
X136174238Y-88537143D01*
X135109857Y-86892190D02*
X135109857Y-87569523D01*
X136174238Y-87569523D02*
X134142238Y-87569523D01*
X134142238Y-86601904D01*
X135980714Y-84666667D02*
X136077476Y-84763429D01*
X136174238Y-85053714D01*
X136174238Y-85247238D01*
X136077476Y-85537524D01*
X135883952Y-85731048D01*
X135690429Y-85827809D01*
X135303381Y-85924571D01*
X135013095Y-85924571D01*
X134626048Y-85827809D01*
X134432524Y-85731048D01*
X134239000Y-85537524D01*
X134142238Y-85247238D01*
X134142238Y-85053714D01*
X134239000Y-84763429D01*
X134335762Y-84666667D01*
X136174238Y-82731429D02*
X136174238Y-83892571D01*
X136174238Y-83312000D02*
X134142238Y-83312000D01*
X134432524Y-83505524D01*
X134626048Y-83699048D01*
X134722810Y-83892571D01*
D13*
X101358096Y-128094619D02*
X101358096Y-127078619D01*
X101600001Y-127078619D01*
X101745143Y-127127000D01*
X101841905Y-127223762D01*
X101890286Y-127320524D01*
X101938667Y-127514048D01*
X101938667Y-127659190D01*
X101890286Y-127852714D01*
X101841905Y-127949476D01*
X101745143Y-128046238D01*
X101600001Y-128094619D01*
X101358096Y-128094619D01*
X102374096Y-128094619D02*
X102374096Y-127078619D01*
X102809525Y-128046238D02*
X102954668Y-128094619D01*
X103196572Y-128094619D01*
X103293334Y-128046238D01*
X103341715Y-127997857D01*
X103390096Y-127901095D01*
X103390096Y-127804333D01*
X103341715Y-127707571D01*
X103293334Y-127659190D01*
X103196572Y-127610810D01*
X103003049Y-127562429D01*
X102906287Y-127514048D01*
X102857906Y-127465667D01*
X102809525Y-127368905D01*
X102809525Y-127272143D01*
X102857906Y-127175381D01*
X102906287Y-127127000D01*
X103003049Y-127078619D01*
X103244953Y-127078619D01*
X103390096Y-127127000D01*
X103825525Y-128094619D02*
X103825525Y-127078619D01*
X104212572Y-127078619D01*
X104309334Y-127127000D01*
X104357715Y-127175381D01*
X104406096Y-127272143D01*
X104406096Y-127417286D01*
X104357715Y-127514048D01*
X104309334Y-127562429D01*
X104212572Y-127610810D01*
X103825525Y-127610810D01*
X105325334Y-128094619D02*
X104841525Y-128094619D01*
X104841525Y-127078619D01*
X105615620Y-127804333D02*
X106099429Y-127804333D01*
X105518858Y-128094619D02*
X105857525Y-127078619D01*
X106196191Y-128094619D01*
X106728382Y-127610810D02*
X106728382Y-128094619D01*
X106389715Y-127078619D02*
X106728382Y-127610810D01*
X107067048Y-127078619D01*
D11*
X189574714Y-120287142D02*
X188812714Y-120287142D01*
X189574714Y-119851714D02*
X189175571Y-119851714D01*
X189103000Y-119900095D01*
X189066714Y-119996857D01*
X189066714Y-120141999D01*
X189103000Y-120238761D01*
X189139286Y-120287142D01*
X189066714Y-119513047D02*
X189066714Y-119125999D01*
X188812714Y-119367904D02*
X189465857Y-119367904D01*
X189538429Y-119319523D01*
X189574714Y-119222761D01*
X189574714Y-119125999D01*
X189066714Y-118932476D02*
X189066714Y-118545428D01*
X188812714Y-118787333D02*
X189465857Y-118787333D01*
X189538429Y-118738952D01*
X189574714Y-118642190D01*
X189574714Y-118545428D01*
X189066714Y-118206762D02*
X189828714Y-118206762D01*
X189103000Y-118206762D02*
X189066714Y-118110000D01*
X189066714Y-117916477D01*
X189103000Y-117819715D01*
X189139286Y-117771334D01*
X189211857Y-117722953D01*
X189429571Y-117722953D01*
X189502143Y-117771334D01*
X189538429Y-117819715D01*
X189574714Y-117916477D01*
X189574714Y-118110000D01*
X189538429Y-118206762D01*
X189538429Y-117335905D02*
X189574714Y-117239143D01*
X189574714Y-117045619D01*
X189538429Y-116948858D01*
X189465857Y-116900477D01*
X189429571Y-116900477D01*
X189357000Y-116948858D01*
X189320714Y-117045619D01*
X189320714Y-117190762D01*
X189284429Y-117287524D01*
X189211857Y-117335905D01*
X189175571Y-117335905D01*
X189103000Y-117287524D01*
X189066714Y-117190762D01*
X189066714Y-117045619D01*
X189103000Y-116948858D01*
X189502143Y-116465048D02*
X189538429Y-116416667D01*
X189574714Y-116465048D01*
X189538429Y-116513429D01*
X189502143Y-116465048D01*
X189574714Y-116465048D01*
X189103000Y-116465048D02*
X189139286Y-116416667D01*
X189175571Y-116465048D01*
X189139286Y-116513429D01*
X189103000Y-116465048D01*
X189175571Y-116465048D01*
X188776429Y-115255524D02*
X189756143Y-116126381D01*
X188776429Y-114191143D02*
X189756143Y-115062000D01*
X189066714Y-113417048D02*
X189683571Y-113417048D01*
X189756143Y-113465429D01*
X189792429Y-113513810D01*
X189828714Y-113610571D01*
X189828714Y-113755714D01*
X189792429Y-113852476D01*
X189538429Y-113417048D02*
X189574714Y-113513810D01*
X189574714Y-113707333D01*
X189538429Y-113804095D01*
X189502143Y-113852476D01*
X189429571Y-113900857D01*
X189211857Y-113900857D01*
X189139286Y-113852476D01*
X189103000Y-113804095D01*
X189066714Y-113707333D01*
X189066714Y-113513810D01*
X189103000Y-113417048D01*
X189574714Y-112933238D02*
X189066714Y-112933238D01*
X188812714Y-112933238D02*
X188849000Y-112981619D01*
X188885286Y-112933238D01*
X188849000Y-112884857D01*
X188812714Y-112933238D01*
X188885286Y-112933238D01*
X189066714Y-112594571D02*
X189066714Y-112207523D01*
X188812714Y-112449428D02*
X189465857Y-112449428D01*
X189538429Y-112401047D01*
X189574714Y-112304285D01*
X189574714Y-112207523D01*
X189574714Y-111868857D02*
X188812714Y-111868857D01*
X189574714Y-111433429D02*
X189175571Y-111433429D01*
X189103000Y-111481810D01*
X189066714Y-111578572D01*
X189066714Y-111723714D01*
X189103000Y-111820476D01*
X189139286Y-111868857D01*
X189066714Y-110514191D02*
X189574714Y-110514191D01*
X189066714Y-110949619D02*
X189465857Y-110949619D01*
X189538429Y-110901238D01*
X189574714Y-110804476D01*
X189574714Y-110659334D01*
X189538429Y-110562572D01*
X189502143Y-110514191D01*
X189574714Y-110030381D02*
X188812714Y-110030381D01*
X189103000Y-110030381D02*
X189066714Y-109933619D01*
X189066714Y-109740096D01*
X189103000Y-109643334D01*
X189139286Y-109594953D01*
X189211857Y-109546572D01*
X189429571Y-109546572D01*
X189502143Y-109594953D01*
X189538429Y-109643334D01*
X189574714Y-109740096D01*
X189574714Y-109933619D01*
X189538429Y-110030381D01*
X189502143Y-109111143D02*
X189538429Y-109062762D01*
X189574714Y-109111143D01*
X189538429Y-109159524D01*
X189502143Y-109111143D01*
X189574714Y-109111143D01*
X189538429Y-108191905D02*
X189574714Y-108288667D01*
X189574714Y-108482190D01*
X189538429Y-108578952D01*
X189502143Y-108627333D01*
X189429571Y-108675714D01*
X189211857Y-108675714D01*
X189139286Y-108627333D01*
X189103000Y-108578952D01*
X189066714Y-108482190D01*
X189066714Y-108288667D01*
X189103000Y-108191905D01*
X189574714Y-107611333D02*
X189538429Y-107708095D01*
X189502143Y-107756476D01*
X189429571Y-107804857D01*
X189211857Y-107804857D01*
X189139286Y-107756476D01*
X189103000Y-107708095D01*
X189066714Y-107611333D01*
X189066714Y-107466191D01*
X189103000Y-107369429D01*
X189139286Y-107321048D01*
X189211857Y-107272667D01*
X189429571Y-107272667D01*
X189502143Y-107321048D01*
X189538429Y-107369429D01*
X189574714Y-107466191D01*
X189574714Y-107611333D01*
X189574714Y-106837238D02*
X189066714Y-106837238D01*
X189139286Y-106837238D02*
X189103000Y-106788857D01*
X189066714Y-106692095D01*
X189066714Y-106546953D01*
X189103000Y-106450191D01*
X189175571Y-106401810D01*
X189574714Y-106401810D01*
X189175571Y-106401810D02*
X189103000Y-106353429D01*
X189066714Y-106256667D01*
X189066714Y-106111524D01*
X189103000Y-106014762D01*
X189175571Y-105966381D01*
X189574714Y-105966381D01*
X188776429Y-104756857D02*
X189756143Y-105627714D01*
X189066714Y-104418190D02*
X189719857Y-104418190D01*
X189792429Y-104466571D01*
X189828714Y-104563333D01*
X189828714Y-104611714D01*
X188812714Y-104418190D02*
X188849000Y-104466571D01*
X188885286Y-104418190D01*
X188849000Y-104369809D01*
X188812714Y-104418190D01*
X188885286Y-104418190D01*
X189574714Y-103498952D02*
X189175571Y-103498952D01*
X189103000Y-103547333D01*
X189066714Y-103644095D01*
X189066714Y-103837618D01*
X189103000Y-103934380D01*
X189538429Y-103498952D02*
X189574714Y-103595714D01*
X189574714Y-103837618D01*
X189538429Y-103934380D01*
X189465857Y-103982761D01*
X189393286Y-103982761D01*
X189320714Y-103934380D01*
X189284429Y-103837618D01*
X189284429Y-103595714D01*
X189248143Y-103498952D01*
X189066714Y-103015142D02*
X189574714Y-103015142D01*
X189139286Y-103015142D02*
X189103000Y-102966761D01*
X189066714Y-102869999D01*
X189066714Y-102724857D01*
X189103000Y-102628095D01*
X189175571Y-102579714D01*
X189574714Y-102579714D01*
X189538429Y-101708857D02*
X189574714Y-101805619D01*
X189574714Y-101999142D01*
X189538429Y-102095904D01*
X189465857Y-102144285D01*
X189175571Y-102144285D01*
X189103000Y-102095904D01*
X189066714Y-101999142D01*
X189066714Y-101805619D01*
X189103000Y-101708857D01*
X189175571Y-101660476D01*
X189248143Y-101660476D01*
X189320714Y-102144285D01*
X189574714Y-101079904D02*
X189538429Y-101176666D01*
X189465857Y-101225047D01*
X188812714Y-101225047D01*
X189574714Y-100692857D02*
X189066714Y-100692857D01*
X188812714Y-100692857D02*
X188849000Y-100741238D01*
X188885286Y-100692857D01*
X188849000Y-100644476D01*
X188812714Y-100692857D01*
X188885286Y-100692857D01*
X189574714Y-99773619D02*
X189175571Y-99773619D01*
X189103000Y-99822000D01*
X189066714Y-99918762D01*
X189066714Y-100112285D01*
X189103000Y-100209047D01*
X189538429Y-99773619D02*
X189574714Y-99870381D01*
X189574714Y-100112285D01*
X189538429Y-100209047D01*
X189465857Y-100257428D01*
X189393286Y-100257428D01*
X189320714Y-100209047D01*
X189284429Y-100112285D01*
X189284429Y-99870381D01*
X189248143Y-99773619D01*
X189284429Y-99289809D02*
X189284429Y-98515714D01*
X189574714Y-98031904D02*
X189066714Y-98031904D01*
X189139286Y-98031904D02*
X189103000Y-97983523D01*
X189066714Y-97886761D01*
X189066714Y-97741619D01*
X189103000Y-97644857D01*
X189175571Y-97596476D01*
X189574714Y-97596476D01*
X189175571Y-97596476D02*
X189103000Y-97548095D01*
X189066714Y-97451333D01*
X189066714Y-97306190D01*
X189103000Y-97209428D01*
X189175571Y-97161047D01*
X189574714Y-97161047D01*
X189574714Y-96532094D02*
X189538429Y-96628856D01*
X189502143Y-96677237D01*
X189429571Y-96725618D01*
X189211857Y-96725618D01*
X189139286Y-96677237D01*
X189103000Y-96628856D01*
X189066714Y-96532094D01*
X189066714Y-96386952D01*
X189103000Y-96290190D01*
X189139286Y-96241809D01*
X189211857Y-96193428D01*
X189429571Y-96193428D01*
X189502143Y-96241809D01*
X189538429Y-96290190D01*
X189574714Y-96386952D01*
X189574714Y-96532094D01*
X189574714Y-95322571D02*
X188812714Y-95322571D01*
X189538429Y-95322571D02*
X189574714Y-95419333D01*
X189574714Y-95612856D01*
X189538429Y-95709618D01*
X189502143Y-95757999D01*
X189429571Y-95806380D01*
X189211857Y-95806380D01*
X189139286Y-95757999D01*
X189103000Y-95709618D01*
X189066714Y-95612856D01*
X189066714Y-95419333D01*
X189103000Y-95322571D01*
X189066714Y-94403333D02*
X189574714Y-94403333D01*
X189066714Y-94838761D02*
X189465857Y-94838761D01*
X189538429Y-94790380D01*
X189574714Y-94693618D01*
X189574714Y-94548476D01*
X189538429Y-94451714D01*
X189502143Y-94403333D01*
X189574714Y-93774380D02*
X189538429Y-93871142D01*
X189465857Y-93919523D01*
X188812714Y-93919523D01*
X189574714Y-92951905D02*
X189175571Y-92951905D01*
X189103000Y-93000286D01*
X189066714Y-93097048D01*
X189066714Y-93290571D01*
X189103000Y-93387333D01*
X189538429Y-92951905D02*
X189574714Y-93048667D01*
X189574714Y-93290571D01*
X189538429Y-93387333D01*
X189465857Y-93435714D01*
X189393286Y-93435714D01*
X189320714Y-93387333D01*
X189284429Y-93290571D01*
X189284429Y-93048667D01*
X189248143Y-92951905D01*
X189574714Y-92468095D02*
X189066714Y-92468095D01*
X189211857Y-92468095D02*
X189139286Y-92419714D01*
X189103000Y-92371333D01*
X189066714Y-92274571D01*
X189066714Y-92177810D01*
X189284429Y-91839143D02*
X189284429Y-91065048D01*
X189574714Y-90145810D02*
X188812714Y-90145810D01*
X189538429Y-90145810D02*
X189574714Y-90242572D01*
X189574714Y-90436095D01*
X189538429Y-90532857D01*
X189502143Y-90581238D01*
X189429571Y-90629619D01*
X189211857Y-90629619D01*
X189139286Y-90581238D01*
X189103000Y-90532857D01*
X189066714Y-90436095D01*
X189066714Y-90242572D01*
X189103000Y-90145810D01*
X189538429Y-89274953D02*
X189574714Y-89371715D01*
X189574714Y-89565238D01*
X189538429Y-89662000D01*
X189465857Y-89710381D01*
X189175571Y-89710381D01*
X189103000Y-89662000D01*
X189066714Y-89565238D01*
X189066714Y-89371715D01*
X189103000Y-89274953D01*
X189175571Y-89226572D01*
X189248143Y-89226572D01*
X189320714Y-89710381D01*
X189066714Y-88887905D02*
X189574714Y-88646000D01*
X189066714Y-88404096D01*
X189574714Y-88017048D02*
X189066714Y-88017048D01*
X188812714Y-88017048D02*
X188849000Y-88065429D01*
X188885286Y-88017048D01*
X188849000Y-87968667D01*
X188812714Y-88017048D01*
X188885286Y-88017048D01*
X189538429Y-87097810D02*
X189574714Y-87194572D01*
X189574714Y-87388095D01*
X189538429Y-87484857D01*
X189502143Y-87533238D01*
X189429571Y-87581619D01*
X189211857Y-87581619D01*
X189139286Y-87533238D01*
X189103000Y-87484857D01*
X189066714Y-87388095D01*
X189066714Y-87194572D01*
X189103000Y-87097810D01*
X189538429Y-86275334D02*
X189574714Y-86372096D01*
X189574714Y-86565619D01*
X189538429Y-86662381D01*
X189465857Y-86710762D01*
X189175571Y-86710762D01*
X189103000Y-86662381D01*
X189066714Y-86565619D01*
X189066714Y-86372096D01*
X189103000Y-86275334D01*
X189175571Y-86226953D01*
X189248143Y-86226953D01*
X189320714Y-86710762D01*
X189538429Y-85839905D02*
X189574714Y-85743143D01*
X189574714Y-85549619D01*
X189538429Y-85452858D01*
X189465857Y-85404477D01*
X189429571Y-85404477D01*
X189357000Y-85452858D01*
X189320714Y-85549619D01*
X189320714Y-85694762D01*
X189284429Y-85791524D01*
X189211857Y-85839905D01*
X189175571Y-85839905D01*
X189103000Y-85791524D01*
X189066714Y-85694762D01*
X189066714Y-85549619D01*
X189103000Y-85452858D01*
D13*
X203939019Y-94119094D02*
X204664733Y-94119094D01*
X204809876Y-94167474D01*
X204906638Y-94264236D01*
X204955019Y-94409379D01*
X204955019Y-94506141D01*
X204955019Y-93199856D02*
X204422829Y-93199856D01*
X204326067Y-93248237D01*
X204277686Y-93344999D01*
X204277686Y-93538522D01*
X204326067Y-93635284D01*
X204906638Y-93199856D02*
X204955019Y-93296618D01*
X204955019Y-93538522D01*
X204906638Y-93635284D01*
X204809876Y-93683665D01*
X204713114Y-93683665D01*
X204616352Y-93635284D01*
X204567971Y-93538522D01*
X204567971Y-93296618D01*
X204519590Y-93199856D01*
X204277686Y-92716046D02*
X204955019Y-92716046D01*
X204374448Y-92716046D02*
X204326067Y-92667665D01*
X204277686Y-92570903D01*
X204277686Y-92425761D01*
X204326067Y-92328999D01*
X204422829Y-92280618D01*
X204955019Y-92280618D01*
X204906638Y-91409761D02*
X204955019Y-91506523D01*
X204955019Y-91700046D01*
X204906638Y-91796808D01*
X204809876Y-91845189D01*
X204422829Y-91845189D01*
X204326067Y-91796808D01*
X204277686Y-91700046D01*
X204277686Y-91506523D01*
X204326067Y-91409761D01*
X204422829Y-91361380D01*
X204519590Y-91361380D01*
X204616352Y-91845189D01*
X204955019Y-90780808D02*
X204906638Y-90877570D01*
X204809876Y-90925951D01*
X203939019Y-90925951D01*
X204955019Y-90393761D02*
X204277686Y-90393761D01*
X203939019Y-90393761D02*
X203987400Y-90442142D01*
X204035781Y-90393761D01*
X203987400Y-90345380D01*
X203939019Y-90393761D01*
X204035781Y-90393761D01*
X204955019Y-89474523D02*
X204422829Y-89474523D01*
X204326067Y-89522904D01*
X204277686Y-89619666D01*
X204277686Y-89813189D01*
X204326067Y-89909951D01*
X204906638Y-89474523D02*
X204955019Y-89571285D01*
X204955019Y-89813189D01*
X204906638Y-89909951D01*
X204809876Y-89958332D01*
X204713114Y-89958332D01*
X204616352Y-89909951D01*
X204567971Y-89813189D01*
X204567971Y-89571285D01*
X204519590Y-89474523D01*
X204955019Y-88216618D02*
X203939019Y-88216618D01*
X204664733Y-87877952D01*
X203939019Y-87539285D01*
X204955019Y-87539285D01*
X204955019Y-86910332D02*
X204906638Y-87007094D01*
X204858257Y-87055475D01*
X204761495Y-87103856D01*
X204471210Y-87103856D01*
X204374448Y-87055475D01*
X204326067Y-87007094D01*
X204277686Y-86910332D01*
X204277686Y-86765190D01*
X204326067Y-86668428D01*
X204374448Y-86620047D01*
X204471210Y-86571666D01*
X204761495Y-86571666D01*
X204858257Y-86620047D01*
X204906638Y-86668428D01*
X204955019Y-86765190D01*
X204955019Y-86910332D01*
X204955019Y-85700809D02*
X203939019Y-85700809D01*
X204906638Y-85700809D02*
X204955019Y-85797571D01*
X204955019Y-85991094D01*
X204906638Y-86087856D01*
X204858257Y-86136237D01*
X204761495Y-86184618D01*
X204471210Y-86184618D01*
X204374448Y-86136237D01*
X204326067Y-86087856D01*
X204277686Y-85991094D01*
X204277686Y-85797571D01*
X204326067Y-85700809D01*
X204277686Y-84781571D02*
X204955019Y-84781571D01*
X204277686Y-85216999D02*
X204809876Y-85216999D01*
X204906638Y-85168618D01*
X204955019Y-85071856D01*
X204955019Y-84926714D01*
X204906638Y-84829952D01*
X204858257Y-84781571D01*
X204955019Y-84152618D02*
X204906638Y-84249380D01*
X204809876Y-84297761D01*
X203939019Y-84297761D01*
X204955019Y-83330143D02*
X204422829Y-83330143D01*
X204326067Y-83378524D01*
X204277686Y-83475286D01*
X204277686Y-83668809D01*
X204326067Y-83765571D01*
X204906638Y-83330143D02*
X204955019Y-83426905D01*
X204955019Y-83668809D01*
X204906638Y-83765571D01*
X204809876Y-83813952D01*
X204713114Y-83813952D01*
X204616352Y-83765571D01*
X204567971Y-83668809D01*
X204567971Y-83426905D01*
X204519590Y-83330143D01*
X204955019Y-82846333D02*
X204277686Y-82846333D01*
X204471210Y-82846333D02*
X204374448Y-82797952D01*
X204326067Y-82749571D01*
X204277686Y-82652809D01*
X204277686Y-82556048D01*
X204955019Y-81443286D02*
X203939019Y-81443286D01*
X203939019Y-81201381D01*
X203987400Y-81056239D01*
X204084162Y-80959477D01*
X204180924Y-80911096D01*
X204374448Y-80862715D01*
X204519590Y-80862715D01*
X204713114Y-80911096D01*
X204809876Y-80959477D01*
X204906638Y-81056239D01*
X204955019Y-81201381D01*
X204955019Y-81443286D01*
X204906638Y-80040239D02*
X204955019Y-80137001D01*
X204955019Y-80330524D01*
X204906638Y-80427286D01*
X204809876Y-80475667D01*
X204422829Y-80475667D01*
X204326067Y-80427286D01*
X204277686Y-80330524D01*
X204277686Y-80137001D01*
X204326067Y-80040239D01*
X204422829Y-79991858D01*
X204519590Y-79991858D01*
X204616352Y-80475667D01*
X204277686Y-79653191D02*
X204955019Y-79411286D01*
X204277686Y-79169382D01*
X204955019Y-78782334D02*
X204277686Y-78782334D01*
X203939019Y-78782334D02*
X203987400Y-78830715D01*
X204035781Y-78782334D01*
X203987400Y-78733953D01*
X203939019Y-78782334D01*
X204035781Y-78782334D01*
X204906638Y-77863096D02*
X204955019Y-77959858D01*
X204955019Y-78153381D01*
X204906638Y-78250143D01*
X204858257Y-78298524D01*
X204761495Y-78346905D01*
X204471210Y-78346905D01*
X204374448Y-78298524D01*
X204326067Y-78250143D01*
X204277686Y-78153381D01*
X204277686Y-77959858D01*
X204326067Y-77863096D01*
X204906638Y-77040620D02*
X204955019Y-77137382D01*
X204955019Y-77330905D01*
X204906638Y-77427667D01*
X204809876Y-77476048D01*
X204422829Y-77476048D01*
X204326067Y-77427667D01*
X204277686Y-77330905D01*
X204277686Y-77137382D01*
X204326067Y-77040620D01*
X204422829Y-76992239D01*
X204519590Y-76992239D01*
X204616352Y-77476048D01*
X206631419Y-93465951D02*
X206099229Y-93465951D01*
X206002467Y-93514332D01*
X205954086Y-93611094D01*
X205954086Y-93804617D01*
X206002467Y-93901379D01*
X206583038Y-93465951D02*
X206631419Y-93562713D01*
X206631419Y-93804617D01*
X206583038Y-93901379D01*
X206486276Y-93949760D01*
X206389514Y-93949760D01*
X206292752Y-93901379D01*
X206244371Y-93804617D01*
X206244371Y-93562713D01*
X206195990Y-93465951D01*
X206631419Y-92546713D02*
X206099229Y-92546713D01*
X206002467Y-92595094D01*
X205954086Y-92691856D01*
X205954086Y-92885379D01*
X206002467Y-92982141D01*
X206583038Y-92546713D02*
X206631419Y-92643475D01*
X206631419Y-92885379D01*
X206583038Y-92982141D01*
X206486276Y-93030522D01*
X206389514Y-93030522D01*
X206292752Y-92982141D01*
X206244371Y-92885379D01*
X206244371Y-92643475D01*
X206195990Y-92546713D01*
X206631419Y-91917760D02*
X206583038Y-92014522D01*
X206486276Y-92062903D01*
X205615419Y-92062903D01*
X206631419Y-91530713D02*
X205615419Y-91530713D01*
X206002467Y-91530713D02*
X205954086Y-91433951D01*
X205954086Y-91240428D01*
X206002467Y-91143666D01*
X206050848Y-91095285D01*
X206147610Y-91046904D01*
X206437895Y-91046904D01*
X206534657Y-91095285D01*
X206583038Y-91143666D01*
X206631419Y-91240428D01*
X206631419Y-91433951D01*
X206583038Y-91530713D01*
X206631419Y-90466332D02*
X206583038Y-90563094D01*
X206534657Y-90611475D01*
X206437895Y-90659856D01*
X206147610Y-90659856D01*
X206050848Y-90611475D01*
X206002467Y-90563094D01*
X205954086Y-90466332D01*
X205954086Y-90321190D01*
X206002467Y-90224428D01*
X206050848Y-90176047D01*
X206147610Y-90127666D01*
X206437895Y-90127666D01*
X206534657Y-90176047D01*
X206583038Y-90224428D01*
X206631419Y-90321190D01*
X206631419Y-90466332D01*
X206631419Y-89692237D02*
X205954086Y-89692237D01*
X206147610Y-89692237D02*
X206050848Y-89643856D01*
X206002467Y-89595475D01*
X205954086Y-89498713D01*
X205954086Y-89401952D01*
X205954086Y-88627857D02*
X206776562Y-88627857D01*
X206873324Y-88676238D01*
X206921705Y-88724619D01*
X206970086Y-88821380D01*
X206970086Y-88966523D01*
X206921705Y-89063285D01*
X206583038Y-88627857D02*
X206631419Y-88724619D01*
X206631419Y-88918142D01*
X206583038Y-89014904D01*
X206534657Y-89063285D01*
X206437895Y-89111666D01*
X206147610Y-89111666D01*
X206050848Y-89063285D01*
X206002467Y-89014904D01*
X205954086Y-88918142D01*
X205954086Y-88724619D01*
X206002467Y-88627857D01*
X206728181Y-88385952D02*
X206728181Y-87611857D01*
X206631419Y-87369952D02*
X205954086Y-87369952D01*
X206050848Y-87369952D02*
X206002467Y-87321571D01*
X205954086Y-87224809D01*
X205954086Y-87079667D01*
X206002467Y-86982905D01*
X206099229Y-86934524D01*
X206631419Y-86934524D01*
X206099229Y-86934524D02*
X206002467Y-86886143D01*
X205954086Y-86789381D01*
X205954086Y-86644238D01*
X206002467Y-86547476D01*
X206099229Y-86499095D01*
X206631419Y-86499095D01*
X205954086Y-86160428D02*
X205954086Y-85773380D01*
X206631419Y-86015285D02*
X205760562Y-86015285D01*
X205663800Y-85966904D01*
X205615419Y-85870142D01*
X205615419Y-85773380D01*
X206583038Y-84999286D02*
X206631419Y-85096048D01*
X206631419Y-85289571D01*
X206583038Y-85386333D01*
X206534657Y-85434714D01*
X206437895Y-85483095D01*
X206147610Y-85483095D01*
X206050848Y-85434714D01*
X206002467Y-85386333D01*
X205954086Y-85289571D01*
X205954086Y-85096048D01*
X206002467Y-84999286D01*
X206728181Y-84805762D02*
X206728181Y-84031667D01*
X206631419Y-83789762D02*
X205954086Y-83789762D01*
X205615419Y-83789762D02*
X205663800Y-83838143D01*
X205712181Y-83789762D01*
X205663800Y-83741381D01*
X205615419Y-83789762D01*
X205712181Y-83789762D01*
X205954086Y-83305952D02*
X206631419Y-83305952D01*
X206050848Y-83305952D02*
X206002467Y-83257571D01*
X205954086Y-83160809D01*
X205954086Y-83015667D01*
X206002467Y-82918905D01*
X206099229Y-82870524D01*
X206631419Y-82870524D01*
X205954086Y-82531857D02*
X205954086Y-82144809D01*
X205615419Y-82386714D02*
X206486276Y-82386714D01*
X206583038Y-82338333D01*
X206631419Y-82241571D01*
X206631419Y-82144809D01*
X206583038Y-81419096D02*
X206631419Y-81515858D01*
X206631419Y-81709381D01*
X206583038Y-81806143D01*
X206486276Y-81854524D01*
X206099229Y-81854524D01*
X206002467Y-81806143D01*
X205954086Y-81709381D01*
X205954086Y-81515858D01*
X206002467Y-81419096D01*
X206099229Y-81370715D01*
X206195990Y-81370715D01*
X206292752Y-81854524D01*
X206631419Y-80935286D02*
X205954086Y-80935286D01*
X206147610Y-80935286D02*
X206050848Y-80886905D01*
X206002467Y-80838524D01*
X205954086Y-80741762D01*
X205954086Y-80645001D01*
X205954086Y-80451477D02*
X205954086Y-80064429D01*
X206631419Y-80306334D02*
X205760562Y-80306334D01*
X205663800Y-80257953D01*
X205615419Y-80161191D01*
X205615419Y-80064429D01*
X206631419Y-79290335D02*
X206099229Y-79290335D01*
X206002467Y-79338716D01*
X205954086Y-79435478D01*
X205954086Y-79629001D01*
X206002467Y-79725763D01*
X206583038Y-79290335D02*
X206631419Y-79387097D01*
X206631419Y-79629001D01*
X206583038Y-79725763D01*
X206486276Y-79774144D01*
X206389514Y-79774144D01*
X206292752Y-79725763D01*
X206244371Y-79629001D01*
X206244371Y-79387097D01*
X206195990Y-79290335D01*
X206583038Y-78371097D02*
X206631419Y-78467859D01*
X206631419Y-78661382D01*
X206583038Y-78758144D01*
X206534657Y-78806525D01*
X206437895Y-78854906D01*
X206147610Y-78854906D01*
X206050848Y-78806525D01*
X206002467Y-78758144D01*
X205954086Y-78661382D01*
X205954086Y-78467859D01*
X206002467Y-78371097D01*
X206583038Y-77548621D02*
X206631419Y-77645383D01*
X206631419Y-77838906D01*
X206583038Y-77935668D01*
X206486276Y-77984049D01*
X206099229Y-77984049D01*
X206002467Y-77935668D01*
X205954086Y-77838906D01*
X205954086Y-77645383D01*
X206002467Y-77548621D01*
X206099229Y-77500240D01*
X206195990Y-77500240D01*
X206292752Y-77984049D01*
X208307819Y-93538523D02*
X207630486Y-93538523D01*
X207727248Y-93538523D02*
X207678867Y-93490142D01*
X207630486Y-93393380D01*
X207630486Y-93248238D01*
X207678867Y-93151476D01*
X207775629Y-93103095D01*
X208307819Y-93103095D01*
X207775629Y-93103095D02*
X207678867Y-93054714D01*
X207630486Y-92957952D01*
X207630486Y-92812809D01*
X207678867Y-92716047D01*
X207775629Y-92667666D01*
X208307819Y-92667666D01*
X208307819Y-92038713D02*
X208259438Y-92135475D01*
X208211057Y-92183856D01*
X208114295Y-92232237D01*
X207824010Y-92232237D01*
X207727248Y-92183856D01*
X207678867Y-92135475D01*
X207630486Y-92038713D01*
X207630486Y-91893571D01*
X207678867Y-91796809D01*
X207727248Y-91748428D01*
X207824010Y-91700047D01*
X208114295Y-91700047D01*
X208211057Y-91748428D01*
X208259438Y-91796809D01*
X208307819Y-91893571D01*
X208307819Y-92038713D01*
X208307819Y-90829190D02*
X207291819Y-90829190D01*
X208259438Y-90829190D02*
X208307819Y-90925952D01*
X208307819Y-91119475D01*
X208259438Y-91216237D01*
X208211057Y-91264618D01*
X208114295Y-91312999D01*
X207824010Y-91312999D01*
X207727248Y-91264618D01*
X207678867Y-91216237D01*
X207630486Y-91119475D01*
X207630486Y-90925952D01*
X207678867Y-90829190D01*
X208259438Y-89958333D02*
X208307819Y-90055095D01*
X208307819Y-90248618D01*
X208259438Y-90345380D01*
X208162676Y-90393761D01*
X207775629Y-90393761D01*
X207678867Y-90345380D01*
X207630486Y-90248618D01*
X207630486Y-90055095D01*
X207678867Y-89958333D01*
X207775629Y-89909952D01*
X207872390Y-89909952D01*
X207969152Y-90393761D01*
X208307819Y-89329380D02*
X208259438Y-89426142D01*
X208162676Y-89474523D01*
X207291819Y-89474523D01*
X208404581Y-89184238D02*
X208404581Y-88410143D01*
X207630486Y-88168238D02*
X208307819Y-88168238D01*
X207727248Y-88168238D02*
X207678867Y-88119857D01*
X207630486Y-88023095D01*
X207630486Y-87877953D01*
X207678867Y-87781191D01*
X207775629Y-87732810D01*
X208307819Y-87732810D01*
X207630486Y-86813572D02*
X208307819Y-86813572D01*
X207630486Y-87249000D02*
X208162676Y-87249000D01*
X208259438Y-87200619D01*
X208307819Y-87103857D01*
X208307819Y-86958715D01*
X208259438Y-86861953D01*
X208211057Y-86813572D01*
X208307819Y-86329762D02*
X207630486Y-86329762D01*
X207727248Y-86329762D02*
X207678867Y-86281381D01*
X207630486Y-86184619D01*
X207630486Y-86039477D01*
X207678867Y-85942715D01*
X207775629Y-85894334D01*
X208307819Y-85894334D01*
X207775629Y-85894334D02*
X207678867Y-85845953D01*
X207630486Y-85749191D01*
X207630486Y-85604048D01*
X207678867Y-85507286D01*
X207775629Y-85458905D01*
X208307819Y-85458905D01*
X208307819Y-84975095D02*
X207291819Y-84975095D01*
X207678867Y-84975095D02*
X207630486Y-84878333D01*
X207630486Y-84684810D01*
X207678867Y-84588048D01*
X207727248Y-84539667D01*
X207824010Y-84491286D01*
X208114295Y-84491286D01*
X208211057Y-84539667D01*
X208259438Y-84588048D01*
X208307819Y-84684810D01*
X208307819Y-84878333D01*
X208259438Y-84975095D01*
X208259438Y-83668810D02*
X208307819Y-83765572D01*
X208307819Y-83959095D01*
X208259438Y-84055857D01*
X208162676Y-84104238D01*
X207775629Y-84104238D01*
X207678867Y-84055857D01*
X207630486Y-83959095D01*
X207630486Y-83765572D01*
X207678867Y-83668810D01*
X207775629Y-83620429D01*
X207872390Y-83620429D01*
X207969152Y-84104238D01*
X208307819Y-83185000D02*
X207630486Y-83185000D01*
X207824010Y-83185000D02*
X207727248Y-83136619D01*
X207678867Y-83088238D01*
X207630486Y-82991476D01*
X207630486Y-82894715D01*
X208211057Y-82556048D02*
X208259438Y-82507667D01*
X208307819Y-82556048D01*
X208259438Y-82604429D01*
X208211057Y-82556048D01*
X208307819Y-82556048D01*
X207678867Y-82556048D02*
X207727248Y-82507667D01*
X207775629Y-82556048D01*
X207727248Y-82604429D01*
X207678867Y-82556048D01*
X207775629Y-82556048D01*
X208307819Y-80765953D02*
X208307819Y-81346524D01*
X208307819Y-81056238D02*
X207291819Y-81056238D01*
X207436962Y-81153000D01*
X207533724Y-81249762D01*
X207582105Y-81346524D01*
X208307819Y-79798334D02*
X208307819Y-80378905D01*
X208307819Y-80088619D02*
X207291819Y-80088619D01*
X207436962Y-80185381D01*
X207533724Y-80282143D01*
X207582105Y-80378905D01*
X207291819Y-79169381D02*
X207291819Y-79072620D01*
X207340200Y-78975858D01*
X207388581Y-78927477D01*
X207485343Y-78879096D01*
X207678867Y-78830715D01*
X207920771Y-78830715D01*
X208114295Y-78879096D01*
X208211057Y-78927477D01*
X208259438Y-78975858D01*
X208307819Y-79072620D01*
X208307819Y-79169381D01*
X208259438Y-79266143D01*
X208211057Y-79314524D01*
X208114295Y-79362905D01*
X207920771Y-79411286D01*
X207678867Y-79411286D01*
X207485343Y-79362905D01*
X207388581Y-79314524D01*
X207340200Y-79266143D01*
X207291819Y-79169381D01*
X207291819Y-78201762D02*
X207291819Y-78105001D01*
X207340200Y-78008239D01*
X207388581Y-77959858D01*
X207485343Y-77911477D01*
X207678867Y-77863096D01*
X207920771Y-77863096D01*
X208114295Y-77911477D01*
X208211057Y-77959858D01*
X208259438Y-78008239D01*
X208307819Y-78105001D01*
X208307819Y-78201762D01*
X208259438Y-78298524D01*
X208211057Y-78346905D01*
X208114295Y-78395286D01*
X207920771Y-78443667D01*
X207678867Y-78443667D01*
X207485343Y-78395286D01*
X207388581Y-78346905D01*
X207340200Y-78298524D01*
X207291819Y-78201762D01*
X208968219Y-93417570D02*
X208968219Y-93320809D01*
X209016600Y-93224047D01*
X209064981Y-93175666D01*
X209161743Y-93127285D01*
X209355267Y-93078904D01*
X209597171Y-93078904D01*
X209790695Y-93127285D01*
X209887457Y-93175666D01*
X209935838Y-93224047D01*
X209984219Y-93320809D01*
X209984219Y-93417570D01*
X209935838Y-93514332D01*
X209887457Y-93562713D01*
X209790695Y-93611094D01*
X209597171Y-93659475D01*
X209355267Y-93659475D01*
X209161743Y-93611094D01*
X209064981Y-93562713D01*
X209016600Y-93514332D01*
X208968219Y-93417570D01*
X209403648Y-92498332D02*
X209355267Y-92595094D01*
X209306886Y-92643475D01*
X209210124Y-92691856D01*
X209161743Y-92691856D01*
X209064981Y-92643475D01*
X209016600Y-92595094D01*
X208968219Y-92498332D01*
X208968219Y-92304809D01*
X209016600Y-92208047D01*
X209064981Y-92159666D01*
X209161743Y-92111285D01*
X209210124Y-92111285D01*
X209306886Y-92159666D01*
X209355267Y-92208047D01*
X209403648Y-92304809D01*
X209403648Y-92498332D01*
X209452029Y-92595094D01*
X209500410Y-92643475D01*
X209597171Y-92691856D01*
X209790695Y-92691856D01*
X209887457Y-92643475D01*
X209935838Y-92595094D01*
X209984219Y-92498332D01*
X209984219Y-92304809D01*
X209935838Y-92208047D01*
X209887457Y-92159666D01*
X209790695Y-92111285D01*
X209597171Y-92111285D01*
X209500410Y-92159666D01*
X209452029Y-92208047D01*
X209403648Y-92304809D01*
X208919838Y-90950142D02*
X210226124Y-91820999D01*
X209064981Y-90659856D02*
X209016600Y-90611475D01*
X208968219Y-90514713D01*
X208968219Y-90272809D01*
X209016600Y-90176047D01*
X209064981Y-90127666D01*
X209161743Y-90079285D01*
X209258505Y-90079285D01*
X209403648Y-90127666D01*
X209984219Y-90708237D01*
X209984219Y-90079285D01*
X208968219Y-89450332D02*
X208968219Y-89353571D01*
X209016600Y-89256809D01*
X209064981Y-89208428D01*
X209161743Y-89160047D01*
X209355267Y-89111666D01*
X209597171Y-89111666D01*
X209790695Y-89160047D01*
X209887457Y-89208428D01*
X209935838Y-89256809D01*
X209984219Y-89353571D01*
X209984219Y-89450332D01*
X209935838Y-89547094D01*
X209887457Y-89595475D01*
X209790695Y-89643856D01*
X209597171Y-89692237D01*
X209355267Y-89692237D01*
X209161743Y-89643856D01*
X209064981Y-89595475D01*
X209016600Y-89547094D01*
X208968219Y-89450332D01*
X209984219Y-88144047D02*
X209984219Y-88724618D01*
X209984219Y-88434332D02*
X208968219Y-88434332D01*
X209113362Y-88531094D01*
X209210124Y-88627856D01*
X209258505Y-88724618D01*
X208968219Y-87224809D02*
X208968219Y-87708618D01*
X209452029Y-87756999D01*
X209403648Y-87708618D01*
X209355267Y-87611856D01*
X209355267Y-87369952D01*
X209403648Y-87273190D01*
X209452029Y-87224809D01*
X209548790Y-87176428D01*
X209790695Y-87176428D01*
X209887457Y-87224809D01*
X209935838Y-87273190D01*
X209984219Y-87369952D01*
X209984219Y-87611856D01*
X209935838Y-87708618D01*
X209887457Y-87756999D01*
X209306886Y-86063666D02*
X209984219Y-85821761D01*
X209306886Y-85579857D01*
X209935838Y-84805762D02*
X209984219Y-84902524D01*
X209984219Y-85096047D01*
X209935838Y-85192809D01*
X209839076Y-85241190D01*
X209452029Y-85241190D01*
X209355267Y-85192809D01*
X209306886Y-85096047D01*
X209306886Y-84902524D01*
X209355267Y-84805762D01*
X209452029Y-84757381D01*
X209548790Y-84757381D01*
X209645552Y-85241190D01*
X209984219Y-84321952D02*
X209306886Y-84321952D01*
X209500410Y-84321952D02*
X209403648Y-84273571D01*
X209355267Y-84225190D01*
X209306886Y-84128428D01*
X209306886Y-84031667D01*
X209935838Y-83741381D02*
X209984219Y-83644619D01*
X209984219Y-83451095D01*
X209935838Y-83354334D01*
X209839076Y-83305953D01*
X209790695Y-83305953D01*
X209693933Y-83354334D01*
X209645552Y-83451095D01*
X209645552Y-83596238D01*
X209597171Y-83693000D01*
X209500410Y-83741381D01*
X209452029Y-83741381D01*
X209355267Y-83693000D01*
X209306886Y-83596238D01*
X209306886Y-83451095D01*
X209355267Y-83354334D01*
X209984219Y-82870524D02*
X209306886Y-82870524D01*
X208968219Y-82870524D02*
X209016600Y-82918905D01*
X209064981Y-82870524D01*
X209016600Y-82822143D01*
X208968219Y-82870524D01*
X209064981Y-82870524D01*
X209984219Y-82241571D02*
X209935838Y-82338333D01*
X209887457Y-82386714D01*
X209790695Y-82435095D01*
X209500410Y-82435095D01*
X209403648Y-82386714D01*
X209355267Y-82338333D01*
X209306886Y-82241571D01*
X209306886Y-82096429D01*
X209355267Y-81999667D01*
X209403648Y-81951286D01*
X209500410Y-81902905D01*
X209790695Y-81902905D01*
X209887457Y-81951286D01*
X209935838Y-81999667D01*
X209984219Y-82096429D01*
X209984219Y-82241571D01*
X209306886Y-81467476D02*
X209984219Y-81467476D01*
X209403648Y-81467476D02*
X209355267Y-81419095D01*
X209306886Y-81322333D01*
X209306886Y-81177191D01*
X209355267Y-81080429D01*
X209452029Y-81032048D01*
X209984219Y-81032048D01*
X209984219Y-79241953D02*
X209984219Y-79822524D01*
X209984219Y-79532238D02*
X208968219Y-79532238D01*
X209113362Y-79629000D01*
X209210124Y-79725762D01*
X209258505Y-79822524D01*
X209887457Y-78806524D02*
X209935838Y-78758143D01*
X209984219Y-78806524D01*
X209935838Y-78854905D01*
X209887457Y-78806524D01*
X209984219Y-78806524D01*
X208968219Y-78419476D02*
X208968219Y-77790524D01*
X209355267Y-78129190D01*
X209355267Y-77984048D01*
X209403648Y-77887286D01*
X209452029Y-77838905D01*
X209548790Y-77790524D01*
X209790695Y-77790524D01*
X209887457Y-77838905D01*
X209935838Y-77887286D01*
X209984219Y-77984048D01*
X209984219Y-78274333D01*
X209935838Y-78371095D01*
X209887457Y-78419476D01*
D12*
X108585000Y-121285000D02*
X99695000Y-121285000D01*
X108585000Y-125095000D02*
X99695000Y-125095000D01*
X102235000Y-126365000D02*
X101600000Y-125095000D01*
X101600000Y-125095000D02*
X100965000Y-126365000D01*
X100965000Y-126365000D02*
X102235000Y-126365000D01*
X108585000Y-125095000D02*
X108585000Y-121285000D01*
X99695000Y-121285000D02*
X99695000Y-125095000D01*
X200787000Y-88265000D02*
X199771000Y-89027000D01*
X202057000Y-88265000D02*
X200787000Y-88265000D01*
X197993000Y-88265000D02*
X199263000Y-88265000D01*
X202057000Y-90805000D02*
X202057000Y-85725000D01*
X197993000Y-90805000D02*
X197993000Y-85725000D01*
X196723000Y-91821000D02*
X203327000Y-91821000D01*
X203327000Y-91821000D02*
X203327000Y-84709000D01*
X203327000Y-84709000D02*
X196723000Y-84709000D01*
X196723000Y-84709000D02*
X196723000Y-91821000D01*
X198120000Y-97790000D02*
X198120000Y-107950000D01*
X198120000Y-107950000D02*
X211455000Y-107950000D01*
X198120000Y-97790000D02*
X211455000Y-97790000D01*
X211455000Y-97790000D02*
X211455000Y-107950000D01*
X198120000Y-121285000D02*
X206375000Y-121285000D01*
X206375000Y-121285000D02*
X206375000Y-109855000D01*
X206375000Y-109855000D02*
X198120000Y-109855000D01*
X198120000Y-109855000D02*
X198120000Y-121285000D01*
X131445000Y-115570000D02*
X133350000Y-112395000D01*
X116205000Y-115570000D02*
X114300000Y-112395000D01*
X131445000Y-115570000D02*
X131445000Y-124460000D01*
X131445000Y-124460000D02*
X116205000Y-124460000D01*
X116205000Y-124460000D02*
X116205000Y-115570000D01*
X131445000Y-90170000D02*
X133350000Y-93345000D01*
X116205000Y-90170000D02*
X114300000Y-93345000D01*
X116205000Y-81280000D02*
X131445000Y-81280000D01*
X131445000Y-90170000D02*
X131445000Y-81280000D01*
X116205000Y-90170000D02*
X116205000Y-81280000D01*
X133350000Y-112395000D02*
X133350000Y-93345000D01*
X114300000Y-112395000D02*
X114300000Y-93345000D01*
X117475000Y-122555000D02*
X130175000Y-122555000D01*
X130175000Y-122555000D02*
X130175000Y-83185000D01*
X130175000Y-83185000D02*
X117475000Y-83185000D01*
X117475000Y-83185000D02*
X117475000Y-122555000D01*
X152400000Y-115570000D02*
X154305000Y-112395000D01*
X137160000Y-115570000D02*
X135255000Y-112395000D01*
X152400000Y-115570000D02*
X152400000Y-124460000D01*
X152400000Y-124460000D02*
X137160000Y-124460000D01*
X137160000Y-124460000D02*
X137160000Y-115570000D01*
X152400000Y-90170000D02*
X154305000Y-93345000D01*
X137160000Y-90170000D02*
X135255000Y-93345000D01*
X137160000Y-81280000D02*
X152400000Y-81280000D01*
X152400000Y-90170000D02*
X152400000Y-81280000D01*
X137160000Y-90170000D02*
X137160000Y-81280000D01*
X154305000Y-112395000D02*
X154305000Y-93345000D01*
X135255000Y-112395000D02*
X135255000Y-93345000D01*
X138430000Y-122555000D02*
X151130000Y-122555000D01*
X151130000Y-122555000D02*
X151130000Y-83185000D01*
X151130000Y-83185000D02*
X138430000Y-83185000D01*
X138430000Y-83185000D02*
X138430000Y-122555000D01*
X173355000Y-115570000D02*
X175260000Y-112395000D01*
X158115000Y-115570000D02*
X156210000Y-112395000D01*
X173355000Y-115570000D02*
X173355000Y-124460000D01*
X173355000Y-124460000D02*
X158115000Y-124460000D01*
X158115000Y-124460000D02*
X158115000Y-115570000D01*
X173355000Y-90170000D02*
X175260000Y-93345000D01*
X158115000Y-90170000D02*
X156210000Y-93345000D01*
X158115000Y-81280000D02*
X173355000Y-81280000D01*
X173355000Y-90170000D02*
X173355000Y-81280000D01*
X158115000Y-90170000D02*
X158115000Y-81280000D01*
X175260000Y-112395000D02*
X175260000Y-93345000D01*
X156210000Y-112395000D02*
X156210000Y-93345000D01*
X159385000Y-122555000D02*
X172085000Y-122555000D01*
X172085000Y-122555000D02*
X172085000Y-83185000D01*
X172085000Y-83185000D02*
X159385000Y-83185000D01*
X159385000Y-83185000D02*
X159385000Y-122555000D01*
X102235000Y-83820000D02*
X101600000Y-82550000D01*
X101600000Y-82550000D02*
X100965000Y-83820000D01*
X100965000Y-83820000D02*
X102235000Y-83820000D01*
X108585000Y-84455000D02*
X99695000Y-84455000D01*
X99695000Y-84455000D02*
X99695000Y-82550000D01*
X108585000Y-84455000D02*
X108585000Y-82550000D01*
X108585000Y-82550000D02*
X108585000Y-78740000D01*
X108585000Y-78740000D02*
X99695000Y-78740000D01*
X99695000Y-78740000D02*
X99695000Y-82550000D01*
X99695000Y-82550000D02*
X108585000Y-82550000D01*
X102235000Y-92075000D02*
X101600000Y-90805000D01*
X101600000Y-90805000D02*
X100965000Y-92075000D01*
X100965000Y-92075000D02*
X102235000Y-92075000D01*
X108585000Y-92710000D02*
X99695000Y-92710000D01*
X99695000Y-92710000D02*
X99695000Y-90805000D01*
X108585000Y-92710000D02*
X108585000Y-90805000D01*
X108585000Y-90805000D02*
X108585000Y-86995000D01*
X108585000Y-86995000D02*
X99695000Y-86995000D01*
X99695000Y-86995000D02*
X99695000Y-90805000D01*
X99695000Y-90805000D02*
X108585000Y-90805000D01*
D15*
X176530000Y-118745000D02*
X177165000Y-118745000D01*
X177165000Y-118745000D02*
X177165000Y-121285000D01*
X177165000Y-121285000D02*
X176530000Y-121285000D01*
X176530000Y-117475000D02*
X177165000Y-117475000D01*
X186055000Y-122555000D02*
X186690000Y-122555000D01*
X186690000Y-117475000D02*
X184785000Y-117475000D01*
X176530000Y-122555000D02*
X178435000Y-122555000D01*
X186690000Y-117475000D02*
X186690000Y-122555000D01*
X176530000Y-117475000D02*
X176530000Y-122555000D01*
D12*
X182245000Y-85090000D02*
X182245000Y-91440000D01*
X186055000Y-85090000D02*
X186055000Y-91440000D01*
X187960000Y-85090000D02*
X187960000Y-91440000D01*
X187325000Y-88900000D02*
X186055000Y-89535000D01*
X186055000Y-89535000D02*
X187325000Y-90170000D01*
X187325000Y-90170000D02*
X187325000Y-88900000D01*
X187960000Y-91440000D02*
X186055000Y-91440000D01*
X187960000Y-85090000D02*
X186055000Y-85090000D01*
X186055000Y-85090000D02*
X182245000Y-85090000D01*
X182245000Y-91440000D02*
X186055000Y-91440000D01*
X102235000Y-118110000D02*
X101600000Y-116840000D01*
X101600000Y-116840000D02*
X100965000Y-118110000D01*
X100965000Y-118110000D02*
X102235000Y-118110000D01*
X108585000Y-118745000D02*
X99695000Y-118745000D01*
X99695000Y-118745000D02*
X99695000Y-116840000D01*
X108585000Y-118745000D02*
X108585000Y-116840000D01*
X108585000Y-116840000D02*
X108585000Y-113030000D01*
X108585000Y-113030000D02*
X99695000Y-113030000D01*
X99695000Y-113030000D02*
X99695000Y-116840000D01*
X99695000Y-116840000D02*
X108585000Y-116840000D01*
X105410000Y-100330000D02*
X104648000Y-99568000D01*
X106680000Y-104140000D02*
X105156000Y-105156000D01*
X93345000Y-109220000D02*
X92710000Y-109220000D01*
X92710000Y-109220000D02*
X92710000Y-96520000D01*
X92710000Y-96520000D02*
X93345000Y-96520000D01*
X93345000Y-110490000D02*
X109220000Y-110490000D01*
X109220000Y-110490000D02*
X109220000Y-95250000D01*
X109220000Y-95250000D02*
X93345000Y-95250000D01*
X93345000Y-95250000D02*
X93345000Y-110490000D01*
X107315000Y-98552000D02*
X103505000Y-102362000D01*
X106680000Y-102870000D02*
X106680000Y-105410000D01*
D15*
X188595000Y-109372400D02*
X188595000Y-96367600D01*
X188595000Y-96367600D02*
X175895000Y-96367600D01*
X175895000Y-96367600D02*
X175895000Y-109372400D01*
X175895000Y-109372400D02*
X188595000Y-109372400D01*
X182753000Y-110617000D02*
X182753000Y-111633000D01*
X182245000Y-111125000D02*
X183261000Y-111125000D01*
X186055000Y-109855000D02*
X186055000Y-112395000D01*
X186055000Y-112395000D02*
X178435000Y-112395000D01*
X178435000Y-112395000D02*
X178435000Y-109855000D01*
X178435000Y-109855000D02*
X186055000Y-109855000D01*
D13*
X110314619Y-123939904D02*
X109298619Y-123939904D01*
X109298619Y-123552857D01*
X109347000Y-123456095D01*
X109395381Y-123407714D01*
X109492143Y-123359333D01*
X109637286Y-123359333D01*
X109734048Y-123407714D01*
X109782429Y-123456095D01*
X109830810Y-123552857D01*
X109830810Y-123939904D01*
X109395381Y-122972285D02*
X109347000Y-122923904D01*
X109298619Y-122827142D01*
X109298619Y-122585238D01*
X109347000Y-122488476D01*
X109395381Y-122440095D01*
X109492143Y-122391714D01*
X109588905Y-122391714D01*
X109734048Y-122440095D01*
X110314619Y-123020666D01*
X110314619Y-122391714D01*
X200436238Y-83777666D02*
X200484619Y-83632523D01*
X200484619Y-83390619D01*
X200436238Y-83293857D01*
X200387857Y-83245476D01*
X200291095Y-83197095D01*
X200194333Y-83197095D01*
X200097571Y-83245476D01*
X200049190Y-83293857D01*
X200000810Y-83390619D01*
X199952429Y-83584142D01*
X199904048Y-83680904D01*
X199855667Y-83729285D01*
X199758905Y-83777666D01*
X199662143Y-83777666D01*
X199565381Y-83729285D01*
X199517000Y-83680904D01*
X199468619Y-83584142D01*
X199468619Y-83342238D01*
X199517000Y-83197095D01*
X199468619Y-82858428D02*
X200484619Y-82616523D01*
X199758905Y-82423000D01*
X200484619Y-82229476D01*
X199468619Y-81987571D01*
X199565381Y-81648904D02*
X199517000Y-81600523D01*
X199468619Y-81503761D01*
X199468619Y-81261857D01*
X199517000Y-81165095D01*
X199565381Y-81116714D01*
X199662143Y-81068333D01*
X199758905Y-81068333D01*
X199904048Y-81116714D01*
X200484619Y-81697285D01*
X200484619Y-81068333D01*
X199952429Y-94445667D02*
X200000810Y-94300524D01*
X200049190Y-94252143D01*
X200145952Y-94203762D01*
X200291095Y-94203762D01*
X200387857Y-94252143D01*
X200436238Y-94300524D01*
X200484619Y-94397286D01*
X200484619Y-94784333D01*
X199468619Y-94784333D01*
X199468619Y-94445667D01*
X199517000Y-94348905D01*
X199565381Y-94300524D01*
X199662143Y-94252143D01*
X199758905Y-94252143D01*
X199855667Y-94300524D01*
X199904048Y-94348905D01*
X199952429Y-94445667D01*
X199952429Y-94784333D01*
X199468619Y-93913476D02*
X199468619Y-93332905D01*
X200484619Y-93623190D02*
X199468619Y-93623190D01*
X200484619Y-92994238D02*
X199468619Y-92994238D01*
X200484619Y-92413667D01*
X199468619Y-92413667D01*
X209435096Y-109679619D02*
X209435096Y-108663619D01*
X209822143Y-108663619D01*
X209918905Y-108712000D01*
X209967286Y-108760381D01*
X210015667Y-108857143D01*
X210015667Y-109002286D01*
X209967286Y-109099048D01*
X209918905Y-109147429D01*
X209822143Y-109195810D01*
X209435096Y-109195810D01*
X210983286Y-109679619D02*
X210402715Y-109679619D01*
X210693001Y-109679619D02*
X210693001Y-108663619D01*
X210596239Y-108808762D01*
X210499477Y-108905524D01*
X210402715Y-108953905D01*
X208104619Y-116706952D02*
X207620810Y-117045618D01*
X208104619Y-117287523D02*
X207088619Y-117287523D01*
X207088619Y-116900476D01*
X207137000Y-116803714D01*
X207185381Y-116755333D01*
X207282143Y-116706952D01*
X207427286Y-116706952D01*
X207524048Y-116755333D01*
X207572429Y-116803714D01*
X207620810Y-116900476D01*
X207620810Y-117287523D01*
X207572429Y-116271523D02*
X207572429Y-115932857D01*
X208104619Y-115787714D02*
X208104619Y-116271523D01*
X207088619Y-116271523D01*
X207088619Y-115787714D01*
X207137000Y-114820095D02*
X207088619Y-114916857D01*
X207088619Y-115062000D01*
X207137000Y-115207142D01*
X207233762Y-115303904D01*
X207330524Y-115352285D01*
X207524048Y-115400666D01*
X207669190Y-115400666D01*
X207862714Y-115352285D01*
X207959476Y-115303904D01*
X208056238Y-115207142D01*
X208104619Y-115062000D01*
X208104619Y-114965238D01*
X208056238Y-114820095D01*
X208007857Y-114771714D01*
X207669190Y-114771714D01*
X207669190Y-114965238D01*
X208104619Y-113804095D02*
X208104619Y-114384666D01*
X208104619Y-114094380D02*
X207088619Y-114094380D01*
X207233762Y-114191142D01*
X207330524Y-114287904D01*
X207378905Y-114384666D01*
X114378619Y-119083667D02*
X115104333Y-119083667D01*
X115249476Y-119132047D01*
X115346238Y-119228809D01*
X115394619Y-119373952D01*
X115394619Y-119470714D01*
X115394619Y-118067667D02*
X115394619Y-118648238D01*
X115394619Y-118357952D02*
X114378619Y-118357952D01*
X114523762Y-118454714D01*
X114620524Y-118551476D01*
X114668905Y-118648238D01*
X135333619Y-119083667D02*
X136059333Y-119083667D01*
X136204476Y-119132047D01*
X136301238Y-119228809D01*
X136349619Y-119373952D01*
X136349619Y-119470714D01*
X135430381Y-118648238D02*
X135382000Y-118599857D01*
X135333619Y-118503095D01*
X135333619Y-118261191D01*
X135382000Y-118164429D01*
X135430381Y-118116048D01*
X135527143Y-118067667D01*
X135623905Y-118067667D01*
X135769048Y-118116048D01*
X136349619Y-118696619D01*
X136349619Y-118067667D01*
X156288619Y-119083667D02*
X157014333Y-119083667D01*
X157159476Y-119132047D01*
X157256238Y-119228809D01*
X157304619Y-119373952D01*
X157304619Y-119470714D01*
X156288619Y-118696619D02*
X156288619Y-118067667D01*
X156675667Y-118406333D01*
X156675667Y-118261191D01*
X156724048Y-118164429D01*
X156772429Y-118116048D01*
X156869190Y-118067667D01*
X157111095Y-118067667D01*
X157207857Y-118116048D01*
X157256238Y-118164429D01*
X157304619Y-118261191D01*
X157304619Y-118551476D01*
X157256238Y-118648238D01*
X157207857Y-118696619D01*
X110314619Y-84569904D02*
X109298619Y-84569904D01*
X109298619Y-84182857D01*
X109347000Y-84086095D01*
X109395381Y-84037714D01*
X109492143Y-83989333D01*
X109637286Y-83989333D01*
X109734048Y-84037714D01*
X109782429Y-84086095D01*
X109830810Y-84182857D01*
X109830810Y-84569904D01*
X109637286Y-83118476D02*
X110314619Y-83118476D01*
X109250238Y-83360380D02*
X109975952Y-83602285D01*
X109975952Y-82973333D01*
X110314619Y-92824904D02*
X109298619Y-92824904D01*
X109298619Y-92437857D01*
X109347000Y-92341095D01*
X109395381Y-92292714D01*
X109492143Y-92244333D01*
X109637286Y-92244333D01*
X109734048Y-92292714D01*
X109782429Y-92341095D01*
X109830810Y-92437857D01*
X109830810Y-92824904D01*
X109298619Y-91325095D02*
X109298619Y-91808904D01*
X109782429Y-91857285D01*
X109734048Y-91808904D01*
X109685667Y-91712142D01*
X109685667Y-91470238D01*
X109734048Y-91373476D01*
X109782429Y-91325095D01*
X109879190Y-91276714D01*
X110121095Y-91276714D01*
X110217857Y-91325095D01*
X110266238Y-91373476D01*
X110314619Y-91470238D01*
X110314619Y-91712142D01*
X110266238Y-91808904D01*
X110217857Y-91857285D01*
X186623477Y-123752429D02*
X186962143Y-123752429D01*
X187107286Y-124284619D02*
X186623477Y-124284619D01*
X186623477Y-123268619D01*
X187107286Y-123268619D01*
X188074905Y-124284619D02*
X187494334Y-124284619D01*
X187784620Y-124284619D02*
X187784620Y-123268619D01*
X187687858Y-123413762D01*
X187591096Y-123510524D01*
X187494334Y-123558905D01*
X183375905Y-84231238D02*
X183521048Y-84279619D01*
X183762952Y-84279619D01*
X183859714Y-84231238D01*
X183908095Y-84182857D01*
X183956476Y-84086095D01*
X183956476Y-83989333D01*
X183908095Y-83892571D01*
X183859714Y-83844190D01*
X183762952Y-83795810D01*
X183569429Y-83747429D01*
X183472667Y-83699048D01*
X183424286Y-83650667D01*
X183375905Y-83553905D01*
X183375905Y-83457143D01*
X183424286Y-83360381D01*
X183472667Y-83312000D01*
X183569429Y-83263619D01*
X183811333Y-83263619D01*
X183956476Y-83312000D01*
X184924095Y-84279619D02*
X184343524Y-84279619D01*
X184633810Y-84279619D02*
X184633810Y-83263619D01*
X184537048Y-83408762D01*
X184440286Y-83505524D01*
X184343524Y-83553905D01*
X110314619Y-118859904D02*
X109298619Y-118859904D01*
X109298619Y-118472857D01*
X109347000Y-118376095D01*
X109395381Y-118327714D01*
X109492143Y-118279333D01*
X109637286Y-118279333D01*
X109734048Y-118327714D01*
X109782429Y-118376095D01*
X109830810Y-118472857D01*
X109830810Y-118859904D01*
X109298619Y-117408476D02*
X109298619Y-117601999D01*
X109347000Y-117698761D01*
X109395381Y-117747142D01*
X109540524Y-117843904D01*
X109734048Y-117892285D01*
X110121095Y-117892285D01*
X110217857Y-117843904D01*
X110266238Y-117795523D01*
X110314619Y-117698761D01*
X110314619Y-117505238D01*
X110266238Y-117408476D01*
X110217857Y-117360095D01*
X110121095Y-117311714D01*
X109879190Y-117311714D01*
X109782429Y-117360095D01*
X109734048Y-117408476D01*
X109685667Y-117505238D01*
X109685667Y-117698761D01*
X109734048Y-117795523D01*
X109782429Y-117843904D01*
X109879190Y-117892285D01*
X93738096Y-111965619D02*
X93738096Y-110949619D01*
X94125143Y-110949619D01*
X94221905Y-110998000D01*
X94270286Y-111046381D01*
X94318667Y-111143143D01*
X94318667Y-111288286D01*
X94270286Y-111385048D01*
X94221905Y-111433429D01*
X94125143Y-111481810D01*
X93738096Y-111481810D01*
X94657334Y-110949619D02*
X95286286Y-110949619D01*
X94947620Y-111336667D01*
X95092762Y-111336667D01*
X95189524Y-111385048D01*
X95237905Y-111433429D01*
X95286286Y-111530190D01*
X95286286Y-111772095D01*
X95237905Y-111868857D01*
X95189524Y-111917238D01*
X95092762Y-111965619D01*
X94802477Y-111965619D01*
X94705715Y-111917238D01*
X94657334Y-111868857D01*
X111457619Y-111385047D02*
X111457619Y-110804476D01*
X112473619Y-111094761D02*
X111457619Y-111094761D01*
X112473619Y-110320666D02*
X112425238Y-110417428D01*
X112376857Y-110465809D01*
X112280095Y-110514190D01*
X111989810Y-110514190D01*
X111893048Y-110465809D01*
X111844667Y-110417428D01*
X111796286Y-110320666D01*
X111796286Y-110175524D01*
X111844667Y-110078762D01*
X111893048Y-110030381D01*
X111989810Y-109982000D01*
X112280095Y-109982000D01*
X112376857Y-110030381D01*
X112425238Y-110078762D01*
X112473619Y-110175524D01*
X112473619Y-110320666D01*
X111796286Y-109546571D02*
X112812286Y-109546571D01*
X111844667Y-109546571D02*
X111796286Y-109449809D01*
X111796286Y-109256286D01*
X111844667Y-109159524D01*
X111893048Y-109111143D01*
X111989810Y-109062762D01*
X112280095Y-109062762D01*
X112376857Y-109111143D01*
X112425238Y-109159524D01*
X112473619Y-109256286D01*
X112473619Y-109449809D01*
X112425238Y-109546571D01*
X112376857Y-108627333D02*
X112425238Y-108578952D01*
X112473619Y-108627333D01*
X112425238Y-108675714D01*
X112376857Y-108627333D01*
X112473619Y-108627333D01*
X111844667Y-108627333D02*
X111893048Y-108578952D01*
X111941429Y-108627333D01*
X111893048Y-108675714D01*
X111844667Y-108627333D01*
X111941429Y-108627333D01*
X111941429Y-107030762D02*
X111989810Y-106885619D01*
X112038190Y-106837238D01*
X112134952Y-106788857D01*
X112280095Y-106788857D01*
X112376857Y-106837238D01*
X112425238Y-106885619D01*
X112473619Y-106982381D01*
X112473619Y-107369428D01*
X111457619Y-107369428D01*
X111457619Y-107030762D01*
X111506000Y-106934000D01*
X111554381Y-106885619D01*
X111651143Y-106837238D01*
X111747905Y-106837238D01*
X111844667Y-106885619D01*
X111893048Y-106934000D01*
X111941429Y-107030762D01*
X111941429Y-107369428D01*
X112473619Y-106353428D02*
X111457619Y-106353428D01*
X112473619Y-105772857D01*
X111457619Y-105772857D01*
X112376857Y-104708476D02*
X112425238Y-104756857D01*
X112473619Y-104902000D01*
X112473619Y-104998762D01*
X112425238Y-105143904D01*
X112328476Y-105240666D01*
X112231714Y-105289047D01*
X112038190Y-105337428D01*
X111893048Y-105337428D01*
X111699524Y-105289047D01*
X111602762Y-105240666D01*
X111506000Y-105143904D01*
X111457619Y-104998762D01*
X111457619Y-104902000D01*
X111506000Y-104756857D01*
X111554381Y-104708476D01*
X111941429Y-103160286D02*
X111989810Y-103015143D01*
X112038190Y-102966762D01*
X112134952Y-102918381D01*
X112280095Y-102918381D01*
X112376857Y-102966762D01*
X112425238Y-103015143D01*
X112473619Y-103111905D01*
X112473619Y-103498952D01*
X111457619Y-103498952D01*
X111457619Y-103160286D01*
X111506000Y-103063524D01*
X111554381Y-103015143D01*
X111651143Y-102966762D01*
X111747905Y-102966762D01*
X111844667Y-103015143D01*
X111893048Y-103063524D01*
X111941429Y-103160286D01*
X111941429Y-103498952D01*
X112860667Y-101418572D02*
X112812286Y-101466952D01*
X112667143Y-101563714D01*
X112570381Y-101612095D01*
X112425238Y-101660476D01*
X112183333Y-101708857D01*
X111989810Y-101708857D01*
X111747905Y-101660476D01*
X111602762Y-101612095D01*
X111506000Y-101563714D01*
X111360857Y-101466952D01*
X111312476Y-101418572D01*
X111457619Y-101176667D02*
X111457619Y-100596096D01*
X112473619Y-100886381D02*
X111457619Y-100886381D01*
X112473619Y-99676858D02*
X111989810Y-100015524D01*
X112473619Y-100257429D02*
X111457619Y-100257429D01*
X111457619Y-99870382D01*
X111506000Y-99773620D01*
X111554381Y-99725239D01*
X111651143Y-99676858D01*
X111796286Y-99676858D01*
X111893048Y-99725239D01*
X111941429Y-99773620D01*
X111989810Y-99870382D01*
X111989810Y-100257429D01*
X112473619Y-99241429D02*
X111457619Y-99241429D01*
X111506000Y-98225429D02*
X111457619Y-98322191D01*
X111457619Y-98467334D01*
X111506000Y-98612476D01*
X111602762Y-98709238D01*
X111699524Y-98757619D01*
X111893048Y-98806000D01*
X112038190Y-98806000D01*
X112231714Y-98757619D01*
X112328476Y-98709238D01*
X112425238Y-98612476D01*
X112473619Y-98467334D01*
X112473619Y-98370572D01*
X112425238Y-98225429D01*
X112376857Y-98177048D01*
X112038190Y-98177048D01*
X112038190Y-98370572D01*
X111409238Y-97015905D02*
X112715524Y-97886762D01*
X112473619Y-96677238D02*
X111457619Y-96677238D01*
X111457619Y-96435333D01*
X111506000Y-96290191D01*
X111602762Y-96193429D01*
X111699524Y-96145048D01*
X111893048Y-96096667D01*
X112038190Y-96096667D01*
X112231714Y-96145048D01*
X112328476Y-96193429D01*
X112425238Y-96290191D01*
X112473619Y-96435333D01*
X112473619Y-96677238D01*
X111457619Y-95758000D02*
X111457619Y-95129048D01*
X111844667Y-95467714D01*
X111844667Y-95322572D01*
X111893048Y-95225810D01*
X111941429Y-95177429D01*
X112038190Y-95129048D01*
X112280095Y-95129048D01*
X112376857Y-95177429D01*
X112425238Y-95225810D01*
X112473619Y-95322572D01*
X112473619Y-95612857D01*
X112425238Y-95709619D01*
X112376857Y-95758000D01*
X112860667Y-94790381D02*
X112812286Y-94742000D01*
X112667143Y-94645238D01*
X112570381Y-94596857D01*
X112425238Y-94548476D01*
X112183333Y-94500095D01*
X111989810Y-94500095D01*
X111747905Y-94548476D01*
X111602762Y-94596857D01*
X111506000Y-94645238D01*
X111360857Y-94742000D01*
X111312476Y-94790381D01*
X110163429Y-109957809D02*
X110211810Y-109812666D01*
X110260190Y-109764285D01*
X110356952Y-109715904D01*
X110502095Y-109715904D01*
X110598857Y-109764285D01*
X110647238Y-109812666D01*
X110695619Y-109909428D01*
X110695619Y-110296475D01*
X109679619Y-110296475D01*
X109679619Y-109957809D01*
X109728000Y-109861047D01*
X109776381Y-109812666D01*
X109873143Y-109764285D01*
X109969905Y-109764285D01*
X110066667Y-109812666D01*
X110115048Y-109861047D01*
X110163429Y-109957809D01*
X110163429Y-110296475D01*
X110695619Y-109135332D02*
X110647238Y-109232094D01*
X110598857Y-109280475D01*
X110502095Y-109328856D01*
X110211810Y-109328856D01*
X110115048Y-109280475D01*
X110066667Y-109232094D01*
X110018286Y-109135332D01*
X110018286Y-108990190D01*
X110066667Y-108893428D01*
X110115048Y-108845047D01*
X110211810Y-108796666D01*
X110502095Y-108796666D01*
X110598857Y-108845047D01*
X110647238Y-108893428D01*
X110695619Y-108990190D01*
X110695619Y-109135332D01*
X110018286Y-108506380D02*
X110018286Y-108119332D01*
X109679619Y-108361237D02*
X110550476Y-108361237D01*
X110647238Y-108312856D01*
X110695619Y-108216094D01*
X110695619Y-108119332D01*
X110018286Y-107925809D02*
X110018286Y-107538761D01*
X109679619Y-107780666D02*
X110550476Y-107780666D01*
X110647238Y-107732285D01*
X110695619Y-107635523D01*
X110695619Y-107538761D01*
X110695619Y-107054952D02*
X110647238Y-107151714D01*
X110598857Y-107200095D01*
X110502095Y-107248476D01*
X110211810Y-107248476D01*
X110115048Y-107200095D01*
X110066667Y-107151714D01*
X110018286Y-107054952D01*
X110018286Y-106909810D01*
X110066667Y-106813048D01*
X110115048Y-106764667D01*
X110211810Y-106716286D01*
X110502095Y-106716286D01*
X110598857Y-106764667D01*
X110647238Y-106813048D01*
X110695619Y-106909810D01*
X110695619Y-107054952D01*
X110695619Y-106280857D02*
X110018286Y-106280857D01*
X110115048Y-106280857D02*
X110066667Y-106232476D01*
X110018286Y-106135714D01*
X110018286Y-105990572D01*
X110066667Y-105893810D01*
X110163429Y-105845429D01*
X110695619Y-105845429D01*
X110163429Y-105845429D02*
X110066667Y-105797048D01*
X110018286Y-105700286D01*
X110018286Y-105555143D01*
X110066667Y-105458381D01*
X110163429Y-105410000D01*
X110695619Y-105410000D01*
X110598857Y-104926190D02*
X110647238Y-104877809D01*
X110695619Y-104926190D01*
X110647238Y-104974571D01*
X110598857Y-104926190D01*
X110695619Y-104926190D01*
X110066667Y-104926190D02*
X110115048Y-104877809D01*
X110163429Y-104926190D01*
X110115048Y-104974571D01*
X110066667Y-104926190D01*
X110163429Y-104926190D01*
X110163429Y-103329619D02*
X110211810Y-103184476D01*
X110260190Y-103136095D01*
X110356952Y-103087714D01*
X110502095Y-103087714D01*
X110598857Y-103136095D01*
X110647238Y-103184476D01*
X110695619Y-103281238D01*
X110695619Y-103668285D01*
X109679619Y-103668285D01*
X109679619Y-103329619D01*
X109728000Y-103232857D01*
X109776381Y-103184476D01*
X109873143Y-103136095D01*
X109969905Y-103136095D01*
X110066667Y-103184476D01*
X110115048Y-103232857D01*
X110163429Y-103329619D01*
X110163429Y-103668285D01*
X110695619Y-102652285D02*
X109679619Y-102652285D01*
X110695619Y-102071714D01*
X109679619Y-102071714D01*
X110598857Y-101007333D02*
X110647238Y-101055714D01*
X110695619Y-101200857D01*
X110695619Y-101297619D01*
X110647238Y-101442761D01*
X110550476Y-101539523D01*
X110453714Y-101587904D01*
X110260190Y-101636285D01*
X110115048Y-101636285D01*
X109921524Y-101587904D01*
X109824762Y-101539523D01*
X109728000Y-101442761D01*
X109679619Y-101297619D01*
X109679619Y-101200857D01*
X109728000Y-101055714D01*
X109776381Y-101007333D01*
X110405333Y-99846190D02*
X110405333Y-99362381D01*
X110695619Y-99942952D02*
X109679619Y-99604285D01*
X110695619Y-99265619D01*
X111082667Y-97862572D02*
X111034286Y-97910952D01*
X110889143Y-98007714D01*
X110792381Y-98056095D01*
X110647238Y-98104476D01*
X110405333Y-98152857D01*
X110211810Y-98152857D01*
X109969905Y-98104476D01*
X109824762Y-98056095D01*
X109728000Y-98007714D01*
X109582857Y-97910952D01*
X109534476Y-97862572D01*
X110405333Y-97523905D02*
X110405333Y-97040096D01*
X110695619Y-97620667D02*
X109679619Y-97282000D01*
X110695619Y-96943334D01*
X109679619Y-96411143D02*
X109679619Y-96314382D01*
X109728000Y-96217620D01*
X109776381Y-96169239D01*
X109873143Y-96120858D01*
X110066667Y-96072477D01*
X110308571Y-96072477D01*
X110502095Y-96120858D01*
X110598857Y-96169239D01*
X110647238Y-96217620D01*
X110695619Y-96314382D01*
X110695619Y-96411143D01*
X110647238Y-96507905D01*
X110598857Y-96556286D01*
X110502095Y-96604667D01*
X110308571Y-96653048D01*
X110066667Y-96653048D01*
X109873143Y-96604667D01*
X109776381Y-96556286D01*
X109728000Y-96507905D01*
X109679619Y-96411143D01*
X111082667Y-95733810D02*
X111034286Y-95685429D01*
X110889143Y-95588667D01*
X110792381Y-95540286D01*
X110647238Y-95491905D01*
X110405333Y-95443524D01*
X110211810Y-95443524D01*
X109969905Y-95491905D01*
X109824762Y-95540286D01*
X109728000Y-95588667D01*
X109582857Y-95685429D01*
X109534476Y-95733810D01*
X104321429Y-98733429D02*
X104369810Y-98588286D01*
X104418190Y-98539905D01*
X104514952Y-98491524D01*
X104660095Y-98491524D01*
X104756857Y-98539905D01*
X104805238Y-98588286D01*
X104853619Y-98685048D01*
X104853619Y-99072095D01*
X103837619Y-99072095D01*
X103837619Y-98733429D01*
X103886000Y-98636667D01*
X103934381Y-98588286D01*
X104031143Y-98539905D01*
X104127905Y-98539905D01*
X104224667Y-98588286D01*
X104273048Y-98636667D01*
X104321429Y-98733429D01*
X104321429Y-99072095D01*
X103583619Y-105700285D02*
X103583619Y-105119714D01*
X104599619Y-105409999D02*
X103583619Y-105409999D01*
X175810334Y-95661238D02*
X175955477Y-95709619D01*
X176197381Y-95709619D01*
X176294143Y-95661238D01*
X176342524Y-95612857D01*
X176390905Y-95516095D01*
X176390905Y-95419333D01*
X176342524Y-95322571D01*
X176294143Y-95274190D01*
X176197381Y-95225810D01*
X176003858Y-95177429D01*
X175907096Y-95129048D01*
X175858715Y-95080667D01*
X175810334Y-94983905D01*
X175810334Y-94887143D01*
X175858715Y-94790381D01*
X175907096Y-94742000D01*
X176003858Y-94693619D01*
X176245762Y-94693619D01*
X176390905Y-94742000D01*
X176729572Y-94693619D02*
X176971477Y-95709619D01*
X177165000Y-94983905D01*
X177358524Y-95709619D01*
X177600429Y-94693619D01*
X178519667Y-95709619D02*
X177939096Y-95709619D01*
X178229382Y-95709619D02*
X178229382Y-94693619D01*
X178132620Y-94838762D01*
X178035858Y-94935524D01*
X177939096Y-94983905D01*
D12*
X179922715Y-95304429D02*
X179197001Y-95304429D01*
X179197001Y-93780429D01*
X180430715Y-95304429D02*
X180430715Y-94288429D01*
X180430715Y-93780429D02*
X180358144Y-93853000D01*
X180430715Y-93925571D01*
X180503287Y-93853000D01*
X180430715Y-93780429D01*
X180430715Y-93925571D01*
X181809572Y-94288429D02*
X181809572Y-95522143D01*
X181737001Y-95667286D01*
X181664429Y-95739857D01*
X181519286Y-95812429D01*
X181301572Y-95812429D01*
X181156429Y-95739857D01*
X181809572Y-95231857D02*
X181664429Y-95304429D01*
X181374143Y-95304429D01*
X181229001Y-95231857D01*
X181156429Y-95159286D01*
X181083858Y-95014143D01*
X181083858Y-94578714D01*
X181156429Y-94433571D01*
X181229001Y-94361000D01*
X181374143Y-94288429D01*
X181664429Y-94288429D01*
X181809572Y-94361000D01*
X182535286Y-95304429D02*
X182535286Y-93780429D01*
X183188429Y-95304429D02*
X183188429Y-94506143D01*
X183115858Y-94361000D01*
X182970715Y-94288429D01*
X182753000Y-94288429D01*
X182607858Y-94361000D01*
X182535286Y-94433571D01*
X183696429Y-94288429D02*
X184277000Y-94288429D01*
X183914143Y-93780429D02*
X183914143Y-95086714D01*
X183986715Y-95231857D01*
X184131857Y-95304429D01*
X184277000Y-95304429D01*
X184712429Y-95231857D02*
X184857572Y-95304429D01*
X185147857Y-95304429D01*
X185293000Y-95231857D01*
X185365572Y-95086714D01*
X185365572Y-95014143D01*
X185293000Y-94869000D01*
X185147857Y-94796429D01*
X184930143Y-94796429D01*
X184785000Y-94723857D01*
X184712429Y-94578714D01*
X184712429Y-94506143D01*
X184785000Y-94361000D01*
X184930143Y-94288429D01*
X185147857Y-94288429D01*
X185293000Y-94361000D01*
D11*
X186599285Y-110072714D02*
X186744428Y-110072714D01*
X186817000Y-110109000D01*
X186889571Y-110181571D01*
X186925857Y-110326714D01*
X186925857Y-110580714D01*
X186889571Y-110725857D01*
X186817000Y-110798429D01*
X186744428Y-110834714D01*
X186599285Y-110834714D01*
X186526714Y-110798429D01*
X186454143Y-110725857D01*
X186417857Y-110580714D01*
X186417857Y-110326714D01*
X186454143Y-110181571D01*
X186526714Y-110109000D01*
X186599285Y-110072714D01*
X187506429Y-110435571D02*
X187252429Y-110435571D01*
X187252429Y-110834714D02*
X187252429Y-110072714D01*
X187615286Y-110072714D01*
X188159572Y-110435571D02*
X187905572Y-110435571D01*
X187905572Y-110834714D02*
X187905572Y-110072714D01*
X188268429Y-110072714D01*
X186853285Y-94832714D02*
X186998428Y-94832714D01*
X187071000Y-94869000D01*
X187143571Y-94941571D01*
X187179857Y-95086714D01*
X187179857Y-95340714D01*
X187143571Y-95485857D01*
X187071000Y-95558429D01*
X186998428Y-95594714D01*
X186853285Y-95594714D01*
X186780714Y-95558429D01*
X186708143Y-95485857D01*
X186671857Y-95340714D01*
X186671857Y-95086714D01*
X186708143Y-94941571D01*
X186780714Y-94869000D01*
X186853285Y-94832714D01*
X187506429Y-95594714D02*
X187506429Y-94832714D01*
X187941857Y-95594714D01*
X187941857Y-94832714D01*
D13*
X176415096Y-111584619D02*
X176415096Y-110568619D01*
X176657001Y-110568619D01*
X176802143Y-110617000D01*
X176898905Y-110713762D01*
X176947286Y-110810524D01*
X176995667Y-111004048D01*
X176995667Y-111149190D01*
X176947286Y-111342714D01*
X176898905Y-111439476D01*
X176802143Y-111536238D01*
X176657001Y-111584619D01*
X176415096Y-111584619D01*
X177963286Y-111584619D02*
X177382715Y-111584619D01*
X177673001Y-111584619D02*
X177673001Y-110568619D01*
X177576239Y-110713762D01*
X177479477Y-110810524D01*
X177382715Y-110858905D01*
%LPC*%
D16*
X104140000Y-123190000D03*
X106680000Y-123190000D03*
D17*
X101600000Y-123190000D03*
D18*
X198026020Y-84137500D03*
X198026020Y-92392500D03*
X202023980Y-84137500D03*
X202023980Y-92392500D03*
D19*
X208457800Y-102870000D03*
D20*
X204952600Y-102870000D03*
D21*
X199466200Y-102870000D03*
D22*
X206451200Y-98374200D03*
X206451200Y-107365800D03*
D23*
X200025000Y-115570000D03*
X200025000Y-118110000D03*
X200025000Y-113030000D03*
D24*
X111760000Y-127000000D03*
X113030000Y-78740000D03*
X194310000Y-127000000D03*
X187960000Y-78740000D03*
D25*
X125730000Y-127000000D03*
X128270000Y-127000000D03*
X130810000Y-127000000D03*
X133350000Y-127000000D03*
X135890000Y-127000000D03*
X138430000Y-127000000D03*
X140970000Y-127000000D03*
X143510000Y-127000000D03*
X148590000Y-127000000D03*
X151130000Y-127000000D03*
X153670000Y-127000000D03*
X156210000Y-127000000D03*
X158750000Y-127000000D03*
X161290000Y-127000000D03*
X163830000Y-127000000D03*
X166370000Y-127000000D03*
X171450000Y-127000000D03*
X173990000Y-127000000D03*
X176530000Y-127000000D03*
X179070000Y-127000000D03*
X181610000Y-127000000D03*
X184150000Y-127000000D03*
X186690000Y-127000000D03*
X189230000Y-127000000D03*
X116586000Y-78740000D03*
X119126000Y-78740000D03*
X121666000Y-78740000D03*
X124206000Y-78740000D03*
X126746000Y-78740000D03*
X129286000Y-78740000D03*
X131826000Y-78740000D03*
X134366000Y-78740000D03*
X136906000Y-78740000D03*
X139446000Y-78740000D03*
X143510000Y-78740000D03*
X161290000Y-78740000D03*
X158750000Y-78740000D03*
X156210000Y-78740000D03*
X153670000Y-78740000D03*
X151130000Y-78740000D03*
X148590000Y-78740000D03*
X146050000Y-78740000D03*
X166370000Y-78740000D03*
X168910000Y-78740000D03*
X171450000Y-78740000D03*
X173990000Y-78740000D03*
X176530000Y-78740000D03*
X179070000Y-78740000D03*
X181610000Y-78740000D03*
X184150000Y-78740000D03*
X191770000Y-78232000D03*
X194310000Y-78232000D03*
D23*
X191262000Y-81280000D03*
X194818000Y-81280000D03*
X191262000Y-83820000D03*
X194818000Y-83820000D03*
X191262000Y-86360000D03*
X194818000Y-86360000D03*
X191262000Y-88900000D03*
X194818000Y-88900000D03*
X191262000Y-91440000D03*
X194818000Y-91440000D03*
X191262000Y-93980000D03*
X194818000Y-93980000D03*
X191262000Y-96520000D03*
X194818000Y-96520000D03*
X191262000Y-99060000D03*
X194818000Y-99060000D03*
X191262000Y-101600000D03*
X194818000Y-101600000D03*
X191262000Y-104140000D03*
X194818000Y-104140000D03*
X191262000Y-106680000D03*
X194818000Y-106680000D03*
X191262000Y-109220000D03*
X194818000Y-109220000D03*
X191262000Y-111760000D03*
X194818000Y-111760000D03*
X191262000Y-114300000D03*
X194818000Y-114300000D03*
X191262000Y-116840000D03*
X194818000Y-116840000D03*
X191262000Y-119380000D03*
X194818000Y-119380000D03*
X191262000Y-121920000D03*
X194818000Y-121920000D03*
D26*
X123825000Y-119532400D03*
X123825000Y-86207600D03*
D23*
X121897140Y-112572800D03*
X121897140Y-109804200D03*
X121897140Y-107035600D03*
X121897140Y-104267000D03*
X121897140Y-101473000D03*
X121897140Y-98704400D03*
X121897140Y-95935800D03*
D27*
X121897140Y-93167200D03*
D23*
X125752860Y-111175800D03*
X125752860Y-108407200D03*
X125752860Y-105638600D03*
X125752860Y-102870000D03*
X125752860Y-100101400D03*
X125752860Y-97332800D03*
X125752860Y-94564200D03*
D26*
X144780000Y-119532400D03*
X144780000Y-86207600D03*
D23*
X142852140Y-112572800D03*
X142852140Y-109804200D03*
X142852140Y-107035600D03*
X142852140Y-104267000D03*
X142852140Y-101473000D03*
X142852140Y-98704400D03*
X142852140Y-95935800D03*
D27*
X142852140Y-93167200D03*
D23*
X146707860Y-111175800D03*
X146707860Y-108407200D03*
X146707860Y-105638600D03*
X146707860Y-102870000D03*
X146707860Y-100101400D03*
X146707860Y-97332800D03*
X146707860Y-94564200D03*
D26*
X165735000Y-119532400D03*
X165735000Y-86207600D03*
D23*
X163807140Y-112572800D03*
X163807140Y-109804200D03*
X163807140Y-107035600D03*
X163807140Y-104267000D03*
X163807140Y-101473000D03*
X163807140Y-98704400D03*
X163807140Y-95935800D03*
D27*
X163807140Y-93167200D03*
D23*
X167662860Y-111175800D03*
X167662860Y-108407200D03*
X167662860Y-105638600D03*
X167662860Y-102870000D03*
X167662860Y-100101400D03*
X167662860Y-97332800D03*
X167662860Y-94564200D03*
D16*
X104140000Y-80645000D03*
X106680000Y-80645000D03*
D17*
X101600000Y-80645000D03*
D16*
X104140000Y-88900000D03*
X106680000Y-88900000D03*
D17*
X101600000Y-88900000D03*
D28*
X178435000Y-117754400D03*
X179705000Y-122275600D03*
X180975000Y-117754400D03*
X182245000Y-122275600D03*
X183515000Y-117754400D03*
X184785000Y-122275600D03*
D29*
X184150000Y-86995000D03*
D30*
X184150000Y-89535000D03*
D16*
X104140000Y-114935000D03*
X106680000Y-114935000D03*
D17*
X101600000Y-114935000D03*
D31*
X99060000Y-107950000D03*
X99060000Y-97790000D03*
D32*
X105156000Y-102870000D03*
D33*
X107950000Y-102870000D03*
X107950000Y-100076000D03*
X107950000Y-105664000D03*
D34*
X179844700Y-107569000D03*
X179844700Y-102870000D03*
X184645300Y-102870000D03*
X184645300Y-107569000D03*
D32*
X184785000Y-111125000D03*
X179705000Y-111125000D03*
M02*
