G04 #@! TF.FileFunction,Copper,L1,Top,Signal*
%FSLAX46Y46*%
G04 Gerber Fmt 4.6, Leading zero omitted, Abs format (unit mm)*
G04 Created by KiCad (PCBNEW 0.201501112116+5365~20~ubuntu14.04.1-product) date Fri 16 Jan 2015 04:47:56 PM EST*
%MOMM*%
G01*
G04 APERTURE LIST*
%ADD10C,0.100000*%
%ADD11C,0.228600*%
%ADD12O,2.540000X1.854200*%
%ADD13R,2.540000X1.854200*%
%ADD14R,1.498600X2.997200*%
%ADD15O,1.854200X2.540000*%
%ADD16R,1.854200X2.540000*%
%ADD17O,6.350000X3.810000*%
%ADD18O,2.540000X1.524000*%
%ADD19R,2.540000X1.524000*%
%ADD20O,1.524000X2.032000*%
%ADD21C,3.937000*%
%ADD22O,1.524000X2.540000*%
%ADD23C,1.930400*%
%ADD24O,4.572000X3.556000*%
%ADD25O,4.064000X5.080000*%
%ADD26O,5.080000X3.556000*%
%ADD27R,1.590040X2.667000*%
%ADD28O,4.445000X3.175000*%
%ADD29C,0.889000*%
%ADD30C,0.812800*%
%ADD31C,0.609600*%
%ADD32C,0.406400*%
%ADD33C,0.203200*%
G04 APERTURE END LIST*
D10*
D11*
X211455000Y-75565000D02*
X93345000Y-75565000D01*
X211455000Y-130175000D02*
X211455000Y-75565000D01*
X93345000Y-130175000D02*
X211455000Y-130175000D01*
X93345000Y-75565000D02*
X93345000Y-130175000D01*
D12*
X184150000Y-86995000D03*
D13*
X184150000Y-89535000D03*
D14*
X178435000Y-117754400D03*
X179705000Y-122275600D03*
X180975000Y-117754400D03*
X182245000Y-122275600D03*
X183515000Y-117754400D03*
X184785000Y-122275600D03*
D15*
X104140000Y-109220000D03*
X106680000Y-109220000D03*
D16*
X101600000Y-109220000D03*
D15*
X104140000Y-96520000D03*
X106680000Y-96520000D03*
D16*
X101600000Y-96520000D03*
D15*
X104140000Y-83820000D03*
X106680000Y-83820000D03*
D16*
X101600000Y-83820000D03*
D17*
X165735000Y-119532400D03*
X165735000Y-86207600D03*
D18*
X163807140Y-112572800D03*
X163807140Y-109804200D03*
X163807140Y-107035600D03*
X163807140Y-104267000D03*
X163807140Y-101473000D03*
X163807140Y-98704400D03*
X163807140Y-95935800D03*
D19*
X163807140Y-93167200D03*
D18*
X167662860Y-111175800D03*
X167662860Y-108407200D03*
X167662860Y-105638600D03*
X167662860Y-102870000D03*
X167662860Y-100101400D03*
X167662860Y-97332800D03*
X167662860Y-94564200D03*
D17*
X144780000Y-119532400D03*
X144780000Y-86207600D03*
D18*
X142852140Y-112572800D03*
X142852140Y-109804200D03*
X142852140Y-107035600D03*
X142852140Y-104267000D03*
X142852140Y-101473000D03*
X142852140Y-98704400D03*
X142852140Y-95935800D03*
D19*
X142852140Y-93167200D03*
D18*
X146707860Y-111175800D03*
X146707860Y-108407200D03*
X146707860Y-105638600D03*
X146707860Y-102870000D03*
X146707860Y-100101400D03*
X146707860Y-97332800D03*
X146707860Y-94564200D03*
D17*
X123825000Y-119532400D03*
X123825000Y-86207600D03*
D18*
X121897140Y-112572800D03*
X121897140Y-109804200D03*
X121897140Y-107035600D03*
X121897140Y-104267000D03*
X121897140Y-101473000D03*
X121897140Y-98704400D03*
X121897140Y-95935800D03*
D19*
X121897140Y-93167200D03*
D18*
X125752860Y-111175800D03*
X125752860Y-108407200D03*
X125752860Y-105638600D03*
X125752860Y-102870000D03*
X125752860Y-100101400D03*
X125752860Y-97332800D03*
X125752860Y-94564200D03*
D20*
X187325000Y-105410000D03*
X187325000Y-100330000D03*
D21*
X111760000Y-127000000D03*
X113030000Y-78740000D03*
X194310000Y-127000000D03*
X187960000Y-78740000D03*
D22*
X125730000Y-127000000D03*
X128270000Y-127000000D03*
X130810000Y-127000000D03*
X133350000Y-127000000D03*
X135890000Y-127000000D03*
X138430000Y-127000000D03*
X140970000Y-127000000D03*
X143510000Y-127000000D03*
X148590000Y-127000000D03*
X151130000Y-127000000D03*
X153670000Y-127000000D03*
X156210000Y-127000000D03*
X158750000Y-127000000D03*
X161290000Y-127000000D03*
X163830000Y-127000000D03*
X166370000Y-127000000D03*
X171450000Y-127000000D03*
X173990000Y-127000000D03*
X176530000Y-127000000D03*
X179070000Y-127000000D03*
X181610000Y-127000000D03*
X184150000Y-127000000D03*
X186690000Y-127000000D03*
X189230000Y-127000000D03*
X116586000Y-78740000D03*
X119126000Y-78740000D03*
X121666000Y-78740000D03*
X124206000Y-78740000D03*
X126746000Y-78740000D03*
X129286000Y-78740000D03*
X131826000Y-78740000D03*
X134366000Y-78740000D03*
X136906000Y-78740000D03*
X139446000Y-78740000D03*
X143510000Y-78740000D03*
X161290000Y-78740000D03*
X158750000Y-78740000D03*
X156210000Y-78740000D03*
X153670000Y-78740000D03*
X151130000Y-78740000D03*
X148590000Y-78740000D03*
X146050000Y-78740000D03*
X166370000Y-78740000D03*
X168910000Y-78740000D03*
X171450000Y-78740000D03*
X173990000Y-78740000D03*
X176530000Y-78740000D03*
X179070000Y-78740000D03*
X181610000Y-78740000D03*
X184150000Y-78740000D03*
X191770000Y-78232000D03*
X194310000Y-78232000D03*
D18*
X191262000Y-81280000D03*
X194818000Y-81280000D03*
X191262000Y-83820000D03*
X194818000Y-83820000D03*
X191262000Y-86360000D03*
X194818000Y-86360000D03*
X191262000Y-88900000D03*
X194818000Y-88900000D03*
X191262000Y-91440000D03*
X194818000Y-91440000D03*
X191262000Y-93980000D03*
X194818000Y-93980000D03*
X191262000Y-96520000D03*
X194818000Y-96520000D03*
X191262000Y-99060000D03*
X194818000Y-99060000D03*
X191262000Y-101600000D03*
X194818000Y-101600000D03*
X191262000Y-104140000D03*
X194818000Y-104140000D03*
X191262000Y-106680000D03*
X194818000Y-106680000D03*
X191262000Y-109220000D03*
X194818000Y-109220000D03*
X191262000Y-111760000D03*
X194818000Y-111760000D03*
X191262000Y-114300000D03*
X194818000Y-114300000D03*
X191262000Y-116840000D03*
X194818000Y-116840000D03*
X191262000Y-119380000D03*
X194818000Y-119380000D03*
X191262000Y-121920000D03*
X194818000Y-121920000D03*
X200025000Y-115570000D03*
X200025000Y-118110000D03*
X200025000Y-113030000D03*
D23*
X208457800Y-102870000D03*
D24*
X204952600Y-102870000D03*
D25*
X199466200Y-102870000D03*
D26*
X206451200Y-98374200D03*
X206451200Y-107365800D03*
D27*
X198026020Y-84137500D03*
X198026020Y-92392500D03*
X202023980Y-84137500D03*
X202023980Y-92392500D03*
D28*
X181610000Y-102870000D03*
X181610000Y-107569000D03*
D15*
X104140000Y-121920000D03*
X106680000Y-121920000D03*
D16*
X101600000Y-121920000D03*
D29*
X191095000Y-124290000D03*
X184785000Y-124502200D03*
X178253500Y-103771200D03*
X182245000Y-124537700D03*
X183126800Y-115545500D03*
X161684800Y-111645200D03*
X114742000Y-110335600D03*
X196492100Y-82382600D03*
D30*
X123827800Y-110393500D02*
X123827800Y-109804200D01*
X123740100Y-110481200D02*
X123827800Y-110393500D01*
X123740100Y-111708100D02*
X123740100Y-110481200D01*
X124635600Y-112603600D02*
X123740100Y-111708100D01*
X126864200Y-112603600D02*
X124635600Y-112603600D01*
X129663600Y-109804200D02*
X126864200Y-112603600D01*
X143360100Y-109804200D02*
X129663600Y-109804200D01*
X122405100Y-109804200D02*
X123827800Y-109804200D01*
X196380000Y-124290000D02*
X191095000Y-124290000D01*
X201955800Y-118714200D02*
X196380000Y-124290000D01*
X201955800Y-114960800D02*
X201955800Y-118714200D01*
X200025000Y-113030000D02*
X201955800Y-114960800D01*
X144782800Y-110393500D02*
X144782800Y-109804200D01*
X144695100Y-110481200D02*
X144782800Y-110393500D01*
X144695100Y-111708100D02*
X144695100Y-110481200D01*
X145625200Y-112638200D02*
X144695100Y-111708100D01*
X158690100Y-112638200D02*
X145625200Y-112638200D01*
X161524100Y-109804200D02*
X158690100Y-112638200D01*
X164315100Y-109804200D02*
X161524100Y-109804200D01*
X143360100Y-109804200D02*
X144782800Y-109804200D01*
D31*
X140970000Y-125170900D02*
X138430000Y-125170900D01*
X140970000Y-127000000D02*
X140970000Y-125170900D01*
X138430000Y-127000000D02*
X138430000Y-125170900D01*
X179299200Y-119812100D02*
X179705000Y-120217900D01*
X178435000Y-119812100D02*
X179299200Y-119812100D01*
X179705000Y-122275600D02*
X179705000Y-120217900D01*
X178435000Y-117754400D02*
X178435000Y-119812100D01*
X122405100Y-93167200D02*
X120068000Y-93167200D01*
X106680000Y-93167200D02*
X120068000Y-93167200D01*
X106680000Y-96520000D02*
X106680000Y-93167200D01*
X106680000Y-93167200D02*
X106680000Y-83820000D01*
X202024000Y-99433400D02*
X202024000Y-92392500D01*
X205460600Y-102870000D02*
X202024000Y-99433400D01*
X104140000Y-111760000D02*
X106680000Y-109220000D01*
X104140000Y-121920000D02*
X104140000Y-111760000D01*
X157469800Y-93167200D02*
X164315100Y-93167200D01*
X153304200Y-97332800D02*
X157469800Y-93167200D01*
X146199900Y-97332800D02*
X153304200Y-97332800D01*
X197463700Y-118131300D02*
X200025000Y-115570000D01*
X197463700Y-121724800D02*
X197463700Y-118131300D01*
X195924800Y-123263700D02*
X197463700Y-121724800D01*
X188543200Y-123263700D02*
X195924800Y-123263700D01*
X186096500Y-120817000D02*
X188543200Y-123263700D01*
X186096500Y-120535600D02*
X186096500Y-120817000D01*
X185778800Y-120217900D02*
X186096500Y-120535600D01*
X179705000Y-120217900D02*
X185778800Y-120217900D01*
X144681200Y-97530400D02*
X144878800Y-97332800D01*
X144681200Y-98704400D02*
X144681200Y-97530400D01*
X146199900Y-97332800D02*
X144878800Y-97332800D01*
X143360100Y-98704400D02*
X144681200Y-98704400D01*
X164315100Y-104267000D02*
X165636200Y-104267000D01*
X178435000Y-117754400D02*
X178435000Y-115696700D01*
X173541200Y-110802900D02*
X178435000Y-115696700D01*
X173541200Y-107022900D02*
X173541200Y-110802900D01*
X180234100Y-100330000D02*
X173541200Y-107022900D01*
X187325000Y-100330000D02*
X180234100Y-100330000D01*
X165636200Y-105994500D02*
X165636200Y-104267000D01*
X166664600Y-107022900D02*
X165636200Y-105994500D01*
X173541200Y-107022900D02*
X166664600Y-107022900D01*
D30*
X184785000Y-122275600D02*
X184785000Y-124434900D01*
X135890000Y-127000000D02*
X135890000Y-128930700D01*
X184785000Y-124434900D02*
X184785000Y-124502200D01*
X104140000Y-83820000D02*
X104140000Y-96520000D01*
X189882700Y-128930700D02*
X135890000Y-128930700D01*
X190685200Y-128128200D02*
X189882700Y-128930700D01*
X190685200Y-125880900D02*
X190685200Y-128128200D01*
X189306500Y-124502200D02*
X190685200Y-125880900D01*
X184785000Y-124502200D02*
X189306500Y-124502200D01*
X111096800Y-121920000D02*
X106680000Y-121920000D01*
X118107500Y-128930700D02*
X111096800Y-121920000D01*
X135890000Y-128930700D02*
X118107500Y-128930700D01*
D32*
X178253500Y-113076800D02*
X180975000Y-115798300D01*
X178253500Y-103771200D02*
X178253500Y-113076800D01*
X180975000Y-117754400D02*
X180975000Y-115798300D01*
X182245000Y-124537700D02*
X182245000Y-122275600D01*
X156210000Y-78740000D02*
X156210000Y-77012500D01*
X183515000Y-117754400D02*
X183515000Y-115798300D01*
X189273200Y-109787300D02*
X183515000Y-115545500D01*
X189273200Y-91114800D02*
X189273200Y-109787300D01*
X190218000Y-90170000D02*
X189273200Y-91114800D01*
X195784700Y-90170000D02*
X190218000Y-90170000D01*
X199327600Y-86627100D02*
X195784700Y-90170000D01*
X199327600Y-80953200D02*
X199327600Y-86627100D01*
X194666800Y-76292400D02*
X199327600Y-80953200D01*
X156930100Y-76292400D02*
X194666800Y-76292400D01*
X156210000Y-77012500D02*
X156930100Y-76292400D01*
X183515000Y-115545500D02*
X183515000Y-115798300D01*
X183515000Y-115545500D02*
X183126800Y-115545500D01*
X153670000Y-127000000D02*
X153670000Y-125272500D01*
X151603500Y-123206000D02*
X153670000Y-125272500D01*
X134394500Y-123206000D02*
X151603500Y-123206000D01*
X126770600Y-115582100D02*
X134394500Y-123206000D01*
X116867900Y-115582100D02*
X126770600Y-115582100D01*
X108763400Y-107477600D02*
X116867900Y-115582100D01*
X103342400Y-107477600D02*
X108763400Y-107477600D01*
X101600000Y-109220000D02*
X103342400Y-107477600D01*
X120168400Y-98172500D02*
X122405100Y-95935800D01*
X120168400Y-113086500D02*
X120168400Y-98172500D01*
X121342500Y-114260600D02*
X120168400Y-113086500D01*
X145198100Y-114260600D02*
X121342500Y-114260600D01*
X156210000Y-125272500D02*
X145198100Y-114260600D01*
X156210000Y-127000000D02*
X156210000Y-125272500D01*
X161290000Y-112040000D02*
X161684800Y-111645200D01*
X161290000Y-127000000D02*
X161290000Y-112040000D01*
X114742000Y-100852400D02*
X114742000Y-110335600D01*
X121207600Y-94386800D02*
X114742000Y-100852400D01*
X123564400Y-94386800D02*
X121207600Y-94386800D01*
X137483700Y-80467500D02*
X123564400Y-94386800D01*
X143510000Y-80467500D02*
X137483700Y-80467500D01*
X143510000Y-78740000D02*
X143510000Y-80467500D01*
X123624600Y-99974500D02*
X123624600Y-101473000D01*
X125046700Y-98552400D02*
X123624600Y-99974500D01*
X126819500Y-98552400D02*
X125046700Y-98552400D01*
X144091900Y-81280000D02*
X126819500Y-98552400D01*
X191770000Y-81280000D02*
X144091900Y-81280000D01*
X122405100Y-101473000D02*
X123624600Y-101473000D01*
X194310000Y-81280000D02*
X193090500Y-81280000D01*
X125244900Y-102870000D02*
X127480400Y-102870000D01*
X193090500Y-81685100D02*
X193090500Y-81280000D01*
X192225600Y-82550000D02*
X193090500Y-81685100D01*
X164190100Y-82550000D02*
X192225600Y-82550000D01*
X150737500Y-96002600D02*
X164190100Y-82550000D01*
X145074500Y-96002600D02*
X150737500Y-96002600D01*
X143757000Y-97320100D02*
X145074500Y-96002600D01*
X133030300Y-97320100D02*
X143757000Y-97320100D01*
X127480400Y-102870000D02*
X133030300Y-97320100D01*
X191770000Y-83820000D02*
X189534500Y-83820000D01*
X152990800Y-101473000D02*
X143360100Y-101473000D01*
X160077000Y-94386800D02*
X152990800Y-101473000D01*
X165474400Y-94386800D02*
X160077000Y-94386800D01*
X176041200Y-83820000D02*
X165474400Y-94386800D01*
X189534500Y-83820000D02*
X176041200Y-83820000D01*
X156529600Y-102870000D02*
X146199900Y-102870000D01*
X162079500Y-97320100D02*
X156529600Y-102870000D01*
X165327400Y-97320100D02*
X162079500Y-97320100D01*
X166863700Y-95783800D02*
X165327400Y-97320100D01*
X171735000Y-95783800D02*
X166863700Y-95783800D01*
X182479300Y-85039500D02*
X171735000Y-95783800D01*
X192328400Y-85039500D02*
X182479300Y-85039500D01*
X193090500Y-84277400D02*
X192328400Y-85039500D01*
X193090500Y-83820000D02*
X193090500Y-84277400D01*
X194310000Y-83820000D02*
X193090500Y-83820000D01*
X165534600Y-99974500D02*
X165534600Y-101473000D01*
X166956700Y-98552400D02*
X165534600Y-99974500D01*
X178029800Y-98552400D02*
X166956700Y-98552400D01*
X189534500Y-87047700D02*
X178029800Y-98552400D01*
X189534500Y-86360000D02*
X189534500Y-87047700D01*
X191770000Y-86360000D02*
X189534500Y-86360000D01*
X164315100Y-101473000D02*
X165534600Y-101473000D01*
X175059300Y-102870000D02*
X167154900Y-102870000D01*
X190349800Y-87579500D02*
X175059300Y-102870000D01*
X192328400Y-87579500D02*
X190349800Y-87579500D01*
X193090500Y-86817400D02*
X192328400Y-87579500D01*
X193090500Y-86360000D02*
X193090500Y-86817400D01*
X194310000Y-86360000D02*
X193090500Y-86360000D01*
X196528200Y-82346500D02*
X196492100Y-82382600D01*
X198026000Y-82346500D02*
X196528200Y-82346500D01*
X198026000Y-84137500D02*
X198026000Y-82346500D01*
D33*
G36*
X189940689Y-89696142D02*
X189822869Y-89774869D01*
X188878069Y-90719669D01*
X188756936Y-90900956D01*
X188714400Y-91114800D01*
X188714400Y-109555837D01*
X188442600Y-109827637D01*
X188442600Y-105690871D01*
X188442600Y-105129129D01*
X188357528Y-104701442D01*
X188115263Y-104338866D01*
X187752687Y-104096601D01*
X187325000Y-104011529D01*
X186897313Y-104096601D01*
X186534737Y-104338866D01*
X186292472Y-104701442D01*
X186207400Y-105129129D01*
X186207400Y-105690871D01*
X186292472Y-106118558D01*
X186534737Y-106481134D01*
X186897313Y-106723399D01*
X187325000Y-106808471D01*
X187752687Y-106723399D01*
X188115263Y-106481134D01*
X188357528Y-106118558D01*
X188442600Y-105690871D01*
X188442600Y-109827637D01*
X184385983Y-113884254D01*
X184385983Y-103363398D01*
X184284013Y-103022400D01*
X181762400Y-103022400D01*
X181762400Y-105067100D01*
X182397400Y-105067100D01*
X183226593Y-104841535D01*
X183906347Y-104315821D01*
X184333176Y-103569994D01*
X184385983Y-103363398D01*
X184385983Y-113884254D01*
X184238608Y-114031629D01*
X184238608Y-107569000D01*
X184090698Y-106825408D01*
X183669487Y-106195021D01*
X183039100Y-105773810D01*
X182295508Y-105625900D01*
X180924492Y-105625900D01*
X180180900Y-105773810D01*
X179550513Y-106195021D01*
X179129302Y-106825408D01*
X178981392Y-107569000D01*
X179129302Y-108312592D01*
X179550513Y-108942979D01*
X180180900Y-109364190D01*
X180924492Y-109512100D01*
X182295508Y-109512100D01*
X183039100Y-109364190D01*
X183669487Y-108942979D01*
X184090698Y-108312592D01*
X184238608Y-107569000D01*
X184238608Y-114031629D01*
X183454853Y-114815384D01*
X183286648Y-114745539D01*
X182968348Y-114745261D01*
X182674172Y-114866813D01*
X182448904Y-115091688D01*
X182326839Y-115385652D01*
X182326561Y-115703952D01*
X182448113Y-115998128D01*
X182485472Y-116035552D01*
X182431169Y-116116001D01*
X182403133Y-116255800D01*
X182403133Y-119253000D01*
X182429441Y-119388589D01*
X182507723Y-119507759D01*
X182581411Y-119557500D01*
X181908236Y-119557500D01*
X181979059Y-119510977D01*
X182058831Y-119392799D01*
X182086867Y-119253000D01*
X182086867Y-116255800D01*
X182060559Y-116120211D01*
X181982277Y-116001041D01*
X181864099Y-115921269D01*
X181724300Y-115893233D01*
X181533800Y-115893233D01*
X181533800Y-115798300D01*
X181491264Y-115584457D01*
X181491264Y-115584456D01*
X181370131Y-115403169D01*
X178812300Y-112845338D01*
X178812300Y-104343900D01*
X178931396Y-104225012D01*
X179053461Y-103931048D01*
X179053521Y-103861276D01*
X179313653Y-104315821D01*
X179993407Y-104841535D01*
X180822600Y-105067100D01*
X181457600Y-105067100D01*
X181457600Y-103022400D01*
X178935987Y-103022400D01*
X178866960Y-103253231D01*
X178707312Y-103093304D01*
X178493517Y-103004528D01*
X178900181Y-102597864D01*
X178935987Y-102717600D01*
X181457600Y-102717600D01*
X181457600Y-102697600D01*
X181762400Y-102697600D01*
X181762400Y-102717600D01*
X184284013Y-102717600D01*
X184385983Y-102376602D01*
X184333176Y-102170006D01*
X183906347Y-101424179D01*
X183345465Y-100990400D01*
X186282892Y-100990400D01*
X186292472Y-101038558D01*
X186534737Y-101401134D01*
X186897313Y-101643399D01*
X187325000Y-101728471D01*
X187752687Y-101643399D01*
X188115263Y-101401134D01*
X188357528Y-101038558D01*
X188442600Y-100610871D01*
X188442600Y-100049129D01*
X188357528Y-99621442D01*
X188115263Y-99258866D01*
X187752687Y-99016601D01*
X187325000Y-98931529D01*
X186897313Y-99016601D01*
X186534737Y-99258866D01*
X186292472Y-99621442D01*
X186282892Y-99669600D01*
X180234100Y-99669600D01*
X179981376Y-99719870D01*
X179767127Y-99863027D01*
X173267654Y-106362500D01*
X169037312Y-106362500D01*
X169235235Y-106066287D01*
X169320307Y-105638600D01*
X169235235Y-105210913D01*
X168992970Y-104848337D01*
X168630394Y-104606072D01*
X168202707Y-104521000D01*
X167123013Y-104521000D01*
X166695326Y-104606072D01*
X166332750Y-104848337D01*
X166296600Y-104902439D01*
X166296600Y-104267000D01*
X166246330Y-104014276D01*
X166103173Y-103800027D01*
X165888924Y-103656870D01*
X165636200Y-103606600D01*
X165224021Y-103606600D01*
X165137250Y-103476737D01*
X164774674Y-103234472D01*
X164346987Y-103149400D01*
X163267293Y-103149400D01*
X162839606Y-103234472D01*
X162477030Y-103476737D01*
X162234765Y-103839313D01*
X162149693Y-104267000D01*
X162234765Y-104694687D01*
X162477030Y-105057263D01*
X162839606Y-105299528D01*
X163267293Y-105384600D01*
X164346987Y-105384600D01*
X164774674Y-105299528D01*
X164975800Y-105165140D01*
X164975800Y-105994500D01*
X165008595Y-106159372D01*
X164774674Y-106003072D01*
X164346987Y-105918000D01*
X163267293Y-105918000D01*
X162839606Y-106003072D01*
X162477030Y-106245337D01*
X162234765Y-106607913D01*
X162149693Y-107035600D01*
X162234765Y-107463287D01*
X162477030Y-107825863D01*
X162839606Y-108068128D01*
X163267293Y-108153200D01*
X164346987Y-108153200D01*
X164774674Y-108068128D01*
X165137250Y-107825863D01*
X165379515Y-107463287D01*
X165464587Y-107035600D01*
X165395368Y-106687614D01*
X166197627Y-107489873D01*
X166360270Y-107598548D01*
X166332750Y-107616937D01*
X166090485Y-107979513D01*
X166005413Y-108407200D01*
X166090485Y-108834887D01*
X166332750Y-109197463D01*
X166695326Y-109439728D01*
X167123013Y-109524800D01*
X168202707Y-109524800D01*
X168630394Y-109439728D01*
X168992970Y-109197463D01*
X169235235Y-108834887D01*
X169320307Y-108407200D01*
X169235235Y-107979513D01*
X169037312Y-107683300D01*
X172880800Y-107683300D01*
X172880800Y-110802900D01*
X172931070Y-111055624D01*
X173074227Y-111269873D01*
X177697586Y-115893233D01*
X177685700Y-115893233D01*
X177550111Y-115919541D01*
X177430941Y-115997823D01*
X177351169Y-116116001D01*
X177323133Y-116255800D01*
X177323133Y-119253000D01*
X177349441Y-119388589D01*
X177427723Y-119507759D01*
X177545901Y-119587531D01*
X177685700Y-119615567D01*
X177774600Y-119615567D01*
X177774600Y-119812100D01*
X177824870Y-120064824D01*
X177968027Y-120279073D01*
X178182276Y-120422230D01*
X178435000Y-120472500D01*
X178771763Y-120472500D01*
X178700941Y-120519023D01*
X178621169Y-120637201D01*
X178593133Y-120777000D01*
X178593133Y-123774200D01*
X178619441Y-123909789D01*
X178697723Y-124028959D01*
X178815901Y-124108731D01*
X178955700Y-124136767D01*
X180454300Y-124136767D01*
X180589889Y-124110459D01*
X180709059Y-124032177D01*
X180788831Y-123913999D01*
X180816867Y-123774200D01*
X180816867Y-120878300D01*
X181133133Y-120878300D01*
X181133133Y-123774200D01*
X181159441Y-123909789D01*
X181237723Y-124028959D01*
X181355901Y-124108731D01*
X181495700Y-124136767D01*
X181545146Y-124136767D01*
X181445039Y-124377852D01*
X181444761Y-124696152D01*
X181566313Y-124990328D01*
X181791188Y-125215596D01*
X182085152Y-125337661D01*
X182403452Y-125337939D01*
X182697628Y-125216387D01*
X182922896Y-124991512D01*
X183044961Y-124697548D01*
X183045239Y-124379248D01*
X182945047Y-124136767D01*
X182994300Y-124136767D01*
X183129889Y-124110459D01*
X183249059Y-124032177D01*
X183328831Y-123913999D01*
X183356867Y-123774200D01*
X183356867Y-120878300D01*
X183673133Y-120878300D01*
X183673133Y-123774200D01*
X183699441Y-123909789D01*
X183777723Y-124028959D01*
X183895901Y-124108731D01*
X184023000Y-124134220D01*
X184023000Y-124250932D01*
X183985039Y-124342352D01*
X183984761Y-124660652D01*
X184106313Y-124954828D01*
X184331188Y-125180096D01*
X184625152Y-125302161D01*
X184943452Y-125302439D01*
X185035996Y-125264200D01*
X188990869Y-125264200D01*
X189095897Y-125369227D01*
X188802313Y-125427625D01*
X188439737Y-125669890D01*
X188197472Y-126032466D01*
X188112400Y-126460153D01*
X188112400Y-127539847D01*
X188197472Y-127967534D01*
X188331886Y-128168700D01*
X187588113Y-128168700D01*
X187722528Y-127967534D01*
X187807600Y-127539847D01*
X187807600Y-126460153D01*
X187722528Y-126032466D01*
X187480263Y-125669890D01*
X187117687Y-125427625D01*
X186690000Y-125342553D01*
X186262313Y-125427625D01*
X185899737Y-125669890D01*
X185657472Y-126032466D01*
X185572400Y-126460153D01*
X185572400Y-127539847D01*
X185657472Y-127967534D01*
X185791886Y-128168700D01*
X185048113Y-128168700D01*
X185182528Y-127967534D01*
X185267600Y-127539847D01*
X185267600Y-126460153D01*
X185182528Y-126032466D01*
X184940263Y-125669890D01*
X184577687Y-125427625D01*
X184150000Y-125342553D01*
X183722313Y-125427625D01*
X183359737Y-125669890D01*
X183117472Y-126032466D01*
X183032400Y-126460153D01*
X183032400Y-127539847D01*
X183117472Y-127967534D01*
X183251886Y-128168700D01*
X182508113Y-128168700D01*
X182642528Y-127967534D01*
X182727600Y-127539847D01*
X182727600Y-126460153D01*
X182642528Y-126032466D01*
X182400263Y-125669890D01*
X182037687Y-125427625D01*
X181610000Y-125342553D01*
X181182313Y-125427625D01*
X180819737Y-125669890D01*
X180577472Y-126032466D01*
X180492400Y-126460153D01*
X180492400Y-127539847D01*
X180577472Y-127967534D01*
X180711886Y-128168700D01*
X179968113Y-128168700D01*
X180102528Y-127967534D01*
X180187600Y-127539847D01*
X180187600Y-126460153D01*
X180102528Y-126032466D01*
X179860263Y-125669890D01*
X179497687Y-125427625D01*
X179070000Y-125342553D01*
X178642313Y-125427625D01*
X178279737Y-125669890D01*
X178037472Y-126032466D01*
X177952400Y-126460153D01*
X177952400Y-127539847D01*
X178037472Y-127967534D01*
X178171886Y-128168700D01*
X177428113Y-128168700D01*
X177562528Y-127967534D01*
X177647600Y-127539847D01*
X177647600Y-126460153D01*
X177562528Y-126032466D01*
X177320263Y-125669890D01*
X176957687Y-125427625D01*
X176530000Y-125342553D01*
X176102313Y-125427625D01*
X175739737Y-125669890D01*
X175497472Y-126032466D01*
X175412400Y-126460153D01*
X175412400Y-127539847D01*
X175497472Y-127967534D01*
X175631886Y-128168700D01*
X174888113Y-128168700D01*
X175022528Y-127967534D01*
X175107600Y-127539847D01*
X175107600Y-126460153D01*
X175022528Y-126032466D01*
X174780263Y-125669890D01*
X174417687Y-125427625D01*
X173990000Y-125342553D01*
X173562313Y-125427625D01*
X173199737Y-125669890D01*
X172957472Y-126032466D01*
X172872400Y-126460153D01*
X172872400Y-127539847D01*
X172957472Y-127967534D01*
X173091886Y-128168700D01*
X172348113Y-128168700D01*
X172482528Y-127967534D01*
X172567600Y-127539847D01*
X172567600Y-126460153D01*
X172482528Y-126032466D01*
X172240263Y-125669890D01*
X171877687Y-125427625D01*
X171450000Y-125342553D01*
X171022313Y-125427625D01*
X170659737Y-125669890D01*
X170417472Y-126032466D01*
X170332400Y-126460153D01*
X170332400Y-127539847D01*
X170417472Y-127967534D01*
X170551886Y-128168700D01*
X169334769Y-128168700D01*
X169334769Y-119532400D01*
X169320307Y-119459694D01*
X169320307Y-111175800D01*
X169235235Y-110748113D01*
X168992970Y-110385537D01*
X168630394Y-110143272D01*
X168202707Y-110058200D01*
X167123013Y-110058200D01*
X166695326Y-110143272D01*
X166332750Y-110385537D01*
X166090485Y-110748113D01*
X166005413Y-111175800D01*
X166090485Y-111603487D01*
X166332750Y-111966063D01*
X166695326Y-112208328D01*
X167123013Y-112293400D01*
X168202707Y-112293400D01*
X168630394Y-112208328D01*
X168992970Y-111966063D01*
X169235235Y-111603487D01*
X169320307Y-111175800D01*
X169320307Y-119459694D01*
X169162691Y-118667306D01*
X168672655Y-117933914D01*
X167939263Y-117443878D01*
X167074169Y-117271800D01*
X165637624Y-117271800D01*
X165637624Y-110167961D01*
X165637624Y-109440439D01*
X165392771Y-108942096D01*
X164980828Y-108595328D01*
X164467540Y-108432600D01*
X163959540Y-108432600D01*
X163959540Y-109651800D01*
X165524777Y-109651800D01*
X165637624Y-109440439D01*
X165637624Y-110167961D01*
X165524777Y-109956600D01*
X163959540Y-109956600D01*
X163959540Y-111175800D01*
X164467540Y-111175800D01*
X164980828Y-111013072D01*
X165392771Y-110666304D01*
X165637624Y-110167961D01*
X165637624Y-117271800D01*
X164395831Y-117271800D01*
X163530737Y-117443878D01*
X162797345Y-117933914D01*
X162307309Y-118667306D01*
X162135231Y-119532400D01*
X162307309Y-120397494D01*
X162797345Y-121130886D01*
X163530737Y-121620922D01*
X164395831Y-121793000D01*
X167074169Y-121793000D01*
X167939263Y-121620922D01*
X168672655Y-121130886D01*
X169162691Y-120397494D01*
X169334769Y-119532400D01*
X169334769Y-128168700D01*
X167268113Y-128168700D01*
X167402528Y-127967534D01*
X167487600Y-127539847D01*
X167487600Y-126460153D01*
X167402528Y-126032466D01*
X167160263Y-125669890D01*
X166797687Y-125427625D01*
X166370000Y-125342553D01*
X165942313Y-125427625D01*
X165579737Y-125669890D01*
X165337472Y-126032466D01*
X165252400Y-126460153D01*
X165252400Y-127539847D01*
X165337472Y-127967534D01*
X165471886Y-128168700D01*
X164728113Y-128168700D01*
X164862528Y-127967534D01*
X164947600Y-127539847D01*
X164947600Y-126460153D01*
X164862528Y-126032466D01*
X164620263Y-125669890D01*
X164257687Y-125427625D01*
X163830000Y-125342553D01*
X163402313Y-125427625D01*
X163039737Y-125669890D01*
X162797472Y-126032466D01*
X162712400Y-126460153D01*
X162712400Y-127539847D01*
X162797472Y-127967534D01*
X162931886Y-128168700D01*
X162188113Y-128168700D01*
X162322528Y-127967534D01*
X162407600Y-127539847D01*
X162407600Y-126460153D01*
X162322528Y-126032466D01*
X162080263Y-125669890D01*
X161848800Y-125515231D01*
X161848800Y-112443146D01*
X162137428Y-112323887D01*
X162214510Y-112246938D01*
X162149693Y-112572800D01*
X162234765Y-113000487D01*
X162477030Y-113363063D01*
X162839606Y-113605328D01*
X163267293Y-113690400D01*
X164346987Y-113690400D01*
X164774674Y-113605328D01*
X165137250Y-113363063D01*
X165379515Y-113000487D01*
X165464587Y-112572800D01*
X165379515Y-112145113D01*
X165137250Y-111782537D01*
X164774674Y-111540272D01*
X164346987Y-111455200D01*
X163654740Y-111455200D01*
X163654740Y-111175800D01*
X163654740Y-109956600D01*
X163654740Y-109651800D01*
X163654740Y-108432600D01*
X163146740Y-108432600D01*
X162633452Y-108595328D01*
X162221509Y-108942096D01*
X161976656Y-109440439D01*
X162089503Y-109651800D01*
X163654740Y-109651800D01*
X163654740Y-109956600D01*
X162089503Y-109956600D01*
X161976656Y-110167961D01*
X162221509Y-110666304D01*
X162633452Y-111013072D01*
X163146740Y-111175800D01*
X163654740Y-111175800D01*
X163654740Y-111455200D01*
X163267293Y-111455200D01*
X162839606Y-111540272D01*
X162484785Y-111777355D01*
X162485039Y-111486748D01*
X162363487Y-111192572D01*
X162138612Y-110967304D01*
X161844648Y-110845239D01*
X161526348Y-110844961D01*
X161232172Y-110966513D01*
X161006904Y-111191388D01*
X160884839Y-111485352D01*
X160884686Y-111660108D01*
X160773736Y-111826156D01*
X160731200Y-112040000D01*
X160731200Y-125515231D01*
X160499737Y-125669890D01*
X160257472Y-126032466D01*
X160172400Y-126460153D01*
X160172400Y-127539847D01*
X160257472Y-127967534D01*
X160391886Y-128168700D01*
X159648113Y-128168700D01*
X159782528Y-127967534D01*
X159867600Y-127539847D01*
X159867600Y-126460153D01*
X159782528Y-126032466D01*
X159540263Y-125669890D01*
X159177687Y-125427625D01*
X158750000Y-125342553D01*
X158322313Y-125427625D01*
X157959737Y-125669890D01*
X157717472Y-126032466D01*
X157632400Y-126460153D01*
X157632400Y-127539847D01*
X157717472Y-127967534D01*
X157851886Y-128168700D01*
X157108113Y-128168700D01*
X157242528Y-127967534D01*
X157327600Y-127539847D01*
X157327600Y-126460153D01*
X157242528Y-126032466D01*
X157000263Y-125669890D01*
X156768800Y-125515231D01*
X156768800Y-125272500D01*
X156726264Y-125058657D01*
X156726264Y-125058656D01*
X156665697Y-124968012D01*
X156605131Y-124877369D01*
X156605131Y-124877368D01*
X148365307Y-116637544D01*
X148365307Y-111175800D01*
X148365307Y-108407200D01*
X148365307Y-105638600D01*
X148280235Y-105210913D01*
X148037970Y-104848337D01*
X147675394Y-104606072D01*
X147247707Y-104521000D01*
X146168013Y-104521000D01*
X145740326Y-104606072D01*
X145377750Y-104848337D01*
X145135485Y-105210913D01*
X145050413Y-105638600D01*
X145135485Y-106066287D01*
X145377750Y-106428863D01*
X145740326Y-106671128D01*
X146168013Y-106756200D01*
X147247707Y-106756200D01*
X147675394Y-106671128D01*
X148037970Y-106428863D01*
X148280235Y-106066287D01*
X148365307Y-105638600D01*
X148365307Y-108407200D01*
X148280235Y-107979513D01*
X148037970Y-107616937D01*
X147675394Y-107374672D01*
X147247707Y-107289600D01*
X146168013Y-107289600D01*
X145740326Y-107374672D01*
X145377750Y-107616937D01*
X145135485Y-107979513D01*
X145050413Y-108407200D01*
X145135485Y-108834887D01*
X145377750Y-109197463D01*
X145740326Y-109439728D01*
X146168013Y-109524800D01*
X147247707Y-109524800D01*
X147675394Y-109439728D01*
X148037970Y-109197463D01*
X148280235Y-108834887D01*
X148365307Y-108407200D01*
X148365307Y-111175800D01*
X148280235Y-110748113D01*
X148037970Y-110385537D01*
X147675394Y-110143272D01*
X147247707Y-110058200D01*
X146168013Y-110058200D01*
X145740326Y-110143272D01*
X145377750Y-110385537D01*
X145135485Y-110748113D01*
X145050413Y-111175800D01*
X145135485Y-111603487D01*
X145377750Y-111966063D01*
X145740326Y-112208328D01*
X146168013Y-112293400D01*
X147247707Y-112293400D01*
X147675394Y-112208328D01*
X148037970Y-111966063D01*
X148280235Y-111603487D01*
X148365307Y-111175800D01*
X148365307Y-116637544D01*
X145593231Y-113865469D01*
X145411944Y-113744336D01*
X145198100Y-113701800D01*
X144682624Y-113701800D01*
X144682624Y-110167961D01*
X144682624Y-109440439D01*
X144509587Y-109088261D01*
X144509587Y-107035600D01*
X144509587Y-104267000D01*
X144424515Y-103839313D01*
X144182250Y-103476737D01*
X143819674Y-103234472D01*
X143391987Y-103149400D01*
X142312293Y-103149400D01*
X141884606Y-103234472D01*
X141522030Y-103476737D01*
X141279765Y-103839313D01*
X141194693Y-104267000D01*
X141279765Y-104694687D01*
X141522030Y-105057263D01*
X141884606Y-105299528D01*
X142312293Y-105384600D01*
X143391987Y-105384600D01*
X143819674Y-105299528D01*
X144182250Y-105057263D01*
X144424515Y-104694687D01*
X144509587Y-104267000D01*
X144509587Y-107035600D01*
X144424515Y-106607913D01*
X144182250Y-106245337D01*
X143819674Y-106003072D01*
X143391987Y-105918000D01*
X142312293Y-105918000D01*
X141884606Y-106003072D01*
X141522030Y-106245337D01*
X141279765Y-106607913D01*
X141194693Y-107035600D01*
X141279765Y-107463287D01*
X141522030Y-107825863D01*
X141884606Y-108068128D01*
X142312293Y-108153200D01*
X143391987Y-108153200D01*
X143819674Y-108068128D01*
X144182250Y-107825863D01*
X144424515Y-107463287D01*
X144509587Y-107035600D01*
X144509587Y-109088261D01*
X144437771Y-108942096D01*
X144025828Y-108595328D01*
X143512540Y-108432600D01*
X143004540Y-108432600D01*
X143004540Y-109651800D01*
X144569777Y-109651800D01*
X144682624Y-109440439D01*
X144682624Y-110167961D01*
X144569777Y-109956600D01*
X143004540Y-109956600D01*
X143004540Y-111175800D01*
X143512540Y-111175800D01*
X144025828Y-111013072D01*
X144437771Y-110666304D01*
X144682624Y-110167961D01*
X144682624Y-113701800D01*
X144509587Y-113701800D01*
X144509587Y-112572800D01*
X144424515Y-112145113D01*
X144182250Y-111782537D01*
X143819674Y-111540272D01*
X143391987Y-111455200D01*
X142699740Y-111455200D01*
X142699740Y-111175800D01*
X142699740Y-109956600D01*
X142699740Y-109651800D01*
X142699740Y-108432600D01*
X142191740Y-108432600D01*
X141678452Y-108595328D01*
X141266509Y-108942096D01*
X141021656Y-109440439D01*
X141134503Y-109651800D01*
X142699740Y-109651800D01*
X142699740Y-109956600D01*
X141134503Y-109956600D01*
X141021656Y-110167961D01*
X141266509Y-110666304D01*
X141678452Y-111013072D01*
X142191740Y-111175800D01*
X142699740Y-111175800D01*
X142699740Y-111455200D01*
X142312293Y-111455200D01*
X141884606Y-111540272D01*
X141522030Y-111782537D01*
X141279765Y-112145113D01*
X141194693Y-112572800D01*
X141279765Y-113000487D01*
X141522030Y-113363063D01*
X141884606Y-113605328D01*
X142312293Y-113690400D01*
X143391987Y-113690400D01*
X143819674Y-113605328D01*
X144182250Y-113363063D01*
X144424515Y-113000487D01*
X144509587Y-112572800D01*
X144509587Y-113701800D01*
X127410307Y-113701800D01*
X127410307Y-111175800D01*
X127410307Y-108407200D01*
X127410307Y-105638600D01*
X127325235Y-105210913D01*
X127082970Y-104848337D01*
X126720394Y-104606072D01*
X126292707Y-104521000D01*
X125213013Y-104521000D01*
X124785326Y-104606072D01*
X124422750Y-104848337D01*
X124180485Y-105210913D01*
X124095413Y-105638600D01*
X124180485Y-106066287D01*
X124422750Y-106428863D01*
X124785326Y-106671128D01*
X125213013Y-106756200D01*
X126292707Y-106756200D01*
X126720394Y-106671128D01*
X127082970Y-106428863D01*
X127325235Y-106066287D01*
X127410307Y-105638600D01*
X127410307Y-108407200D01*
X127325235Y-107979513D01*
X127082970Y-107616937D01*
X126720394Y-107374672D01*
X126292707Y-107289600D01*
X125213013Y-107289600D01*
X124785326Y-107374672D01*
X124422750Y-107616937D01*
X124180485Y-107979513D01*
X124095413Y-108407200D01*
X124180485Y-108834887D01*
X124422750Y-109197463D01*
X124785326Y-109439728D01*
X125213013Y-109524800D01*
X126292707Y-109524800D01*
X126720394Y-109439728D01*
X127082970Y-109197463D01*
X127325235Y-108834887D01*
X127410307Y-108407200D01*
X127410307Y-111175800D01*
X127325235Y-110748113D01*
X127082970Y-110385537D01*
X126720394Y-110143272D01*
X126292707Y-110058200D01*
X125213013Y-110058200D01*
X124785326Y-110143272D01*
X124422750Y-110385537D01*
X124180485Y-110748113D01*
X124095413Y-111175800D01*
X124180485Y-111603487D01*
X124422750Y-111966063D01*
X124785326Y-112208328D01*
X125213013Y-112293400D01*
X126292707Y-112293400D01*
X126720394Y-112208328D01*
X127082970Y-111966063D01*
X127325235Y-111603487D01*
X127410307Y-111175800D01*
X127410307Y-113701800D01*
X123727624Y-113701800D01*
X123727624Y-110167961D01*
X123727624Y-109440439D01*
X123482771Y-108942096D01*
X123070828Y-108595328D01*
X122557540Y-108432600D01*
X122049540Y-108432600D01*
X122049540Y-109651800D01*
X123614777Y-109651800D01*
X123727624Y-109440439D01*
X123727624Y-110167961D01*
X123614777Y-109956600D01*
X122049540Y-109956600D01*
X122049540Y-111175800D01*
X122557540Y-111175800D01*
X123070828Y-111013072D01*
X123482771Y-110666304D01*
X123727624Y-110167961D01*
X123727624Y-113701800D01*
X121573961Y-113701800D01*
X121562561Y-113690400D01*
X122436987Y-113690400D01*
X122864674Y-113605328D01*
X123227250Y-113363063D01*
X123469515Y-113000487D01*
X123554587Y-112572800D01*
X123469515Y-112145113D01*
X123227250Y-111782537D01*
X122864674Y-111540272D01*
X122436987Y-111455200D01*
X121357293Y-111455200D01*
X120929606Y-111540272D01*
X120727200Y-111675515D01*
X120727200Y-111014260D01*
X121236740Y-111175800D01*
X121744740Y-111175800D01*
X121744740Y-109956600D01*
X121724740Y-109956600D01*
X121724740Y-109651800D01*
X121744740Y-109651800D01*
X121744740Y-108432600D01*
X121236740Y-108432600D01*
X120727200Y-108594139D01*
X120727200Y-107932884D01*
X120929606Y-108068128D01*
X121357293Y-108153200D01*
X122436987Y-108153200D01*
X122864674Y-108068128D01*
X123227250Y-107825863D01*
X123469515Y-107463287D01*
X123554587Y-107035600D01*
X123469515Y-106607913D01*
X123227250Y-106245337D01*
X122864674Y-106003072D01*
X122436987Y-105918000D01*
X121357293Y-105918000D01*
X120929606Y-106003072D01*
X120727200Y-106138315D01*
X120727200Y-105164284D01*
X120929606Y-105299528D01*
X121357293Y-105384600D01*
X122436987Y-105384600D01*
X122864674Y-105299528D01*
X123227250Y-105057263D01*
X123469515Y-104694687D01*
X123554587Y-104267000D01*
X123469515Y-103839313D01*
X123227250Y-103476737D01*
X122864674Y-103234472D01*
X122436987Y-103149400D01*
X121357293Y-103149400D01*
X120929606Y-103234472D01*
X120727200Y-103369715D01*
X120727200Y-102370284D01*
X120929606Y-102505528D01*
X121357293Y-102590600D01*
X122436987Y-102590600D01*
X122864674Y-102505528D01*
X123227250Y-102263263D01*
X123381908Y-102031800D01*
X123624600Y-102031800D01*
X123838444Y-101989264D01*
X124019731Y-101868131D01*
X124140864Y-101686844D01*
X124183400Y-101473000D01*
X124183400Y-100533449D01*
X124422750Y-100891663D01*
X124785326Y-101133928D01*
X125213013Y-101219000D01*
X126292707Y-101219000D01*
X126720394Y-101133928D01*
X127082970Y-100891663D01*
X127325235Y-100529087D01*
X127410307Y-100101400D01*
X127325235Y-99673713D01*
X127082970Y-99311137D01*
X126783742Y-99111200D01*
X126819500Y-99111200D01*
X127033343Y-99068664D01*
X127033344Y-99068664D01*
X127214631Y-98947531D01*
X144323362Y-81838800D01*
X189777231Y-81838800D01*
X189879061Y-81991200D01*
X164190100Y-81991200D01*
X163976256Y-82033736D01*
X163885612Y-82094302D01*
X163794968Y-82154869D01*
X150506037Y-95443800D01*
X148379769Y-95443800D01*
X148379769Y-86207600D01*
X148207691Y-85342506D01*
X147717655Y-84609114D01*
X146984263Y-84119078D01*
X146119169Y-83947000D01*
X143440831Y-83947000D01*
X142575737Y-84119078D01*
X141842345Y-84609114D01*
X141352309Y-85342506D01*
X141180231Y-86207600D01*
X141352309Y-87072694D01*
X141842345Y-87806086D01*
X142575737Y-88296122D01*
X143440831Y-88468200D01*
X146119169Y-88468200D01*
X146984263Y-88296122D01*
X147717655Y-87806086D01*
X148207691Y-87072694D01*
X148379769Y-86207600D01*
X148379769Y-95443800D01*
X147904267Y-95443800D01*
X148037970Y-95354463D01*
X148280235Y-94991887D01*
X148365307Y-94564200D01*
X148280235Y-94136513D01*
X148037970Y-93773937D01*
X147675394Y-93531672D01*
X147247707Y-93446600D01*
X146168013Y-93446600D01*
X145740326Y-93531672D01*
X145377750Y-93773937D01*
X145135485Y-94136513D01*
X145050413Y-94564200D01*
X145135485Y-94991887D01*
X145377750Y-95354463D01*
X145511452Y-95443800D01*
X145074500Y-95443800D01*
X144860656Y-95486336D01*
X144770012Y-95546902D01*
X144679368Y-95607469D01*
X144484707Y-95802129D01*
X144484707Y-93929200D01*
X144484707Y-92405200D01*
X144458399Y-92269611D01*
X144380117Y-92150441D01*
X144261939Y-92070669D01*
X144122140Y-92042633D01*
X141582140Y-92042633D01*
X141446551Y-92068941D01*
X141327381Y-92147223D01*
X141247609Y-92265401D01*
X141219573Y-92405200D01*
X141219573Y-93929200D01*
X141245881Y-94064789D01*
X141324163Y-94183959D01*
X141442341Y-94263731D01*
X141582140Y-94291767D01*
X144122140Y-94291767D01*
X144257729Y-94265459D01*
X144376899Y-94187177D01*
X144456671Y-94068999D01*
X144484707Y-93929200D01*
X144484707Y-95802129D01*
X144483281Y-95803555D01*
X144424515Y-95508113D01*
X144182250Y-95145537D01*
X143819674Y-94903272D01*
X143391987Y-94818200D01*
X142312293Y-94818200D01*
X141884606Y-94903272D01*
X141522030Y-95145537D01*
X141279765Y-95508113D01*
X141194693Y-95935800D01*
X141279765Y-96363487D01*
X141522030Y-96726063D01*
X141574766Y-96761300D01*
X133030300Y-96761300D01*
X132816456Y-96803836D01*
X132635169Y-96924969D01*
X127248938Y-102311200D01*
X127237628Y-102311200D01*
X127082970Y-102079737D01*
X126720394Y-101837472D01*
X126292707Y-101752400D01*
X125213013Y-101752400D01*
X124785326Y-101837472D01*
X124422750Y-102079737D01*
X124180485Y-102442313D01*
X124095413Y-102870000D01*
X124180485Y-103297687D01*
X124422750Y-103660263D01*
X124785326Y-103902528D01*
X125213013Y-103987600D01*
X126292707Y-103987600D01*
X126720394Y-103902528D01*
X127082970Y-103660263D01*
X127237628Y-103428800D01*
X127480400Y-103428800D01*
X127694243Y-103386264D01*
X127694244Y-103386264D01*
X127875531Y-103265131D01*
X133261762Y-97878900D01*
X141574766Y-97878900D01*
X141522030Y-97914137D01*
X141279765Y-98276713D01*
X141194693Y-98704400D01*
X141279765Y-99132087D01*
X141522030Y-99494663D01*
X141884606Y-99736928D01*
X142312293Y-99822000D01*
X143391987Y-99822000D01*
X143819674Y-99736928D01*
X144182250Y-99494663D01*
X144269021Y-99364800D01*
X144681200Y-99364800D01*
X144933924Y-99314530D01*
X145148173Y-99171373D01*
X145291330Y-98957124D01*
X145341600Y-98704400D01*
X145341600Y-98068960D01*
X145377750Y-98123063D01*
X145740326Y-98365328D01*
X146168013Y-98450400D01*
X147247707Y-98450400D01*
X147675394Y-98365328D01*
X148037970Y-98123063D01*
X148124741Y-97993200D01*
X153304200Y-97993200D01*
X153556924Y-97942930D01*
X153771173Y-97799773D01*
X157743346Y-93827600D01*
X162174573Y-93827600D01*
X162174573Y-93828000D01*
X160077000Y-93828000D01*
X159863156Y-93870536D01*
X159681869Y-93991669D01*
X152759338Y-100914200D01*
X148004240Y-100914200D01*
X148037970Y-100891663D01*
X148280235Y-100529087D01*
X148365307Y-100101400D01*
X148280235Y-99673713D01*
X148037970Y-99311137D01*
X147675394Y-99068872D01*
X147247707Y-98983800D01*
X146168013Y-98983800D01*
X145740326Y-99068872D01*
X145377750Y-99311137D01*
X145135485Y-99673713D01*
X145050413Y-100101400D01*
X145135485Y-100529087D01*
X145377750Y-100891663D01*
X145411479Y-100914200D01*
X144336908Y-100914200D01*
X144182250Y-100682737D01*
X143819674Y-100440472D01*
X143391987Y-100355400D01*
X142312293Y-100355400D01*
X141884606Y-100440472D01*
X141522030Y-100682737D01*
X141279765Y-101045313D01*
X141194693Y-101473000D01*
X141279765Y-101900687D01*
X141522030Y-102263263D01*
X141884606Y-102505528D01*
X142312293Y-102590600D01*
X143391987Y-102590600D01*
X143819674Y-102505528D01*
X144182250Y-102263263D01*
X144336908Y-102031800D01*
X145449492Y-102031800D01*
X145377750Y-102079737D01*
X145135485Y-102442313D01*
X145050413Y-102870000D01*
X145135485Y-103297687D01*
X145377750Y-103660263D01*
X145740326Y-103902528D01*
X146168013Y-103987600D01*
X147247707Y-103987600D01*
X147675394Y-103902528D01*
X148037970Y-103660263D01*
X148192628Y-103428800D01*
X156529600Y-103428800D01*
X156743443Y-103386264D01*
X156743444Y-103386264D01*
X156924731Y-103265131D01*
X162310962Y-97878900D01*
X162529766Y-97878900D01*
X162477030Y-97914137D01*
X162234765Y-98276713D01*
X162149693Y-98704400D01*
X162234765Y-99132087D01*
X162477030Y-99494663D01*
X162839606Y-99736928D01*
X163267293Y-99822000D01*
X164346987Y-99822000D01*
X164774674Y-99736928D01*
X165137250Y-99494663D01*
X165379515Y-99132087D01*
X165464587Y-98704400D01*
X165379515Y-98276713D01*
X165137250Y-97914137D01*
X165084513Y-97878900D01*
X165327400Y-97878900D01*
X165541243Y-97836364D01*
X165541244Y-97836364D01*
X165722531Y-97715231D01*
X166021929Y-97415832D01*
X166090485Y-97760487D01*
X166332750Y-98123063D01*
X166490422Y-98228415D01*
X165139469Y-99579369D01*
X165018336Y-99760656D01*
X164975800Y-99974500D01*
X164975800Y-100574859D01*
X164774674Y-100440472D01*
X164346987Y-100355400D01*
X163267293Y-100355400D01*
X162839606Y-100440472D01*
X162477030Y-100682737D01*
X162234765Y-101045313D01*
X162149693Y-101473000D01*
X162234765Y-101900687D01*
X162477030Y-102263263D01*
X162839606Y-102505528D01*
X163267293Y-102590600D01*
X164346987Y-102590600D01*
X164774674Y-102505528D01*
X165137250Y-102263263D01*
X165291908Y-102031800D01*
X165534600Y-102031800D01*
X165748444Y-101989264D01*
X165929731Y-101868131D01*
X166050864Y-101686844D01*
X166093400Y-101473000D01*
X166093400Y-100533449D01*
X166332750Y-100891663D01*
X166695326Y-101133928D01*
X167123013Y-101219000D01*
X168202707Y-101219000D01*
X168630394Y-101133928D01*
X168992970Y-100891663D01*
X169235235Y-100529087D01*
X169320307Y-100101400D01*
X169235235Y-99673713D01*
X168992970Y-99311137D01*
X168693742Y-99111200D01*
X178027837Y-99111200D01*
X174827837Y-102311200D01*
X169147628Y-102311200D01*
X168992970Y-102079737D01*
X168630394Y-101837472D01*
X168202707Y-101752400D01*
X167123013Y-101752400D01*
X166695326Y-101837472D01*
X166332750Y-102079737D01*
X166090485Y-102442313D01*
X166005413Y-102870000D01*
X166090485Y-103297687D01*
X166332750Y-103660263D01*
X166695326Y-103902528D01*
X167123013Y-103987600D01*
X168202707Y-103987600D01*
X168630394Y-103902528D01*
X168992970Y-103660263D01*
X169147628Y-103428800D01*
X175059300Y-103428800D01*
X175273143Y-103386264D01*
X175273144Y-103386264D01*
X175454431Y-103265131D01*
X189640225Y-89079337D01*
X189689625Y-89327687D01*
X189931890Y-89690263D01*
X189940689Y-89696142D01*
X189940689Y-89696142D01*
G37*
X189940689Y-89696142D02*
X189822869Y-89774869D01*
X188878069Y-90719669D01*
X188756936Y-90900956D01*
X188714400Y-91114800D01*
X188714400Y-109555837D01*
X188442600Y-109827637D01*
X188442600Y-105690871D01*
X188442600Y-105129129D01*
X188357528Y-104701442D01*
X188115263Y-104338866D01*
X187752687Y-104096601D01*
X187325000Y-104011529D01*
X186897313Y-104096601D01*
X186534737Y-104338866D01*
X186292472Y-104701442D01*
X186207400Y-105129129D01*
X186207400Y-105690871D01*
X186292472Y-106118558D01*
X186534737Y-106481134D01*
X186897313Y-106723399D01*
X187325000Y-106808471D01*
X187752687Y-106723399D01*
X188115263Y-106481134D01*
X188357528Y-106118558D01*
X188442600Y-105690871D01*
X188442600Y-109827637D01*
X184385983Y-113884254D01*
X184385983Y-103363398D01*
X184284013Y-103022400D01*
X181762400Y-103022400D01*
X181762400Y-105067100D01*
X182397400Y-105067100D01*
X183226593Y-104841535D01*
X183906347Y-104315821D01*
X184333176Y-103569994D01*
X184385983Y-103363398D01*
X184385983Y-113884254D01*
X184238608Y-114031629D01*
X184238608Y-107569000D01*
X184090698Y-106825408D01*
X183669487Y-106195021D01*
X183039100Y-105773810D01*
X182295508Y-105625900D01*
X180924492Y-105625900D01*
X180180900Y-105773810D01*
X179550513Y-106195021D01*
X179129302Y-106825408D01*
X178981392Y-107569000D01*
X179129302Y-108312592D01*
X179550513Y-108942979D01*
X180180900Y-109364190D01*
X180924492Y-109512100D01*
X182295508Y-109512100D01*
X183039100Y-109364190D01*
X183669487Y-108942979D01*
X184090698Y-108312592D01*
X184238608Y-107569000D01*
X184238608Y-114031629D01*
X183454853Y-114815384D01*
X183286648Y-114745539D01*
X182968348Y-114745261D01*
X182674172Y-114866813D01*
X182448904Y-115091688D01*
X182326839Y-115385652D01*
X182326561Y-115703952D01*
X182448113Y-115998128D01*
X182485472Y-116035552D01*
X182431169Y-116116001D01*
X182403133Y-116255800D01*
X182403133Y-119253000D01*
X182429441Y-119388589D01*
X182507723Y-119507759D01*
X182581411Y-119557500D01*
X181908236Y-119557500D01*
X181979059Y-119510977D01*
X182058831Y-119392799D01*
X182086867Y-119253000D01*
X182086867Y-116255800D01*
X182060559Y-116120211D01*
X181982277Y-116001041D01*
X181864099Y-115921269D01*
X181724300Y-115893233D01*
X181533800Y-115893233D01*
X181533800Y-115798300D01*
X181491264Y-115584457D01*
X181491264Y-115584456D01*
X181370131Y-115403169D01*
X178812300Y-112845338D01*
X178812300Y-104343900D01*
X178931396Y-104225012D01*
X179053461Y-103931048D01*
X179053521Y-103861276D01*
X179313653Y-104315821D01*
X179993407Y-104841535D01*
X180822600Y-105067100D01*
X181457600Y-105067100D01*
X181457600Y-103022400D01*
X178935987Y-103022400D01*
X178866960Y-103253231D01*
X178707312Y-103093304D01*
X178493517Y-103004528D01*
X178900181Y-102597864D01*
X178935987Y-102717600D01*
X181457600Y-102717600D01*
X181457600Y-102697600D01*
X181762400Y-102697600D01*
X181762400Y-102717600D01*
X184284013Y-102717600D01*
X184385983Y-102376602D01*
X184333176Y-102170006D01*
X183906347Y-101424179D01*
X183345465Y-100990400D01*
X186282892Y-100990400D01*
X186292472Y-101038558D01*
X186534737Y-101401134D01*
X186897313Y-101643399D01*
X187325000Y-101728471D01*
X187752687Y-101643399D01*
X188115263Y-101401134D01*
X188357528Y-101038558D01*
X188442600Y-100610871D01*
X188442600Y-100049129D01*
X188357528Y-99621442D01*
X188115263Y-99258866D01*
X187752687Y-99016601D01*
X187325000Y-98931529D01*
X186897313Y-99016601D01*
X186534737Y-99258866D01*
X186292472Y-99621442D01*
X186282892Y-99669600D01*
X180234100Y-99669600D01*
X179981376Y-99719870D01*
X179767127Y-99863027D01*
X173267654Y-106362500D01*
X169037312Y-106362500D01*
X169235235Y-106066287D01*
X169320307Y-105638600D01*
X169235235Y-105210913D01*
X168992970Y-104848337D01*
X168630394Y-104606072D01*
X168202707Y-104521000D01*
X167123013Y-104521000D01*
X166695326Y-104606072D01*
X166332750Y-104848337D01*
X166296600Y-104902439D01*
X166296600Y-104267000D01*
X166246330Y-104014276D01*
X166103173Y-103800027D01*
X165888924Y-103656870D01*
X165636200Y-103606600D01*
X165224021Y-103606600D01*
X165137250Y-103476737D01*
X164774674Y-103234472D01*
X164346987Y-103149400D01*
X163267293Y-103149400D01*
X162839606Y-103234472D01*
X162477030Y-103476737D01*
X162234765Y-103839313D01*
X162149693Y-104267000D01*
X162234765Y-104694687D01*
X162477030Y-105057263D01*
X162839606Y-105299528D01*
X163267293Y-105384600D01*
X164346987Y-105384600D01*
X164774674Y-105299528D01*
X164975800Y-105165140D01*
X164975800Y-105994500D01*
X165008595Y-106159372D01*
X164774674Y-106003072D01*
X164346987Y-105918000D01*
X163267293Y-105918000D01*
X162839606Y-106003072D01*
X162477030Y-106245337D01*
X162234765Y-106607913D01*
X162149693Y-107035600D01*
X162234765Y-107463287D01*
X162477030Y-107825863D01*
X162839606Y-108068128D01*
X163267293Y-108153200D01*
X164346987Y-108153200D01*
X164774674Y-108068128D01*
X165137250Y-107825863D01*
X165379515Y-107463287D01*
X165464587Y-107035600D01*
X165395368Y-106687614D01*
X166197627Y-107489873D01*
X166360270Y-107598548D01*
X166332750Y-107616937D01*
X166090485Y-107979513D01*
X166005413Y-108407200D01*
X166090485Y-108834887D01*
X166332750Y-109197463D01*
X166695326Y-109439728D01*
X167123013Y-109524800D01*
X168202707Y-109524800D01*
X168630394Y-109439728D01*
X168992970Y-109197463D01*
X169235235Y-108834887D01*
X169320307Y-108407200D01*
X169235235Y-107979513D01*
X169037312Y-107683300D01*
X172880800Y-107683300D01*
X172880800Y-110802900D01*
X172931070Y-111055624D01*
X173074227Y-111269873D01*
X177697586Y-115893233D01*
X177685700Y-115893233D01*
X177550111Y-115919541D01*
X177430941Y-115997823D01*
X177351169Y-116116001D01*
X177323133Y-116255800D01*
X177323133Y-119253000D01*
X177349441Y-119388589D01*
X177427723Y-119507759D01*
X177545901Y-119587531D01*
X177685700Y-119615567D01*
X177774600Y-119615567D01*
X177774600Y-119812100D01*
X177824870Y-120064824D01*
X177968027Y-120279073D01*
X178182276Y-120422230D01*
X178435000Y-120472500D01*
X178771763Y-120472500D01*
X178700941Y-120519023D01*
X178621169Y-120637201D01*
X178593133Y-120777000D01*
X178593133Y-123774200D01*
X178619441Y-123909789D01*
X178697723Y-124028959D01*
X178815901Y-124108731D01*
X178955700Y-124136767D01*
X180454300Y-124136767D01*
X180589889Y-124110459D01*
X180709059Y-124032177D01*
X180788831Y-123913999D01*
X180816867Y-123774200D01*
X180816867Y-120878300D01*
X181133133Y-120878300D01*
X181133133Y-123774200D01*
X181159441Y-123909789D01*
X181237723Y-124028959D01*
X181355901Y-124108731D01*
X181495700Y-124136767D01*
X181545146Y-124136767D01*
X181445039Y-124377852D01*
X181444761Y-124696152D01*
X181566313Y-124990328D01*
X181791188Y-125215596D01*
X182085152Y-125337661D01*
X182403452Y-125337939D01*
X182697628Y-125216387D01*
X182922896Y-124991512D01*
X183044961Y-124697548D01*
X183045239Y-124379248D01*
X182945047Y-124136767D01*
X182994300Y-124136767D01*
X183129889Y-124110459D01*
X183249059Y-124032177D01*
X183328831Y-123913999D01*
X183356867Y-123774200D01*
X183356867Y-120878300D01*
X183673133Y-120878300D01*
X183673133Y-123774200D01*
X183699441Y-123909789D01*
X183777723Y-124028959D01*
X183895901Y-124108731D01*
X184023000Y-124134220D01*
X184023000Y-124250932D01*
X183985039Y-124342352D01*
X183984761Y-124660652D01*
X184106313Y-124954828D01*
X184331188Y-125180096D01*
X184625152Y-125302161D01*
X184943452Y-125302439D01*
X185035996Y-125264200D01*
X188990869Y-125264200D01*
X189095897Y-125369227D01*
X188802313Y-125427625D01*
X188439737Y-125669890D01*
X188197472Y-126032466D01*
X188112400Y-126460153D01*
X188112400Y-127539847D01*
X188197472Y-127967534D01*
X188331886Y-128168700D01*
X187588113Y-128168700D01*
X187722528Y-127967534D01*
X187807600Y-127539847D01*
X187807600Y-126460153D01*
X187722528Y-126032466D01*
X187480263Y-125669890D01*
X187117687Y-125427625D01*
X186690000Y-125342553D01*
X186262313Y-125427625D01*
X185899737Y-125669890D01*
X185657472Y-126032466D01*
X185572400Y-126460153D01*
X185572400Y-127539847D01*
X185657472Y-127967534D01*
X185791886Y-128168700D01*
X185048113Y-128168700D01*
X185182528Y-127967534D01*
X185267600Y-127539847D01*
X185267600Y-126460153D01*
X185182528Y-126032466D01*
X184940263Y-125669890D01*
X184577687Y-125427625D01*
X184150000Y-125342553D01*
X183722313Y-125427625D01*
X183359737Y-125669890D01*
X183117472Y-126032466D01*
X183032400Y-126460153D01*
X183032400Y-127539847D01*
X183117472Y-127967534D01*
X183251886Y-128168700D01*
X182508113Y-128168700D01*
X182642528Y-127967534D01*
X182727600Y-127539847D01*
X182727600Y-126460153D01*
X182642528Y-126032466D01*
X182400263Y-125669890D01*
X182037687Y-125427625D01*
X181610000Y-125342553D01*
X181182313Y-125427625D01*
X180819737Y-125669890D01*
X180577472Y-126032466D01*
X180492400Y-126460153D01*
X180492400Y-127539847D01*
X180577472Y-127967534D01*
X180711886Y-128168700D01*
X179968113Y-128168700D01*
X180102528Y-127967534D01*
X180187600Y-127539847D01*
X180187600Y-126460153D01*
X180102528Y-126032466D01*
X179860263Y-125669890D01*
X179497687Y-125427625D01*
X179070000Y-125342553D01*
X178642313Y-125427625D01*
X178279737Y-125669890D01*
X178037472Y-126032466D01*
X177952400Y-126460153D01*
X177952400Y-127539847D01*
X178037472Y-127967534D01*
X178171886Y-128168700D01*
X177428113Y-128168700D01*
X177562528Y-127967534D01*
X177647600Y-127539847D01*
X177647600Y-126460153D01*
X177562528Y-126032466D01*
X177320263Y-125669890D01*
X176957687Y-125427625D01*
X176530000Y-125342553D01*
X176102313Y-125427625D01*
X175739737Y-125669890D01*
X175497472Y-126032466D01*
X175412400Y-126460153D01*
X175412400Y-127539847D01*
X175497472Y-127967534D01*
X175631886Y-128168700D01*
X174888113Y-128168700D01*
X175022528Y-127967534D01*
X175107600Y-127539847D01*
X175107600Y-126460153D01*
X175022528Y-126032466D01*
X174780263Y-125669890D01*
X174417687Y-125427625D01*
X173990000Y-125342553D01*
X173562313Y-125427625D01*
X173199737Y-125669890D01*
X172957472Y-126032466D01*
X172872400Y-126460153D01*
X172872400Y-127539847D01*
X172957472Y-127967534D01*
X173091886Y-128168700D01*
X172348113Y-128168700D01*
X172482528Y-127967534D01*
X172567600Y-127539847D01*
X172567600Y-126460153D01*
X172482528Y-126032466D01*
X172240263Y-125669890D01*
X171877687Y-125427625D01*
X171450000Y-125342553D01*
X171022313Y-125427625D01*
X170659737Y-125669890D01*
X170417472Y-126032466D01*
X170332400Y-126460153D01*
X170332400Y-127539847D01*
X170417472Y-127967534D01*
X170551886Y-128168700D01*
X169334769Y-128168700D01*
X169334769Y-119532400D01*
X169320307Y-119459694D01*
X169320307Y-111175800D01*
X169235235Y-110748113D01*
X168992970Y-110385537D01*
X168630394Y-110143272D01*
X168202707Y-110058200D01*
X167123013Y-110058200D01*
X166695326Y-110143272D01*
X166332750Y-110385537D01*
X166090485Y-110748113D01*
X166005413Y-111175800D01*
X166090485Y-111603487D01*
X166332750Y-111966063D01*
X166695326Y-112208328D01*
X167123013Y-112293400D01*
X168202707Y-112293400D01*
X168630394Y-112208328D01*
X168992970Y-111966063D01*
X169235235Y-111603487D01*
X169320307Y-111175800D01*
X169320307Y-119459694D01*
X169162691Y-118667306D01*
X168672655Y-117933914D01*
X167939263Y-117443878D01*
X167074169Y-117271800D01*
X165637624Y-117271800D01*
X165637624Y-110167961D01*
X165637624Y-109440439D01*
X165392771Y-108942096D01*
X164980828Y-108595328D01*
X164467540Y-108432600D01*
X163959540Y-108432600D01*
X163959540Y-109651800D01*
X165524777Y-109651800D01*
X165637624Y-109440439D01*
X165637624Y-110167961D01*
X165524777Y-109956600D01*
X163959540Y-109956600D01*
X163959540Y-111175800D01*
X164467540Y-111175800D01*
X164980828Y-111013072D01*
X165392771Y-110666304D01*
X165637624Y-110167961D01*
X165637624Y-117271800D01*
X164395831Y-117271800D01*
X163530737Y-117443878D01*
X162797345Y-117933914D01*
X162307309Y-118667306D01*
X162135231Y-119532400D01*
X162307309Y-120397494D01*
X162797345Y-121130886D01*
X163530737Y-121620922D01*
X164395831Y-121793000D01*
X167074169Y-121793000D01*
X167939263Y-121620922D01*
X168672655Y-121130886D01*
X169162691Y-120397494D01*
X169334769Y-119532400D01*
X169334769Y-128168700D01*
X167268113Y-128168700D01*
X167402528Y-127967534D01*
X167487600Y-127539847D01*
X167487600Y-126460153D01*
X167402528Y-126032466D01*
X167160263Y-125669890D01*
X166797687Y-125427625D01*
X166370000Y-125342553D01*
X165942313Y-125427625D01*
X165579737Y-125669890D01*
X165337472Y-126032466D01*
X165252400Y-126460153D01*
X165252400Y-127539847D01*
X165337472Y-127967534D01*
X165471886Y-128168700D01*
X164728113Y-128168700D01*
X164862528Y-127967534D01*
X164947600Y-127539847D01*
X164947600Y-126460153D01*
X164862528Y-126032466D01*
X164620263Y-125669890D01*
X164257687Y-125427625D01*
X163830000Y-125342553D01*
X163402313Y-125427625D01*
X163039737Y-125669890D01*
X162797472Y-126032466D01*
X162712400Y-126460153D01*
X162712400Y-127539847D01*
X162797472Y-127967534D01*
X162931886Y-128168700D01*
X162188113Y-128168700D01*
X162322528Y-127967534D01*
X162407600Y-127539847D01*
X162407600Y-126460153D01*
X162322528Y-126032466D01*
X162080263Y-125669890D01*
X161848800Y-125515231D01*
X161848800Y-112443146D01*
X162137428Y-112323887D01*
X162214510Y-112246938D01*
X162149693Y-112572800D01*
X162234765Y-113000487D01*
X162477030Y-113363063D01*
X162839606Y-113605328D01*
X163267293Y-113690400D01*
X164346987Y-113690400D01*
X164774674Y-113605328D01*
X165137250Y-113363063D01*
X165379515Y-113000487D01*
X165464587Y-112572800D01*
X165379515Y-112145113D01*
X165137250Y-111782537D01*
X164774674Y-111540272D01*
X164346987Y-111455200D01*
X163654740Y-111455200D01*
X163654740Y-111175800D01*
X163654740Y-109956600D01*
X163654740Y-109651800D01*
X163654740Y-108432600D01*
X163146740Y-108432600D01*
X162633452Y-108595328D01*
X162221509Y-108942096D01*
X161976656Y-109440439D01*
X162089503Y-109651800D01*
X163654740Y-109651800D01*
X163654740Y-109956600D01*
X162089503Y-109956600D01*
X161976656Y-110167961D01*
X162221509Y-110666304D01*
X162633452Y-111013072D01*
X163146740Y-111175800D01*
X163654740Y-111175800D01*
X163654740Y-111455200D01*
X163267293Y-111455200D01*
X162839606Y-111540272D01*
X162484785Y-111777355D01*
X162485039Y-111486748D01*
X162363487Y-111192572D01*
X162138612Y-110967304D01*
X161844648Y-110845239D01*
X161526348Y-110844961D01*
X161232172Y-110966513D01*
X161006904Y-111191388D01*
X160884839Y-111485352D01*
X160884686Y-111660108D01*
X160773736Y-111826156D01*
X160731200Y-112040000D01*
X160731200Y-125515231D01*
X160499737Y-125669890D01*
X160257472Y-126032466D01*
X160172400Y-126460153D01*
X160172400Y-127539847D01*
X160257472Y-127967534D01*
X160391886Y-128168700D01*
X159648113Y-128168700D01*
X159782528Y-127967534D01*
X159867600Y-127539847D01*
X159867600Y-126460153D01*
X159782528Y-126032466D01*
X159540263Y-125669890D01*
X159177687Y-125427625D01*
X158750000Y-125342553D01*
X158322313Y-125427625D01*
X157959737Y-125669890D01*
X157717472Y-126032466D01*
X157632400Y-126460153D01*
X157632400Y-127539847D01*
X157717472Y-127967534D01*
X157851886Y-128168700D01*
X157108113Y-128168700D01*
X157242528Y-127967534D01*
X157327600Y-127539847D01*
X157327600Y-126460153D01*
X157242528Y-126032466D01*
X157000263Y-125669890D01*
X156768800Y-125515231D01*
X156768800Y-125272500D01*
X156726264Y-125058657D01*
X156726264Y-125058656D01*
X156665697Y-124968012D01*
X156605131Y-124877369D01*
X156605131Y-124877368D01*
X148365307Y-116637544D01*
X148365307Y-111175800D01*
X148365307Y-108407200D01*
X148365307Y-105638600D01*
X148280235Y-105210913D01*
X148037970Y-104848337D01*
X147675394Y-104606072D01*
X147247707Y-104521000D01*
X146168013Y-104521000D01*
X145740326Y-104606072D01*
X145377750Y-104848337D01*
X145135485Y-105210913D01*
X145050413Y-105638600D01*
X145135485Y-106066287D01*
X145377750Y-106428863D01*
X145740326Y-106671128D01*
X146168013Y-106756200D01*
X147247707Y-106756200D01*
X147675394Y-106671128D01*
X148037970Y-106428863D01*
X148280235Y-106066287D01*
X148365307Y-105638600D01*
X148365307Y-108407200D01*
X148280235Y-107979513D01*
X148037970Y-107616937D01*
X147675394Y-107374672D01*
X147247707Y-107289600D01*
X146168013Y-107289600D01*
X145740326Y-107374672D01*
X145377750Y-107616937D01*
X145135485Y-107979513D01*
X145050413Y-108407200D01*
X145135485Y-108834887D01*
X145377750Y-109197463D01*
X145740326Y-109439728D01*
X146168013Y-109524800D01*
X147247707Y-109524800D01*
X147675394Y-109439728D01*
X148037970Y-109197463D01*
X148280235Y-108834887D01*
X148365307Y-108407200D01*
X148365307Y-111175800D01*
X148280235Y-110748113D01*
X148037970Y-110385537D01*
X147675394Y-110143272D01*
X147247707Y-110058200D01*
X146168013Y-110058200D01*
X145740326Y-110143272D01*
X145377750Y-110385537D01*
X145135485Y-110748113D01*
X145050413Y-111175800D01*
X145135485Y-111603487D01*
X145377750Y-111966063D01*
X145740326Y-112208328D01*
X146168013Y-112293400D01*
X147247707Y-112293400D01*
X147675394Y-112208328D01*
X148037970Y-111966063D01*
X148280235Y-111603487D01*
X148365307Y-111175800D01*
X148365307Y-116637544D01*
X145593231Y-113865469D01*
X145411944Y-113744336D01*
X145198100Y-113701800D01*
X144682624Y-113701800D01*
X144682624Y-110167961D01*
X144682624Y-109440439D01*
X144509587Y-109088261D01*
X144509587Y-107035600D01*
X144509587Y-104267000D01*
X144424515Y-103839313D01*
X144182250Y-103476737D01*
X143819674Y-103234472D01*
X143391987Y-103149400D01*
X142312293Y-103149400D01*
X141884606Y-103234472D01*
X141522030Y-103476737D01*
X141279765Y-103839313D01*
X141194693Y-104267000D01*
X141279765Y-104694687D01*
X141522030Y-105057263D01*
X141884606Y-105299528D01*
X142312293Y-105384600D01*
X143391987Y-105384600D01*
X143819674Y-105299528D01*
X144182250Y-105057263D01*
X144424515Y-104694687D01*
X144509587Y-104267000D01*
X144509587Y-107035600D01*
X144424515Y-106607913D01*
X144182250Y-106245337D01*
X143819674Y-106003072D01*
X143391987Y-105918000D01*
X142312293Y-105918000D01*
X141884606Y-106003072D01*
X141522030Y-106245337D01*
X141279765Y-106607913D01*
X141194693Y-107035600D01*
X141279765Y-107463287D01*
X141522030Y-107825863D01*
X141884606Y-108068128D01*
X142312293Y-108153200D01*
X143391987Y-108153200D01*
X143819674Y-108068128D01*
X144182250Y-107825863D01*
X144424515Y-107463287D01*
X144509587Y-107035600D01*
X144509587Y-109088261D01*
X144437771Y-108942096D01*
X144025828Y-108595328D01*
X143512540Y-108432600D01*
X143004540Y-108432600D01*
X143004540Y-109651800D01*
X144569777Y-109651800D01*
X144682624Y-109440439D01*
X144682624Y-110167961D01*
X144569777Y-109956600D01*
X143004540Y-109956600D01*
X143004540Y-111175800D01*
X143512540Y-111175800D01*
X144025828Y-111013072D01*
X144437771Y-110666304D01*
X144682624Y-110167961D01*
X144682624Y-113701800D01*
X144509587Y-113701800D01*
X144509587Y-112572800D01*
X144424515Y-112145113D01*
X144182250Y-111782537D01*
X143819674Y-111540272D01*
X143391987Y-111455200D01*
X142699740Y-111455200D01*
X142699740Y-111175800D01*
X142699740Y-109956600D01*
X142699740Y-109651800D01*
X142699740Y-108432600D01*
X142191740Y-108432600D01*
X141678452Y-108595328D01*
X141266509Y-108942096D01*
X141021656Y-109440439D01*
X141134503Y-109651800D01*
X142699740Y-109651800D01*
X142699740Y-109956600D01*
X141134503Y-109956600D01*
X141021656Y-110167961D01*
X141266509Y-110666304D01*
X141678452Y-111013072D01*
X142191740Y-111175800D01*
X142699740Y-111175800D01*
X142699740Y-111455200D01*
X142312293Y-111455200D01*
X141884606Y-111540272D01*
X141522030Y-111782537D01*
X141279765Y-112145113D01*
X141194693Y-112572800D01*
X141279765Y-113000487D01*
X141522030Y-113363063D01*
X141884606Y-113605328D01*
X142312293Y-113690400D01*
X143391987Y-113690400D01*
X143819674Y-113605328D01*
X144182250Y-113363063D01*
X144424515Y-113000487D01*
X144509587Y-112572800D01*
X144509587Y-113701800D01*
X127410307Y-113701800D01*
X127410307Y-111175800D01*
X127410307Y-108407200D01*
X127410307Y-105638600D01*
X127325235Y-105210913D01*
X127082970Y-104848337D01*
X126720394Y-104606072D01*
X126292707Y-104521000D01*
X125213013Y-104521000D01*
X124785326Y-104606072D01*
X124422750Y-104848337D01*
X124180485Y-105210913D01*
X124095413Y-105638600D01*
X124180485Y-106066287D01*
X124422750Y-106428863D01*
X124785326Y-106671128D01*
X125213013Y-106756200D01*
X126292707Y-106756200D01*
X126720394Y-106671128D01*
X127082970Y-106428863D01*
X127325235Y-106066287D01*
X127410307Y-105638600D01*
X127410307Y-108407200D01*
X127325235Y-107979513D01*
X127082970Y-107616937D01*
X126720394Y-107374672D01*
X126292707Y-107289600D01*
X125213013Y-107289600D01*
X124785326Y-107374672D01*
X124422750Y-107616937D01*
X124180485Y-107979513D01*
X124095413Y-108407200D01*
X124180485Y-108834887D01*
X124422750Y-109197463D01*
X124785326Y-109439728D01*
X125213013Y-109524800D01*
X126292707Y-109524800D01*
X126720394Y-109439728D01*
X127082970Y-109197463D01*
X127325235Y-108834887D01*
X127410307Y-108407200D01*
X127410307Y-111175800D01*
X127325235Y-110748113D01*
X127082970Y-110385537D01*
X126720394Y-110143272D01*
X126292707Y-110058200D01*
X125213013Y-110058200D01*
X124785326Y-110143272D01*
X124422750Y-110385537D01*
X124180485Y-110748113D01*
X124095413Y-111175800D01*
X124180485Y-111603487D01*
X124422750Y-111966063D01*
X124785326Y-112208328D01*
X125213013Y-112293400D01*
X126292707Y-112293400D01*
X126720394Y-112208328D01*
X127082970Y-111966063D01*
X127325235Y-111603487D01*
X127410307Y-111175800D01*
X127410307Y-113701800D01*
X123727624Y-113701800D01*
X123727624Y-110167961D01*
X123727624Y-109440439D01*
X123482771Y-108942096D01*
X123070828Y-108595328D01*
X122557540Y-108432600D01*
X122049540Y-108432600D01*
X122049540Y-109651800D01*
X123614777Y-109651800D01*
X123727624Y-109440439D01*
X123727624Y-110167961D01*
X123614777Y-109956600D01*
X122049540Y-109956600D01*
X122049540Y-111175800D01*
X122557540Y-111175800D01*
X123070828Y-111013072D01*
X123482771Y-110666304D01*
X123727624Y-110167961D01*
X123727624Y-113701800D01*
X121573961Y-113701800D01*
X121562561Y-113690400D01*
X122436987Y-113690400D01*
X122864674Y-113605328D01*
X123227250Y-113363063D01*
X123469515Y-113000487D01*
X123554587Y-112572800D01*
X123469515Y-112145113D01*
X123227250Y-111782537D01*
X122864674Y-111540272D01*
X122436987Y-111455200D01*
X121357293Y-111455200D01*
X120929606Y-111540272D01*
X120727200Y-111675515D01*
X120727200Y-111014260D01*
X121236740Y-111175800D01*
X121744740Y-111175800D01*
X121744740Y-109956600D01*
X121724740Y-109956600D01*
X121724740Y-109651800D01*
X121744740Y-109651800D01*
X121744740Y-108432600D01*
X121236740Y-108432600D01*
X120727200Y-108594139D01*
X120727200Y-107932884D01*
X120929606Y-108068128D01*
X121357293Y-108153200D01*
X122436987Y-108153200D01*
X122864674Y-108068128D01*
X123227250Y-107825863D01*
X123469515Y-107463287D01*
X123554587Y-107035600D01*
X123469515Y-106607913D01*
X123227250Y-106245337D01*
X122864674Y-106003072D01*
X122436987Y-105918000D01*
X121357293Y-105918000D01*
X120929606Y-106003072D01*
X120727200Y-106138315D01*
X120727200Y-105164284D01*
X120929606Y-105299528D01*
X121357293Y-105384600D01*
X122436987Y-105384600D01*
X122864674Y-105299528D01*
X123227250Y-105057263D01*
X123469515Y-104694687D01*
X123554587Y-104267000D01*
X123469515Y-103839313D01*
X123227250Y-103476737D01*
X122864674Y-103234472D01*
X122436987Y-103149400D01*
X121357293Y-103149400D01*
X120929606Y-103234472D01*
X120727200Y-103369715D01*
X120727200Y-102370284D01*
X120929606Y-102505528D01*
X121357293Y-102590600D01*
X122436987Y-102590600D01*
X122864674Y-102505528D01*
X123227250Y-102263263D01*
X123381908Y-102031800D01*
X123624600Y-102031800D01*
X123838444Y-101989264D01*
X124019731Y-101868131D01*
X124140864Y-101686844D01*
X124183400Y-101473000D01*
X124183400Y-100533449D01*
X124422750Y-100891663D01*
X124785326Y-101133928D01*
X125213013Y-101219000D01*
X126292707Y-101219000D01*
X126720394Y-101133928D01*
X127082970Y-100891663D01*
X127325235Y-100529087D01*
X127410307Y-100101400D01*
X127325235Y-99673713D01*
X127082970Y-99311137D01*
X126783742Y-99111200D01*
X126819500Y-99111200D01*
X127033343Y-99068664D01*
X127033344Y-99068664D01*
X127214631Y-98947531D01*
X144323362Y-81838800D01*
X189777231Y-81838800D01*
X189879061Y-81991200D01*
X164190100Y-81991200D01*
X163976256Y-82033736D01*
X163885612Y-82094302D01*
X163794968Y-82154869D01*
X150506037Y-95443800D01*
X148379769Y-95443800D01*
X148379769Y-86207600D01*
X148207691Y-85342506D01*
X147717655Y-84609114D01*
X146984263Y-84119078D01*
X146119169Y-83947000D01*
X143440831Y-83947000D01*
X142575737Y-84119078D01*
X141842345Y-84609114D01*
X141352309Y-85342506D01*
X141180231Y-86207600D01*
X141352309Y-87072694D01*
X141842345Y-87806086D01*
X142575737Y-88296122D01*
X143440831Y-88468200D01*
X146119169Y-88468200D01*
X146984263Y-88296122D01*
X147717655Y-87806086D01*
X148207691Y-87072694D01*
X148379769Y-86207600D01*
X148379769Y-95443800D01*
X147904267Y-95443800D01*
X148037970Y-95354463D01*
X148280235Y-94991887D01*
X148365307Y-94564200D01*
X148280235Y-94136513D01*
X148037970Y-93773937D01*
X147675394Y-93531672D01*
X147247707Y-93446600D01*
X146168013Y-93446600D01*
X145740326Y-93531672D01*
X145377750Y-93773937D01*
X145135485Y-94136513D01*
X145050413Y-94564200D01*
X145135485Y-94991887D01*
X145377750Y-95354463D01*
X145511452Y-95443800D01*
X145074500Y-95443800D01*
X144860656Y-95486336D01*
X144770012Y-95546902D01*
X144679368Y-95607469D01*
X144484707Y-95802129D01*
X144484707Y-93929200D01*
X144484707Y-92405200D01*
X144458399Y-92269611D01*
X144380117Y-92150441D01*
X144261939Y-92070669D01*
X144122140Y-92042633D01*
X141582140Y-92042633D01*
X141446551Y-92068941D01*
X141327381Y-92147223D01*
X141247609Y-92265401D01*
X141219573Y-92405200D01*
X141219573Y-93929200D01*
X141245881Y-94064789D01*
X141324163Y-94183959D01*
X141442341Y-94263731D01*
X141582140Y-94291767D01*
X144122140Y-94291767D01*
X144257729Y-94265459D01*
X144376899Y-94187177D01*
X144456671Y-94068999D01*
X144484707Y-93929200D01*
X144484707Y-95802129D01*
X144483281Y-95803555D01*
X144424515Y-95508113D01*
X144182250Y-95145537D01*
X143819674Y-94903272D01*
X143391987Y-94818200D01*
X142312293Y-94818200D01*
X141884606Y-94903272D01*
X141522030Y-95145537D01*
X141279765Y-95508113D01*
X141194693Y-95935800D01*
X141279765Y-96363487D01*
X141522030Y-96726063D01*
X141574766Y-96761300D01*
X133030300Y-96761300D01*
X132816456Y-96803836D01*
X132635169Y-96924969D01*
X127248938Y-102311200D01*
X127237628Y-102311200D01*
X127082970Y-102079737D01*
X126720394Y-101837472D01*
X126292707Y-101752400D01*
X125213013Y-101752400D01*
X124785326Y-101837472D01*
X124422750Y-102079737D01*
X124180485Y-102442313D01*
X124095413Y-102870000D01*
X124180485Y-103297687D01*
X124422750Y-103660263D01*
X124785326Y-103902528D01*
X125213013Y-103987600D01*
X126292707Y-103987600D01*
X126720394Y-103902528D01*
X127082970Y-103660263D01*
X127237628Y-103428800D01*
X127480400Y-103428800D01*
X127694243Y-103386264D01*
X127694244Y-103386264D01*
X127875531Y-103265131D01*
X133261762Y-97878900D01*
X141574766Y-97878900D01*
X141522030Y-97914137D01*
X141279765Y-98276713D01*
X141194693Y-98704400D01*
X141279765Y-99132087D01*
X141522030Y-99494663D01*
X141884606Y-99736928D01*
X142312293Y-99822000D01*
X143391987Y-99822000D01*
X143819674Y-99736928D01*
X144182250Y-99494663D01*
X144269021Y-99364800D01*
X144681200Y-99364800D01*
X144933924Y-99314530D01*
X145148173Y-99171373D01*
X145291330Y-98957124D01*
X145341600Y-98704400D01*
X145341600Y-98068960D01*
X145377750Y-98123063D01*
X145740326Y-98365328D01*
X146168013Y-98450400D01*
X147247707Y-98450400D01*
X147675394Y-98365328D01*
X148037970Y-98123063D01*
X148124741Y-97993200D01*
X153304200Y-97993200D01*
X153556924Y-97942930D01*
X153771173Y-97799773D01*
X157743346Y-93827600D01*
X162174573Y-93827600D01*
X162174573Y-93828000D01*
X160077000Y-93828000D01*
X159863156Y-93870536D01*
X159681869Y-93991669D01*
X152759338Y-100914200D01*
X148004240Y-100914200D01*
X148037970Y-100891663D01*
X148280235Y-100529087D01*
X148365307Y-100101400D01*
X148280235Y-99673713D01*
X148037970Y-99311137D01*
X147675394Y-99068872D01*
X147247707Y-98983800D01*
X146168013Y-98983800D01*
X145740326Y-99068872D01*
X145377750Y-99311137D01*
X145135485Y-99673713D01*
X145050413Y-100101400D01*
X145135485Y-100529087D01*
X145377750Y-100891663D01*
X145411479Y-100914200D01*
X144336908Y-100914200D01*
X144182250Y-100682737D01*
X143819674Y-100440472D01*
X143391987Y-100355400D01*
X142312293Y-100355400D01*
X141884606Y-100440472D01*
X141522030Y-100682737D01*
X141279765Y-101045313D01*
X141194693Y-101473000D01*
X141279765Y-101900687D01*
X141522030Y-102263263D01*
X141884606Y-102505528D01*
X142312293Y-102590600D01*
X143391987Y-102590600D01*
X143819674Y-102505528D01*
X144182250Y-102263263D01*
X144336908Y-102031800D01*
X145449492Y-102031800D01*
X145377750Y-102079737D01*
X145135485Y-102442313D01*
X145050413Y-102870000D01*
X145135485Y-103297687D01*
X145377750Y-103660263D01*
X145740326Y-103902528D01*
X146168013Y-103987600D01*
X147247707Y-103987600D01*
X147675394Y-103902528D01*
X148037970Y-103660263D01*
X148192628Y-103428800D01*
X156529600Y-103428800D01*
X156743443Y-103386264D01*
X156743444Y-103386264D01*
X156924731Y-103265131D01*
X162310962Y-97878900D01*
X162529766Y-97878900D01*
X162477030Y-97914137D01*
X162234765Y-98276713D01*
X162149693Y-98704400D01*
X162234765Y-99132087D01*
X162477030Y-99494663D01*
X162839606Y-99736928D01*
X163267293Y-99822000D01*
X164346987Y-99822000D01*
X164774674Y-99736928D01*
X165137250Y-99494663D01*
X165379515Y-99132087D01*
X165464587Y-98704400D01*
X165379515Y-98276713D01*
X165137250Y-97914137D01*
X165084513Y-97878900D01*
X165327400Y-97878900D01*
X165541243Y-97836364D01*
X165541244Y-97836364D01*
X165722531Y-97715231D01*
X166021929Y-97415832D01*
X166090485Y-97760487D01*
X166332750Y-98123063D01*
X166490422Y-98228415D01*
X165139469Y-99579369D01*
X165018336Y-99760656D01*
X164975800Y-99974500D01*
X164975800Y-100574859D01*
X164774674Y-100440472D01*
X164346987Y-100355400D01*
X163267293Y-100355400D01*
X162839606Y-100440472D01*
X162477030Y-100682737D01*
X162234765Y-101045313D01*
X162149693Y-101473000D01*
X162234765Y-101900687D01*
X162477030Y-102263263D01*
X162839606Y-102505528D01*
X163267293Y-102590600D01*
X164346987Y-102590600D01*
X164774674Y-102505528D01*
X165137250Y-102263263D01*
X165291908Y-102031800D01*
X165534600Y-102031800D01*
X165748444Y-101989264D01*
X165929731Y-101868131D01*
X166050864Y-101686844D01*
X166093400Y-101473000D01*
X166093400Y-100533449D01*
X166332750Y-100891663D01*
X166695326Y-101133928D01*
X167123013Y-101219000D01*
X168202707Y-101219000D01*
X168630394Y-101133928D01*
X168992970Y-100891663D01*
X169235235Y-100529087D01*
X169320307Y-100101400D01*
X169235235Y-99673713D01*
X168992970Y-99311137D01*
X168693742Y-99111200D01*
X178027837Y-99111200D01*
X174827837Y-102311200D01*
X169147628Y-102311200D01*
X168992970Y-102079737D01*
X168630394Y-101837472D01*
X168202707Y-101752400D01*
X167123013Y-101752400D01*
X166695326Y-101837472D01*
X166332750Y-102079737D01*
X166090485Y-102442313D01*
X166005413Y-102870000D01*
X166090485Y-103297687D01*
X166332750Y-103660263D01*
X166695326Y-103902528D01*
X167123013Y-103987600D01*
X168202707Y-103987600D01*
X168630394Y-103902528D01*
X168992970Y-103660263D01*
X169147628Y-103428800D01*
X175059300Y-103428800D01*
X175273143Y-103386264D01*
X175273144Y-103386264D01*
X175454431Y-103265131D01*
X189640225Y-89079337D01*
X189689625Y-89327687D01*
X189931890Y-89690263D01*
X189940689Y-89696142D01*
G36*
X211035900Y-129755900D02*
X209778829Y-129755900D01*
X209778829Y-102608429D01*
X209578173Y-102122804D01*
X209403528Y-101947854D01*
X209403528Y-98374200D01*
X209241117Y-97557707D01*
X208778611Y-96865517D01*
X208086421Y-96403011D01*
X207269928Y-96240600D01*
X205632472Y-96240600D01*
X204815979Y-96403011D01*
X204123789Y-96865517D01*
X203661283Y-97557707D01*
X203498872Y-98374200D01*
X203661283Y-99190693D01*
X204123789Y-99882883D01*
X204815979Y-100345389D01*
X205632472Y-100507800D01*
X207269928Y-100507800D01*
X208086421Y-100345389D01*
X208778611Y-99882883D01*
X209241117Y-99190693D01*
X209403528Y-98374200D01*
X209403528Y-101947854D01*
X209206950Y-101750933D01*
X208721676Y-101549430D01*
X208196229Y-101548971D01*
X207710604Y-101749627D01*
X207452592Y-102007189D01*
X207021035Y-101361317D01*
X206328845Y-100898811D01*
X205512352Y-100736400D01*
X204392848Y-100736400D01*
X204282830Y-100758283D01*
X202684400Y-99159853D01*
X202684400Y-94088567D01*
X202819000Y-94088567D01*
X202954589Y-94062259D01*
X203073759Y-93983977D01*
X203153531Y-93865799D01*
X203181567Y-93726000D01*
X203181567Y-91059000D01*
X203181567Y-85471000D01*
X203181567Y-82804000D01*
X203155259Y-82668411D01*
X203076977Y-82549241D01*
X202958799Y-82469469D01*
X202819000Y-82441433D01*
X201228960Y-82441433D01*
X201093371Y-82467741D01*
X200974201Y-82546023D01*
X200894429Y-82664201D01*
X200866393Y-82804000D01*
X200866393Y-85471000D01*
X200892701Y-85606589D01*
X200970983Y-85725759D01*
X201089161Y-85805531D01*
X201228960Y-85833567D01*
X202819000Y-85833567D01*
X202954589Y-85807259D01*
X203073759Y-85728977D01*
X203153531Y-85610799D01*
X203181567Y-85471000D01*
X203181567Y-91059000D01*
X203155259Y-90923411D01*
X203076977Y-90804241D01*
X202958799Y-90724469D01*
X202819000Y-90696433D01*
X201228960Y-90696433D01*
X201093371Y-90722741D01*
X200974201Y-90801023D01*
X200894429Y-90919201D01*
X200866393Y-91059000D01*
X200866393Y-93726000D01*
X200892701Y-93861589D01*
X200970983Y-93980759D01*
X201089161Y-94060531D01*
X201228960Y-94088567D01*
X201363600Y-94088567D01*
X201363600Y-99433400D01*
X201413870Y-99686124D01*
X201557027Y-99900373D01*
X202964375Y-101307722D01*
X202884165Y-101361317D01*
X202421659Y-102053507D01*
X202259248Y-102870000D01*
X202421659Y-103686493D01*
X202884165Y-104378683D01*
X203576355Y-104841189D01*
X204392848Y-105003600D01*
X205512352Y-105003600D01*
X206328845Y-104841189D01*
X207021035Y-104378683D01*
X207452691Y-103732662D01*
X207708650Y-103989067D01*
X208193924Y-104190570D01*
X208719371Y-104191029D01*
X209204996Y-103990373D01*
X209576867Y-103619150D01*
X209778370Y-103133876D01*
X209778829Y-102608429D01*
X209778829Y-129755900D01*
X209403528Y-129755900D01*
X209403528Y-107365800D01*
X209241117Y-106549307D01*
X208778611Y-105857117D01*
X208086421Y-105394611D01*
X207269928Y-105232200D01*
X205632472Y-105232200D01*
X204815979Y-105394611D01*
X204123789Y-105857117D01*
X203661283Y-106549307D01*
X203498872Y-107365800D01*
X203661283Y-108182293D01*
X204123789Y-108874483D01*
X204815979Y-109336989D01*
X205632472Y-109499400D01*
X207269928Y-109499400D01*
X208086421Y-109336989D01*
X208778611Y-108874483D01*
X209241117Y-108182293D01*
X209403528Y-107365800D01*
X209403528Y-129755900D01*
X202107800Y-129755900D01*
X202107800Y-103530400D01*
X202107800Y-103022400D01*
X202107800Y-102717600D01*
X202107800Y-102209600D01*
X201848399Y-101210304D01*
X201226330Y-100386344D01*
X200336297Y-99863159D01*
X200029273Y-99781109D01*
X199618600Y-99877470D01*
X199618600Y-102717600D01*
X202107800Y-102717600D01*
X202107800Y-103022400D01*
X199618600Y-103022400D01*
X199618600Y-105862530D01*
X200029273Y-105958891D01*
X200336297Y-105876841D01*
X201226330Y-105353656D01*
X201848399Y-104529696D01*
X202107800Y-103530400D01*
X202107800Y-129755900D01*
X201855484Y-129755900D01*
X201855484Y-113393761D01*
X201855484Y-112666239D01*
X201610631Y-112167896D01*
X201198688Y-111821128D01*
X200685400Y-111658400D01*
X200177400Y-111658400D01*
X200177400Y-112877600D01*
X201742637Y-112877600D01*
X201855484Y-112666239D01*
X201855484Y-113393761D01*
X201742637Y-113182400D01*
X200177400Y-113182400D01*
X200177400Y-114401600D01*
X200685400Y-114401600D01*
X201198688Y-114238872D01*
X201610631Y-113892104D01*
X201855484Y-113393761D01*
X201855484Y-129755900D01*
X196634503Y-129755900D01*
X196634503Y-126539736D01*
X196281425Y-125685223D01*
X195628216Y-125030873D01*
X194774320Y-124676304D01*
X193849736Y-124675497D01*
X192995223Y-125028575D01*
X192340873Y-125681784D01*
X191986304Y-126535680D01*
X191985497Y-127460264D01*
X192338575Y-128314777D01*
X192991784Y-128969127D01*
X193845680Y-129323696D01*
X194770264Y-129324503D01*
X195624777Y-128971425D01*
X196279127Y-128318216D01*
X196633696Y-127464320D01*
X196634503Y-126539736D01*
X196634503Y-129755900D01*
X114084503Y-129755900D01*
X114084503Y-126539736D01*
X113731425Y-125685223D01*
X113078216Y-125030873D01*
X112224320Y-124676304D01*
X111299736Y-124675497D01*
X110445223Y-125028575D01*
X109790873Y-125681784D01*
X109436304Y-126535680D01*
X109435497Y-127460264D01*
X109788575Y-128314777D01*
X110441784Y-128969127D01*
X111295680Y-129323696D01*
X112220264Y-129324503D01*
X113074777Y-128971425D01*
X113729127Y-128318216D01*
X114083696Y-127464320D01*
X114084503Y-126539736D01*
X114084503Y-129755900D01*
X93764100Y-129755900D01*
X93764100Y-75984100D01*
X156448137Y-75984100D01*
X155814869Y-76617369D01*
X155693736Y-76798656D01*
X155651200Y-77012500D01*
X155651200Y-77255231D01*
X155419737Y-77409890D01*
X155177472Y-77772466D01*
X155092400Y-78200153D01*
X155092400Y-79279847D01*
X155177472Y-79707534D01*
X155419737Y-80070110D01*
X155782313Y-80312375D01*
X156210000Y-80397447D01*
X156637687Y-80312375D01*
X157000263Y-80070110D01*
X157242528Y-79707534D01*
X157327600Y-79279847D01*
X157327600Y-78200153D01*
X157242528Y-77772466D01*
X157000263Y-77409890D01*
X156768800Y-77255231D01*
X156768800Y-77243962D01*
X157161562Y-76851200D01*
X186562453Y-76851200D01*
X185990873Y-77421784D01*
X185636304Y-78275680D01*
X185635497Y-79200264D01*
X185988575Y-80054777D01*
X186641784Y-80709127D01*
X186670858Y-80721200D01*
X185267600Y-80721200D01*
X185267600Y-79279847D01*
X185267600Y-78200153D01*
X185182528Y-77772466D01*
X184940263Y-77409890D01*
X184577687Y-77167625D01*
X184150000Y-77082553D01*
X183722313Y-77167625D01*
X183359737Y-77409890D01*
X183117472Y-77772466D01*
X183032400Y-78200153D01*
X183032400Y-79279847D01*
X183117472Y-79707534D01*
X183359737Y-80070110D01*
X183722313Y-80312375D01*
X184150000Y-80397447D01*
X184577687Y-80312375D01*
X184940263Y-80070110D01*
X185182528Y-79707534D01*
X185267600Y-79279847D01*
X185267600Y-80721200D01*
X182727600Y-80721200D01*
X182727600Y-79279847D01*
X182727600Y-78200153D01*
X182642528Y-77772466D01*
X182400263Y-77409890D01*
X182037687Y-77167625D01*
X181610000Y-77082553D01*
X181182313Y-77167625D01*
X180819737Y-77409890D01*
X180577472Y-77772466D01*
X180492400Y-78200153D01*
X180492400Y-79279847D01*
X180577472Y-79707534D01*
X180819737Y-80070110D01*
X181182313Y-80312375D01*
X181610000Y-80397447D01*
X182037687Y-80312375D01*
X182400263Y-80070110D01*
X182642528Y-79707534D01*
X182727600Y-79279847D01*
X182727600Y-80721200D01*
X180187600Y-80721200D01*
X180187600Y-79279847D01*
X180187600Y-78200153D01*
X180102528Y-77772466D01*
X179860263Y-77409890D01*
X179497687Y-77167625D01*
X179070000Y-77082553D01*
X178642313Y-77167625D01*
X178279737Y-77409890D01*
X178037472Y-77772466D01*
X177952400Y-78200153D01*
X177952400Y-79279847D01*
X178037472Y-79707534D01*
X178279737Y-80070110D01*
X178642313Y-80312375D01*
X179070000Y-80397447D01*
X179497687Y-80312375D01*
X179860263Y-80070110D01*
X180102528Y-79707534D01*
X180187600Y-79279847D01*
X180187600Y-80721200D01*
X177647600Y-80721200D01*
X177647600Y-79279847D01*
X177647600Y-78200153D01*
X177562528Y-77772466D01*
X177320263Y-77409890D01*
X176957687Y-77167625D01*
X176530000Y-77082553D01*
X176102313Y-77167625D01*
X175739737Y-77409890D01*
X175497472Y-77772466D01*
X175412400Y-78200153D01*
X175412400Y-79279847D01*
X175497472Y-79707534D01*
X175739737Y-80070110D01*
X176102313Y-80312375D01*
X176530000Y-80397447D01*
X176957687Y-80312375D01*
X177320263Y-80070110D01*
X177562528Y-79707534D01*
X177647600Y-79279847D01*
X177647600Y-80721200D01*
X175107600Y-80721200D01*
X175107600Y-79279847D01*
X175107600Y-78200153D01*
X175022528Y-77772466D01*
X174780263Y-77409890D01*
X174417687Y-77167625D01*
X173990000Y-77082553D01*
X173562313Y-77167625D01*
X173199737Y-77409890D01*
X172957472Y-77772466D01*
X172872400Y-78200153D01*
X172872400Y-79279847D01*
X172957472Y-79707534D01*
X173199737Y-80070110D01*
X173562313Y-80312375D01*
X173990000Y-80397447D01*
X174417687Y-80312375D01*
X174780263Y-80070110D01*
X175022528Y-79707534D01*
X175107600Y-79279847D01*
X175107600Y-80721200D01*
X172567600Y-80721200D01*
X172567600Y-79279847D01*
X172567600Y-78200153D01*
X172482528Y-77772466D01*
X172240263Y-77409890D01*
X171877687Y-77167625D01*
X171450000Y-77082553D01*
X171022313Y-77167625D01*
X170659737Y-77409890D01*
X170417472Y-77772466D01*
X170332400Y-78200153D01*
X170332400Y-79279847D01*
X170417472Y-79707534D01*
X170659737Y-80070110D01*
X171022313Y-80312375D01*
X171450000Y-80397447D01*
X171877687Y-80312375D01*
X172240263Y-80070110D01*
X172482528Y-79707534D01*
X172567600Y-79279847D01*
X172567600Y-80721200D01*
X170027600Y-80721200D01*
X170027600Y-79279847D01*
X170027600Y-78200153D01*
X169942528Y-77772466D01*
X169700263Y-77409890D01*
X169337687Y-77167625D01*
X168910000Y-77082553D01*
X168482313Y-77167625D01*
X168119737Y-77409890D01*
X167877472Y-77772466D01*
X167792400Y-78200153D01*
X167792400Y-79279847D01*
X167877472Y-79707534D01*
X168119737Y-80070110D01*
X168482313Y-80312375D01*
X168910000Y-80397447D01*
X169337687Y-80312375D01*
X169700263Y-80070110D01*
X169942528Y-79707534D01*
X170027600Y-79279847D01*
X170027600Y-80721200D01*
X167487600Y-80721200D01*
X167487600Y-79279847D01*
X167487600Y-78200153D01*
X167402528Y-77772466D01*
X167160263Y-77409890D01*
X166797687Y-77167625D01*
X166370000Y-77082553D01*
X165942313Y-77167625D01*
X165579737Y-77409890D01*
X165337472Y-77772466D01*
X165252400Y-78200153D01*
X165252400Y-79279847D01*
X165337472Y-79707534D01*
X165579737Y-80070110D01*
X165942313Y-80312375D01*
X166370000Y-80397447D01*
X166797687Y-80312375D01*
X167160263Y-80070110D01*
X167402528Y-79707534D01*
X167487600Y-79279847D01*
X167487600Y-80721200D01*
X162407600Y-80721200D01*
X162407600Y-79279847D01*
X162407600Y-78200153D01*
X162322528Y-77772466D01*
X162080263Y-77409890D01*
X161717687Y-77167625D01*
X161290000Y-77082553D01*
X160862313Y-77167625D01*
X160499737Y-77409890D01*
X160257472Y-77772466D01*
X160172400Y-78200153D01*
X160172400Y-79279847D01*
X160257472Y-79707534D01*
X160499737Y-80070110D01*
X160862313Y-80312375D01*
X161290000Y-80397447D01*
X161717687Y-80312375D01*
X162080263Y-80070110D01*
X162322528Y-79707534D01*
X162407600Y-79279847D01*
X162407600Y-80721200D01*
X159867600Y-80721200D01*
X159867600Y-79279847D01*
X159867600Y-78200153D01*
X159782528Y-77772466D01*
X159540263Y-77409890D01*
X159177687Y-77167625D01*
X158750000Y-77082553D01*
X158322313Y-77167625D01*
X157959737Y-77409890D01*
X157717472Y-77772466D01*
X157632400Y-78200153D01*
X157632400Y-79279847D01*
X157717472Y-79707534D01*
X157959737Y-80070110D01*
X158322313Y-80312375D01*
X158750000Y-80397447D01*
X159177687Y-80312375D01*
X159540263Y-80070110D01*
X159782528Y-79707534D01*
X159867600Y-79279847D01*
X159867600Y-80721200D01*
X154787600Y-80721200D01*
X154787600Y-79279847D01*
X154787600Y-78200153D01*
X154702528Y-77772466D01*
X154460263Y-77409890D01*
X154097687Y-77167625D01*
X153670000Y-77082553D01*
X153242313Y-77167625D01*
X152879737Y-77409890D01*
X152637472Y-77772466D01*
X152552400Y-78200153D01*
X152552400Y-79279847D01*
X152637472Y-79707534D01*
X152879737Y-80070110D01*
X153242313Y-80312375D01*
X153670000Y-80397447D01*
X154097687Y-80312375D01*
X154460263Y-80070110D01*
X154702528Y-79707534D01*
X154787600Y-79279847D01*
X154787600Y-80721200D01*
X152247600Y-80721200D01*
X152247600Y-79279847D01*
X152247600Y-78200153D01*
X152162528Y-77772466D01*
X151920263Y-77409890D01*
X151557687Y-77167625D01*
X151130000Y-77082553D01*
X150702313Y-77167625D01*
X150339737Y-77409890D01*
X150097472Y-77772466D01*
X150012400Y-78200153D01*
X150012400Y-79279847D01*
X150097472Y-79707534D01*
X150339737Y-80070110D01*
X150702313Y-80312375D01*
X151130000Y-80397447D01*
X151557687Y-80312375D01*
X151920263Y-80070110D01*
X152162528Y-79707534D01*
X152247600Y-79279847D01*
X152247600Y-80721200D01*
X149707600Y-80721200D01*
X149707600Y-79279847D01*
X149707600Y-78200153D01*
X149622528Y-77772466D01*
X149380263Y-77409890D01*
X149017687Y-77167625D01*
X148590000Y-77082553D01*
X148162313Y-77167625D01*
X147799737Y-77409890D01*
X147557472Y-77772466D01*
X147472400Y-78200153D01*
X147472400Y-79279847D01*
X147557472Y-79707534D01*
X147799737Y-80070110D01*
X148162313Y-80312375D01*
X148590000Y-80397447D01*
X149017687Y-80312375D01*
X149380263Y-80070110D01*
X149622528Y-79707534D01*
X149707600Y-79279847D01*
X149707600Y-80721200D01*
X147167600Y-80721200D01*
X147167600Y-79279847D01*
X147167600Y-78200153D01*
X147082528Y-77772466D01*
X146840263Y-77409890D01*
X146477687Y-77167625D01*
X146050000Y-77082553D01*
X145622313Y-77167625D01*
X145259737Y-77409890D01*
X145017472Y-77772466D01*
X144932400Y-78200153D01*
X144932400Y-79279847D01*
X145017472Y-79707534D01*
X145259737Y-80070110D01*
X145622313Y-80312375D01*
X146050000Y-80397447D01*
X146477687Y-80312375D01*
X146840263Y-80070110D01*
X147082528Y-79707534D01*
X147167600Y-79279847D01*
X147167600Y-80721200D01*
X144091900Y-80721200D01*
X143985489Y-80742366D01*
X144026264Y-80681344D01*
X144068800Y-80467500D01*
X144068800Y-80224768D01*
X144300263Y-80070110D01*
X144542528Y-79707534D01*
X144627600Y-79279847D01*
X144627600Y-78200153D01*
X144542528Y-77772466D01*
X144300263Y-77409890D01*
X143937687Y-77167625D01*
X143510000Y-77082553D01*
X143082313Y-77167625D01*
X142719737Y-77409890D01*
X142477472Y-77772466D01*
X142392400Y-78200153D01*
X142392400Y-79279847D01*
X142477472Y-79707534D01*
X142611886Y-79908700D01*
X140344113Y-79908700D01*
X140478528Y-79707534D01*
X140563600Y-79279847D01*
X140563600Y-78200153D01*
X140478528Y-77772466D01*
X140236263Y-77409890D01*
X139873687Y-77167625D01*
X139446000Y-77082553D01*
X139018313Y-77167625D01*
X138655737Y-77409890D01*
X138413472Y-77772466D01*
X138328400Y-78200153D01*
X138328400Y-79279847D01*
X138413472Y-79707534D01*
X138547886Y-79908700D01*
X137804113Y-79908700D01*
X137938528Y-79707534D01*
X138023600Y-79279847D01*
X138023600Y-78200153D01*
X137938528Y-77772466D01*
X137696263Y-77409890D01*
X137333687Y-77167625D01*
X136906000Y-77082553D01*
X136478313Y-77167625D01*
X136115737Y-77409890D01*
X135873472Y-77772466D01*
X135788400Y-78200153D01*
X135788400Y-79279847D01*
X135873472Y-79707534D01*
X136115737Y-80070110D01*
X136478313Y-80312375D01*
X136787134Y-80373803D01*
X135483600Y-81677337D01*
X135483600Y-79279847D01*
X135483600Y-78200153D01*
X135398528Y-77772466D01*
X135156263Y-77409890D01*
X134793687Y-77167625D01*
X134366000Y-77082553D01*
X133938313Y-77167625D01*
X133575737Y-77409890D01*
X133333472Y-77772466D01*
X133248400Y-78200153D01*
X133248400Y-79279847D01*
X133333472Y-79707534D01*
X133575737Y-80070110D01*
X133938313Y-80312375D01*
X134366000Y-80397447D01*
X134793687Y-80312375D01*
X135156263Y-80070110D01*
X135398528Y-79707534D01*
X135483600Y-79279847D01*
X135483600Y-81677337D01*
X132943600Y-84217337D01*
X132943600Y-79279847D01*
X132943600Y-78200153D01*
X132858528Y-77772466D01*
X132616263Y-77409890D01*
X132253687Y-77167625D01*
X131826000Y-77082553D01*
X131398313Y-77167625D01*
X131035737Y-77409890D01*
X130793472Y-77772466D01*
X130708400Y-78200153D01*
X130708400Y-79279847D01*
X130793472Y-79707534D01*
X131035737Y-80070110D01*
X131398313Y-80312375D01*
X131826000Y-80397447D01*
X132253687Y-80312375D01*
X132616263Y-80070110D01*
X132858528Y-79707534D01*
X132943600Y-79279847D01*
X132943600Y-84217337D01*
X130403600Y-86757337D01*
X130403600Y-79279847D01*
X130403600Y-78200153D01*
X130318528Y-77772466D01*
X130076263Y-77409890D01*
X129713687Y-77167625D01*
X129286000Y-77082553D01*
X128858313Y-77167625D01*
X128495737Y-77409890D01*
X128253472Y-77772466D01*
X128168400Y-78200153D01*
X128168400Y-79279847D01*
X128253472Y-79707534D01*
X128495737Y-80070110D01*
X128858313Y-80312375D01*
X129286000Y-80397447D01*
X129713687Y-80312375D01*
X130076263Y-80070110D01*
X130318528Y-79707534D01*
X130403600Y-79279847D01*
X130403600Y-86757337D01*
X127863600Y-89297337D01*
X127863600Y-79279847D01*
X127863600Y-78200153D01*
X127778528Y-77772466D01*
X127536263Y-77409890D01*
X127173687Y-77167625D01*
X126746000Y-77082553D01*
X126318313Y-77167625D01*
X125955737Y-77409890D01*
X125713472Y-77772466D01*
X125628400Y-78200153D01*
X125628400Y-79279847D01*
X125713472Y-79707534D01*
X125955737Y-80070110D01*
X126318313Y-80312375D01*
X126746000Y-80397447D01*
X127173687Y-80312375D01*
X127536263Y-80070110D01*
X127778528Y-79707534D01*
X127863600Y-79279847D01*
X127863600Y-89297337D01*
X127424769Y-89736168D01*
X127424769Y-86207600D01*
X127252691Y-85342506D01*
X126762655Y-84609114D01*
X126029263Y-84119078D01*
X125323600Y-83978712D01*
X125323600Y-79279847D01*
X125323600Y-78200153D01*
X125238528Y-77772466D01*
X124996263Y-77409890D01*
X124633687Y-77167625D01*
X124206000Y-77082553D01*
X123778313Y-77167625D01*
X123415737Y-77409890D01*
X123173472Y-77772466D01*
X123088400Y-78200153D01*
X123088400Y-79279847D01*
X123173472Y-79707534D01*
X123415737Y-80070110D01*
X123778313Y-80312375D01*
X124206000Y-80397447D01*
X124633687Y-80312375D01*
X124996263Y-80070110D01*
X125238528Y-79707534D01*
X125323600Y-79279847D01*
X125323600Y-83978712D01*
X125164169Y-83947000D01*
X122783600Y-83947000D01*
X122783600Y-79279847D01*
X122783600Y-78200153D01*
X122698528Y-77772466D01*
X122456263Y-77409890D01*
X122093687Y-77167625D01*
X121666000Y-77082553D01*
X121238313Y-77167625D01*
X120875737Y-77409890D01*
X120633472Y-77772466D01*
X120548400Y-78200153D01*
X120548400Y-79279847D01*
X120633472Y-79707534D01*
X120875737Y-80070110D01*
X121238313Y-80312375D01*
X121666000Y-80397447D01*
X122093687Y-80312375D01*
X122456263Y-80070110D01*
X122698528Y-79707534D01*
X122783600Y-79279847D01*
X122783600Y-83947000D01*
X122485831Y-83947000D01*
X121620737Y-84119078D01*
X120887345Y-84609114D01*
X120397309Y-85342506D01*
X120243600Y-86115252D01*
X120243600Y-79279847D01*
X120243600Y-78200153D01*
X120158528Y-77772466D01*
X119916263Y-77409890D01*
X119553687Y-77167625D01*
X119126000Y-77082553D01*
X118698313Y-77167625D01*
X118335737Y-77409890D01*
X118093472Y-77772466D01*
X118008400Y-78200153D01*
X118008400Y-79279847D01*
X118093472Y-79707534D01*
X118335737Y-80070110D01*
X118698313Y-80312375D01*
X119126000Y-80397447D01*
X119553687Y-80312375D01*
X119916263Y-80070110D01*
X120158528Y-79707534D01*
X120243600Y-79279847D01*
X120243600Y-86115252D01*
X120225231Y-86207600D01*
X120397309Y-87072694D01*
X120887345Y-87806086D01*
X121620737Y-88296122D01*
X122485831Y-88468200D01*
X125164169Y-88468200D01*
X126029263Y-88296122D01*
X126762655Y-87806086D01*
X127252691Y-87072694D01*
X127424769Y-86207600D01*
X127424769Y-89736168D01*
X123529707Y-93631231D01*
X123529707Y-92405200D01*
X123503399Y-92269611D01*
X123425117Y-92150441D01*
X123306939Y-92070669D01*
X123167140Y-92042633D01*
X120627140Y-92042633D01*
X120491551Y-92068941D01*
X120372381Y-92147223D01*
X120292609Y-92265401D01*
X120264573Y-92405200D01*
X120264573Y-92506800D01*
X120068000Y-92506800D01*
X117703600Y-92506800D01*
X117703600Y-79279847D01*
X117703600Y-78200153D01*
X117618528Y-77772466D01*
X117376263Y-77409890D01*
X117013687Y-77167625D01*
X116586000Y-77082553D01*
X116158313Y-77167625D01*
X115795737Y-77409890D01*
X115553472Y-77772466D01*
X115468400Y-78200153D01*
X115468400Y-79279847D01*
X115553472Y-79707534D01*
X115795737Y-80070110D01*
X116158313Y-80312375D01*
X116586000Y-80397447D01*
X117013687Y-80312375D01*
X117376263Y-80070110D01*
X117618528Y-79707534D01*
X117703600Y-79279847D01*
X117703600Y-92506800D01*
X115354503Y-92506800D01*
X115354503Y-78279736D01*
X115001425Y-77425223D01*
X114348216Y-76770873D01*
X113494320Y-76416304D01*
X112569736Y-76415497D01*
X111715223Y-76768575D01*
X111060873Y-77421784D01*
X110706304Y-78275680D01*
X110705497Y-79200264D01*
X111058575Y-80054777D01*
X111711784Y-80709127D01*
X112565680Y-81063696D01*
X113490264Y-81064503D01*
X114344777Y-80711425D01*
X114999127Y-80058216D01*
X115353696Y-79204320D01*
X115354503Y-78279736D01*
X115354503Y-92506800D01*
X107340400Y-92506800D01*
X107340400Y-85266529D01*
X107587006Y-85101753D01*
X107865060Y-84685615D01*
X107962700Y-84194747D01*
X107962700Y-83445253D01*
X107865060Y-82954385D01*
X107587006Y-82538247D01*
X107170868Y-82260193D01*
X106680000Y-82162553D01*
X106189132Y-82260193D01*
X105772994Y-82538247D01*
X105494940Y-82954385D01*
X105410000Y-83381405D01*
X105325060Y-82954385D01*
X105047006Y-82538247D01*
X104630868Y-82260193D01*
X104140000Y-82162553D01*
X103649132Y-82260193D01*
X103232994Y-82538247D01*
X102954940Y-82954385D01*
X102889667Y-83282533D01*
X102889667Y-82550000D01*
X102863359Y-82414411D01*
X102785077Y-82295241D01*
X102666899Y-82215469D01*
X102527100Y-82187433D01*
X100672900Y-82187433D01*
X100537311Y-82213741D01*
X100418141Y-82292023D01*
X100338369Y-82410201D01*
X100310333Y-82550000D01*
X100310333Y-85090000D01*
X100336641Y-85225589D01*
X100414923Y-85344759D01*
X100533101Y-85424531D01*
X100672900Y-85452567D01*
X102527100Y-85452567D01*
X102662689Y-85426259D01*
X102781859Y-85347977D01*
X102861631Y-85229799D01*
X102889667Y-85090000D01*
X102889667Y-84357466D01*
X102954940Y-84685615D01*
X103232994Y-85101753D01*
X103378000Y-85198642D01*
X103378000Y-95141357D01*
X103232994Y-95238247D01*
X102954940Y-95654385D01*
X102889667Y-95982533D01*
X102889667Y-95250000D01*
X102863359Y-95114411D01*
X102785077Y-94995241D01*
X102666899Y-94915469D01*
X102527100Y-94887433D01*
X100672900Y-94887433D01*
X100537311Y-94913741D01*
X100418141Y-94992023D01*
X100338369Y-95110201D01*
X100310333Y-95250000D01*
X100310333Y-97790000D01*
X100336641Y-97925589D01*
X100414923Y-98044759D01*
X100533101Y-98124531D01*
X100672900Y-98152567D01*
X102527100Y-98152567D01*
X102662689Y-98126259D01*
X102781859Y-98047977D01*
X102861631Y-97929799D01*
X102889667Y-97790000D01*
X102889667Y-97057466D01*
X102954940Y-97385615D01*
X103232994Y-97801753D01*
X103649132Y-98079807D01*
X104140000Y-98177447D01*
X104630868Y-98079807D01*
X105047006Y-97801753D01*
X105325060Y-97385615D01*
X105410000Y-96958594D01*
X105494940Y-97385615D01*
X105772994Y-97801753D01*
X106189132Y-98079807D01*
X106680000Y-98177447D01*
X107170868Y-98079807D01*
X107587006Y-97801753D01*
X107865060Y-97385615D01*
X107962700Y-96894747D01*
X107962700Y-96145253D01*
X107865060Y-95654385D01*
X107587006Y-95238247D01*
X107340400Y-95073470D01*
X107340400Y-93827600D01*
X120068000Y-93827600D01*
X120264573Y-93827600D01*
X120264573Y-93929200D01*
X120290881Y-94064789D01*
X120369163Y-94183959D01*
X120487341Y-94263731D01*
X120531542Y-94272595D01*
X114346869Y-100457269D01*
X114225736Y-100638556D01*
X114183200Y-100852400D01*
X114183200Y-109762899D01*
X114064104Y-109881788D01*
X113942039Y-110175752D01*
X113941761Y-110494052D01*
X114063313Y-110788228D01*
X114288188Y-111013496D01*
X114582152Y-111135561D01*
X114900452Y-111135839D01*
X115194628Y-111014287D01*
X115419896Y-110789412D01*
X115541961Y-110495448D01*
X115542239Y-110177148D01*
X115420687Y-109882972D01*
X115300800Y-109762875D01*
X115300800Y-101083862D01*
X120274396Y-96110265D01*
X120324765Y-96363487D01*
X120567030Y-96726063D01*
X120721416Y-96829220D01*
X119773269Y-97777369D01*
X119652136Y-97958656D01*
X119609600Y-98172500D01*
X119609600Y-113086500D01*
X119652136Y-113300344D01*
X119773269Y-113481631D01*
X120947369Y-114655731D01*
X121128656Y-114776864D01*
X121128657Y-114776864D01*
X121342500Y-114819400D01*
X144966637Y-114819400D01*
X155651200Y-125503962D01*
X155651200Y-125515231D01*
X155419737Y-125669890D01*
X155177472Y-126032466D01*
X155092400Y-126460153D01*
X155092400Y-127539847D01*
X155177472Y-127967534D01*
X155311886Y-128168700D01*
X154568113Y-128168700D01*
X154702528Y-127967534D01*
X154787600Y-127539847D01*
X154787600Y-126460153D01*
X154702528Y-126032466D01*
X154460263Y-125669890D01*
X154228800Y-125515231D01*
X154228800Y-125272500D01*
X154186264Y-125058657D01*
X154186264Y-125058656D01*
X154125697Y-124968012D01*
X154065131Y-124877369D01*
X154065131Y-124877368D01*
X151998631Y-122810869D01*
X151817344Y-122689736D01*
X151603500Y-122647200D01*
X148379769Y-122647200D01*
X148379769Y-119532400D01*
X148207691Y-118667306D01*
X147717655Y-117933914D01*
X146984263Y-117443878D01*
X146119169Y-117271800D01*
X143440831Y-117271800D01*
X142575737Y-117443878D01*
X141842345Y-117933914D01*
X141352309Y-118667306D01*
X141180231Y-119532400D01*
X141352309Y-120397494D01*
X141842345Y-121130886D01*
X142575737Y-121620922D01*
X143440831Y-121793000D01*
X146119169Y-121793000D01*
X146984263Y-121620922D01*
X147717655Y-121130886D01*
X148207691Y-120397494D01*
X148379769Y-119532400D01*
X148379769Y-122647200D01*
X134625962Y-122647200D01*
X127165731Y-115186969D01*
X126984444Y-115065836D01*
X126770600Y-115023300D01*
X117099362Y-115023300D01*
X109158531Y-107082469D01*
X108977244Y-106961336D01*
X108763400Y-106918800D01*
X103342400Y-106918800D01*
X103128557Y-106961335D01*
X102947269Y-107082469D01*
X102442305Y-107587433D01*
X100672900Y-107587433D01*
X100537311Y-107613741D01*
X100418141Y-107692023D01*
X100338369Y-107810201D01*
X100310333Y-107950000D01*
X100310333Y-110490000D01*
X100336641Y-110625589D01*
X100414923Y-110744759D01*
X100533101Y-110824531D01*
X100672900Y-110852567D01*
X102527100Y-110852567D01*
X102662689Y-110826259D01*
X102781859Y-110747977D01*
X102861631Y-110629799D01*
X102889667Y-110490000D01*
X102889667Y-109757466D01*
X102954940Y-110085615D01*
X103232994Y-110501753D01*
X103649132Y-110779807D01*
X104097133Y-110868920D01*
X103673027Y-111293027D01*
X103529870Y-111507276D01*
X103479600Y-111760000D01*
X103479600Y-120473470D01*
X103232994Y-120638247D01*
X102954940Y-121054385D01*
X102889667Y-121382533D01*
X102889667Y-120650000D01*
X102863359Y-120514411D01*
X102785077Y-120395241D01*
X102666899Y-120315469D01*
X102527100Y-120287433D01*
X100672900Y-120287433D01*
X100537311Y-120313741D01*
X100418141Y-120392023D01*
X100338369Y-120510201D01*
X100310333Y-120650000D01*
X100310333Y-123190000D01*
X100336641Y-123325589D01*
X100414923Y-123444759D01*
X100533101Y-123524531D01*
X100672900Y-123552567D01*
X102527100Y-123552567D01*
X102662689Y-123526259D01*
X102781859Y-123447977D01*
X102861631Y-123329799D01*
X102889667Y-123190000D01*
X102889667Y-122457466D01*
X102954940Y-122785615D01*
X103232994Y-123201753D01*
X103649132Y-123479807D01*
X104140000Y-123577447D01*
X104630868Y-123479807D01*
X105047006Y-123201753D01*
X105325060Y-122785615D01*
X105410000Y-122358594D01*
X105494940Y-122785615D01*
X105772994Y-123201753D01*
X106189132Y-123479807D01*
X106680000Y-123577447D01*
X107170868Y-123479807D01*
X107587006Y-123201753D01*
X107865060Y-122785615D01*
X107885670Y-122682000D01*
X110781170Y-122682000D01*
X117568685Y-129469515D01*
X117815895Y-129634696D01*
X117815896Y-129634696D01*
X118107500Y-129692700D01*
X135890000Y-129692700D01*
X189882700Y-129692700D01*
X189882700Y-129692699D01*
X190174304Y-129634696D01*
X190174305Y-129634696D01*
X190421515Y-129469515D01*
X191224015Y-128667016D01*
X191224015Y-128667015D01*
X191389196Y-128419805D01*
X191447199Y-128128200D01*
X191447200Y-128128200D01*
X191447200Y-125880900D01*
X191389196Y-125589295D01*
X191224015Y-125342085D01*
X191224015Y-125342084D01*
X189845315Y-123963385D01*
X189786521Y-123924100D01*
X195924800Y-123924100D01*
X196177524Y-123873830D01*
X196391773Y-123730673D01*
X197930673Y-122191773D01*
X198073830Y-121977524D01*
X198124099Y-121724800D01*
X198124100Y-121724800D01*
X198124100Y-118404846D01*
X198376079Y-118152866D01*
X198452625Y-118537687D01*
X198694890Y-118900263D01*
X199057466Y-119142528D01*
X199485153Y-119227600D01*
X200564847Y-119227600D01*
X200992534Y-119142528D01*
X201355110Y-118900263D01*
X201597375Y-118537687D01*
X201682447Y-118110000D01*
X201597375Y-117682313D01*
X201355110Y-117319737D01*
X200992534Y-117077472D01*
X200564847Y-116992400D01*
X199536546Y-116992400D01*
X199841346Y-116687600D01*
X200564847Y-116687600D01*
X200992534Y-116602528D01*
X201355110Y-116360263D01*
X201597375Y-115997687D01*
X201682447Y-115570000D01*
X201597375Y-115142313D01*
X201355110Y-114779737D01*
X200992534Y-114537472D01*
X200564847Y-114452400D01*
X199872600Y-114452400D01*
X199872600Y-114401600D01*
X199872600Y-113182400D01*
X199872600Y-112877600D01*
X199872600Y-111658400D01*
X199364600Y-111658400D01*
X199313800Y-111674505D01*
X199313800Y-105862530D01*
X199313800Y-103022400D01*
X199313800Y-102717600D01*
X199313800Y-99877470D01*
X199183607Y-99846921D01*
X199183607Y-93726000D01*
X199183607Y-91059000D01*
X199157299Y-90923411D01*
X199079017Y-90804241D01*
X198960839Y-90724469D01*
X198821040Y-90696433D01*
X197231000Y-90696433D01*
X197095411Y-90722741D01*
X196976241Y-90801023D01*
X196896469Y-90919201D01*
X196868433Y-91059000D01*
X196868433Y-93726000D01*
X196894741Y-93861589D01*
X196973023Y-93980759D01*
X197091201Y-94060531D01*
X197231000Y-94088567D01*
X198821040Y-94088567D01*
X198956629Y-94062259D01*
X199075799Y-93983977D01*
X199155571Y-93865799D01*
X199183607Y-93726000D01*
X199183607Y-99846921D01*
X198903127Y-99781109D01*
X198596103Y-99863159D01*
X197706070Y-100386344D01*
X197084001Y-101210304D01*
X196824600Y-102209600D01*
X196824600Y-102717600D01*
X199313800Y-102717600D01*
X199313800Y-103022400D01*
X196824600Y-103022400D01*
X196824600Y-103530400D01*
X197084001Y-104529696D01*
X197706070Y-105353656D01*
X198596103Y-105876841D01*
X198903127Y-105958891D01*
X199313800Y-105862530D01*
X199313800Y-111674505D01*
X198851312Y-111821128D01*
X198439369Y-112167896D01*
X198194516Y-112666239D01*
X198307363Y-112877600D01*
X199872600Y-112877600D01*
X199872600Y-113182400D01*
X198307363Y-113182400D01*
X198194516Y-113393761D01*
X198439369Y-113892104D01*
X198851312Y-114238872D01*
X199364600Y-114401600D01*
X199872600Y-114401600D01*
X199872600Y-114452400D01*
X199485153Y-114452400D01*
X199057466Y-114537472D01*
X198694890Y-114779737D01*
X198452625Y-115142313D01*
X198367553Y-115570000D01*
X198452625Y-115997687D01*
X198537036Y-116124017D01*
X196996727Y-117664327D01*
X196853570Y-117878576D01*
X196803300Y-118131300D01*
X196803300Y-121451254D01*
X196475447Y-121779106D01*
X196475447Y-119380000D01*
X196475447Y-116840000D01*
X196475447Y-114300000D01*
X196475447Y-111760000D01*
X196475447Y-109220000D01*
X196475447Y-106680000D01*
X196475447Y-104140000D01*
X196475447Y-101600000D01*
X196475447Y-99060000D01*
X196475447Y-96520000D01*
X196475447Y-93980000D01*
X196390375Y-93552313D01*
X196148110Y-93189737D01*
X195785534Y-92947472D01*
X195357847Y-92862400D01*
X194278153Y-92862400D01*
X193850466Y-92947472D01*
X193487890Y-93189737D01*
X193245625Y-93552313D01*
X193160553Y-93980000D01*
X193245625Y-94407687D01*
X193487890Y-94770263D01*
X193850466Y-95012528D01*
X194278153Y-95097600D01*
X195357847Y-95097600D01*
X195785534Y-95012528D01*
X196148110Y-94770263D01*
X196390375Y-94407687D01*
X196475447Y-93980000D01*
X196475447Y-96520000D01*
X196390375Y-96092313D01*
X196148110Y-95729737D01*
X195785534Y-95487472D01*
X195357847Y-95402400D01*
X194278153Y-95402400D01*
X193850466Y-95487472D01*
X193487890Y-95729737D01*
X193245625Y-96092313D01*
X193160553Y-96520000D01*
X193245625Y-96947687D01*
X193487890Y-97310263D01*
X193850466Y-97552528D01*
X194278153Y-97637600D01*
X195357847Y-97637600D01*
X195785534Y-97552528D01*
X196148110Y-97310263D01*
X196390375Y-96947687D01*
X196475447Y-96520000D01*
X196475447Y-99060000D01*
X196390375Y-98632313D01*
X196148110Y-98269737D01*
X195785534Y-98027472D01*
X195357847Y-97942400D01*
X194278153Y-97942400D01*
X193850466Y-98027472D01*
X193487890Y-98269737D01*
X193245625Y-98632313D01*
X193160553Y-99060000D01*
X193245625Y-99487687D01*
X193487890Y-99850263D01*
X193850466Y-100092528D01*
X194278153Y-100177600D01*
X195357847Y-100177600D01*
X195785534Y-100092528D01*
X196148110Y-99850263D01*
X196390375Y-99487687D01*
X196475447Y-99060000D01*
X196475447Y-101600000D01*
X196390375Y-101172313D01*
X196148110Y-100809737D01*
X195785534Y-100567472D01*
X195357847Y-100482400D01*
X194278153Y-100482400D01*
X193850466Y-100567472D01*
X193487890Y-100809737D01*
X193245625Y-101172313D01*
X193160553Y-101600000D01*
X193245625Y-102027687D01*
X193487890Y-102390263D01*
X193850466Y-102632528D01*
X194278153Y-102717600D01*
X195357847Y-102717600D01*
X195785534Y-102632528D01*
X196148110Y-102390263D01*
X196390375Y-102027687D01*
X196475447Y-101600000D01*
X196475447Y-104140000D01*
X196390375Y-103712313D01*
X196148110Y-103349737D01*
X195785534Y-103107472D01*
X195357847Y-103022400D01*
X194278153Y-103022400D01*
X193850466Y-103107472D01*
X193487890Y-103349737D01*
X193245625Y-103712313D01*
X193160553Y-104140000D01*
X193245625Y-104567687D01*
X193487890Y-104930263D01*
X193850466Y-105172528D01*
X194278153Y-105257600D01*
X195357847Y-105257600D01*
X195785534Y-105172528D01*
X196148110Y-104930263D01*
X196390375Y-104567687D01*
X196475447Y-104140000D01*
X196475447Y-106680000D01*
X196390375Y-106252313D01*
X196148110Y-105889737D01*
X195785534Y-105647472D01*
X195357847Y-105562400D01*
X194278153Y-105562400D01*
X193850466Y-105647472D01*
X193487890Y-105889737D01*
X193245625Y-106252313D01*
X193160553Y-106680000D01*
X193245625Y-107107687D01*
X193487890Y-107470263D01*
X193850466Y-107712528D01*
X194278153Y-107797600D01*
X195357847Y-107797600D01*
X195785534Y-107712528D01*
X196148110Y-107470263D01*
X196390375Y-107107687D01*
X196475447Y-106680000D01*
X196475447Y-109220000D01*
X196390375Y-108792313D01*
X196148110Y-108429737D01*
X195785534Y-108187472D01*
X195357847Y-108102400D01*
X194278153Y-108102400D01*
X193850466Y-108187472D01*
X193487890Y-108429737D01*
X193245625Y-108792313D01*
X193160553Y-109220000D01*
X193245625Y-109647687D01*
X193487890Y-110010263D01*
X193850466Y-110252528D01*
X194278153Y-110337600D01*
X195357847Y-110337600D01*
X195785534Y-110252528D01*
X196148110Y-110010263D01*
X196390375Y-109647687D01*
X196475447Y-109220000D01*
X196475447Y-111760000D01*
X196390375Y-111332313D01*
X196148110Y-110969737D01*
X195785534Y-110727472D01*
X195357847Y-110642400D01*
X194278153Y-110642400D01*
X193850466Y-110727472D01*
X193487890Y-110969737D01*
X193245625Y-111332313D01*
X193160553Y-111760000D01*
X193245625Y-112187687D01*
X193487890Y-112550263D01*
X193850466Y-112792528D01*
X194278153Y-112877600D01*
X195357847Y-112877600D01*
X195785534Y-112792528D01*
X196148110Y-112550263D01*
X196390375Y-112187687D01*
X196475447Y-111760000D01*
X196475447Y-114300000D01*
X196390375Y-113872313D01*
X196148110Y-113509737D01*
X195785534Y-113267472D01*
X195357847Y-113182400D01*
X194278153Y-113182400D01*
X193850466Y-113267472D01*
X193487890Y-113509737D01*
X193245625Y-113872313D01*
X193160553Y-114300000D01*
X193245625Y-114727687D01*
X193487890Y-115090263D01*
X193850466Y-115332528D01*
X194278153Y-115417600D01*
X195357847Y-115417600D01*
X195785534Y-115332528D01*
X196148110Y-115090263D01*
X196390375Y-114727687D01*
X196475447Y-114300000D01*
X196475447Y-116840000D01*
X196390375Y-116412313D01*
X196148110Y-116049737D01*
X195785534Y-115807472D01*
X195357847Y-115722400D01*
X194278153Y-115722400D01*
X193850466Y-115807472D01*
X193487890Y-116049737D01*
X193245625Y-116412313D01*
X193160553Y-116840000D01*
X193245625Y-117267687D01*
X193487890Y-117630263D01*
X193850466Y-117872528D01*
X194278153Y-117957600D01*
X195357847Y-117957600D01*
X195785534Y-117872528D01*
X196148110Y-117630263D01*
X196390375Y-117267687D01*
X196475447Y-116840000D01*
X196475447Y-119380000D01*
X196390375Y-118952313D01*
X196148110Y-118589737D01*
X195785534Y-118347472D01*
X195357847Y-118262400D01*
X194278153Y-118262400D01*
X193850466Y-118347472D01*
X193487890Y-118589737D01*
X193245625Y-118952313D01*
X193160553Y-119380000D01*
X193245625Y-119807687D01*
X193487890Y-120170263D01*
X193850466Y-120412528D01*
X194278153Y-120497600D01*
X195357847Y-120497600D01*
X195785534Y-120412528D01*
X196148110Y-120170263D01*
X196390375Y-119807687D01*
X196475447Y-119380000D01*
X196475447Y-121779106D01*
X196452071Y-121802482D01*
X196390375Y-121492313D01*
X196148110Y-121129737D01*
X195785534Y-120887472D01*
X195357847Y-120802400D01*
X194278153Y-120802400D01*
X193850466Y-120887472D01*
X193487890Y-121129737D01*
X193245625Y-121492313D01*
X193160553Y-121920000D01*
X193245625Y-122347687D01*
X193416419Y-122603300D01*
X192663580Y-122603300D01*
X192834375Y-122347687D01*
X192919447Y-121920000D01*
X192919447Y-119380000D01*
X192919447Y-116840000D01*
X192919447Y-114300000D01*
X192919447Y-111760000D01*
X192834375Y-111332313D01*
X192592110Y-110969737D01*
X192229534Y-110727472D01*
X191801847Y-110642400D01*
X190722153Y-110642400D01*
X190294466Y-110727472D01*
X189931890Y-110969737D01*
X189689625Y-111332313D01*
X189604553Y-111760000D01*
X189689625Y-112187687D01*
X189931890Y-112550263D01*
X190294466Y-112792528D01*
X190722153Y-112877600D01*
X191801847Y-112877600D01*
X192229534Y-112792528D01*
X192592110Y-112550263D01*
X192834375Y-112187687D01*
X192919447Y-111760000D01*
X192919447Y-114300000D01*
X192834375Y-113872313D01*
X192592110Y-113509737D01*
X192229534Y-113267472D01*
X191801847Y-113182400D01*
X190722153Y-113182400D01*
X190294466Y-113267472D01*
X189931890Y-113509737D01*
X189689625Y-113872313D01*
X189604553Y-114300000D01*
X189689625Y-114727687D01*
X189931890Y-115090263D01*
X190294466Y-115332528D01*
X190722153Y-115417600D01*
X191801847Y-115417600D01*
X192229534Y-115332528D01*
X192592110Y-115090263D01*
X192834375Y-114727687D01*
X192919447Y-114300000D01*
X192919447Y-116840000D01*
X192834375Y-116412313D01*
X192592110Y-116049737D01*
X192229534Y-115807472D01*
X191801847Y-115722400D01*
X190722153Y-115722400D01*
X190294466Y-115807472D01*
X189931890Y-116049737D01*
X189689625Y-116412313D01*
X189604553Y-116840000D01*
X189689625Y-117267687D01*
X189931890Y-117630263D01*
X190294466Y-117872528D01*
X190722153Y-117957600D01*
X191801847Y-117957600D01*
X192229534Y-117872528D01*
X192592110Y-117630263D01*
X192834375Y-117267687D01*
X192919447Y-116840000D01*
X192919447Y-119380000D01*
X192834375Y-118952313D01*
X192592110Y-118589737D01*
X192229534Y-118347472D01*
X191801847Y-118262400D01*
X190722153Y-118262400D01*
X190294466Y-118347472D01*
X189931890Y-118589737D01*
X189689625Y-118952313D01*
X189604553Y-119380000D01*
X189689625Y-119807687D01*
X189931890Y-120170263D01*
X190294466Y-120412528D01*
X190722153Y-120497600D01*
X191801847Y-120497600D01*
X192229534Y-120412528D01*
X192592110Y-120170263D01*
X192834375Y-119807687D01*
X192919447Y-119380000D01*
X192919447Y-121920000D01*
X192834375Y-121492313D01*
X192592110Y-121129737D01*
X192229534Y-120887472D01*
X191801847Y-120802400D01*
X190722153Y-120802400D01*
X190294466Y-120887472D01*
X189931890Y-121129737D01*
X189689625Y-121492313D01*
X189604553Y-121920000D01*
X189689625Y-122347687D01*
X189860419Y-122603300D01*
X188816746Y-122603300D01*
X186756900Y-120543453D01*
X186756900Y-120535600D01*
X186706630Y-120282876D01*
X186563474Y-120068627D01*
X186245773Y-119750927D01*
X186031524Y-119607770D01*
X185778800Y-119557500D01*
X184448236Y-119557500D01*
X184519059Y-119510977D01*
X184598831Y-119392799D01*
X184626867Y-119253000D01*
X184626867Y-116255800D01*
X184600559Y-116120211D01*
X184522277Y-116001041D01*
X184404099Y-115921269D01*
X184264300Y-115893233D01*
X184073800Y-115893233D01*
X184073800Y-115798300D01*
X184073800Y-115776962D01*
X189668331Y-110182431D01*
X189668332Y-110182431D01*
X189789464Y-110001144D01*
X189789465Y-110001143D01*
X189820739Y-109843913D01*
X189931890Y-110010263D01*
X190294466Y-110252528D01*
X190722153Y-110337600D01*
X191801847Y-110337600D01*
X192229534Y-110252528D01*
X192592110Y-110010263D01*
X192834375Y-109647687D01*
X192919447Y-109220000D01*
X192834375Y-108792313D01*
X192592110Y-108429737D01*
X192229534Y-108187472D01*
X191801847Y-108102400D01*
X190722153Y-108102400D01*
X190294466Y-108187472D01*
X189931890Y-108429737D01*
X189832000Y-108579233D01*
X189832000Y-107320766D01*
X189931890Y-107470263D01*
X190294466Y-107712528D01*
X190722153Y-107797600D01*
X191801847Y-107797600D01*
X192229534Y-107712528D01*
X192592110Y-107470263D01*
X192834375Y-107107687D01*
X192919447Y-106680000D01*
X192834375Y-106252313D01*
X192592110Y-105889737D01*
X192229534Y-105647472D01*
X191801847Y-105562400D01*
X190722153Y-105562400D01*
X190294466Y-105647472D01*
X189931890Y-105889737D01*
X189832000Y-106039233D01*
X189832000Y-104780766D01*
X189931890Y-104930263D01*
X190294466Y-105172528D01*
X190722153Y-105257600D01*
X191801847Y-105257600D01*
X192229534Y-105172528D01*
X192592110Y-104930263D01*
X192834375Y-104567687D01*
X192919447Y-104140000D01*
X192834375Y-103712313D01*
X192592110Y-103349737D01*
X192229534Y-103107472D01*
X191801847Y-103022400D01*
X190722153Y-103022400D01*
X190294466Y-103107472D01*
X189931890Y-103349737D01*
X189832000Y-103499233D01*
X189832000Y-102240766D01*
X189931890Y-102390263D01*
X190294466Y-102632528D01*
X190722153Y-102717600D01*
X191801847Y-102717600D01*
X192229534Y-102632528D01*
X192592110Y-102390263D01*
X192834375Y-102027687D01*
X192919447Y-101600000D01*
X192834375Y-101172313D01*
X192592110Y-100809737D01*
X192229534Y-100567472D01*
X191801847Y-100482400D01*
X190722153Y-100482400D01*
X190294466Y-100567472D01*
X189931890Y-100809737D01*
X189832000Y-100959233D01*
X189832000Y-99700766D01*
X189931890Y-99850263D01*
X190294466Y-100092528D01*
X190722153Y-100177600D01*
X191801847Y-100177600D01*
X192229534Y-100092528D01*
X192592110Y-99850263D01*
X192834375Y-99487687D01*
X192919447Y-99060000D01*
X192834375Y-98632313D01*
X192592110Y-98269737D01*
X192229534Y-98027472D01*
X191801847Y-97942400D01*
X190722153Y-97942400D01*
X190294466Y-98027472D01*
X189931890Y-98269737D01*
X189832000Y-98419233D01*
X189832000Y-97160766D01*
X189931890Y-97310263D01*
X190294466Y-97552528D01*
X190722153Y-97637600D01*
X191801847Y-97637600D01*
X192229534Y-97552528D01*
X192592110Y-97310263D01*
X192834375Y-96947687D01*
X192919447Y-96520000D01*
X192834375Y-96092313D01*
X192592110Y-95729737D01*
X192229534Y-95487472D01*
X191801847Y-95402400D01*
X190722153Y-95402400D01*
X190294466Y-95487472D01*
X189931890Y-95729737D01*
X189832000Y-95879233D01*
X189832000Y-94620766D01*
X189931890Y-94770263D01*
X190294466Y-95012528D01*
X190722153Y-95097600D01*
X191801847Y-95097600D01*
X192229534Y-95012528D01*
X192592110Y-94770263D01*
X192834375Y-94407687D01*
X192919447Y-93980000D01*
X192834375Y-93552313D01*
X192592110Y-93189737D01*
X192229534Y-92947472D01*
X191801847Y-92862400D01*
X190722153Y-92862400D01*
X190294466Y-92947472D01*
X189931890Y-93189737D01*
X189832000Y-93339233D01*
X189832000Y-92080766D01*
X189931890Y-92230263D01*
X190294466Y-92472528D01*
X190722153Y-92557600D01*
X191801847Y-92557600D01*
X192229534Y-92472528D01*
X192592110Y-92230263D01*
X192834375Y-91867687D01*
X192919447Y-91440000D01*
X192834375Y-91012313D01*
X192644938Y-90728800D01*
X193435061Y-90728800D01*
X193245625Y-91012313D01*
X193160553Y-91440000D01*
X193245625Y-91867687D01*
X193487890Y-92230263D01*
X193850466Y-92472528D01*
X194278153Y-92557600D01*
X195357847Y-92557600D01*
X195785534Y-92472528D01*
X196148110Y-92230263D01*
X196390375Y-91867687D01*
X196475447Y-91440000D01*
X196390375Y-91012313D01*
X196148110Y-90649737D01*
X196100659Y-90618031D01*
X196179831Y-90565131D01*
X199722731Y-87022231D01*
X199843864Y-86840944D01*
X199843864Y-86840943D01*
X199886399Y-86627100D01*
X199886400Y-86627100D01*
X199886400Y-80953200D01*
X199843865Y-80739357D01*
X199843864Y-80739356D01*
X199722732Y-80558069D01*
X195148762Y-75984100D01*
X211035900Y-75984100D01*
X211035900Y-129755900D01*
X211035900Y-129755900D01*
G37*
X211035900Y-129755900D02*
X209778829Y-129755900D01*
X209778829Y-102608429D01*
X209578173Y-102122804D01*
X209403528Y-101947854D01*
X209403528Y-98374200D01*
X209241117Y-97557707D01*
X208778611Y-96865517D01*
X208086421Y-96403011D01*
X207269928Y-96240600D01*
X205632472Y-96240600D01*
X204815979Y-96403011D01*
X204123789Y-96865517D01*
X203661283Y-97557707D01*
X203498872Y-98374200D01*
X203661283Y-99190693D01*
X204123789Y-99882883D01*
X204815979Y-100345389D01*
X205632472Y-100507800D01*
X207269928Y-100507800D01*
X208086421Y-100345389D01*
X208778611Y-99882883D01*
X209241117Y-99190693D01*
X209403528Y-98374200D01*
X209403528Y-101947854D01*
X209206950Y-101750933D01*
X208721676Y-101549430D01*
X208196229Y-101548971D01*
X207710604Y-101749627D01*
X207452592Y-102007189D01*
X207021035Y-101361317D01*
X206328845Y-100898811D01*
X205512352Y-100736400D01*
X204392848Y-100736400D01*
X204282830Y-100758283D01*
X202684400Y-99159853D01*
X202684400Y-94088567D01*
X202819000Y-94088567D01*
X202954589Y-94062259D01*
X203073759Y-93983977D01*
X203153531Y-93865799D01*
X203181567Y-93726000D01*
X203181567Y-91059000D01*
X203181567Y-85471000D01*
X203181567Y-82804000D01*
X203155259Y-82668411D01*
X203076977Y-82549241D01*
X202958799Y-82469469D01*
X202819000Y-82441433D01*
X201228960Y-82441433D01*
X201093371Y-82467741D01*
X200974201Y-82546023D01*
X200894429Y-82664201D01*
X200866393Y-82804000D01*
X200866393Y-85471000D01*
X200892701Y-85606589D01*
X200970983Y-85725759D01*
X201089161Y-85805531D01*
X201228960Y-85833567D01*
X202819000Y-85833567D01*
X202954589Y-85807259D01*
X203073759Y-85728977D01*
X203153531Y-85610799D01*
X203181567Y-85471000D01*
X203181567Y-91059000D01*
X203155259Y-90923411D01*
X203076977Y-90804241D01*
X202958799Y-90724469D01*
X202819000Y-90696433D01*
X201228960Y-90696433D01*
X201093371Y-90722741D01*
X200974201Y-90801023D01*
X200894429Y-90919201D01*
X200866393Y-91059000D01*
X200866393Y-93726000D01*
X200892701Y-93861589D01*
X200970983Y-93980759D01*
X201089161Y-94060531D01*
X201228960Y-94088567D01*
X201363600Y-94088567D01*
X201363600Y-99433400D01*
X201413870Y-99686124D01*
X201557027Y-99900373D01*
X202964375Y-101307722D01*
X202884165Y-101361317D01*
X202421659Y-102053507D01*
X202259248Y-102870000D01*
X202421659Y-103686493D01*
X202884165Y-104378683D01*
X203576355Y-104841189D01*
X204392848Y-105003600D01*
X205512352Y-105003600D01*
X206328845Y-104841189D01*
X207021035Y-104378683D01*
X207452691Y-103732662D01*
X207708650Y-103989067D01*
X208193924Y-104190570D01*
X208719371Y-104191029D01*
X209204996Y-103990373D01*
X209576867Y-103619150D01*
X209778370Y-103133876D01*
X209778829Y-102608429D01*
X209778829Y-129755900D01*
X209403528Y-129755900D01*
X209403528Y-107365800D01*
X209241117Y-106549307D01*
X208778611Y-105857117D01*
X208086421Y-105394611D01*
X207269928Y-105232200D01*
X205632472Y-105232200D01*
X204815979Y-105394611D01*
X204123789Y-105857117D01*
X203661283Y-106549307D01*
X203498872Y-107365800D01*
X203661283Y-108182293D01*
X204123789Y-108874483D01*
X204815979Y-109336989D01*
X205632472Y-109499400D01*
X207269928Y-109499400D01*
X208086421Y-109336989D01*
X208778611Y-108874483D01*
X209241117Y-108182293D01*
X209403528Y-107365800D01*
X209403528Y-129755900D01*
X202107800Y-129755900D01*
X202107800Y-103530400D01*
X202107800Y-103022400D01*
X202107800Y-102717600D01*
X202107800Y-102209600D01*
X201848399Y-101210304D01*
X201226330Y-100386344D01*
X200336297Y-99863159D01*
X200029273Y-99781109D01*
X199618600Y-99877470D01*
X199618600Y-102717600D01*
X202107800Y-102717600D01*
X202107800Y-103022400D01*
X199618600Y-103022400D01*
X199618600Y-105862530D01*
X200029273Y-105958891D01*
X200336297Y-105876841D01*
X201226330Y-105353656D01*
X201848399Y-104529696D01*
X202107800Y-103530400D01*
X202107800Y-129755900D01*
X201855484Y-129755900D01*
X201855484Y-113393761D01*
X201855484Y-112666239D01*
X201610631Y-112167896D01*
X201198688Y-111821128D01*
X200685400Y-111658400D01*
X200177400Y-111658400D01*
X200177400Y-112877600D01*
X201742637Y-112877600D01*
X201855484Y-112666239D01*
X201855484Y-113393761D01*
X201742637Y-113182400D01*
X200177400Y-113182400D01*
X200177400Y-114401600D01*
X200685400Y-114401600D01*
X201198688Y-114238872D01*
X201610631Y-113892104D01*
X201855484Y-113393761D01*
X201855484Y-129755900D01*
X196634503Y-129755900D01*
X196634503Y-126539736D01*
X196281425Y-125685223D01*
X195628216Y-125030873D01*
X194774320Y-124676304D01*
X193849736Y-124675497D01*
X192995223Y-125028575D01*
X192340873Y-125681784D01*
X191986304Y-126535680D01*
X191985497Y-127460264D01*
X192338575Y-128314777D01*
X192991784Y-128969127D01*
X193845680Y-129323696D01*
X194770264Y-129324503D01*
X195624777Y-128971425D01*
X196279127Y-128318216D01*
X196633696Y-127464320D01*
X196634503Y-126539736D01*
X196634503Y-129755900D01*
X114084503Y-129755900D01*
X114084503Y-126539736D01*
X113731425Y-125685223D01*
X113078216Y-125030873D01*
X112224320Y-124676304D01*
X111299736Y-124675497D01*
X110445223Y-125028575D01*
X109790873Y-125681784D01*
X109436304Y-126535680D01*
X109435497Y-127460264D01*
X109788575Y-128314777D01*
X110441784Y-128969127D01*
X111295680Y-129323696D01*
X112220264Y-129324503D01*
X113074777Y-128971425D01*
X113729127Y-128318216D01*
X114083696Y-127464320D01*
X114084503Y-126539736D01*
X114084503Y-129755900D01*
X93764100Y-129755900D01*
X93764100Y-75984100D01*
X156448137Y-75984100D01*
X155814869Y-76617369D01*
X155693736Y-76798656D01*
X155651200Y-77012500D01*
X155651200Y-77255231D01*
X155419737Y-77409890D01*
X155177472Y-77772466D01*
X155092400Y-78200153D01*
X155092400Y-79279847D01*
X155177472Y-79707534D01*
X155419737Y-80070110D01*
X155782313Y-80312375D01*
X156210000Y-80397447D01*
X156637687Y-80312375D01*
X157000263Y-80070110D01*
X157242528Y-79707534D01*
X157327600Y-79279847D01*
X157327600Y-78200153D01*
X157242528Y-77772466D01*
X157000263Y-77409890D01*
X156768800Y-77255231D01*
X156768800Y-77243962D01*
X157161562Y-76851200D01*
X186562453Y-76851200D01*
X185990873Y-77421784D01*
X185636304Y-78275680D01*
X185635497Y-79200264D01*
X185988575Y-80054777D01*
X186641784Y-80709127D01*
X186670858Y-80721200D01*
X185267600Y-80721200D01*
X185267600Y-79279847D01*
X185267600Y-78200153D01*
X185182528Y-77772466D01*
X184940263Y-77409890D01*
X184577687Y-77167625D01*
X184150000Y-77082553D01*
X183722313Y-77167625D01*
X183359737Y-77409890D01*
X183117472Y-77772466D01*
X183032400Y-78200153D01*
X183032400Y-79279847D01*
X183117472Y-79707534D01*
X183359737Y-80070110D01*
X183722313Y-80312375D01*
X184150000Y-80397447D01*
X184577687Y-80312375D01*
X184940263Y-80070110D01*
X185182528Y-79707534D01*
X185267600Y-79279847D01*
X185267600Y-80721200D01*
X182727600Y-80721200D01*
X182727600Y-79279847D01*
X182727600Y-78200153D01*
X182642528Y-77772466D01*
X182400263Y-77409890D01*
X182037687Y-77167625D01*
X181610000Y-77082553D01*
X181182313Y-77167625D01*
X180819737Y-77409890D01*
X180577472Y-77772466D01*
X180492400Y-78200153D01*
X180492400Y-79279847D01*
X180577472Y-79707534D01*
X180819737Y-80070110D01*
X181182313Y-80312375D01*
X181610000Y-80397447D01*
X182037687Y-80312375D01*
X182400263Y-80070110D01*
X182642528Y-79707534D01*
X182727600Y-79279847D01*
X182727600Y-80721200D01*
X180187600Y-80721200D01*
X180187600Y-79279847D01*
X180187600Y-78200153D01*
X180102528Y-77772466D01*
X179860263Y-77409890D01*
X179497687Y-77167625D01*
X179070000Y-77082553D01*
X178642313Y-77167625D01*
X178279737Y-77409890D01*
X178037472Y-77772466D01*
X177952400Y-78200153D01*
X177952400Y-79279847D01*
X178037472Y-79707534D01*
X178279737Y-80070110D01*
X178642313Y-80312375D01*
X179070000Y-80397447D01*
X179497687Y-80312375D01*
X179860263Y-80070110D01*
X180102528Y-79707534D01*
X180187600Y-79279847D01*
X180187600Y-80721200D01*
X177647600Y-80721200D01*
X177647600Y-79279847D01*
X177647600Y-78200153D01*
X177562528Y-77772466D01*
X177320263Y-77409890D01*
X176957687Y-77167625D01*
X176530000Y-77082553D01*
X176102313Y-77167625D01*
X175739737Y-77409890D01*
X175497472Y-77772466D01*
X175412400Y-78200153D01*
X175412400Y-79279847D01*
X175497472Y-79707534D01*
X175739737Y-80070110D01*
X176102313Y-80312375D01*
X176530000Y-80397447D01*
X176957687Y-80312375D01*
X177320263Y-80070110D01*
X177562528Y-79707534D01*
X177647600Y-79279847D01*
X177647600Y-80721200D01*
X175107600Y-80721200D01*
X175107600Y-79279847D01*
X175107600Y-78200153D01*
X175022528Y-77772466D01*
X174780263Y-77409890D01*
X174417687Y-77167625D01*
X173990000Y-77082553D01*
X173562313Y-77167625D01*
X173199737Y-77409890D01*
X172957472Y-77772466D01*
X172872400Y-78200153D01*
X172872400Y-79279847D01*
X172957472Y-79707534D01*
X173199737Y-80070110D01*
X173562313Y-80312375D01*
X173990000Y-80397447D01*
X174417687Y-80312375D01*
X174780263Y-80070110D01*
X175022528Y-79707534D01*
X175107600Y-79279847D01*
X175107600Y-80721200D01*
X172567600Y-80721200D01*
X172567600Y-79279847D01*
X172567600Y-78200153D01*
X172482528Y-77772466D01*
X172240263Y-77409890D01*
X171877687Y-77167625D01*
X171450000Y-77082553D01*
X171022313Y-77167625D01*
X170659737Y-77409890D01*
X170417472Y-77772466D01*
X170332400Y-78200153D01*
X170332400Y-79279847D01*
X170417472Y-79707534D01*
X170659737Y-80070110D01*
X171022313Y-80312375D01*
X171450000Y-80397447D01*
X171877687Y-80312375D01*
X172240263Y-80070110D01*
X172482528Y-79707534D01*
X172567600Y-79279847D01*
X172567600Y-80721200D01*
X170027600Y-80721200D01*
X170027600Y-79279847D01*
X170027600Y-78200153D01*
X169942528Y-77772466D01*
X169700263Y-77409890D01*
X169337687Y-77167625D01*
X168910000Y-77082553D01*
X168482313Y-77167625D01*
X168119737Y-77409890D01*
X167877472Y-77772466D01*
X167792400Y-78200153D01*
X167792400Y-79279847D01*
X167877472Y-79707534D01*
X168119737Y-80070110D01*
X168482313Y-80312375D01*
X168910000Y-80397447D01*
X169337687Y-80312375D01*
X169700263Y-80070110D01*
X169942528Y-79707534D01*
X170027600Y-79279847D01*
X170027600Y-80721200D01*
X167487600Y-80721200D01*
X167487600Y-79279847D01*
X167487600Y-78200153D01*
X167402528Y-77772466D01*
X167160263Y-77409890D01*
X166797687Y-77167625D01*
X166370000Y-77082553D01*
X165942313Y-77167625D01*
X165579737Y-77409890D01*
X165337472Y-77772466D01*
X165252400Y-78200153D01*
X165252400Y-79279847D01*
X165337472Y-79707534D01*
X165579737Y-80070110D01*
X165942313Y-80312375D01*
X166370000Y-80397447D01*
X166797687Y-80312375D01*
X167160263Y-80070110D01*
X167402528Y-79707534D01*
X167487600Y-79279847D01*
X167487600Y-80721200D01*
X162407600Y-80721200D01*
X162407600Y-79279847D01*
X162407600Y-78200153D01*
X162322528Y-77772466D01*
X162080263Y-77409890D01*
X161717687Y-77167625D01*
X161290000Y-77082553D01*
X160862313Y-77167625D01*
X160499737Y-77409890D01*
X160257472Y-77772466D01*
X160172400Y-78200153D01*
X160172400Y-79279847D01*
X160257472Y-79707534D01*
X160499737Y-80070110D01*
X160862313Y-80312375D01*
X161290000Y-80397447D01*
X161717687Y-80312375D01*
X162080263Y-80070110D01*
X162322528Y-79707534D01*
X162407600Y-79279847D01*
X162407600Y-80721200D01*
X159867600Y-80721200D01*
X159867600Y-79279847D01*
X159867600Y-78200153D01*
X159782528Y-77772466D01*
X159540263Y-77409890D01*
X159177687Y-77167625D01*
X158750000Y-77082553D01*
X158322313Y-77167625D01*
X157959737Y-77409890D01*
X157717472Y-77772466D01*
X157632400Y-78200153D01*
X157632400Y-79279847D01*
X157717472Y-79707534D01*
X157959737Y-80070110D01*
X158322313Y-80312375D01*
X158750000Y-80397447D01*
X159177687Y-80312375D01*
X159540263Y-80070110D01*
X159782528Y-79707534D01*
X159867600Y-79279847D01*
X159867600Y-80721200D01*
X154787600Y-80721200D01*
X154787600Y-79279847D01*
X154787600Y-78200153D01*
X154702528Y-77772466D01*
X154460263Y-77409890D01*
X154097687Y-77167625D01*
X153670000Y-77082553D01*
X153242313Y-77167625D01*
X152879737Y-77409890D01*
X152637472Y-77772466D01*
X152552400Y-78200153D01*
X152552400Y-79279847D01*
X152637472Y-79707534D01*
X152879737Y-80070110D01*
X153242313Y-80312375D01*
X153670000Y-80397447D01*
X154097687Y-80312375D01*
X154460263Y-80070110D01*
X154702528Y-79707534D01*
X154787600Y-79279847D01*
X154787600Y-80721200D01*
X152247600Y-80721200D01*
X152247600Y-79279847D01*
X152247600Y-78200153D01*
X152162528Y-77772466D01*
X151920263Y-77409890D01*
X151557687Y-77167625D01*
X151130000Y-77082553D01*
X150702313Y-77167625D01*
X150339737Y-77409890D01*
X150097472Y-77772466D01*
X150012400Y-78200153D01*
X150012400Y-79279847D01*
X150097472Y-79707534D01*
X150339737Y-80070110D01*
X150702313Y-80312375D01*
X151130000Y-80397447D01*
X151557687Y-80312375D01*
X151920263Y-80070110D01*
X152162528Y-79707534D01*
X152247600Y-79279847D01*
X152247600Y-80721200D01*
X149707600Y-80721200D01*
X149707600Y-79279847D01*
X149707600Y-78200153D01*
X149622528Y-77772466D01*
X149380263Y-77409890D01*
X149017687Y-77167625D01*
X148590000Y-77082553D01*
X148162313Y-77167625D01*
X147799737Y-77409890D01*
X147557472Y-77772466D01*
X147472400Y-78200153D01*
X147472400Y-79279847D01*
X147557472Y-79707534D01*
X147799737Y-80070110D01*
X148162313Y-80312375D01*
X148590000Y-80397447D01*
X149017687Y-80312375D01*
X149380263Y-80070110D01*
X149622528Y-79707534D01*
X149707600Y-79279847D01*
X149707600Y-80721200D01*
X147167600Y-80721200D01*
X147167600Y-79279847D01*
X147167600Y-78200153D01*
X147082528Y-77772466D01*
X146840263Y-77409890D01*
X146477687Y-77167625D01*
X146050000Y-77082553D01*
X145622313Y-77167625D01*
X145259737Y-77409890D01*
X145017472Y-77772466D01*
X144932400Y-78200153D01*
X144932400Y-79279847D01*
X145017472Y-79707534D01*
X145259737Y-80070110D01*
X145622313Y-80312375D01*
X146050000Y-80397447D01*
X146477687Y-80312375D01*
X146840263Y-80070110D01*
X147082528Y-79707534D01*
X147167600Y-79279847D01*
X147167600Y-80721200D01*
X144091900Y-80721200D01*
X143985489Y-80742366D01*
X144026264Y-80681344D01*
X144068800Y-80467500D01*
X144068800Y-80224768D01*
X144300263Y-80070110D01*
X144542528Y-79707534D01*
X144627600Y-79279847D01*
X144627600Y-78200153D01*
X144542528Y-77772466D01*
X144300263Y-77409890D01*
X143937687Y-77167625D01*
X143510000Y-77082553D01*
X143082313Y-77167625D01*
X142719737Y-77409890D01*
X142477472Y-77772466D01*
X142392400Y-78200153D01*
X142392400Y-79279847D01*
X142477472Y-79707534D01*
X142611886Y-79908700D01*
X140344113Y-79908700D01*
X140478528Y-79707534D01*
X140563600Y-79279847D01*
X140563600Y-78200153D01*
X140478528Y-77772466D01*
X140236263Y-77409890D01*
X139873687Y-77167625D01*
X139446000Y-77082553D01*
X139018313Y-77167625D01*
X138655737Y-77409890D01*
X138413472Y-77772466D01*
X138328400Y-78200153D01*
X138328400Y-79279847D01*
X138413472Y-79707534D01*
X138547886Y-79908700D01*
X137804113Y-79908700D01*
X137938528Y-79707534D01*
X138023600Y-79279847D01*
X138023600Y-78200153D01*
X137938528Y-77772466D01*
X137696263Y-77409890D01*
X137333687Y-77167625D01*
X136906000Y-77082553D01*
X136478313Y-77167625D01*
X136115737Y-77409890D01*
X135873472Y-77772466D01*
X135788400Y-78200153D01*
X135788400Y-79279847D01*
X135873472Y-79707534D01*
X136115737Y-80070110D01*
X136478313Y-80312375D01*
X136787134Y-80373803D01*
X135483600Y-81677337D01*
X135483600Y-79279847D01*
X135483600Y-78200153D01*
X135398528Y-77772466D01*
X135156263Y-77409890D01*
X134793687Y-77167625D01*
X134366000Y-77082553D01*
X133938313Y-77167625D01*
X133575737Y-77409890D01*
X133333472Y-77772466D01*
X133248400Y-78200153D01*
X133248400Y-79279847D01*
X133333472Y-79707534D01*
X133575737Y-80070110D01*
X133938313Y-80312375D01*
X134366000Y-80397447D01*
X134793687Y-80312375D01*
X135156263Y-80070110D01*
X135398528Y-79707534D01*
X135483600Y-79279847D01*
X135483600Y-81677337D01*
X132943600Y-84217337D01*
X132943600Y-79279847D01*
X132943600Y-78200153D01*
X132858528Y-77772466D01*
X132616263Y-77409890D01*
X132253687Y-77167625D01*
X131826000Y-77082553D01*
X131398313Y-77167625D01*
X131035737Y-77409890D01*
X130793472Y-77772466D01*
X130708400Y-78200153D01*
X130708400Y-79279847D01*
X130793472Y-79707534D01*
X131035737Y-80070110D01*
X131398313Y-80312375D01*
X131826000Y-80397447D01*
X132253687Y-80312375D01*
X132616263Y-80070110D01*
X132858528Y-79707534D01*
X132943600Y-79279847D01*
X132943600Y-84217337D01*
X130403600Y-86757337D01*
X130403600Y-79279847D01*
X130403600Y-78200153D01*
X130318528Y-77772466D01*
X130076263Y-77409890D01*
X129713687Y-77167625D01*
X129286000Y-77082553D01*
X128858313Y-77167625D01*
X128495737Y-77409890D01*
X128253472Y-77772466D01*
X128168400Y-78200153D01*
X128168400Y-79279847D01*
X128253472Y-79707534D01*
X128495737Y-80070110D01*
X128858313Y-80312375D01*
X129286000Y-80397447D01*
X129713687Y-80312375D01*
X130076263Y-80070110D01*
X130318528Y-79707534D01*
X130403600Y-79279847D01*
X130403600Y-86757337D01*
X127863600Y-89297337D01*
X127863600Y-79279847D01*
X127863600Y-78200153D01*
X127778528Y-77772466D01*
X127536263Y-77409890D01*
X127173687Y-77167625D01*
X126746000Y-77082553D01*
X126318313Y-77167625D01*
X125955737Y-77409890D01*
X125713472Y-77772466D01*
X125628400Y-78200153D01*
X125628400Y-79279847D01*
X125713472Y-79707534D01*
X125955737Y-80070110D01*
X126318313Y-80312375D01*
X126746000Y-80397447D01*
X127173687Y-80312375D01*
X127536263Y-80070110D01*
X127778528Y-79707534D01*
X127863600Y-79279847D01*
X127863600Y-89297337D01*
X127424769Y-89736168D01*
X127424769Y-86207600D01*
X127252691Y-85342506D01*
X126762655Y-84609114D01*
X126029263Y-84119078D01*
X125323600Y-83978712D01*
X125323600Y-79279847D01*
X125323600Y-78200153D01*
X125238528Y-77772466D01*
X124996263Y-77409890D01*
X124633687Y-77167625D01*
X124206000Y-77082553D01*
X123778313Y-77167625D01*
X123415737Y-77409890D01*
X123173472Y-77772466D01*
X123088400Y-78200153D01*
X123088400Y-79279847D01*
X123173472Y-79707534D01*
X123415737Y-80070110D01*
X123778313Y-80312375D01*
X124206000Y-80397447D01*
X124633687Y-80312375D01*
X124996263Y-80070110D01*
X125238528Y-79707534D01*
X125323600Y-79279847D01*
X125323600Y-83978712D01*
X125164169Y-83947000D01*
X122783600Y-83947000D01*
X122783600Y-79279847D01*
X122783600Y-78200153D01*
X122698528Y-77772466D01*
X122456263Y-77409890D01*
X122093687Y-77167625D01*
X121666000Y-77082553D01*
X121238313Y-77167625D01*
X120875737Y-77409890D01*
X120633472Y-77772466D01*
X120548400Y-78200153D01*
X120548400Y-79279847D01*
X120633472Y-79707534D01*
X120875737Y-80070110D01*
X121238313Y-80312375D01*
X121666000Y-80397447D01*
X122093687Y-80312375D01*
X122456263Y-80070110D01*
X122698528Y-79707534D01*
X122783600Y-79279847D01*
X122783600Y-83947000D01*
X122485831Y-83947000D01*
X121620737Y-84119078D01*
X120887345Y-84609114D01*
X120397309Y-85342506D01*
X120243600Y-86115252D01*
X120243600Y-79279847D01*
X120243600Y-78200153D01*
X120158528Y-77772466D01*
X119916263Y-77409890D01*
X119553687Y-77167625D01*
X119126000Y-77082553D01*
X118698313Y-77167625D01*
X118335737Y-77409890D01*
X118093472Y-77772466D01*
X118008400Y-78200153D01*
X118008400Y-79279847D01*
X118093472Y-79707534D01*
X118335737Y-80070110D01*
X118698313Y-80312375D01*
X119126000Y-80397447D01*
X119553687Y-80312375D01*
X119916263Y-80070110D01*
X120158528Y-79707534D01*
X120243600Y-79279847D01*
X120243600Y-86115252D01*
X120225231Y-86207600D01*
X120397309Y-87072694D01*
X120887345Y-87806086D01*
X121620737Y-88296122D01*
X122485831Y-88468200D01*
X125164169Y-88468200D01*
X126029263Y-88296122D01*
X126762655Y-87806086D01*
X127252691Y-87072694D01*
X127424769Y-86207600D01*
X127424769Y-89736168D01*
X123529707Y-93631231D01*
X123529707Y-92405200D01*
X123503399Y-92269611D01*
X123425117Y-92150441D01*
X123306939Y-92070669D01*
X123167140Y-92042633D01*
X120627140Y-92042633D01*
X120491551Y-92068941D01*
X120372381Y-92147223D01*
X120292609Y-92265401D01*
X120264573Y-92405200D01*
X120264573Y-92506800D01*
X120068000Y-92506800D01*
X117703600Y-92506800D01*
X117703600Y-79279847D01*
X117703600Y-78200153D01*
X117618528Y-77772466D01*
X117376263Y-77409890D01*
X117013687Y-77167625D01*
X116586000Y-77082553D01*
X116158313Y-77167625D01*
X115795737Y-77409890D01*
X115553472Y-77772466D01*
X115468400Y-78200153D01*
X115468400Y-79279847D01*
X115553472Y-79707534D01*
X115795737Y-80070110D01*
X116158313Y-80312375D01*
X116586000Y-80397447D01*
X117013687Y-80312375D01*
X117376263Y-80070110D01*
X117618528Y-79707534D01*
X117703600Y-79279847D01*
X117703600Y-92506800D01*
X115354503Y-92506800D01*
X115354503Y-78279736D01*
X115001425Y-77425223D01*
X114348216Y-76770873D01*
X113494320Y-76416304D01*
X112569736Y-76415497D01*
X111715223Y-76768575D01*
X111060873Y-77421784D01*
X110706304Y-78275680D01*
X110705497Y-79200264D01*
X111058575Y-80054777D01*
X111711784Y-80709127D01*
X112565680Y-81063696D01*
X113490264Y-81064503D01*
X114344777Y-80711425D01*
X114999127Y-80058216D01*
X115353696Y-79204320D01*
X115354503Y-78279736D01*
X115354503Y-92506800D01*
X107340400Y-92506800D01*
X107340400Y-85266529D01*
X107587006Y-85101753D01*
X107865060Y-84685615D01*
X107962700Y-84194747D01*
X107962700Y-83445253D01*
X107865060Y-82954385D01*
X107587006Y-82538247D01*
X107170868Y-82260193D01*
X106680000Y-82162553D01*
X106189132Y-82260193D01*
X105772994Y-82538247D01*
X105494940Y-82954385D01*
X105410000Y-83381405D01*
X105325060Y-82954385D01*
X105047006Y-82538247D01*
X104630868Y-82260193D01*
X104140000Y-82162553D01*
X103649132Y-82260193D01*
X103232994Y-82538247D01*
X102954940Y-82954385D01*
X102889667Y-83282533D01*
X102889667Y-82550000D01*
X102863359Y-82414411D01*
X102785077Y-82295241D01*
X102666899Y-82215469D01*
X102527100Y-82187433D01*
X100672900Y-82187433D01*
X100537311Y-82213741D01*
X100418141Y-82292023D01*
X100338369Y-82410201D01*
X100310333Y-82550000D01*
X100310333Y-85090000D01*
X100336641Y-85225589D01*
X100414923Y-85344759D01*
X100533101Y-85424531D01*
X100672900Y-85452567D01*
X102527100Y-85452567D01*
X102662689Y-85426259D01*
X102781859Y-85347977D01*
X102861631Y-85229799D01*
X102889667Y-85090000D01*
X102889667Y-84357466D01*
X102954940Y-84685615D01*
X103232994Y-85101753D01*
X103378000Y-85198642D01*
X103378000Y-95141357D01*
X103232994Y-95238247D01*
X102954940Y-95654385D01*
X102889667Y-95982533D01*
X102889667Y-95250000D01*
X102863359Y-95114411D01*
X102785077Y-94995241D01*
X102666899Y-94915469D01*
X102527100Y-94887433D01*
X100672900Y-94887433D01*
X100537311Y-94913741D01*
X100418141Y-94992023D01*
X100338369Y-95110201D01*
X100310333Y-95250000D01*
X100310333Y-97790000D01*
X100336641Y-97925589D01*
X100414923Y-98044759D01*
X100533101Y-98124531D01*
X100672900Y-98152567D01*
X102527100Y-98152567D01*
X102662689Y-98126259D01*
X102781859Y-98047977D01*
X102861631Y-97929799D01*
X102889667Y-97790000D01*
X102889667Y-97057466D01*
X102954940Y-97385615D01*
X103232994Y-97801753D01*
X103649132Y-98079807D01*
X104140000Y-98177447D01*
X104630868Y-98079807D01*
X105047006Y-97801753D01*
X105325060Y-97385615D01*
X105410000Y-96958594D01*
X105494940Y-97385615D01*
X105772994Y-97801753D01*
X106189132Y-98079807D01*
X106680000Y-98177447D01*
X107170868Y-98079807D01*
X107587006Y-97801753D01*
X107865060Y-97385615D01*
X107962700Y-96894747D01*
X107962700Y-96145253D01*
X107865060Y-95654385D01*
X107587006Y-95238247D01*
X107340400Y-95073470D01*
X107340400Y-93827600D01*
X120068000Y-93827600D01*
X120264573Y-93827600D01*
X120264573Y-93929200D01*
X120290881Y-94064789D01*
X120369163Y-94183959D01*
X120487341Y-94263731D01*
X120531542Y-94272595D01*
X114346869Y-100457269D01*
X114225736Y-100638556D01*
X114183200Y-100852400D01*
X114183200Y-109762899D01*
X114064104Y-109881788D01*
X113942039Y-110175752D01*
X113941761Y-110494052D01*
X114063313Y-110788228D01*
X114288188Y-111013496D01*
X114582152Y-111135561D01*
X114900452Y-111135839D01*
X115194628Y-111014287D01*
X115419896Y-110789412D01*
X115541961Y-110495448D01*
X115542239Y-110177148D01*
X115420687Y-109882972D01*
X115300800Y-109762875D01*
X115300800Y-101083862D01*
X120274396Y-96110265D01*
X120324765Y-96363487D01*
X120567030Y-96726063D01*
X120721416Y-96829220D01*
X119773269Y-97777369D01*
X119652136Y-97958656D01*
X119609600Y-98172500D01*
X119609600Y-113086500D01*
X119652136Y-113300344D01*
X119773269Y-113481631D01*
X120947369Y-114655731D01*
X121128656Y-114776864D01*
X121128657Y-114776864D01*
X121342500Y-114819400D01*
X144966637Y-114819400D01*
X155651200Y-125503962D01*
X155651200Y-125515231D01*
X155419737Y-125669890D01*
X155177472Y-126032466D01*
X155092400Y-126460153D01*
X155092400Y-127539847D01*
X155177472Y-127967534D01*
X155311886Y-128168700D01*
X154568113Y-128168700D01*
X154702528Y-127967534D01*
X154787600Y-127539847D01*
X154787600Y-126460153D01*
X154702528Y-126032466D01*
X154460263Y-125669890D01*
X154228800Y-125515231D01*
X154228800Y-125272500D01*
X154186264Y-125058657D01*
X154186264Y-125058656D01*
X154125697Y-124968012D01*
X154065131Y-124877369D01*
X154065131Y-124877368D01*
X151998631Y-122810869D01*
X151817344Y-122689736D01*
X151603500Y-122647200D01*
X148379769Y-122647200D01*
X148379769Y-119532400D01*
X148207691Y-118667306D01*
X147717655Y-117933914D01*
X146984263Y-117443878D01*
X146119169Y-117271800D01*
X143440831Y-117271800D01*
X142575737Y-117443878D01*
X141842345Y-117933914D01*
X141352309Y-118667306D01*
X141180231Y-119532400D01*
X141352309Y-120397494D01*
X141842345Y-121130886D01*
X142575737Y-121620922D01*
X143440831Y-121793000D01*
X146119169Y-121793000D01*
X146984263Y-121620922D01*
X147717655Y-121130886D01*
X148207691Y-120397494D01*
X148379769Y-119532400D01*
X148379769Y-122647200D01*
X134625962Y-122647200D01*
X127165731Y-115186969D01*
X126984444Y-115065836D01*
X126770600Y-115023300D01*
X117099362Y-115023300D01*
X109158531Y-107082469D01*
X108977244Y-106961336D01*
X108763400Y-106918800D01*
X103342400Y-106918800D01*
X103128557Y-106961335D01*
X102947269Y-107082469D01*
X102442305Y-107587433D01*
X100672900Y-107587433D01*
X100537311Y-107613741D01*
X100418141Y-107692023D01*
X100338369Y-107810201D01*
X100310333Y-107950000D01*
X100310333Y-110490000D01*
X100336641Y-110625589D01*
X100414923Y-110744759D01*
X100533101Y-110824531D01*
X100672900Y-110852567D01*
X102527100Y-110852567D01*
X102662689Y-110826259D01*
X102781859Y-110747977D01*
X102861631Y-110629799D01*
X102889667Y-110490000D01*
X102889667Y-109757466D01*
X102954940Y-110085615D01*
X103232994Y-110501753D01*
X103649132Y-110779807D01*
X104097133Y-110868920D01*
X103673027Y-111293027D01*
X103529870Y-111507276D01*
X103479600Y-111760000D01*
X103479600Y-120473470D01*
X103232994Y-120638247D01*
X102954940Y-121054385D01*
X102889667Y-121382533D01*
X102889667Y-120650000D01*
X102863359Y-120514411D01*
X102785077Y-120395241D01*
X102666899Y-120315469D01*
X102527100Y-120287433D01*
X100672900Y-120287433D01*
X100537311Y-120313741D01*
X100418141Y-120392023D01*
X100338369Y-120510201D01*
X100310333Y-120650000D01*
X100310333Y-123190000D01*
X100336641Y-123325589D01*
X100414923Y-123444759D01*
X100533101Y-123524531D01*
X100672900Y-123552567D01*
X102527100Y-123552567D01*
X102662689Y-123526259D01*
X102781859Y-123447977D01*
X102861631Y-123329799D01*
X102889667Y-123190000D01*
X102889667Y-122457466D01*
X102954940Y-122785615D01*
X103232994Y-123201753D01*
X103649132Y-123479807D01*
X104140000Y-123577447D01*
X104630868Y-123479807D01*
X105047006Y-123201753D01*
X105325060Y-122785615D01*
X105410000Y-122358594D01*
X105494940Y-122785615D01*
X105772994Y-123201753D01*
X106189132Y-123479807D01*
X106680000Y-123577447D01*
X107170868Y-123479807D01*
X107587006Y-123201753D01*
X107865060Y-122785615D01*
X107885670Y-122682000D01*
X110781170Y-122682000D01*
X117568685Y-129469515D01*
X117815895Y-129634696D01*
X117815896Y-129634696D01*
X118107500Y-129692700D01*
X135890000Y-129692700D01*
X189882700Y-129692700D01*
X189882700Y-129692699D01*
X190174304Y-129634696D01*
X190174305Y-129634696D01*
X190421515Y-129469515D01*
X191224015Y-128667016D01*
X191224015Y-128667015D01*
X191389196Y-128419805D01*
X191447199Y-128128200D01*
X191447200Y-128128200D01*
X191447200Y-125880900D01*
X191389196Y-125589295D01*
X191224015Y-125342085D01*
X191224015Y-125342084D01*
X189845315Y-123963385D01*
X189786521Y-123924100D01*
X195924800Y-123924100D01*
X196177524Y-123873830D01*
X196391773Y-123730673D01*
X197930673Y-122191773D01*
X198073830Y-121977524D01*
X198124099Y-121724800D01*
X198124100Y-121724800D01*
X198124100Y-118404846D01*
X198376079Y-118152866D01*
X198452625Y-118537687D01*
X198694890Y-118900263D01*
X199057466Y-119142528D01*
X199485153Y-119227600D01*
X200564847Y-119227600D01*
X200992534Y-119142528D01*
X201355110Y-118900263D01*
X201597375Y-118537687D01*
X201682447Y-118110000D01*
X201597375Y-117682313D01*
X201355110Y-117319737D01*
X200992534Y-117077472D01*
X200564847Y-116992400D01*
X199536546Y-116992400D01*
X199841346Y-116687600D01*
X200564847Y-116687600D01*
X200992534Y-116602528D01*
X201355110Y-116360263D01*
X201597375Y-115997687D01*
X201682447Y-115570000D01*
X201597375Y-115142313D01*
X201355110Y-114779737D01*
X200992534Y-114537472D01*
X200564847Y-114452400D01*
X199872600Y-114452400D01*
X199872600Y-114401600D01*
X199872600Y-113182400D01*
X199872600Y-112877600D01*
X199872600Y-111658400D01*
X199364600Y-111658400D01*
X199313800Y-111674505D01*
X199313800Y-105862530D01*
X199313800Y-103022400D01*
X199313800Y-102717600D01*
X199313800Y-99877470D01*
X199183607Y-99846921D01*
X199183607Y-93726000D01*
X199183607Y-91059000D01*
X199157299Y-90923411D01*
X199079017Y-90804241D01*
X198960839Y-90724469D01*
X198821040Y-90696433D01*
X197231000Y-90696433D01*
X197095411Y-90722741D01*
X196976241Y-90801023D01*
X196896469Y-90919201D01*
X196868433Y-91059000D01*
X196868433Y-93726000D01*
X196894741Y-93861589D01*
X196973023Y-93980759D01*
X197091201Y-94060531D01*
X197231000Y-94088567D01*
X198821040Y-94088567D01*
X198956629Y-94062259D01*
X199075799Y-93983977D01*
X199155571Y-93865799D01*
X199183607Y-93726000D01*
X199183607Y-99846921D01*
X198903127Y-99781109D01*
X198596103Y-99863159D01*
X197706070Y-100386344D01*
X197084001Y-101210304D01*
X196824600Y-102209600D01*
X196824600Y-102717600D01*
X199313800Y-102717600D01*
X199313800Y-103022400D01*
X196824600Y-103022400D01*
X196824600Y-103530400D01*
X197084001Y-104529696D01*
X197706070Y-105353656D01*
X198596103Y-105876841D01*
X198903127Y-105958891D01*
X199313800Y-105862530D01*
X199313800Y-111674505D01*
X198851312Y-111821128D01*
X198439369Y-112167896D01*
X198194516Y-112666239D01*
X198307363Y-112877600D01*
X199872600Y-112877600D01*
X199872600Y-113182400D01*
X198307363Y-113182400D01*
X198194516Y-113393761D01*
X198439369Y-113892104D01*
X198851312Y-114238872D01*
X199364600Y-114401600D01*
X199872600Y-114401600D01*
X199872600Y-114452400D01*
X199485153Y-114452400D01*
X199057466Y-114537472D01*
X198694890Y-114779737D01*
X198452625Y-115142313D01*
X198367553Y-115570000D01*
X198452625Y-115997687D01*
X198537036Y-116124017D01*
X196996727Y-117664327D01*
X196853570Y-117878576D01*
X196803300Y-118131300D01*
X196803300Y-121451254D01*
X196475447Y-121779106D01*
X196475447Y-119380000D01*
X196475447Y-116840000D01*
X196475447Y-114300000D01*
X196475447Y-111760000D01*
X196475447Y-109220000D01*
X196475447Y-106680000D01*
X196475447Y-104140000D01*
X196475447Y-101600000D01*
X196475447Y-99060000D01*
X196475447Y-96520000D01*
X196475447Y-93980000D01*
X196390375Y-93552313D01*
X196148110Y-93189737D01*
X195785534Y-92947472D01*
X195357847Y-92862400D01*
X194278153Y-92862400D01*
X193850466Y-92947472D01*
X193487890Y-93189737D01*
X193245625Y-93552313D01*
X193160553Y-93980000D01*
X193245625Y-94407687D01*
X193487890Y-94770263D01*
X193850466Y-95012528D01*
X194278153Y-95097600D01*
X195357847Y-95097600D01*
X195785534Y-95012528D01*
X196148110Y-94770263D01*
X196390375Y-94407687D01*
X196475447Y-93980000D01*
X196475447Y-96520000D01*
X196390375Y-96092313D01*
X196148110Y-95729737D01*
X195785534Y-95487472D01*
X195357847Y-95402400D01*
X194278153Y-95402400D01*
X193850466Y-95487472D01*
X193487890Y-95729737D01*
X193245625Y-96092313D01*
X193160553Y-96520000D01*
X193245625Y-96947687D01*
X193487890Y-97310263D01*
X193850466Y-97552528D01*
X194278153Y-97637600D01*
X195357847Y-97637600D01*
X195785534Y-97552528D01*
X196148110Y-97310263D01*
X196390375Y-96947687D01*
X196475447Y-96520000D01*
X196475447Y-99060000D01*
X196390375Y-98632313D01*
X196148110Y-98269737D01*
X195785534Y-98027472D01*
X195357847Y-97942400D01*
X194278153Y-97942400D01*
X193850466Y-98027472D01*
X193487890Y-98269737D01*
X193245625Y-98632313D01*
X193160553Y-99060000D01*
X193245625Y-99487687D01*
X193487890Y-99850263D01*
X193850466Y-100092528D01*
X194278153Y-100177600D01*
X195357847Y-100177600D01*
X195785534Y-100092528D01*
X196148110Y-99850263D01*
X196390375Y-99487687D01*
X196475447Y-99060000D01*
X196475447Y-101600000D01*
X196390375Y-101172313D01*
X196148110Y-100809737D01*
X195785534Y-100567472D01*
X195357847Y-100482400D01*
X194278153Y-100482400D01*
X193850466Y-100567472D01*
X193487890Y-100809737D01*
X193245625Y-101172313D01*
X193160553Y-101600000D01*
X193245625Y-102027687D01*
X193487890Y-102390263D01*
X193850466Y-102632528D01*
X194278153Y-102717600D01*
X195357847Y-102717600D01*
X195785534Y-102632528D01*
X196148110Y-102390263D01*
X196390375Y-102027687D01*
X196475447Y-101600000D01*
X196475447Y-104140000D01*
X196390375Y-103712313D01*
X196148110Y-103349737D01*
X195785534Y-103107472D01*
X195357847Y-103022400D01*
X194278153Y-103022400D01*
X193850466Y-103107472D01*
X193487890Y-103349737D01*
X193245625Y-103712313D01*
X193160553Y-104140000D01*
X193245625Y-104567687D01*
X193487890Y-104930263D01*
X193850466Y-105172528D01*
X194278153Y-105257600D01*
X195357847Y-105257600D01*
X195785534Y-105172528D01*
X196148110Y-104930263D01*
X196390375Y-104567687D01*
X196475447Y-104140000D01*
X196475447Y-106680000D01*
X196390375Y-106252313D01*
X196148110Y-105889737D01*
X195785534Y-105647472D01*
X195357847Y-105562400D01*
X194278153Y-105562400D01*
X193850466Y-105647472D01*
X193487890Y-105889737D01*
X193245625Y-106252313D01*
X193160553Y-106680000D01*
X193245625Y-107107687D01*
X193487890Y-107470263D01*
X193850466Y-107712528D01*
X194278153Y-107797600D01*
X195357847Y-107797600D01*
X195785534Y-107712528D01*
X196148110Y-107470263D01*
X196390375Y-107107687D01*
X196475447Y-106680000D01*
X196475447Y-109220000D01*
X196390375Y-108792313D01*
X196148110Y-108429737D01*
X195785534Y-108187472D01*
X195357847Y-108102400D01*
X194278153Y-108102400D01*
X193850466Y-108187472D01*
X193487890Y-108429737D01*
X193245625Y-108792313D01*
X193160553Y-109220000D01*
X193245625Y-109647687D01*
X193487890Y-110010263D01*
X193850466Y-110252528D01*
X194278153Y-110337600D01*
X195357847Y-110337600D01*
X195785534Y-110252528D01*
X196148110Y-110010263D01*
X196390375Y-109647687D01*
X196475447Y-109220000D01*
X196475447Y-111760000D01*
X196390375Y-111332313D01*
X196148110Y-110969737D01*
X195785534Y-110727472D01*
X195357847Y-110642400D01*
X194278153Y-110642400D01*
X193850466Y-110727472D01*
X193487890Y-110969737D01*
X193245625Y-111332313D01*
X193160553Y-111760000D01*
X193245625Y-112187687D01*
X193487890Y-112550263D01*
X193850466Y-112792528D01*
X194278153Y-112877600D01*
X195357847Y-112877600D01*
X195785534Y-112792528D01*
X196148110Y-112550263D01*
X196390375Y-112187687D01*
X196475447Y-111760000D01*
X196475447Y-114300000D01*
X196390375Y-113872313D01*
X196148110Y-113509737D01*
X195785534Y-113267472D01*
X195357847Y-113182400D01*
X194278153Y-113182400D01*
X193850466Y-113267472D01*
X193487890Y-113509737D01*
X193245625Y-113872313D01*
X193160553Y-114300000D01*
X193245625Y-114727687D01*
X193487890Y-115090263D01*
X193850466Y-115332528D01*
X194278153Y-115417600D01*
X195357847Y-115417600D01*
X195785534Y-115332528D01*
X196148110Y-115090263D01*
X196390375Y-114727687D01*
X196475447Y-114300000D01*
X196475447Y-116840000D01*
X196390375Y-116412313D01*
X196148110Y-116049737D01*
X195785534Y-115807472D01*
X195357847Y-115722400D01*
X194278153Y-115722400D01*
X193850466Y-115807472D01*
X193487890Y-116049737D01*
X193245625Y-116412313D01*
X193160553Y-116840000D01*
X193245625Y-117267687D01*
X193487890Y-117630263D01*
X193850466Y-117872528D01*
X194278153Y-117957600D01*
X195357847Y-117957600D01*
X195785534Y-117872528D01*
X196148110Y-117630263D01*
X196390375Y-117267687D01*
X196475447Y-116840000D01*
X196475447Y-119380000D01*
X196390375Y-118952313D01*
X196148110Y-118589737D01*
X195785534Y-118347472D01*
X195357847Y-118262400D01*
X194278153Y-118262400D01*
X193850466Y-118347472D01*
X193487890Y-118589737D01*
X193245625Y-118952313D01*
X193160553Y-119380000D01*
X193245625Y-119807687D01*
X193487890Y-120170263D01*
X193850466Y-120412528D01*
X194278153Y-120497600D01*
X195357847Y-120497600D01*
X195785534Y-120412528D01*
X196148110Y-120170263D01*
X196390375Y-119807687D01*
X196475447Y-119380000D01*
X196475447Y-121779106D01*
X196452071Y-121802482D01*
X196390375Y-121492313D01*
X196148110Y-121129737D01*
X195785534Y-120887472D01*
X195357847Y-120802400D01*
X194278153Y-120802400D01*
X193850466Y-120887472D01*
X193487890Y-121129737D01*
X193245625Y-121492313D01*
X193160553Y-121920000D01*
X193245625Y-122347687D01*
X193416419Y-122603300D01*
X192663580Y-122603300D01*
X192834375Y-122347687D01*
X192919447Y-121920000D01*
X192919447Y-119380000D01*
X192919447Y-116840000D01*
X192919447Y-114300000D01*
X192919447Y-111760000D01*
X192834375Y-111332313D01*
X192592110Y-110969737D01*
X192229534Y-110727472D01*
X191801847Y-110642400D01*
X190722153Y-110642400D01*
X190294466Y-110727472D01*
X189931890Y-110969737D01*
X189689625Y-111332313D01*
X189604553Y-111760000D01*
X189689625Y-112187687D01*
X189931890Y-112550263D01*
X190294466Y-112792528D01*
X190722153Y-112877600D01*
X191801847Y-112877600D01*
X192229534Y-112792528D01*
X192592110Y-112550263D01*
X192834375Y-112187687D01*
X192919447Y-111760000D01*
X192919447Y-114300000D01*
X192834375Y-113872313D01*
X192592110Y-113509737D01*
X192229534Y-113267472D01*
X191801847Y-113182400D01*
X190722153Y-113182400D01*
X190294466Y-113267472D01*
X189931890Y-113509737D01*
X189689625Y-113872313D01*
X189604553Y-114300000D01*
X189689625Y-114727687D01*
X189931890Y-115090263D01*
X190294466Y-115332528D01*
X190722153Y-115417600D01*
X191801847Y-115417600D01*
X192229534Y-115332528D01*
X192592110Y-115090263D01*
X192834375Y-114727687D01*
X192919447Y-114300000D01*
X192919447Y-116840000D01*
X192834375Y-116412313D01*
X192592110Y-116049737D01*
X192229534Y-115807472D01*
X191801847Y-115722400D01*
X190722153Y-115722400D01*
X190294466Y-115807472D01*
X189931890Y-116049737D01*
X189689625Y-116412313D01*
X189604553Y-116840000D01*
X189689625Y-117267687D01*
X189931890Y-117630263D01*
X190294466Y-117872528D01*
X190722153Y-117957600D01*
X191801847Y-117957600D01*
X192229534Y-117872528D01*
X192592110Y-117630263D01*
X192834375Y-117267687D01*
X192919447Y-116840000D01*
X192919447Y-119380000D01*
X192834375Y-118952313D01*
X192592110Y-118589737D01*
X192229534Y-118347472D01*
X191801847Y-118262400D01*
X190722153Y-118262400D01*
X190294466Y-118347472D01*
X189931890Y-118589737D01*
X189689625Y-118952313D01*
X189604553Y-119380000D01*
X189689625Y-119807687D01*
X189931890Y-120170263D01*
X190294466Y-120412528D01*
X190722153Y-120497600D01*
X191801847Y-120497600D01*
X192229534Y-120412528D01*
X192592110Y-120170263D01*
X192834375Y-119807687D01*
X192919447Y-119380000D01*
X192919447Y-121920000D01*
X192834375Y-121492313D01*
X192592110Y-121129737D01*
X192229534Y-120887472D01*
X191801847Y-120802400D01*
X190722153Y-120802400D01*
X190294466Y-120887472D01*
X189931890Y-121129737D01*
X189689625Y-121492313D01*
X189604553Y-121920000D01*
X189689625Y-122347687D01*
X189860419Y-122603300D01*
X188816746Y-122603300D01*
X186756900Y-120543453D01*
X186756900Y-120535600D01*
X186706630Y-120282876D01*
X186563474Y-120068627D01*
X186245773Y-119750927D01*
X186031524Y-119607770D01*
X185778800Y-119557500D01*
X184448236Y-119557500D01*
X184519059Y-119510977D01*
X184598831Y-119392799D01*
X184626867Y-119253000D01*
X184626867Y-116255800D01*
X184600559Y-116120211D01*
X184522277Y-116001041D01*
X184404099Y-115921269D01*
X184264300Y-115893233D01*
X184073800Y-115893233D01*
X184073800Y-115798300D01*
X184073800Y-115776962D01*
X189668331Y-110182431D01*
X189668332Y-110182431D01*
X189789464Y-110001144D01*
X189789465Y-110001143D01*
X189820739Y-109843913D01*
X189931890Y-110010263D01*
X190294466Y-110252528D01*
X190722153Y-110337600D01*
X191801847Y-110337600D01*
X192229534Y-110252528D01*
X192592110Y-110010263D01*
X192834375Y-109647687D01*
X192919447Y-109220000D01*
X192834375Y-108792313D01*
X192592110Y-108429737D01*
X192229534Y-108187472D01*
X191801847Y-108102400D01*
X190722153Y-108102400D01*
X190294466Y-108187472D01*
X189931890Y-108429737D01*
X189832000Y-108579233D01*
X189832000Y-107320766D01*
X189931890Y-107470263D01*
X190294466Y-107712528D01*
X190722153Y-107797600D01*
X191801847Y-107797600D01*
X192229534Y-107712528D01*
X192592110Y-107470263D01*
X192834375Y-107107687D01*
X192919447Y-106680000D01*
X192834375Y-106252313D01*
X192592110Y-105889737D01*
X192229534Y-105647472D01*
X191801847Y-105562400D01*
X190722153Y-105562400D01*
X190294466Y-105647472D01*
X189931890Y-105889737D01*
X189832000Y-106039233D01*
X189832000Y-104780766D01*
X189931890Y-104930263D01*
X190294466Y-105172528D01*
X190722153Y-105257600D01*
X191801847Y-105257600D01*
X192229534Y-105172528D01*
X192592110Y-104930263D01*
X192834375Y-104567687D01*
X192919447Y-104140000D01*
X192834375Y-103712313D01*
X192592110Y-103349737D01*
X192229534Y-103107472D01*
X191801847Y-103022400D01*
X190722153Y-103022400D01*
X190294466Y-103107472D01*
X189931890Y-103349737D01*
X189832000Y-103499233D01*
X189832000Y-102240766D01*
X189931890Y-102390263D01*
X190294466Y-102632528D01*
X190722153Y-102717600D01*
X191801847Y-102717600D01*
X192229534Y-102632528D01*
X192592110Y-102390263D01*
X192834375Y-102027687D01*
X192919447Y-101600000D01*
X192834375Y-101172313D01*
X192592110Y-100809737D01*
X192229534Y-100567472D01*
X191801847Y-100482400D01*
X190722153Y-100482400D01*
X190294466Y-100567472D01*
X189931890Y-100809737D01*
X189832000Y-100959233D01*
X189832000Y-99700766D01*
X189931890Y-99850263D01*
X190294466Y-100092528D01*
X190722153Y-100177600D01*
X191801847Y-100177600D01*
X192229534Y-100092528D01*
X192592110Y-99850263D01*
X192834375Y-99487687D01*
X192919447Y-99060000D01*
X192834375Y-98632313D01*
X192592110Y-98269737D01*
X192229534Y-98027472D01*
X191801847Y-97942400D01*
X190722153Y-97942400D01*
X190294466Y-98027472D01*
X189931890Y-98269737D01*
X189832000Y-98419233D01*
X189832000Y-97160766D01*
X189931890Y-97310263D01*
X190294466Y-97552528D01*
X190722153Y-97637600D01*
X191801847Y-97637600D01*
X192229534Y-97552528D01*
X192592110Y-97310263D01*
X192834375Y-96947687D01*
X192919447Y-96520000D01*
X192834375Y-96092313D01*
X192592110Y-95729737D01*
X192229534Y-95487472D01*
X191801847Y-95402400D01*
X190722153Y-95402400D01*
X190294466Y-95487472D01*
X189931890Y-95729737D01*
X189832000Y-95879233D01*
X189832000Y-94620766D01*
X189931890Y-94770263D01*
X190294466Y-95012528D01*
X190722153Y-95097600D01*
X191801847Y-95097600D01*
X192229534Y-95012528D01*
X192592110Y-94770263D01*
X192834375Y-94407687D01*
X192919447Y-93980000D01*
X192834375Y-93552313D01*
X192592110Y-93189737D01*
X192229534Y-92947472D01*
X191801847Y-92862400D01*
X190722153Y-92862400D01*
X190294466Y-92947472D01*
X189931890Y-93189737D01*
X189832000Y-93339233D01*
X189832000Y-92080766D01*
X189931890Y-92230263D01*
X190294466Y-92472528D01*
X190722153Y-92557600D01*
X191801847Y-92557600D01*
X192229534Y-92472528D01*
X192592110Y-92230263D01*
X192834375Y-91867687D01*
X192919447Y-91440000D01*
X192834375Y-91012313D01*
X192644938Y-90728800D01*
X193435061Y-90728800D01*
X193245625Y-91012313D01*
X193160553Y-91440000D01*
X193245625Y-91867687D01*
X193487890Y-92230263D01*
X193850466Y-92472528D01*
X194278153Y-92557600D01*
X195357847Y-92557600D01*
X195785534Y-92472528D01*
X196148110Y-92230263D01*
X196390375Y-91867687D01*
X196475447Y-91440000D01*
X196390375Y-91012313D01*
X196148110Y-90649737D01*
X196100659Y-90618031D01*
X196179831Y-90565131D01*
X199722731Y-87022231D01*
X199843864Y-86840944D01*
X199843864Y-86840943D01*
X199886399Y-86627100D01*
X199886400Y-86627100D01*
X199886400Y-80953200D01*
X199843865Y-80739357D01*
X199843864Y-80739356D01*
X199722732Y-80558069D01*
X195148762Y-75984100D01*
X211035900Y-75984100D01*
X211035900Y-129755900D01*
M02*
