G04 #@! TF.FileFunction,Legend,Bot*
%FSLAX46Y46*%
G04 Gerber Fmt 4.6, Leading zero omitted, Abs format (unit mm)*
G04 Created by KiCad (PCBNEW 0.201412071631+5313~19~ubuntu14.04.1-product) date Mon 08 Dec 2014 02:11:31 PM EST*
%MOMM*%
G01*
G04 APERTURE LIST*
%ADD10C,0.100000*%
%ADD11C,0.228600*%
%ADD12C,0.127000*%
%ADD13C,0.381000*%
%ADD14C,0.254000*%
%ADD15O,1.854200X2.540000*%
%ADD16R,1.854200X2.540000*%
%ADD17O,2.032000X1.524000*%
%ADD18C,3.937000*%
%ADD19O,1.524000X2.540000*%
%ADD20O,2.540000X1.524000*%
%ADD21R,2.540000X1.270000*%
%ADD22R,1.270000X2.540000*%
%ADD23R,0.762000X1.534160*%
%ADD24C,1.930400*%
%ADD25O,4.572000X3.556000*%
%ADD26O,4.064000X5.080000*%
%ADD27O,5.080000X3.556000*%
%ADD28O,3.810000X6.350000*%
%ADD29R,1.524000X2.540000*%
G04 APERTURE END LIST*
D10*
D11*
X93980000Y-76200000D02*
X93980000Y-129540000D01*
X210820000Y-76200000D02*
X93980000Y-76200000D01*
X210820000Y-129540000D02*
X210820000Y-76200000D01*
X93980000Y-129540000D02*
X210820000Y-129540000D01*
D12*
X144272000Y-109982000D02*
X144272000Y-111506000D01*
X144272000Y-111506000D02*
X141478000Y-111506000D01*
X141478000Y-111506000D02*
X141478000Y-109982000D01*
X141478000Y-108458000D02*
X141478000Y-106934000D01*
X141478000Y-106934000D02*
X144272000Y-106934000D01*
X144272000Y-106934000D02*
X144272000Y-108458000D01*
X144272000Y-84582000D02*
X144272000Y-86106000D01*
X144272000Y-86106000D02*
X141478000Y-86106000D01*
X141478000Y-86106000D02*
X141478000Y-84582000D01*
X141478000Y-83058000D02*
X141478000Y-81534000D01*
X141478000Y-81534000D02*
X144272000Y-81534000D01*
X144272000Y-81534000D02*
X144272000Y-83058000D01*
X184277000Y-121158000D02*
X185801000Y-121158000D01*
X185801000Y-121158000D02*
X185801000Y-123952000D01*
X185801000Y-123952000D02*
X184277000Y-123952000D01*
X182753000Y-123952000D02*
X181229000Y-123952000D01*
X181229000Y-123952000D02*
X181229000Y-121158000D01*
X181229000Y-121158000D02*
X182753000Y-121158000D01*
X186182000Y-117602000D02*
X186182000Y-119126000D01*
X186182000Y-119126000D02*
X183388000Y-119126000D01*
X183388000Y-119126000D02*
X183388000Y-117602000D01*
X183388000Y-116078000D02*
X183388000Y-114554000D01*
X183388000Y-114554000D02*
X186182000Y-114554000D01*
X186182000Y-114554000D02*
X186182000Y-116078000D01*
X150622000Y-109982000D02*
X150622000Y-111506000D01*
X150622000Y-111506000D02*
X147828000Y-111506000D01*
X147828000Y-111506000D02*
X147828000Y-109982000D01*
X147828000Y-108458000D02*
X147828000Y-106934000D01*
X147828000Y-106934000D02*
X150622000Y-106934000D01*
X150622000Y-106934000D02*
X150622000Y-108458000D01*
X150622000Y-84582000D02*
X150622000Y-86106000D01*
X150622000Y-86106000D02*
X147828000Y-86106000D01*
X147828000Y-86106000D02*
X147828000Y-84582000D01*
X147828000Y-83058000D02*
X147828000Y-81534000D01*
X147828000Y-81534000D02*
X150622000Y-81534000D01*
X150622000Y-81534000D02*
X150622000Y-83058000D01*
X176022000Y-117602000D02*
X176022000Y-119126000D01*
X176022000Y-119126000D02*
X173228000Y-119126000D01*
X173228000Y-119126000D02*
X173228000Y-117602000D01*
X173228000Y-116078000D02*
X173228000Y-114554000D01*
X173228000Y-114554000D02*
X176022000Y-114554000D01*
X176022000Y-114554000D02*
X176022000Y-116078000D01*
X102108000Y-127762000D02*
X100584000Y-127762000D01*
X100584000Y-127762000D02*
X100584000Y-124968000D01*
X100584000Y-124968000D02*
X102108000Y-124968000D01*
X103632000Y-124968000D02*
X105156000Y-124968000D01*
X105156000Y-124968000D02*
X105156000Y-127762000D01*
X105156000Y-127762000D02*
X103632000Y-127762000D01*
X205867000Y-116332000D02*
X205867000Y-117856000D01*
X205867000Y-117856000D02*
X203073000Y-117856000D01*
X203073000Y-117856000D02*
X203073000Y-116332000D01*
X203073000Y-114808000D02*
X203073000Y-113284000D01*
X203073000Y-113284000D02*
X205867000Y-113284000D01*
X205867000Y-113284000D02*
X205867000Y-114808000D01*
X199263000Y-109347000D02*
X197739000Y-109347000D01*
X197739000Y-109347000D02*
X197739000Y-106553000D01*
X197739000Y-106553000D02*
X199263000Y-106553000D01*
X200787000Y-106553000D02*
X202311000Y-106553000D01*
X202311000Y-106553000D02*
X202311000Y-109347000D01*
X202311000Y-109347000D02*
X200787000Y-109347000D01*
D13*
X178181000Y-116840000D02*
X181229000Y-116840000D01*
X177927000Y-115570000D02*
G75*
G03X177927000Y-115570000I-254000J0D01*
G01*
D14*
X145620619Y-109050667D02*
X145136810Y-108712001D01*
X145620619Y-108470096D02*
X144604619Y-108470096D01*
X144604619Y-108857143D01*
X144653000Y-108953905D01*
X144701381Y-109002286D01*
X144798143Y-109050667D01*
X144943286Y-109050667D01*
X145040048Y-109002286D01*
X145088429Y-108953905D01*
X145136810Y-108857143D01*
X145136810Y-108470096D01*
X144604619Y-109969905D02*
X144604619Y-109486096D01*
X145088429Y-109437715D01*
X145040048Y-109486096D01*
X144991667Y-109582858D01*
X144991667Y-109824762D01*
X145040048Y-109921524D01*
X145088429Y-109969905D01*
X145185190Y-110018286D01*
X145427095Y-110018286D01*
X145523857Y-109969905D01*
X145572238Y-109921524D01*
X145620619Y-109824762D01*
X145620619Y-109582858D01*
X145572238Y-109486096D01*
X145523857Y-109437715D01*
X140032619Y-108324952D02*
X140032619Y-107841143D01*
X140516429Y-107792762D01*
X140468048Y-107841143D01*
X140419667Y-107937905D01*
X140419667Y-108179809D01*
X140468048Y-108276571D01*
X140516429Y-108324952D01*
X140613190Y-108373333D01*
X140855095Y-108373333D01*
X140951857Y-108324952D01*
X141000238Y-108276571D01*
X141048619Y-108179809D01*
X141048619Y-107937905D01*
X141000238Y-107841143D01*
X140951857Y-107792762D01*
X140951857Y-108808762D02*
X141000238Y-108857143D01*
X141048619Y-108808762D01*
X141000238Y-108760381D01*
X140951857Y-108808762D01*
X141048619Y-108808762D01*
X141048619Y-109824762D02*
X141048619Y-109244191D01*
X141048619Y-109534477D02*
X140032619Y-109534477D01*
X140177762Y-109437715D01*
X140274524Y-109340953D01*
X140322905Y-109244191D01*
X141048619Y-110260191D02*
X140032619Y-110260191D01*
X140661571Y-110356953D02*
X141048619Y-110647238D01*
X140371286Y-110647238D02*
X140758333Y-110260191D01*
X145620619Y-83650667D02*
X145136810Y-83312001D01*
X145620619Y-83070096D02*
X144604619Y-83070096D01*
X144604619Y-83457143D01*
X144653000Y-83553905D01*
X144701381Y-83602286D01*
X144798143Y-83650667D01*
X144943286Y-83650667D01*
X145040048Y-83602286D01*
X145088429Y-83553905D01*
X145136810Y-83457143D01*
X145136810Y-83070096D01*
X144943286Y-84521524D02*
X145620619Y-84521524D01*
X144556238Y-84279620D02*
X145281952Y-84037715D01*
X145281952Y-84666667D01*
X140032619Y-82924952D02*
X140032619Y-82441143D01*
X140516429Y-82392762D01*
X140468048Y-82441143D01*
X140419667Y-82537905D01*
X140419667Y-82779809D01*
X140468048Y-82876571D01*
X140516429Y-82924952D01*
X140613190Y-82973333D01*
X140855095Y-82973333D01*
X140951857Y-82924952D01*
X141000238Y-82876571D01*
X141048619Y-82779809D01*
X141048619Y-82537905D01*
X141000238Y-82441143D01*
X140951857Y-82392762D01*
X140951857Y-83408762D02*
X141000238Y-83457143D01*
X141048619Y-83408762D01*
X141000238Y-83360381D01*
X140951857Y-83408762D01*
X141048619Y-83408762D01*
X141048619Y-84424762D02*
X141048619Y-83844191D01*
X141048619Y-84134477D02*
X140032619Y-84134477D01*
X140177762Y-84037715D01*
X140274524Y-83940953D01*
X140322905Y-83844191D01*
X141048619Y-84860191D02*
X140032619Y-84860191D01*
X140661571Y-84956953D02*
X141048619Y-85247238D01*
X140371286Y-85247238D02*
X140758333Y-84860191D01*
X183684333Y-120728619D02*
X184022999Y-120244810D01*
X184264904Y-120728619D02*
X184264904Y-119712619D01*
X183877857Y-119712619D01*
X183781095Y-119761000D01*
X183732714Y-119809381D01*
X183684333Y-119906143D01*
X183684333Y-120051286D01*
X183732714Y-120148048D01*
X183781095Y-120196429D01*
X183877857Y-120244810D01*
X184264904Y-120244810D01*
X183297285Y-119809381D02*
X183248904Y-119761000D01*
X183152142Y-119712619D01*
X182910238Y-119712619D01*
X182813476Y-119761000D01*
X182765095Y-119809381D01*
X182716714Y-119906143D01*
X182716714Y-120002905D01*
X182765095Y-120148048D01*
X183345666Y-120728619D01*
X182716714Y-120728619D01*
X184410048Y-124284619D02*
X184893857Y-124284619D01*
X184942238Y-124768429D01*
X184893857Y-124720048D01*
X184797095Y-124671667D01*
X184555191Y-124671667D01*
X184458429Y-124720048D01*
X184410048Y-124768429D01*
X184361667Y-124865190D01*
X184361667Y-125107095D01*
X184410048Y-125203857D01*
X184458429Y-125252238D01*
X184555191Y-125300619D01*
X184797095Y-125300619D01*
X184893857Y-125252238D01*
X184942238Y-125203857D01*
X183926238Y-125203857D02*
X183877857Y-125252238D01*
X183926238Y-125300619D01*
X183974619Y-125252238D01*
X183926238Y-125203857D01*
X183926238Y-125300619D01*
X182910238Y-125300619D02*
X183490809Y-125300619D01*
X183200523Y-125300619D02*
X183200523Y-124284619D01*
X183297285Y-124429762D01*
X183394047Y-124526524D01*
X183490809Y-124574905D01*
X182474809Y-125300619D02*
X182474809Y-124284619D01*
X182378047Y-124913571D02*
X182087762Y-125300619D01*
X182087762Y-124623286D02*
X182474809Y-125010333D01*
X187530619Y-116670667D02*
X187046810Y-116332001D01*
X187530619Y-116090096D02*
X186514619Y-116090096D01*
X186514619Y-116477143D01*
X186563000Y-116573905D01*
X186611381Y-116622286D01*
X186708143Y-116670667D01*
X186853286Y-116670667D01*
X186950048Y-116622286D01*
X186998429Y-116573905D01*
X187046810Y-116477143D01*
X187046810Y-116090096D01*
X187530619Y-117638286D02*
X187530619Y-117057715D01*
X187530619Y-117348001D02*
X186514619Y-117348001D01*
X186659762Y-117251239D01*
X186756524Y-117154477D01*
X186804905Y-117057715D01*
X181942619Y-115944952D02*
X181942619Y-115461143D01*
X182426429Y-115412762D01*
X182378048Y-115461143D01*
X182329667Y-115557905D01*
X182329667Y-115799809D01*
X182378048Y-115896571D01*
X182426429Y-115944952D01*
X182523190Y-115993333D01*
X182765095Y-115993333D01*
X182861857Y-115944952D01*
X182910238Y-115896571D01*
X182958619Y-115799809D01*
X182958619Y-115557905D01*
X182910238Y-115461143D01*
X182861857Y-115412762D01*
X182861857Y-116428762D02*
X182910238Y-116477143D01*
X182958619Y-116428762D01*
X182910238Y-116380381D01*
X182861857Y-116428762D01*
X182958619Y-116428762D01*
X182958619Y-117444762D02*
X182958619Y-116864191D01*
X182958619Y-117154477D02*
X181942619Y-117154477D01*
X182087762Y-117057715D01*
X182184524Y-116960953D01*
X182232905Y-116864191D01*
X182958619Y-117880191D02*
X181942619Y-117880191D01*
X182571571Y-117976953D02*
X182958619Y-118267238D01*
X182281286Y-118267238D02*
X182668333Y-117880191D01*
X151873857Y-109050667D02*
X151922238Y-109002286D01*
X151970619Y-108857143D01*
X151970619Y-108760381D01*
X151922238Y-108615239D01*
X151825476Y-108518477D01*
X151728714Y-108470096D01*
X151535190Y-108421715D01*
X151390048Y-108421715D01*
X151196524Y-108470096D01*
X151099762Y-108518477D01*
X151003000Y-108615239D01*
X150954619Y-108760381D01*
X150954619Y-108857143D01*
X151003000Y-109002286D01*
X151051381Y-109050667D01*
X150954619Y-109921524D02*
X150954619Y-109728001D01*
X151003000Y-109631239D01*
X151051381Y-109582858D01*
X151196524Y-109486096D01*
X151390048Y-109437715D01*
X151777095Y-109437715D01*
X151873857Y-109486096D01*
X151922238Y-109534477D01*
X151970619Y-109631239D01*
X151970619Y-109824762D01*
X151922238Y-109921524D01*
X151873857Y-109969905D01*
X151777095Y-110018286D01*
X151535190Y-110018286D01*
X151438429Y-109969905D01*
X151390048Y-109921524D01*
X151341667Y-109824762D01*
X151341667Y-109631239D01*
X151390048Y-109534477D01*
X151438429Y-109486096D01*
X151535190Y-109437715D01*
X147398619Y-108131429D02*
X147398619Y-107550858D01*
X147398619Y-107841144D02*
X146382619Y-107841144D01*
X146527762Y-107744382D01*
X146624524Y-107647620D01*
X146672905Y-107550858D01*
X146382619Y-108760382D02*
X146382619Y-108857143D01*
X146431000Y-108953905D01*
X146479381Y-109002286D01*
X146576143Y-109050667D01*
X146769667Y-109099048D01*
X147011571Y-109099048D01*
X147205095Y-109050667D01*
X147301857Y-109002286D01*
X147350238Y-108953905D01*
X147398619Y-108857143D01*
X147398619Y-108760382D01*
X147350238Y-108663620D01*
X147301857Y-108615239D01*
X147205095Y-108566858D01*
X147011571Y-108518477D01*
X146769667Y-108518477D01*
X146576143Y-108566858D01*
X146479381Y-108615239D01*
X146431000Y-108663620D01*
X146382619Y-108760382D01*
X146721286Y-109969905D02*
X147398619Y-109969905D01*
X146721286Y-109534477D02*
X147253476Y-109534477D01*
X147350238Y-109582858D01*
X147398619Y-109679620D01*
X147398619Y-109824762D01*
X147350238Y-109921524D01*
X147301857Y-109969905D01*
X146866429Y-110792381D02*
X146866429Y-110453715D01*
X147398619Y-110453715D02*
X146382619Y-110453715D01*
X146382619Y-110937524D01*
X151873857Y-83650667D02*
X151922238Y-83602286D01*
X151970619Y-83457143D01*
X151970619Y-83360381D01*
X151922238Y-83215239D01*
X151825476Y-83118477D01*
X151728714Y-83070096D01*
X151535190Y-83021715D01*
X151390048Y-83021715D01*
X151196524Y-83070096D01*
X151099762Y-83118477D01*
X151003000Y-83215239D01*
X150954619Y-83360381D01*
X150954619Y-83457143D01*
X151003000Y-83602286D01*
X151051381Y-83650667D01*
X150954619Y-84569905D02*
X150954619Y-84086096D01*
X151438429Y-84037715D01*
X151390048Y-84086096D01*
X151341667Y-84182858D01*
X151341667Y-84424762D01*
X151390048Y-84521524D01*
X151438429Y-84569905D01*
X151535190Y-84618286D01*
X151777095Y-84618286D01*
X151873857Y-84569905D01*
X151922238Y-84521524D01*
X151970619Y-84424762D01*
X151970619Y-84182858D01*
X151922238Y-84086096D01*
X151873857Y-84037715D01*
X147398619Y-82731429D02*
X147398619Y-82150858D01*
X147398619Y-82441144D02*
X146382619Y-82441144D01*
X146527762Y-82344382D01*
X146624524Y-82247620D01*
X146672905Y-82150858D01*
X146382619Y-83360382D02*
X146382619Y-83457143D01*
X146431000Y-83553905D01*
X146479381Y-83602286D01*
X146576143Y-83650667D01*
X146769667Y-83699048D01*
X147011571Y-83699048D01*
X147205095Y-83650667D01*
X147301857Y-83602286D01*
X147350238Y-83553905D01*
X147398619Y-83457143D01*
X147398619Y-83360382D01*
X147350238Y-83263620D01*
X147301857Y-83215239D01*
X147205095Y-83166858D01*
X147011571Y-83118477D01*
X146769667Y-83118477D01*
X146576143Y-83166858D01*
X146479381Y-83215239D01*
X146431000Y-83263620D01*
X146382619Y-83360382D01*
X146721286Y-84569905D02*
X147398619Y-84569905D01*
X146721286Y-84134477D02*
X147253476Y-84134477D01*
X147350238Y-84182858D01*
X147398619Y-84279620D01*
X147398619Y-84424762D01*
X147350238Y-84521524D01*
X147301857Y-84569905D01*
X146866429Y-85392381D02*
X146866429Y-85053715D01*
X147398619Y-85053715D02*
X146382619Y-85053715D01*
X146382619Y-85537524D01*
X177273857Y-116670667D02*
X177322238Y-116622286D01*
X177370619Y-116477143D01*
X177370619Y-116380381D01*
X177322238Y-116235239D01*
X177225476Y-116138477D01*
X177128714Y-116090096D01*
X176935190Y-116041715D01*
X176790048Y-116041715D01*
X176596524Y-116090096D01*
X176499762Y-116138477D01*
X176403000Y-116235239D01*
X176354619Y-116380381D01*
X176354619Y-116477143D01*
X176403000Y-116622286D01*
X176451381Y-116670667D01*
X176693286Y-117541524D02*
X177370619Y-117541524D01*
X176306238Y-117299620D02*
X177031952Y-117057715D01*
X177031952Y-117686667D01*
X171782619Y-115170858D02*
X171782619Y-115267619D01*
X171831000Y-115364381D01*
X171879381Y-115412762D01*
X171976143Y-115461143D01*
X172169667Y-115509524D01*
X172411571Y-115509524D01*
X172605095Y-115461143D01*
X172701857Y-115412762D01*
X172750238Y-115364381D01*
X172798619Y-115267619D01*
X172798619Y-115170858D01*
X172750238Y-115074096D01*
X172701857Y-115025715D01*
X172605095Y-114977334D01*
X172411571Y-114928953D01*
X172169667Y-114928953D01*
X171976143Y-114977334D01*
X171879381Y-115025715D01*
X171831000Y-115074096D01*
X171782619Y-115170858D01*
X172701857Y-115944953D02*
X172750238Y-115993334D01*
X172798619Y-115944953D01*
X172750238Y-115896572D01*
X172701857Y-115944953D01*
X172798619Y-115944953D01*
X172798619Y-116960953D02*
X172798619Y-116380382D01*
X172798619Y-116670668D02*
X171782619Y-116670668D01*
X171927762Y-116573906D01*
X172024524Y-116477144D01*
X172072905Y-116380382D01*
X172121286Y-117831810D02*
X172798619Y-117831810D01*
X172121286Y-117396382D02*
X172653476Y-117396382D01*
X172750238Y-117444763D01*
X172798619Y-117541525D01*
X172798619Y-117686667D01*
X172750238Y-117783429D01*
X172701857Y-117831810D01*
X172266429Y-118654286D02*
X172266429Y-118315620D01*
X172798619Y-118315620D02*
X171782619Y-118315620D01*
X171782619Y-118799429D01*
X103039333Y-129013857D02*
X103087714Y-129062238D01*
X103232857Y-129110619D01*
X103329619Y-129110619D01*
X103474761Y-129062238D01*
X103571523Y-128965476D01*
X103619904Y-128868714D01*
X103668285Y-128675190D01*
X103668285Y-128530048D01*
X103619904Y-128336524D01*
X103571523Y-128239762D01*
X103474761Y-128143000D01*
X103329619Y-128094619D01*
X103232857Y-128094619D01*
X103087714Y-128143000D01*
X103039333Y-128191381D01*
X102700666Y-128094619D02*
X102071714Y-128094619D01*
X102410380Y-128481667D01*
X102265238Y-128481667D01*
X102168476Y-128530048D01*
X102120095Y-128578429D01*
X102071714Y-128675190D01*
X102071714Y-128917095D01*
X102120095Y-129013857D01*
X102168476Y-129062238D01*
X102265238Y-129110619D01*
X102555523Y-129110619D01*
X102652285Y-129062238D01*
X102700666Y-129013857D01*
X103958571Y-124538619D02*
X104539142Y-124538619D01*
X104248856Y-124538619D02*
X104248856Y-123522619D01*
X104345618Y-123667762D01*
X104442380Y-123764524D01*
X104539142Y-123812905D01*
X103329618Y-123522619D02*
X103232857Y-123522619D01*
X103136095Y-123571000D01*
X103087714Y-123619381D01*
X103039333Y-123716143D01*
X102990952Y-123909667D01*
X102990952Y-124151571D01*
X103039333Y-124345095D01*
X103087714Y-124441857D01*
X103136095Y-124490238D01*
X103232857Y-124538619D01*
X103329618Y-124538619D01*
X103426380Y-124490238D01*
X103474761Y-124441857D01*
X103523142Y-124345095D01*
X103571523Y-124151571D01*
X103571523Y-123909667D01*
X103523142Y-123716143D01*
X103474761Y-123619381D01*
X103426380Y-123571000D01*
X103329618Y-123522619D01*
X102120095Y-123861286D02*
X102120095Y-124538619D01*
X102555523Y-123861286D02*
X102555523Y-124393476D01*
X102507142Y-124490238D01*
X102410380Y-124538619D01*
X102265238Y-124538619D01*
X102168476Y-124490238D01*
X102120095Y-124441857D01*
X101297619Y-124006429D02*
X101636285Y-124006429D01*
X101636285Y-124538619D02*
X101636285Y-123522619D01*
X101152476Y-123522619D01*
X207118857Y-115400667D02*
X207167238Y-115352286D01*
X207215619Y-115207143D01*
X207215619Y-115110381D01*
X207167238Y-114965239D01*
X207070476Y-114868477D01*
X206973714Y-114820096D01*
X206780190Y-114771715D01*
X206635048Y-114771715D01*
X206441524Y-114820096D01*
X206344762Y-114868477D01*
X206248000Y-114965239D01*
X206199619Y-115110381D01*
X206199619Y-115207143D01*
X206248000Y-115352286D01*
X206296381Y-115400667D01*
X206296381Y-115787715D02*
X206248000Y-115836096D01*
X206199619Y-115932858D01*
X206199619Y-116174762D01*
X206248000Y-116271524D01*
X206296381Y-116319905D01*
X206393143Y-116368286D01*
X206489905Y-116368286D01*
X206635048Y-116319905D01*
X207215619Y-115739334D01*
X207215619Y-116368286D01*
X202643619Y-114481429D02*
X202643619Y-113900858D01*
X202643619Y-114191144D02*
X201627619Y-114191144D01*
X201772762Y-114094382D01*
X201869524Y-113997620D01*
X201917905Y-113900858D01*
X201627619Y-115110382D02*
X201627619Y-115207143D01*
X201676000Y-115303905D01*
X201724381Y-115352286D01*
X201821143Y-115400667D01*
X202014667Y-115449048D01*
X202256571Y-115449048D01*
X202450095Y-115400667D01*
X202546857Y-115352286D01*
X202595238Y-115303905D01*
X202643619Y-115207143D01*
X202643619Y-115110382D01*
X202595238Y-115013620D01*
X202546857Y-114965239D01*
X202450095Y-114916858D01*
X202256571Y-114868477D01*
X202014667Y-114868477D01*
X201821143Y-114916858D01*
X201724381Y-114965239D01*
X201676000Y-115013620D01*
X201627619Y-115110382D01*
X201966286Y-116319905D02*
X202643619Y-116319905D01*
X201966286Y-115884477D02*
X202498476Y-115884477D01*
X202595238Y-115932858D01*
X202643619Y-116029620D01*
X202643619Y-116174762D01*
X202595238Y-116271524D01*
X202546857Y-116319905D01*
X202111429Y-117142381D02*
X202111429Y-116803715D01*
X202643619Y-116803715D02*
X201627619Y-116803715D01*
X201627619Y-117287524D01*
X200194333Y-110598857D02*
X200242714Y-110647238D01*
X200387857Y-110695619D01*
X200484619Y-110695619D01*
X200629761Y-110647238D01*
X200726523Y-110550476D01*
X200774904Y-110453714D01*
X200823285Y-110260190D01*
X200823285Y-110115048D01*
X200774904Y-109921524D01*
X200726523Y-109824762D01*
X200629761Y-109728000D01*
X200484619Y-109679619D01*
X200387857Y-109679619D01*
X200242714Y-109728000D01*
X200194333Y-109776381D01*
X199226714Y-110695619D02*
X199807285Y-110695619D01*
X199516999Y-110695619D02*
X199516999Y-109679619D01*
X199613761Y-109824762D01*
X199710523Y-109921524D01*
X199807285Y-109969905D01*
X201113571Y-106123619D02*
X201694142Y-106123619D01*
X201403856Y-106123619D02*
X201403856Y-105107619D01*
X201500618Y-105252762D01*
X201597380Y-105349524D01*
X201694142Y-105397905D01*
X200484618Y-105107619D02*
X200387857Y-105107619D01*
X200291095Y-105156000D01*
X200242714Y-105204381D01*
X200194333Y-105301143D01*
X200145952Y-105494667D01*
X200145952Y-105736571D01*
X200194333Y-105930095D01*
X200242714Y-106026857D01*
X200291095Y-106075238D01*
X200387857Y-106123619D01*
X200484618Y-106123619D01*
X200581380Y-106075238D01*
X200629761Y-106026857D01*
X200678142Y-105930095D01*
X200726523Y-105736571D01*
X200726523Y-105494667D01*
X200678142Y-105301143D01*
X200629761Y-105204381D01*
X200581380Y-105156000D01*
X200484618Y-105107619D01*
X199275095Y-105446286D02*
X199275095Y-106123619D01*
X199710523Y-105446286D02*
X199710523Y-105978476D01*
X199662142Y-106075238D01*
X199565380Y-106123619D01*
X199420238Y-106123619D01*
X199323476Y-106075238D01*
X199275095Y-106026857D01*
X198452619Y-105591429D02*
X198791285Y-105591429D01*
X198791285Y-106123619D02*
X198791285Y-105107619D01*
X198307476Y-105107619D01*
X180479095Y-119001419D02*
X180479095Y-119823895D01*
X180430714Y-119920657D01*
X180382333Y-119969038D01*
X180285571Y-120017419D01*
X180092048Y-120017419D01*
X179995286Y-119969038D01*
X179946905Y-119920657D01*
X179898524Y-119823895D01*
X179898524Y-119001419D01*
X178882524Y-120017419D02*
X179463095Y-120017419D01*
X179172809Y-120017419D02*
X179172809Y-119001419D01*
X179269571Y-119146562D01*
X179366333Y-119243324D01*
X179463095Y-119291705D01*
X182898142Y-114708819D02*
X182898142Y-113692819D01*
X182559476Y-114418533D01*
X182220809Y-113692819D01*
X182220809Y-114708819D01*
X181785380Y-114418533D02*
X181301571Y-114418533D01*
X181882142Y-114708819D02*
X181543475Y-113692819D01*
X181204809Y-114708819D01*
X180962904Y-113692819D02*
X180285571Y-114708819D01*
X180285571Y-113692819D02*
X180962904Y-114708819D01*
X179463095Y-113692819D02*
X179656618Y-113692819D01*
X179753380Y-113741200D01*
X179801761Y-113789581D01*
X179898523Y-113934724D01*
X179946904Y-114128248D01*
X179946904Y-114515295D01*
X179898523Y-114612057D01*
X179850142Y-114660438D01*
X179753380Y-114708819D01*
X179559857Y-114708819D01*
X179463095Y-114660438D01*
X179414714Y-114612057D01*
X179366333Y-114515295D01*
X179366333Y-114273390D01*
X179414714Y-114176629D01*
X179463095Y-114128248D01*
X179559857Y-114079867D01*
X179753380Y-114079867D01*
X179850142Y-114128248D01*
X179898523Y-114176629D01*
X179946904Y-114273390D01*
X178785761Y-114128248D02*
X178882523Y-114079867D01*
X178930904Y-114031486D01*
X178979285Y-113934724D01*
X178979285Y-113886343D01*
X178930904Y-113789581D01*
X178882523Y-113741200D01*
X178785761Y-113692819D01*
X178592238Y-113692819D01*
X178495476Y-113741200D01*
X178447095Y-113789581D01*
X178398714Y-113886343D01*
X178398714Y-113934724D01*
X178447095Y-114031486D01*
X178495476Y-114079867D01*
X178592238Y-114128248D01*
X178785761Y-114128248D01*
X178882523Y-114176629D01*
X178930904Y-114225010D01*
X178979285Y-114321771D01*
X178979285Y-114515295D01*
X178930904Y-114612057D01*
X178882523Y-114660438D01*
X178785761Y-114708819D01*
X178592238Y-114708819D01*
X178495476Y-114660438D01*
X178447095Y-114612057D01*
X178398714Y-114515295D01*
X178398714Y-114321771D01*
X178447095Y-114225010D01*
X178495476Y-114176629D01*
X178592238Y-114128248D01*
X177431095Y-114708819D02*
X178011666Y-114708819D01*
X177721380Y-114708819D02*
X177721380Y-113692819D01*
X177818142Y-113837962D01*
X177914904Y-113934724D01*
X178011666Y-113983105D01*
X177092428Y-113692819D02*
X176415095Y-113692819D01*
X176850523Y-114708819D01*
%LPC*%
D15*
X104140000Y-121285000D03*
X101600000Y-121285000D03*
D16*
X106680000Y-121285000D03*
D17*
X201930000Y-91440000D03*
X207010000Y-91440000D03*
D18*
X111760000Y-127000000D03*
X113030000Y-78740000D03*
X194310000Y-127000000D03*
X187960000Y-78740000D03*
D19*
X125730000Y-127000000D03*
X128270000Y-127000000D03*
X130810000Y-127000000D03*
X133350000Y-127000000D03*
X135890000Y-127000000D03*
X138430000Y-127000000D03*
X140970000Y-127000000D03*
X143510000Y-127000000D03*
X148590000Y-127000000D03*
X151130000Y-127000000D03*
X153670000Y-127000000D03*
X156210000Y-127000000D03*
X158750000Y-127000000D03*
X161290000Y-127000000D03*
X163830000Y-127000000D03*
X166370000Y-127000000D03*
X171450000Y-127000000D03*
X173990000Y-127000000D03*
X176530000Y-127000000D03*
X179070000Y-127000000D03*
X181610000Y-127000000D03*
X184150000Y-127000000D03*
X186690000Y-127000000D03*
X189230000Y-127000000D03*
X116586000Y-78740000D03*
X119126000Y-78740000D03*
X121666000Y-78740000D03*
X124206000Y-78740000D03*
X126746000Y-78740000D03*
X129286000Y-78740000D03*
X131826000Y-78740000D03*
X134366000Y-78740000D03*
X136906000Y-78740000D03*
X139446000Y-78740000D03*
X143510000Y-78740000D03*
X161290000Y-78740000D03*
X158750000Y-78740000D03*
X156210000Y-78740000D03*
X153670000Y-78740000D03*
X151130000Y-78740000D03*
X148590000Y-78740000D03*
X146050000Y-78740000D03*
X166370000Y-78740000D03*
X168910000Y-78740000D03*
X171450000Y-78740000D03*
X173990000Y-78740000D03*
X176530000Y-78740000D03*
X179070000Y-78740000D03*
X181610000Y-78740000D03*
X184150000Y-78740000D03*
X191770000Y-78232000D03*
X194310000Y-78232000D03*
D20*
X191262000Y-81280000D03*
X194818000Y-81280000D03*
X191262000Y-83820000D03*
X194818000Y-83820000D03*
X191262000Y-86360000D03*
X194818000Y-86360000D03*
X191262000Y-88900000D03*
X194818000Y-88900000D03*
X191262000Y-91440000D03*
X194818000Y-91440000D03*
X191262000Y-93980000D03*
X194818000Y-93980000D03*
X191262000Y-96520000D03*
X194818000Y-96520000D03*
X191262000Y-99060000D03*
X194818000Y-99060000D03*
X191262000Y-101600000D03*
X194818000Y-101600000D03*
X191262000Y-104140000D03*
X194818000Y-104140000D03*
X191262000Y-106680000D03*
X194818000Y-106680000D03*
X191262000Y-109220000D03*
X194818000Y-109220000D03*
X191262000Y-111760000D03*
X194818000Y-111760000D03*
X191262000Y-114300000D03*
X194818000Y-114300000D03*
X191262000Y-116840000D03*
X194818000Y-116840000D03*
X191262000Y-119380000D03*
X194818000Y-119380000D03*
X191262000Y-121920000D03*
X194818000Y-121920000D03*
D21*
X142875000Y-110744000D03*
X142875000Y-107696000D03*
X142875000Y-85344000D03*
X142875000Y-82296000D03*
D22*
X185039000Y-122555000D03*
X181991000Y-122555000D03*
D21*
X184785000Y-118364000D03*
X184785000Y-115316000D03*
X149225000Y-110744000D03*
X149225000Y-107696000D03*
X149225000Y-85344000D03*
X149225000Y-82296000D03*
X174625000Y-118364000D03*
X174625000Y-115316000D03*
D22*
X101346000Y-126365000D03*
X104394000Y-126365000D03*
D21*
X204470000Y-117094000D03*
X204470000Y-114046000D03*
D22*
X198501000Y-107950000D03*
X201549000Y-107950000D03*
D23*
X178755040Y-115641120D03*
X179705000Y-115641120D03*
X180654960Y-115641120D03*
X180654960Y-118038880D03*
X179705000Y-118038880D03*
X178755040Y-118038880D03*
D20*
X199390000Y-114300000D03*
X199390000Y-116840000D03*
X199390000Y-111760000D03*
D24*
X207822800Y-101600000D03*
D25*
X204317600Y-101600000D03*
D26*
X198831200Y-101600000D03*
D27*
X205816200Y-97104200D03*
X205816200Y-106095800D03*
D28*
X135737600Y-90170000D03*
X169062400Y-90170000D03*
D19*
X142697200Y-88242140D03*
X145465800Y-88242140D03*
X148234400Y-88242140D03*
X151003000Y-88242140D03*
X153797000Y-88242140D03*
X156565600Y-88242140D03*
X159334200Y-88242140D03*
D29*
X162102800Y-88242140D03*
D19*
X144094200Y-92097860D03*
X146862800Y-92097860D03*
X149631400Y-92097860D03*
X152400000Y-92097860D03*
X155168600Y-92097860D03*
X157937200Y-92097860D03*
X160705800Y-92097860D03*
D28*
X135737600Y-115570000D03*
X169062400Y-115570000D03*
D19*
X142697200Y-113642140D03*
X145465800Y-113642140D03*
X148234400Y-113642140D03*
X151003000Y-113642140D03*
X153797000Y-113642140D03*
X156565600Y-113642140D03*
X159334200Y-113642140D03*
D29*
X162102800Y-113642140D03*
D19*
X144094200Y-117497860D03*
X146862800Y-117497860D03*
X149631400Y-117497860D03*
X152400000Y-117497860D03*
X155168600Y-117497860D03*
X157937200Y-117497860D03*
X160705800Y-117497860D03*
M02*
