G04 #@! TF.FileFunction,Legend,Top*
%FSLAX46Y46*%
G04 Gerber Fmt 4.6, Leading zero omitted, Abs format (unit mm)*
G04 Created by KiCad (PCBNEW 0.201412071631+5313~19~ubuntu14.04.1-product) date Mon 08 Dec 2014 02:11:31 PM EST*
%MOMM*%
G01*
G04 APERTURE LIST*
%ADD10C,0.100000*%
%ADD11C,0.190500*%
%ADD12C,0.254000*%
%ADD13C,0.228600*%
%ADD14C,0.381000*%
%ADD15R,1.498600X2.997200*%
%ADD16O,1.854200X2.540000*%
%ADD17R,1.854200X2.540000*%
%ADD18O,2.032000X1.524000*%
%ADD19C,3.937000*%
%ADD20O,1.524000X2.540000*%
%ADD21O,2.540000X1.524000*%
%ADD22C,1.930400*%
%ADD23O,4.572000X3.556000*%
%ADD24O,4.064000X5.080000*%
%ADD25O,5.080000X3.556000*%
%ADD26O,3.810000X6.350000*%
%ADD27R,1.524000X2.540000*%
G04 APERTURE END LIST*
D10*
D11*
X189320714Y-116785575D02*
X188558714Y-116785575D01*
X189320714Y-116459004D02*
X188921571Y-116459004D01*
X188849000Y-116495290D01*
X188812714Y-116567861D01*
X188812714Y-116676718D01*
X188849000Y-116749290D01*
X188885286Y-116785575D01*
X188812714Y-116205004D02*
X188812714Y-115914718D01*
X188558714Y-116096146D02*
X189211857Y-116096146D01*
X189284429Y-116059861D01*
X189320714Y-115987289D01*
X189320714Y-115914718D01*
X188812714Y-115769575D02*
X188812714Y-115479289D01*
X188558714Y-115660717D02*
X189211857Y-115660717D01*
X189284429Y-115624432D01*
X189320714Y-115551860D01*
X189320714Y-115479289D01*
X188812714Y-115225288D02*
X189574714Y-115225288D01*
X188849000Y-115225288D02*
X188812714Y-115152717D01*
X188812714Y-115007574D01*
X188849000Y-114935003D01*
X188885286Y-114898717D01*
X188957857Y-114862431D01*
X189175571Y-114862431D01*
X189248143Y-114898717D01*
X189284429Y-114935003D01*
X189320714Y-115007574D01*
X189320714Y-115152717D01*
X189284429Y-115225288D01*
X189284429Y-114572145D02*
X189320714Y-114499574D01*
X189320714Y-114354431D01*
X189284429Y-114281859D01*
X189211857Y-114245574D01*
X189175571Y-114245574D01*
X189103000Y-114281859D01*
X189066714Y-114354431D01*
X189066714Y-114463288D01*
X189030429Y-114535859D01*
X188957857Y-114572145D01*
X188921571Y-114572145D01*
X188849000Y-114535859D01*
X188812714Y-114463288D01*
X188812714Y-114354431D01*
X188849000Y-114281859D01*
X189248143Y-113919002D02*
X189284429Y-113882717D01*
X189320714Y-113919002D01*
X189284429Y-113955288D01*
X189248143Y-113919002D01*
X189320714Y-113919002D01*
X188849000Y-113919002D02*
X188885286Y-113882717D01*
X188921571Y-113919002D01*
X188885286Y-113955288D01*
X188849000Y-113919002D01*
X188921571Y-113919002D01*
X188522429Y-113011860D02*
X189502143Y-113665003D01*
X188522429Y-112213574D02*
X189502143Y-112866717D01*
X188812714Y-111633002D02*
X189429571Y-111633002D01*
X189502143Y-111669288D01*
X189538429Y-111705573D01*
X189574714Y-111778145D01*
X189574714Y-111887002D01*
X189538429Y-111959573D01*
X189284429Y-111633002D02*
X189320714Y-111705573D01*
X189320714Y-111850716D01*
X189284429Y-111923288D01*
X189248143Y-111959573D01*
X189175571Y-111995859D01*
X188957857Y-111995859D01*
X188885286Y-111959573D01*
X188849000Y-111923288D01*
X188812714Y-111850716D01*
X188812714Y-111705573D01*
X188849000Y-111633002D01*
X189320714Y-111270144D02*
X188812714Y-111270144D01*
X188558714Y-111270144D02*
X188595000Y-111306430D01*
X188631286Y-111270144D01*
X188595000Y-111233859D01*
X188558714Y-111270144D01*
X188631286Y-111270144D01*
X188812714Y-111016145D02*
X188812714Y-110725859D01*
X188558714Y-110907287D02*
X189211857Y-110907287D01*
X189284429Y-110871002D01*
X189320714Y-110798430D01*
X189320714Y-110725859D01*
X189320714Y-110471858D02*
X188558714Y-110471858D01*
X189320714Y-110145287D02*
X188921571Y-110145287D01*
X188849000Y-110181573D01*
X188812714Y-110254144D01*
X188812714Y-110363001D01*
X188849000Y-110435573D01*
X188885286Y-110471858D01*
X188812714Y-109455858D02*
X189320714Y-109455858D01*
X188812714Y-109782429D02*
X189211857Y-109782429D01*
X189284429Y-109746144D01*
X189320714Y-109673572D01*
X189320714Y-109564715D01*
X189284429Y-109492144D01*
X189248143Y-109455858D01*
X189320714Y-109093000D02*
X188558714Y-109093000D01*
X188849000Y-109093000D02*
X188812714Y-109020429D01*
X188812714Y-108875286D01*
X188849000Y-108802715D01*
X188885286Y-108766429D01*
X188957857Y-108730143D01*
X189175571Y-108730143D01*
X189248143Y-108766429D01*
X189284429Y-108802715D01*
X189320714Y-108875286D01*
X189320714Y-109020429D01*
X189284429Y-109093000D01*
X189248143Y-108403571D02*
X189284429Y-108367286D01*
X189320714Y-108403571D01*
X189284429Y-108439857D01*
X189248143Y-108403571D01*
X189320714Y-108403571D01*
X189284429Y-107714143D02*
X189320714Y-107786714D01*
X189320714Y-107931857D01*
X189284429Y-108004429D01*
X189248143Y-108040714D01*
X189175571Y-108077000D01*
X188957857Y-108077000D01*
X188885286Y-108040714D01*
X188849000Y-108004429D01*
X188812714Y-107931857D01*
X188812714Y-107786714D01*
X188849000Y-107714143D01*
X189320714Y-107278714D02*
X189284429Y-107351286D01*
X189248143Y-107387571D01*
X189175571Y-107423857D01*
X188957857Y-107423857D01*
X188885286Y-107387571D01*
X188849000Y-107351286D01*
X188812714Y-107278714D01*
X188812714Y-107169857D01*
X188849000Y-107097286D01*
X188885286Y-107061000D01*
X188957857Y-107024714D01*
X189175571Y-107024714D01*
X189248143Y-107061000D01*
X189284429Y-107097286D01*
X189320714Y-107169857D01*
X189320714Y-107278714D01*
X189320714Y-106698142D02*
X188812714Y-106698142D01*
X188885286Y-106698142D02*
X188849000Y-106661857D01*
X188812714Y-106589285D01*
X188812714Y-106480428D01*
X188849000Y-106407857D01*
X188921571Y-106371571D01*
X189320714Y-106371571D01*
X188921571Y-106371571D02*
X188849000Y-106335285D01*
X188812714Y-106262714D01*
X188812714Y-106153857D01*
X188849000Y-106081285D01*
X188921571Y-106045000D01*
X189320714Y-106045000D01*
X188522429Y-105137857D02*
X189502143Y-105791000D01*
X188558714Y-104666142D02*
X189103000Y-104666142D01*
X189211857Y-104702428D01*
X189284429Y-104774999D01*
X189320714Y-104883856D01*
X189320714Y-104956428D01*
X189320714Y-103976714D02*
X188921571Y-103976714D01*
X188849000Y-104013000D01*
X188812714Y-104085571D01*
X188812714Y-104230714D01*
X188849000Y-104303285D01*
X189284429Y-103976714D02*
X189320714Y-104049285D01*
X189320714Y-104230714D01*
X189284429Y-104303285D01*
X189211857Y-104339571D01*
X189139286Y-104339571D01*
X189066714Y-104303285D01*
X189030429Y-104230714D01*
X189030429Y-104049285D01*
X188994143Y-103976714D01*
X188812714Y-103613856D02*
X189320714Y-103613856D01*
X188885286Y-103613856D02*
X188849000Y-103577571D01*
X188812714Y-103504999D01*
X188812714Y-103396142D01*
X188849000Y-103323571D01*
X188921571Y-103287285D01*
X189320714Y-103287285D01*
X189284429Y-102634142D02*
X189320714Y-102706713D01*
X189320714Y-102851856D01*
X189284429Y-102924427D01*
X189211857Y-102960713D01*
X188921571Y-102960713D01*
X188849000Y-102924427D01*
X188812714Y-102851856D01*
X188812714Y-102706713D01*
X188849000Y-102634142D01*
X188921571Y-102597856D01*
X188994143Y-102597856D01*
X189066714Y-102960713D01*
X189320714Y-102162427D02*
X189284429Y-102234999D01*
X189211857Y-102271284D01*
X188558714Y-102271284D01*
X189320714Y-101872141D02*
X188812714Y-101872141D01*
X188558714Y-101872141D02*
X188595000Y-101908427D01*
X188631286Y-101872141D01*
X188595000Y-101835856D01*
X188558714Y-101872141D01*
X188631286Y-101872141D01*
X189320714Y-101182713D02*
X188921571Y-101182713D01*
X188849000Y-101218999D01*
X188812714Y-101291570D01*
X188812714Y-101436713D01*
X188849000Y-101509284D01*
X189284429Y-101182713D02*
X189320714Y-101255284D01*
X189320714Y-101436713D01*
X189284429Y-101509284D01*
X189211857Y-101545570D01*
X189139286Y-101545570D01*
X189066714Y-101509284D01*
X189030429Y-101436713D01*
X189030429Y-101255284D01*
X188994143Y-101182713D01*
X189284429Y-100856141D02*
X189320714Y-100747284D01*
X189320714Y-100565855D01*
X189284429Y-100493284D01*
X189248143Y-100456998D01*
X189175571Y-100420713D01*
X189103000Y-100420713D01*
X189030429Y-100456998D01*
X188994143Y-100493284D01*
X188957857Y-100565855D01*
X188921571Y-100710998D01*
X188885286Y-100783570D01*
X188849000Y-100819855D01*
X188776429Y-100856141D01*
X188703857Y-100856141D01*
X188631286Y-100819855D01*
X188595000Y-100783570D01*
X188558714Y-100710998D01*
X188558714Y-100529570D01*
X188595000Y-100420713D01*
X189284429Y-99767570D02*
X189320714Y-99840141D01*
X189320714Y-99985284D01*
X189284429Y-100057856D01*
X189248143Y-100094141D01*
X189175571Y-100130427D01*
X188957857Y-100130427D01*
X188885286Y-100094141D01*
X188849000Y-100057856D01*
X188812714Y-99985284D01*
X188812714Y-99840141D01*
X188849000Y-99767570D01*
X189320714Y-99440998D02*
X188812714Y-99440998D01*
X188558714Y-99440998D02*
X188595000Y-99477284D01*
X188631286Y-99440998D01*
X188595000Y-99404713D01*
X188558714Y-99440998D01*
X188631286Y-99440998D01*
X189248143Y-98642713D02*
X189284429Y-98678999D01*
X189320714Y-98787856D01*
X189320714Y-98860427D01*
X189284429Y-98969284D01*
X189211857Y-99041856D01*
X189139286Y-99078141D01*
X188994143Y-99114427D01*
X188885286Y-99114427D01*
X188740143Y-99078141D01*
X188667571Y-99041856D01*
X188595000Y-98969284D01*
X188558714Y-98860427D01*
X188558714Y-98787856D01*
X188595000Y-98678999D01*
X188631286Y-98642713D01*
X189320714Y-98207284D02*
X189284429Y-98279856D01*
X189248143Y-98316141D01*
X189175571Y-98352427D01*
X188957857Y-98352427D01*
X188885286Y-98316141D01*
X188849000Y-98279856D01*
X188812714Y-98207284D01*
X188812714Y-98098427D01*
X188849000Y-98025856D01*
X188885286Y-97989570D01*
X188957857Y-97953284D01*
X189175571Y-97953284D01*
X189248143Y-97989570D01*
X189284429Y-98025856D01*
X189320714Y-98098427D01*
X189320714Y-98207284D01*
X189320714Y-97626712D02*
X188812714Y-97626712D01*
X188885286Y-97626712D02*
X188849000Y-97590427D01*
X188812714Y-97517855D01*
X188812714Y-97408998D01*
X188849000Y-97336427D01*
X188921571Y-97300141D01*
X189320714Y-97300141D01*
X188921571Y-97300141D02*
X188849000Y-97263855D01*
X188812714Y-97191284D01*
X188812714Y-97082427D01*
X188849000Y-97009855D01*
X188921571Y-96973570D01*
X189320714Y-96973570D01*
X188812714Y-96610712D02*
X189574714Y-96610712D01*
X188849000Y-96610712D02*
X188812714Y-96538141D01*
X188812714Y-96392998D01*
X188849000Y-96320427D01*
X188885286Y-96284141D01*
X188957857Y-96247855D01*
X189175571Y-96247855D01*
X189248143Y-96284141D01*
X189284429Y-96320427D01*
X189320714Y-96392998D01*
X189320714Y-96538141D01*
X189284429Y-96610712D01*
X188522429Y-95376998D02*
X189502143Y-96030141D01*
X189320714Y-95122997D02*
X188812714Y-95122997D01*
X188957857Y-95122997D02*
X188885286Y-95086712D01*
X188849000Y-95050426D01*
X188812714Y-94977855D01*
X188812714Y-94905283D01*
X189284429Y-94360998D02*
X189320714Y-94433569D01*
X189320714Y-94578712D01*
X189284429Y-94651283D01*
X189211857Y-94687569D01*
X188921571Y-94687569D01*
X188849000Y-94651283D01*
X188812714Y-94578712D01*
X188812714Y-94433569D01*
X188849000Y-94360998D01*
X188921571Y-94324712D01*
X188994143Y-94324712D01*
X189066714Y-94687569D01*
X189320714Y-93998140D02*
X188812714Y-93998140D01*
X188885286Y-93998140D02*
X188849000Y-93961855D01*
X188812714Y-93889283D01*
X188812714Y-93780426D01*
X188849000Y-93707855D01*
X188921571Y-93671569D01*
X189320714Y-93671569D01*
X188921571Y-93671569D02*
X188849000Y-93635283D01*
X188812714Y-93562712D01*
X188812714Y-93453855D01*
X188849000Y-93381283D01*
X188921571Y-93344998D01*
X189320714Y-93344998D01*
X189320714Y-92873283D02*
X189284429Y-92945855D01*
X189248143Y-92982140D01*
X189175571Y-93018426D01*
X188957857Y-93018426D01*
X188885286Y-92982140D01*
X188849000Y-92945855D01*
X188812714Y-92873283D01*
X188812714Y-92764426D01*
X188849000Y-92691855D01*
X188885286Y-92655569D01*
X188957857Y-92619283D01*
X189175571Y-92619283D01*
X189248143Y-92655569D01*
X189284429Y-92691855D01*
X189320714Y-92764426D01*
X189320714Y-92873283D01*
X188812714Y-92401569D02*
X188812714Y-92111283D01*
X188558714Y-92292711D02*
X189211857Y-92292711D01*
X189284429Y-92256426D01*
X189320714Y-92183854D01*
X189320714Y-92111283D01*
X189284429Y-91566997D02*
X189320714Y-91639568D01*
X189320714Y-91784711D01*
X189284429Y-91857282D01*
X189211857Y-91893568D01*
X188921571Y-91893568D01*
X188849000Y-91857282D01*
X188812714Y-91784711D01*
X188812714Y-91639568D01*
X188849000Y-91566997D01*
X188921571Y-91530711D01*
X188994143Y-91530711D01*
X189066714Y-91893568D01*
X189030429Y-91204139D02*
X189030429Y-90623568D01*
X189320714Y-89934139D02*
X188558714Y-89934139D01*
X189284429Y-89934139D02*
X189320714Y-90006710D01*
X189320714Y-90151853D01*
X189284429Y-90224425D01*
X189248143Y-90260710D01*
X189175571Y-90296996D01*
X188957857Y-90296996D01*
X188885286Y-90260710D01*
X188849000Y-90224425D01*
X188812714Y-90151853D01*
X188812714Y-90006710D01*
X188849000Y-89934139D01*
X189284429Y-89280996D02*
X189320714Y-89353567D01*
X189320714Y-89498710D01*
X189284429Y-89571281D01*
X189211857Y-89607567D01*
X188921571Y-89607567D01*
X188849000Y-89571281D01*
X188812714Y-89498710D01*
X188812714Y-89353567D01*
X188849000Y-89280996D01*
X188921571Y-89244710D01*
X188994143Y-89244710D01*
X189066714Y-89607567D01*
X188812714Y-88990710D02*
X189320714Y-88809281D01*
X188812714Y-88627853D01*
X189320714Y-88337567D02*
X188812714Y-88337567D01*
X188558714Y-88337567D02*
X188595000Y-88373853D01*
X188631286Y-88337567D01*
X188595000Y-88301282D01*
X188558714Y-88337567D01*
X188631286Y-88337567D01*
X189284429Y-87648139D02*
X189320714Y-87720710D01*
X189320714Y-87865853D01*
X189284429Y-87938425D01*
X189248143Y-87974710D01*
X189175571Y-88010996D01*
X188957857Y-88010996D01*
X188885286Y-87974710D01*
X188849000Y-87938425D01*
X188812714Y-87865853D01*
X188812714Y-87720710D01*
X188849000Y-87648139D01*
X189284429Y-87031282D02*
X189320714Y-87103853D01*
X189320714Y-87248996D01*
X189284429Y-87321567D01*
X189211857Y-87357853D01*
X188921571Y-87357853D01*
X188849000Y-87321567D01*
X188812714Y-87248996D01*
X188812714Y-87103853D01*
X188849000Y-87031282D01*
X188921571Y-86994996D01*
X188994143Y-86994996D01*
X189066714Y-87357853D01*
X189284429Y-86704710D02*
X189320714Y-86632139D01*
X189320714Y-86486996D01*
X189284429Y-86414424D01*
X189211857Y-86378139D01*
X189175571Y-86378139D01*
X189103000Y-86414424D01*
X189066714Y-86486996D01*
X189066714Y-86595853D01*
X189030429Y-86668424D01*
X188957857Y-86704710D01*
X188921571Y-86704710D01*
X188849000Y-86668424D01*
X188812714Y-86595853D01*
X188812714Y-86486996D01*
X188849000Y-86414424D01*
D12*
X180240819Y-109800571D02*
X180966533Y-109800571D01*
X181111676Y-109848951D01*
X181208438Y-109945713D01*
X181256819Y-110090856D01*
X181256819Y-110187618D01*
X181256819Y-108881333D02*
X180724629Y-108881333D01*
X180627867Y-108929714D01*
X180579486Y-109026476D01*
X180579486Y-109219999D01*
X180627867Y-109316761D01*
X181208438Y-108881333D02*
X181256819Y-108978095D01*
X181256819Y-109219999D01*
X181208438Y-109316761D01*
X181111676Y-109365142D01*
X181014914Y-109365142D01*
X180918152Y-109316761D01*
X180869771Y-109219999D01*
X180869771Y-108978095D01*
X180821390Y-108881333D01*
X180579486Y-108397523D02*
X181256819Y-108397523D01*
X180676248Y-108397523D02*
X180627867Y-108349142D01*
X180579486Y-108252380D01*
X180579486Y-108107238D01*
X180627867Y-108010476D01*
X180724629Y-107962095D01*
X181256819Y-107962095D01*
X181208438Y-107091238D02*
X181256819Y-107188000D01*
X181256819Y-107381523D01*
X181208438Y-107478285D01*
X181111676Y-107526666D01*
X180724629Y-107526666D01*
X180627867Y-107478285D01*
X180579486Y-107381523D01*
X180579486Y-107188000D01*
X180627867Y-107091238D01*
X180724629Y-107042857D01*
X180821390Y-107042857D01*
X180918152Y-107526666D01*
X181256819Y-106462285D02*
X181208438Y-106559047D01*
X181111676Y-106607428D01*
X180240819Y-106607428D01*
X181256819Y-106075238D02*
X180579486Y-106075238D01*
X180240819Y-106075238D02*
X180289200Y-106123619D01*
X180337581Y-106075238D01*
X180289200Y-106026857D01*
X180240819Y-106075238D01*
X180337581Y-106075238D01*
X181256819Y-105156000D02*
X180724629Y-105156000D01*
X180627867Y-105204381D01*
X180579486Y-105301143D01*
X180579486Y-105494666D01*
X180627867Y-105591428D01*
X181208438Y-105156000D02*
X181256819Y-105252762D01*
X181256819Y-105494666D01*
X181208438Y-105591428D01*
X181111676Y-105639809D01*
X181014914Y-105639809D01*
X180918152Y-105591428D01*
X180869771Y-105494666D01*
X180869771Y-105252762D01*
X180821390Y-105156000D01*
X181256819Y-103317524D02*
X180773010Y-103656190D01*
X181256819Y-103898095D02*
X180240819Y-103898095D01*
X180240819Y-103511048D01*
X180289200Y-103414286D01*
X180337581Y-103365905D01*
X180434343Y-103317524D01*
X180579486Y-103317524D01*
X180676248Y-103365905D01*
X180724629Y-103414286D01*
X180773010Y-103511048D01*
X180773010Y-103898095D01*
X181208438Y-102495048D02*
X181256819Y-102591810D01*
X181256819Y-102785333D01*
X181208438Y-102882095D01*
X181111676Y-102930476D01*
X180724629Y-102930476D01*
X180627867Y-102882095D01*
X180579486Y-102785333D01*
X180579486Y-102591810D01*
X180627867Y-102495048D01*
X180724629Y-102446667D01*
X180821390Y-102446667D01*
X180918152Y-102930476D01*
X181256819Y-102011238D02*
X180579486Y-102011238D01*
X180676248Y-102011238D02*
X180627867Y-101962857D01*
X180579486Y-101866095D01*
X180579486Y-101720953D01*
X180627867Y-101624191D01*
X180724629Y-101575810D01*
X181256819Y-101575810D01*
X180724629Y-101575810D02*
X180627867Y-101527429D01*
X180579486Y-101430667D01*
X180579486Y-101285524D01*
X180627867Y-101188762D01*
X180724629Y-101140381D01*
X181256819Y-101140381D01*
X181256819Y-100511428D02*
X181208438Y-100608190D01*
X181160057Y-100656571D01*
X181063295Y-100704952D01*
X180773010Y-100704952D01*
X180676248Y-100656571D01*
X180627867Y-100608190D01*
X180579486Y-100511428D01*
X180579486Y-100366286D01*
X180627867Y-100269524D01*
X180676248Y-100221143D01*
X180773010Y-100172762D01*
X181063295Y-100172762D01*
X181160057Y-100221143D01*
X181208438Y-100269524D01*
X181256819Y-100366286D01*
X181256819Y-100511428D01*
X180579486Y-99882476D02*
X180579486Y-99495428D01*
X180240819Y-99737333D02*
X181111676Y-99737333D01*
X181208438Y-99688952D01*
X181256819Y-99592190D01*
X181256819Y-99495428D01*
X181208438Y-98769715D02*
X181256819Y-98866477D01*
X181256819Y-99060000D01*
X181208438Y-99156762D01*
X181111676Y-99205143D01*
X180724629Y-99205143D01*
X180627867Y-99156762D01*
X180579486Y-99060000D01*
X180579486Y-98866477D01*
X180627867Y-98769715D01*
X180724629Y-98721334D01*
X180821390Y-98721334D01*
X180918152Y-99205143D01*
X181256819Y-97511810D02*
X180240819Y-97511810D01*
X180240819Y-97269905D01*
X180289200Y-97124763D01*
X180385962Y-97028001D01*
X180482724Y-96979620D01*
X180676248Y-96931239D01*
X180821390Y-96931239D01*
X181014914Y-96979620D01*
X181111676Y-97028001D01*
X181208438Y-97124763D01*
X181256819Y-97269905D01*
X181256819Y-97511810D01*
X181208438Y-96108763D02*
X181256819Y-96205525D01*
X181256819Y-96399048D01*
X181208438Y-96495810D01*
X181111676Y-96544191D01*
X180724629Y-96544191D01*
X180627867Y-96495810D01*
X180579486Y-96399048D01*
X180579486Y-96205525D01*
X180627867Y-96108763D01*
X180724629Y-96060382D01*
X180821390Y-96060382D01*
X180918152Y-96544191D01*
X180579486Y-95721715D02*
X181256819Y-95479810D01*
X180579486Y-95237906D01*
X181256819Y-94850858D02*
X180579486Y-94850858D01*
X180240819Y-94850858D02*
X180289200Y-94899239D01*
X180337581Y-94850858D01*
X180289200Y-94802477D01*
X180240819Y-94850858D01*
X180337581Y-94850858D01*
X181208438Y-93931620D02*
X181256819Y-94028382D01*
X181256819Y-94221905D01*
X181208438Y-94318667D01*
X181160057Y-94367048D01*
X181063295Y-94415429D01*
X180773010Y-94415429D01*
X180676248Y-94367048D01*
X180627867Y-94318667D01*
X180579486Y-94221905D01*
X180579486Y-94028382D01*
X180627867Y-93931620D01*
X181208438Y-93109144D02*
X181256819Y-93205906D01*
X181256819Y-93399429D01*
X181208438Y-93496191D01*
X181111676Y-93544572D01*
X180724629Y-93544572D01*
X180627867Y-93496191D01*
X180579486Y-93399429D01*
X180579486Y-93205906D01*
X180627867Y-93109144D01*
X180724629Y-93060763D01*
X180821390Y-93060763D01*
X180918152Y-93544572D01*
X182933219Y-109340951D02*
X182401029Y-109340951D01*
X182304267Y-109389332D01*
X182255886Y-109486094D01*
X182255886Y-109679617D01*
X182304267Y-109776379D01*
X182884838Y-109340951D02*
X182933219Y-109437713D01*
X182933219Y-109679617D01*
X182884838Y-109776379D01*
X182788076Y-109824760D01*
X182691314Y-109824760D01*
X182594552Y-109776379D01*
X182546171Y-109679617D01*
X182546171Y-109437713D01*
X182497790Y-109340951D01*
X182933219Y-108421713D02*
X182401029Y-108421713D01*
X182304267Y-108470094D01*
X182255886Y-108566856D01*
X182255886Y-108760379D01*
X182304267Y-108857141D01*
X182884838Y-108421713D02*
X182933219Y-108518475D01*
X182933219Y-108760379D01*
X182884838Y-108857141D01*
X182788076Y-108905522D01*
X182691314Y-108905522D01*
X182594552Y-108857141D01*
X182546171Y-108760379D01*
X182546171Y-108518475D01*
X182497790Y-108421713D01*
X182933219Y-107792760D02*
X182884838Y-107889522D01*
X182788076Y-107937903D01*
X181917219Y-107937903D01*
X182933219Y-107405713D02*
X181917219Y-107405713D01*
X182304267Y-107405713D02*
X182255886Y-107308951D01*
X182255886Y-107115428D01*
X182304267Y-107018666D01*
X182352648Y-106970285D01*
X182449410Y-106921904D01*
X182739695Y-106921904D01*
X182836457Y-106970285D01*
X182884838Y-107018666D01*
X182933219Y-107115428D01*
X182933219Y-107308951D01*
X182884838Y-107405713D01*
X182933219Y-106341332D02*
X182884838Y-106438094D01*
X182836457Y-106486475D01*
X182739695Y-106534856D01*
X182449410Y-106534856D01*
X182352648Y-106486475D01*
X182304267Y-106438094D01*
X182255886Y-106341332D01*
X182255886Y-106196190D01*
X182304267Y-106099428D01*
X182352648Y-106051047D01*
X182449410Y-106002666D01*
X182739695Y-106002666D01*
X182836457Y-106051047D01*
X182884838Y-106099428D01*
X182933219Y-106196190D01*
X182933219Y-106341332D01*
X182933219Y-105567237D02*
X182255886Y-105567237D01*
X182449410Y-105567237D02*
X182352648Y-105518856D01*
X182304267Y-105470475D01*
X182255886Y-105373713D01*
X182255886Y-105276952D01*
X182255886Y-104502857D02*
X183078362Y-104502857D01*
X183175124Y-104551238D01*
X183223505Y-104599619D01*
X183271886Y-104696380D01*
X183271886Y-104841523D01*
X183223505Y-104938285D01*
X182884838Y-104502857D02*
X182933219Y-104599619D01*
X182933219Y-104793142D01*
X182884838Y-104889904D01*
X182836457Y-104938285D01*
X182739695Y-104986666D01*
X182449410Y-104986666D01*
X182352648Y-104938285D01*
X182304267Y-104889904D01*
X182255886Y-104793142D01*
X182255886Y-104599619D01*
X182304267Y-104502857D01*
X183029981Y-104260952D02*
X183029981Y-103486857D01*
X182933219Y-103244952D02*
X182255886Y-103244952D01*
X182352648Y-103244952D02*
X182304267Y-103196571D01*
X182255886Y-103099809D01*
X182255886Y-102954667D01*
X182304267Y-102857905D01*
X182401029Y-102809524D01*
X182933219Y-102809524D01*
X182401029Y-102809524D02*
X182304267Y-102761143D01*
X182255886Y-102664381D01*
X182255886Y-102519238D01*
X182304267Y-102422476D01*
X182401029Y-102374095D01*
X182933219Y-102374095D01*
X182255886Y-102035428D02*
X182255886Y-101648380D01*
X182933219Y-101890285D02*
X182062362Y-101890285D01*
X181965600Y-101841904D01*
X181917219Y-101745142D01*
X181917219Y-101648380D01*
X182884838Y-100874286D02*
X182933219Y-100971048D01*
X182933219Y-101164571D01*
X182884838Y-101261333D01*
X182836457Y-101309714D01*
X182739695Y-101358095D01*
X182449410Y-101358095D01*
X182352648Y-101309714D01*
X182304267Y-101261333D01*
X182255886Y-101164571D01*
X182255886Y-100971048D01*
X182304267Y-100874286D01*
X183029981Y-100680762D02*
X183029981Y-99906667D01*
X182933219Y-99664762D02*
X182255886Y-99664762D01*
X181917219Y-99664762D02*
X181965600Y-99713143D01*
X182013981Y-99664762D01*
X181965600Y-99616381D01*
X181917219Y-99664762D01*
X182013981Y-99664762D01*
X182255886Y-99180952D02*
X182933219Y-99180952D01*
X182352648Y-99180952D02*
X182304267Y-99132571D01*
X182255886Y-99035809D01*
X182255886Y-98890667D01*
X182304267Y-98793905D01*
X182401029Y-98745524D01*
X182933219Y-98745524D01*
X182255886Y-98406857D02*
X182255886Y-98019809D01*
X181917219Y-98261714D02*
X182788076Y-98261714D01*
X182884838Y-98213333D01*
X182933219Y-98116571D01*
X182933219Y-98019809D01*
X182884838Y-97294096D02*
X182933219Y-97390858D01*
X182933219Y-97584381D01*
X182884838Y-97681143D01*
X182788076Y-97729524D01*
X182401029Y-97729524D01*
X182304267Y-97681143D01*
X182255886Y-97584381D01*
X182255886Y-97390858D01*
X182304267Y-97294096D01*
X182401029Y-97245715D01*
X182497790Y-97245715D01*
X182594552Y-97729524D01*
X182933219Y-96810286D02*
X182255886Y-96810286D01*
X182449410Y-96810286D02*
X182352648Y-96761905D01*
X182304267Y-96713524D01*
X182255886Y-96616762D01*
X182255886Y-96520001D01*
X182255886Y-96326477D02*
X182255886Y-95939429D01*
X182933219Y-96181334D02*
X182062362Y-96181334D01*
X181965600Y-96132953D01*
X181917219Y-96036191D01*
X181917219Y-95939429D01*
X182933219Y-95165335D02*
X182401029Y-95165335D01*
X182304267Y-95213716D01*
X182255886Y-95310478D01*
X182255886Y-95504001D01*
X182304267Y-95600763D01*
X182884838Y-95165335D02*
X182933219Y-95262097D01*
X182933219Y-95504001D01*
X182884838Y-95600763D01*
X182788076Y-95649144D01*
X182691314Y-95649144D01*
X182594552Y-95600763D01*
X182546171Y-95504001D01*
X182546171Y-95262097D01*
X182497790Y-95165335D01*
X182884838Y-94246097D02*
X182933219Y-94342859D01*
X182933219Y-94536382D01*
X182884838Y-94633144D01*
X182836457Y-94681525D01*
X182739695Y-94729906D01*
X182449410Y-94729906D01*
X182352648Y-94681525D01*
X182304267Y-94633144D01*
X182255886Y-94536382D01*
X182255886Y-94342859D01*
X182304267Y-94246097D01*
X182884838Y-93423621D02*
X182933219Y-93520383D01*
X182933219Y-93713906D01*
X182884838Y-93810668D01*
X182788076Y-93859049D01*
X182401029Y-93859049D01*
X182304267Y-93810668D01*
X182255886Y-93713906D01*
X182255886Y-93520383D01*
X182304267Y-93423621D01*
X182401029Y-93375240D01*
X182497790Y-93375240D01*
X182594552Y-93859049D01*
X184609619Y-109413523D02*
X183932286Y-109413523D01*
X184029048Y-109413523D02*
X183980667Y-109365142D01*
X183932286Y-109268380D01*
X183932286Y-109123238D01*
X183980667Y-109026476D01*
X184077429Y-108978095D01*
X184609619Y-108978095D01*
X184077429Y-108978095D02*
X183980667Y-108929714D01*
X183932286Y-108832952D01*
X183932286Y-108687809D01*
X183980667Y-108591047D01*
X184077429Y-108542666D01*
X184609619Y-108542666D01*
X184609619Y-107913713D02*
X184561238Y-108010475D01*
X184512857Y-108058856D01*
X184416095Y-108107237D01*
X184125810Y-108107237D01*
X184029048Y-108058856D01*
X183980667Y-108010475D01*
X183932286Y-107913713D01*
X183932286Y-107768571D01*
X183980667Y-107671809D01*
X184029048Y-107623428D01*
X184125810Y-107575047D01*
X184416095Y-107575047D01*
X184512857Y-107623428D01*
X184561238Y-107671809D01*
X184609619Y-107768571D01*
X184609619Y-107913713D01*
X184609619Y-106704190D02*
X183593619Y-106704190D01*
X184561238Y-106704190D02*
X184609619Y-106800952D01*
X184609619Y-106994475D01*
X184561238Y-107091237D01*
X184512857Y-107139618D01*
X184416095Y-107187999D01*
X184125810Y-107187999D01*
X184029048Y-107139618D01*
X183980667Y-107091237D01*
X183932286Y-106994475D01*
X183932286Y-106800952D01*
X183980667Y-106704190D01*
X184561238Y-105833333D02*
X184609619Y-105930095D01*
X184609619Y-106123618D01*
X184561238Y-106220380D01*
X184464476Y-106268761D01*
X184077429Y-106268761D01*
X183980667Y-106220380D01*
X183932286Y-106123618D01*
X183932286Y-105930095D01*
X183980667Y-105833333D01*
X184077429Y-105784952D01*
X184174190Y-105784952D01*
X184270952Y-106268761D01*
X184609619Y-105204380D02*
X184561238Y-105301142D01*
X184464476Y-105349523D01*
X183593619Y-105349523D01*
X184706381Y-105059238D02*
X184706381Y-104285143D01*
X183932286Y-104043238D02*
X184609619Y-104043238D01*
X184029048Y-104043238D02*
X183980667Y-103994857D01*
X183932286Y-103898095D01*
X183932286Y-103752953D01*
X183980667Y-103656191D01*
X184077429Y-103607810D01*
X184609619Y-103607810D01*
X183932286Y-102688572D02*
X184609619Y-102688572D01*
X183932286Y-103124000D02*
X184464476Y-103124000D01*
X184561238Y-103075619D01*
X184609619Y-102978857D01*
X184609619Y-102833715D01*
X184561238Y-102736953D01*
X184512857Y-102688572D01*
X184609619Y-102204762D02*
X183932286Y-102204762D01*
X184029048Y-102204762D02*
X183980667Y-102156381D01*
X183932286Y-102059619D01*
X183932286Y-101914477D01*
X183980667Y-101817715D01*
X184077429Y-101769334D01*
X184609619Y-101769334D01*
X184077429Y-101769334D02*
X183980667Y-101720953D01*
X183932286Y-101624191D01*
X183932286Y-101479048D01*
X183980667Y-101382286D01*
X184077429Y-101333905D01*
X184609619Y-101333905D01*
X184609619Y-100850095D02*
X183593619Y-100850095D01*
X183980667Y-100850095D02*
X183932286Y-100753333D01*
X183932286Y-100559810D01*
X183980667Y-100463048D01*
X184029048Y-100414667D01*
X184125810Y-100366286D01*
X184416095Y-100366286D01*
X184512857Y-100414667D01*
X184561238Y-100463048D01*
X184609619Y-100559810D01*
X184609619Y-100753333D01*
X184561238Y-100850095D01*
X184561238Y-99543810D02*
X184609619Y-99640572D01*
X184609619Y-99834095D01*
X184561238Y-99930857D01*
X184464476Y-99979238D01*
X184077429Y-99979238D01*
X183980667Y-99930857D01*
X183932286Y-99834095D01*
X183932286Y-99640572D01*
X183980667Y-99543810D01*
X184077429Y-99495429D01*
X184174190Y-99495429D01*
X184270952Y-99979238D01*
X184609619Y-99060000D02*
X183932286Y-99060000D01*
X184125810Y-99060000D02*
X184029048Y-99011619D01*
X183980667Y-98963238D01*
X183932286Y-98866476D01*
X183932286Y-98769715D01*
X184512857Y-98431048D02*
X184561238Y-98382667D01*
X184609619Y-98431048D01*
X184561238Y-98479429D01*
X184512857Y-98431048D01*
X184609619Y-98431048D01*
X183980667Y-98431048D02*
X184029048Y-98382667D01*
X184077429Y-98431048D01*
X184029048Y-98479429D01*
X183980667Y-98431048D01*
X184077429Y-98431048D01*
X184609619Y-96640953D02*
X184609619Y-97221524D01*
X184609619Y-96931238D02*
X183593619Y-96931238D01*
X183738762Y-97028000D01*
X183835524Y-97124762D01*
X183883905Y-97221524D01*
X184609619Y-95673334D02*
X184609619Y-96253905D01*
X184609619Y-95963619D02*
X183593619Y-95963619D01*
X183738762Y-96060381D01*
X183835524Y-96157143D01*
X183883905Y-96253905D01*
X183593619Y-95044381D02*
X183593619Y-94947620D01*
X183642000Y-94850858D01*
X183690381Y-94802477D01*
X183787143Y-94754096D01*
X183980667Y-94705715D01*
X184222571Y-94705715D01*
X184416095Y-94754096D01*
X184512857Y-94802477D01*
X184561238Y-94850858D01*
X184609619Y-94947620D01*
X184609619Y-95044381D01*
X184561238Y-95141143D01*
X184512857Y-95189524D01*
X184416095Y-95237905D01*
X184222571Y-95286286D01*
X183980667Y-95286286D01*
X183787143Y-95237905D01*
X183690381Y-95189524D01*
X183642000Y-95141143D01*
X183593619Y-95044381D01*
X183593619Y-94076762D02*
X183593619Y-93980001D01*
X183642000Y-93883239D01*
X183690381Y-93834858D01*
X183787143Y-93786477D01*
X183980667Y-93738096D01*
X184222571Y-93738096D01*
X184416095Y-93786477D01*
X184512857Y-93834858D01*
X184561238Y-93883239D01*
X184609619Y-93980001D01*
X184609619Y-94076762D01*
X184561238Y-94173524D01*
X184512857Y-94221905D01*
X184416095Y-94270286D01*
X184222571Y-94318667D01*
X183980667Y-94318667D01*
X183787143Y-94270286D01*
X183690381Y-94221905D01*
X183642000Y-94173524D01*
X183593619Y-94076762D01*
X186286019Y-104260952D02*
X186286019Y-104841523D01*
X186286019Y-104551237D02*
X185270019Y-104551237D01*
X185415162Y-104647999D01*
X185511924Y-104744761D01*
X185560305Y-104841523D01*
X185366781Y-103873904D02*
X185318400Y-103825523D01*
X185270019Y-103728761D01*
X185270019Y-103486857D01*
X185318400Y-103390095D01*
X185366781Y-103341714D01*
X185463543Y-103293333D01*
X185560305Y-103293333D01*
X185705448Y-103341714D01*
X186286019Y-103922285D01*
X186286019Y-103293333D01*
X185221638Y-102132190D02*
X186527924Y-103003047D01*
X185366781Y-101841904D02*
X185318400Y-101793523D01*
X185270019Y-101696761D01*
X185270019Y-101454857D01*
X185318400Y-101358095D01*
X185366781Y-101309714D01*
X185463543Y-101261333D01*
X185560305Y-101261333D01*
X185705448Y-101309714D01*
X186286019Y-101890285D01*
X186286019Y-101261333D01*
X185270019Y-100632380D02*
X185270019Y-100535619D01*
X185318400Y-100438857D01*
X185366781Y-100390476D01*
X185463543Y-100342095D01*
X185657067Y-100293714D01*
X185898971Y-100293714D01*
X186092495Y-100342095D01*
X186189257Y-100390476D01*
X186237638Y-100438857D01*
X186286019Y-100535619D01*
X186286019Y-100632380D01*
X186237638Y-100729142D01*
X186189257Y-100777523D01*
X186092495Y-100825904D01*
X185898971Y-100874285D01*
X185657067Y-100874285D01*
X185463543Y-100825904D01*
X185366781Y-100777523D01*
X185318400Y-100729142D01*
X185270019Y-100632380D01*
X186286019Y-99326095D02*
X186286019Y-99906666D01*
X186286019Y-99616380D02*
X185270019Y-99616380D01*
X185415162Y-99713142D01*
X185511924Y-99809904D01*
X185560305Y-99906666D01*
X185608686Y-98455238D02*
X186286019Y-98455238D01*
X185221638Y-98697142D02*
X185947352Y-98939047D01*
X185947352Y-98310095D01*
X187285086Y-105760761D02*
X187962419Y-105518856D01*
X187285086Y-105276952D01*
X187914038Y-104502857D02*
X187962419Y-104599619D01*
X187962419Y-104793142D01*
X187914038Y-104889904D01*
X187817276Y-104938285D01*
X187430229Y-104938285D01*
X187333467Y-104889904D01*
X187285086Y-104793142D01*
X187285086Y-104599619D01*
X187333467Y-104502857D01*
X187430229Y-104454476D01*
X187526990Y-104454476D01*
X187623752Y-104938285D01*
X187962419Y-104019047D02*
X187285086Y-104019047D01*
X187478610Y-104019047D02*
X187381848Y-103970666D01*
X187333467Y-103922285D01*
X187285086Y-103825523D01*
X187285086Y-103728762D01*
X187914038Y-103438476D02*
X187962419Y-103341714D01*
X187962419Y-103148190D01*
X187914038Y-103051429D01*
X187817276Y-103003048D01*
X187768895Y-103003048D01*
X187672133Y-103051429D01*
X187623752Y-103148190D01*
X187623752Y-103293333D01*
X187575371Y-103390095D01*
X187478610Y-103438476D01*
X187430229Y-103438476D01*
X187333467Y-103390095D01*
X187285086Y-103293333D01*
X187285086Y-103148190D01*
X187333467Y-103051429D01*
X187962419Y-102567619D02*
X187285086Y-102567619D01*
X186946419Y-102567619D02*
X186994800Y-102616000D01*
X187043181Y-102567619D01*
X186994800Y-102519238D01*
X186946419Y-102567619D01*
X187043181Y-102567619D01*
X187962419Y-101938666D02*
X187914038Y-102035428D01*
X187865657Y-102083809D01*
X187768895Y-102132190D01*
X187478610Y-102132190D01*
X187381848Y-102083809D01*
X187333467Y-102035428D01*
X187285086Y-101938666D01*
X187285086Y-101793524D01*
X187333467Y-101696762D01*
X187381848Y-101648381D01*
X187478610Y-101600000D01*
X187768895Y-101600000D01*
X187865657Y-101648381D01*
X187914038Y-101696762D01*
X187962419Y-101793524D01*
X187962419Y-101938666D01*
X187285086Y-101164571D02*
X187962419Y-101164571D01*
X187381848Y-101164571D02*
X187333467Y-101116190D01*
X187285086Y-101019428D01*
X187285086Y-100874286D01*
X187333467Y-100777524D01*
X187430229Y-100729143D01*
X187962419Y-100729143D01*
X187962419Y-98939048D02*
X187962419Y-99519619D01*
X187962419Y-99229333D02*
X186946419Y-99229333D01*
X187091562Y-99326095D01*
X187188324Y-99422857D01*
X187236705Y-99519619D01*
X187865657Y-98503619D02*
X187914038Y-98455238D01*
X187962419Y-98503619D01*
X187914038Y-98552000D01*
X187865657Y-98503619D01*
X187962419Y-98503619D01*
X186946419Y-97826285D02*
X186946419Y-97729524D01*
X186994800Y-97632762D01*
X187043181Y-97584381D01*
X187139943Y-97536000D01*
X187333467Y-97487619D01*
X187575371Y-97487619D01*
X187768895Y-97536000D01*
X187865657Y-97584381D01*
X187914038Y-97632762D01*
X187962419Y-97729524D01*
X187962419Y-97826285D01*
X187914038Y-97923047D01*
X187865657Y-97971428D01*
X187768895Y-98019809D01*
X187575371Y-98068190D01*
X187333467Y-98068190D01*
X187139943Y-98019809D01*
X187043181Y-97971428D01*
X186994800Y-97923047D01*
X186946419Y-97826285D01*
D13*
X93980000Y-76200000D02*
X93980000Y-129540000D01*
X210820000Y-76200000D02*
X93980000Y-76200000D01*
X210820000Y-129540000D02*
X210820000Y-76200000D01*
X93980000Y-129540000D02*
X210820000Y-129540000D01*
X176530000Y-115570000D02*
X177165000Y-115570000D01*
X177165000Y-115570000D02*
X177165000Y-118110000D01*
X177165000Y-118110000D02*
X176530000Y-118110000D01*
X176530000Y-114300000D02*
X177165000Y-114300000D01*
X186055000Y-119380000D02*
X186690000Y-119380000D01*
X186690000Y-114300000D02*
X184785000Y-114300000D01*
X176530000Y-119380000D02*
X178435000Y-119380000D01*
X186690000Y-114300000D02*
X186690000Y-119380000D01*
X176530000Y-114300000D02*
X176530000Y-119380000D01*
D14*
X106045000Y-118110000D02*
X106680000Y-119380000D01*
X106680000Y-119380000D02*
X107315000Y-118110000D01*
X107315000Y-118110000D02*
X106045000Y-118110000D01*
X99695000Y-117475000D02*
X108585000Y-117475000D01*
X108585000Y-117475000D02*
X108585000Y-119380000D01*
X99695000Y-117475000D02*
X99695000Y-119380000D01*
X99695000Y-119380000D02*
X99695000Y-123190000D01*
X99695000Y-123190000D02*
X108585000Y-123190000D01*
X108585000Y-123190000D02*
X108585000Y-119380000D01*
X108585000Y-119380000D02*
X99695000Y-119380000D01*
D13*
X199898000Y-91948000D02*
X199898000Y-90932000D01*
X200406000Y-91440000D02*
X199390000Y-91440000D01*
X200660000Y-92710000D02*
X200660000Y-90170000D01*
X200660000Y-90170000D02*
X208280000Y-90170000D01*
X208280000Y-90170000D02*
X208280000Y-92710000D01*
X208280000Y-92710000D02*
X200660000Y-92710000D01*
D14*
X197485000Y-120015000D02*
X205740000Y-120015000D01*
X205740000Y-120015000D02*
X205740000Y-108585000D01*
X205740000Y-108585000D02*
X197485000Y-108585000D01*
X197485000Y-108585000D02*
X197485000Y-120015000D01*
X197485000Y-96520000D02*
X197485000Y-106680000D01*
X197485000Y-106680000D02*
X210820000Y-106680000D01*
X197485000Y-96520000D02*
X210820000Y-96520000D01*
X210820000Y-96520000D02*
X210820000Y-106680000D01*
X132715000Y-83820000D02*
X132715000Y-96520000D01*
X132715000Y-96520000D02*
X172085000Y-96520000D01*
X172085000Y-96520000D02*
X172085000Y-83820000D01*
X172085000Y-83820000D02*
X132715000Y-83820000D01*
X132715000Y-109220000D02*
X132715000Y-121920000D01*
X132715000Y-121920000D02*
X172085000Y-121920000D01*
X172085000Y-121920000D02*
X172085000Y-109220000D01*
X172085000Y-109220000D02*
X132715000Y-109220000D01*
D12*
X180908477Y-111687429D02*
X181247143Y-111687429D01*
X181392286Y-112219619D02*
X180908477Y-112219619D01*
X180908477Y-111203619D01*
X181392286Y-111203619D01*
X182359905Y-112219619D02*
X181779334Y-112219619D01*
X182069620Y-112219619D02*
X182069620Y-111203619D01*
X181972858Y-111348762D01*
X181876096Y-111445524D01*
X181779334Y-111493905D01*
X176481620Y-121847429D02*
X176820286Y-121847429D01*
X176965429Y-122379619D02*
X176481620Y-122379619D01*
X176481620Y-121363619D01*
X176965429Y-121363619D01*
X177400858Y-122379619D02*
X177400858Y-121363619D01*
X177981429Y-122379619D01*
X177981429Y-121363619D01*
X179045810Y-122282857D02*
X178997429Y-122331238D01*
X178852286Y-122379619D01*
X178755524Y-122379619D01*
X178610382Y-122331238D01*
X178513620Y-122234476D01*
X178465239Y-122137714D01*
X178416858Y-121944190D01*
X178416858Y-121799048D01*
X178465239Y-121605524D01*
X178513620Y-121508762D01*
X178610382Y-121412000D01*
X178755524Y-121363619D01*
X178852286Y-121363619D01*
X178997429Y-121412000D01*
X179045810Y-121460381D01*
X179674763Y-121363619D02*
X179868286Y-121363619D01*
X179965048Y-121412000D01*
X180061810Y-121508762D01*
X180110191Y-121702286D01*
X180110191Y-122040952D01*
X180061810Y-122234476D01*
X179965048Y-122331238D01*
X179868286Y-122379619D01*
X179674763Y-122379619D01*
X179578001Y-122331238D01*
X179481239Y-122234476D01*
X179432858Y-122040952D01*
X179432858Y-121702286D01*
X179481239Y-121508762D01*
X179578001Y-121412000D01*
X179674763Y-121363619D01*
X180545620Y-122379619D02*
X180545620Y-121363619D01*
X180787525Y-121363619D01*
X180932667Y-121412000D01*
X181029429Y-121508762D01*
X181077810Y-121605524D01*
X181126191Y-121799048D01*
X181126191Y-121944190D01*
X181077810Y-122137714D01*
X181029429Y-122234476D01*
X180932667Y-122331238D01*
X180787525Y-122379619D01*
X180545620Y-122379619D01*
X181561620Y-121847429D02*
X181900286Y-121847429D01*
X182045429Y-122379619D02*
X181561620Y-122379619D01*
X181561620Y-121363619D01*
X182045429Y-121363619D01*
X183061429Y-122379619D02*
X182722763Y-121895810D01*
X182480858Y-122379619D02*
X182480858Y-121363619D01*
X182867905Y-121363619D01*
X182964667Y-121412000D01*
X183013048Y-121460381D01*
X183061429Y-121557143D01*
X183061429Y-121702286D01*
X183013048Y-121799048D01*
X182964667Y-121847429D01*
X182867905Y-121895810D01*
X182480858Y-121895810D01*
X183254953Y-122476381D02*
X184029048Y-122476381D01*
X184851524Y-122282857D02*
X184803143Y-122331238D01*
X184658000Y-122379619D01*
X184561238Y-122379619D01*
X184416096Y-122331238D01*
X184319334Y-122234476D01*
X184270953Y-122137714D01*
X184222572Y-121944190D01*
X184222572Y-121799048D01*
X184270953Y-121605524D01*
X184319334Y-121508762D01*
X184416096Y-121412000D01*
X184561238Y-121363619D01*
X184658000Y-121363619D01*
X184803143Y-121412000D01*
X184851524Y-121460381D01*
X185819143Y-122379619D02*
X185238572Y-122379619D01*
X185528858Y-122379619D02*
X185528858Y-121363619D01*
X185432096Y-121508762D01*
X185335334Y-121605524D01*
X185238572Y-121653905D01*
X186690000Y-121702286D02*
X186690000Y-122379619D01*
X186448096Y-121315238D02*
X186206191Y-122040952D01*
X186835143Y-122040952D01*
X98757619Y-122034904D02*
X97741619Y-122034904D01*
X97741619Y-121647857D01*
X97790000Y-121551095D01*
X97838381Y-121502714D01*
X97935143Y-121454333D01*
X98080286Y-121454333D01*
X98177048Y-121502714D01*
X98225429Y-121551095D01*
X98273810Y-121647857D01*
X98273810Y-122034904D01*
X97838381Y-121067285D02*
X97790000Y-121018904D01*
X97741619Y-120922142D01*
X97741619Y-120680238D01*
X97790000Y-120583476D01*
X97838381Y-120535095D01*
X97935143Y-120486714D01*
X98031905Y-120486714D01*
X98177048Y-120535095D01*
X98757619Y-121115666D01*
X98757619Y-120486714D01*
X101358096Y-116664619D02*
X101358096Y-115648619D01*
X101600001Y-115648619D01*
X101745143Y-115697000D01*
X101841905Y-115793762D01*
X101890286Y-115890524D01*
X101938667Y-116084048D01*
X101938667Y-116229190D01*
X101890286Y-116422714D01*
X101841905Y-116519476D01*
X101745143Y-116616238D01*
X101600001Y-116664619D01*
X101358096Y-116664619D01*
X102374096Y-116664619D02*
X102374096Y-115648619D01*
X102809525Y-116616238D02*
X102954668Y-116664619D01*
X103196572Y-116664619D01*
X103293334Y-116616238D01*
X103341715Y-116567857D01*
X103390096Y-116471095D01*
X103390096Y-116374333D01*
X103341715Y-116277571D01*
X103293334Y-116229190D01*
X103196572Y-116180810D01*
X103003049Y-116132429D01*
X102906287Y-116084048D01*
X102857906Y-116035667D01*
X102809525Y-115938905D01*
X102809525Y-115842143D01*
X102857906Y-115745381D01*
X102906287Y-115697000D01*
X103003049Y-115648619D01*
X103244953Y-115648619D01*
X103390096Y-115697000D01*
X103825525Y-116664619D02*
X103825525Y-115648619D01*
X104212572Y-115648619D01*
X104309334Y-115697000D01*
X104357715Y-115745381D01*
X104406096Y-115842143D01*
X104406096Y-115987286D01*
X104357715Y-116084048D01*
X104309334Y-116132429D01*
X104212572Y-116180810D01*
X103825525Y-116180810D01*
X105325334Y-116664619D02*
X104841525Y-116664619D01*
X104841525Y-115648619D01*
X105615620Y-116374333D02*
X106099429Y-116374333D01*
X105518858Y-116664619D02*
X105857525Y-115648619D01*
X106196191Y-116664619D01*
X106728382Y-116180810D02*
X106728382Y-116664619D01*
X106389715Y-115648619D02*
X106728382Y-116180810D01*
X107067048Y-115648619D01*
X210009619Y-92189904D02*
X208993619Y-92189904D01*
X208993619Y-91947999D01*
X209042000Y-91802857D01*
X209138762Y-91706095D01*
X209235524Y-91657714D01*
X209429048Y-91609333D01*
X209574190Y-91609333D01*
X209767714Y-91657714D01*
X209864476Y-91706095D01*
X209961238Y-91802857D01*
X210009619Y-91947999D01*
X210009619Y-92189904D01*
X210009619Y-90641714D02*
X210009619Y-91222285D01*
X210009619Y-90931999D02*
X208993619Y-90931999D01*
X209138762Y-91028761D01*
X209235524Y-91125523D01*
X209283905Y-91222285D01*
X207469619Y-115436952D02*
X206985810Y-115775618D01*
X207469619Y-116017523D02*
X206453619Y-116017523D01*
X206453619Y-115630476D01*
X206502000Y-115533714D01*
X206550381Y-115485333D01*
X206647143Y-115436952D01*
X206792286Y-115436952D01*
X206889048Y-115485333D01*
X206937429Y-115533714D01*
X206985810Y-115630476D01*
X206985810Y-116017523D01*
X206937429Y-115001523D02*
X206937429Y-114662857D01*
X207469619Y-114517714D02*
X207469619Y-115001523D01*
X206453619Y-115001523D01*
X206453619Y-114517714D01*
X206502000Y-113550095D02*
X206453619Y-113646857D01*
X206453619Y-113792000D01*
X206502000Y-113937142D01*
X206598762Y-114033904D01*
X206695524Y-114082285D01*
X206889048Y-114130666D01*
X207034190Y-114130666D01*
X207227714Y-114082285D01*
X207324476Y-114033904D01*
X207421238Y-113937142D01*
X207469619Y-113792000D01*
X207469619Y-113695238D01*
X207421238Y-113550095D01*
X207372857Y-113501714D01*
X207034190Y-113501714D01*
X207034190Y-113695238D01*
X207469619Y-112534095D02*
X207469619Y-113114666D01*
X207469619Y-112824380D02*
X206453619Y-112824380D01*
X206598762Y-112921142D01*
X206695524Y-113017904D01*
X206743905Y-113114666D01*
X198869905Y-121230571D02*
X199644000Y-121230571D01*
X199256952Y-121617619D02*
X199256952Y-120843524D01*
X200660000Y-121617619D02*
X200079429Y-121617619D01*
X200369715Y-121617619D02*
X200369715Y-120601619D01*
X200272953Y-120746762D01*
X200176191Y-120843524D01*
X200079429Y-120891905D01*
X201047048Y-120698381D02*
X201095429Y-120650000D01*
X201192191Y-120601619D01*
X201434095Y-120601619D01*
X201530857Y-120650000D01*
X201579238Y-120698381D01*
X201627619Y-120795143D01*
X201627619Y-120891905D01*
X201579238Y-121037048D01*
X200998667Y-121617619D01*
X201627619Y-121617619D01*
X201917905Y-120601619D02*
X202256572Y-121617619D01*
X202595238Y-120601619D01*
X202933905Y-121617619D02*
X202933905Y-120601619D01*
X203175810Y-120601619D01*
X203320952Y-120650000D01*
X203417714Y-120746762D01*
X203466095Y-120843524D01*
X203514476Y-121037048D01*
X203514476Y-121182190D01*
X203466095Y-121375714D01*
X203417714Y-121472476D01*
X203320952Y-121569238D01*
X203175810Y-121617619D01*
X202933905Y-121617619D01*
X204530476Y-121520857D02*
X204482095Y-121569238D01*
X204336952Y-121617619D01*
X204240190Y-121617619D01*
X204095048Y-121569238D01*
X203998286Y-121472476D01*
X203949905Y-121375714D01*
X203901524Y-121182190D01*
X203901524Y-121037048D01*
X203949905Y-120843524D01*
X203998286Y-120746762D01*
X204095048Y-120650000D01*
X204240190Y-120601619D01*
X204336952Y-120601619D01*
X204482095Y-120650000D01*
X204530476Y-120698381D01*
X208800096Y-108409619D02*
X208800096Y-107393619D01*
X209187143Y-107393619D01*
X209283905Y-107442000D01*
X209332286Y-107490381D01*
X209380667Y-107587143D01*
X209380667Y-107732286D01*
X209332286Y-107829048D01*
X209283905Y-107877429D01*
X209187143Y-107925810D01*
X208800096Y-107925810D01*
X210348286Y-108409619D02*
X209767715Y-108409619D01*
X210058001Y-108409619D02*
X210058001Y-107393619D01*
X209961239Y-107538762D01*
X209864477Y-107635524D01*
X209767715Y-107683905D01*
X197218905Y-95322571D02*
X197993000Y-95322571D01*
X197605952Y-95709619D02*
X197605952Y-94935524D01*
X198428429Y-94790381D02*
X198476810Y-94742000D01*
X198573572Y-94693619D01*
X198815476Y-94693619D01*
X198912238Y-94742000D01*
X198960619Y-94790381D01*
X199009000Y-94887143D01*
X199009000Y-94983905D01*
X198960619Y-95129048D01*
X198380048Y-95709619D01*
X199009000Y-95709619D01*
X199879857Y-95032286D02*
X199879857Y-95709619D01*
X199637953Y-94645238D02*
X199396048Y-95370952D01*
X200025000Y-95370952D01*
X200266905Y-94693619D02*
X200605572Y-95709619D01*
X200944238Y-94693619D01*
X201282905Y-95709619D02*
X201282905Y-94693619D01*
X201524810Y-94693619D01*
X201669952Y-94742000D01*
X201766714Y-94838762D01*
X201815095Y-94935524D01*
X201863476Y-95129048D01*
X201863476Y-95274190D01*
X201815095Y-95467714D01*
X201766714Y-95564476D01*
X201669952Y-95661238D01*
X201524810Y-95709619D01*
X201282905Y-95709619D01*
X202879476Y-95612857D02*
X202831095Y-95661238D01*
X202685952Y-95709619D01*
X202589190Y-95709619D01*
X202444048Y-95661238D01*
X202347286Y-95564476D01*
X202298905Y-95467714D01*
X202250524Y-95274190D01*
X202250524Y-95129048D01*
X202298905Y-94935524D01*
X202347286Y-94838762D01*
X202444048Y-94742000D01*
X202589190Y-94693619D01*
X202685952Y-94693619D01*
X202831095Y-94742000D01*
X202879476Y-94790381D01*
X135551333Y-81993619D02*
X135551333Y-82719333D01*
X135502953Y-82864476D01*
X135406191Y-82961238D01*
X135261048Y-83009619D01*
X135164286Y-83009619D01*
X136567333Y-83009619D02*
X135986762Y-83009619D01*
X136277048Y-83009619D02*
X136277048Y-81993619D01*
X136180286Y-82138762D01*
X136083524Y-82235524D01*
X135986762Y-82283905D01*
X167827477Y-83009619D02*
X167827477Y-81993619D01*
X168166143Y-82719333D01*
X168504810Y-81993619D01*
X168504810Y-83009619D01*
X169327286Y-82477429D02*
X168988620Y-82477429D01*
X168988620Y-83009619D02*
X168988620Y-81993619D01*
X169472429Y-81993619D01*
X170440048Y-82912857D02*
X170391667Y-82961238D01*
X170246524Y-83009619D01*
X170149762Y-83009619D01*
X170004620Y-82961238D01*
X169907858Y-82864476D01*
X169859477Y-82767714D01*
X169811096Y-82574190D01*
X169811096Y-82429048D01*
X169859477Y-82235524D01*
X169907858Y-82138762D01*
X170004620Y-82042000D01*
X170149762Y-81993619D01*
X170246524Y-81993619D01*
X170391667Y-82042000D01*
X170440048Y-82090381D01*
X170827096Y-82719333D02*
X171310905Y-82719333D01*
X170730334Y-83009619D02*
X171069001Y-81993619D01*
X171407667Y-83009619D01*
X135551333Y-107393619D02*
X135551333Y-108119333D01*
X135502953Y-108264476D01*
X135406191Y-108361238D01*
X135261048Y-108409619D01*
X135164286Y-108409619D01*
X135986762Y-107490381D02*
X136035143Y-107442000D01*
X136131905Y-107393619D01*
X136373809Y-107393619D01*
X136470571Y-107442000D01*
X136518952Y-107490381D01*
X136567333Y-107587143D01*
X136567333Y-107683905D01*
X136518952Y-107829048D01*
X135938381Y-108409619D01*
X136567333Y-108409619D01*
X167754905Y-108409619D02*
X167754905Y-107393619D01*
X168093571Y-108119333D01*
X168432238Y-107393619D01*
X168432238Y-108409619D01*
X169254714Y-107877429D02*
X168916048Y-107877429D01*
X168916048Y-108409619D02*
X168916048Y-107393619D01*
X169399857Y-107393619D01*
X170367476Y-108312857D02*
X170319095Y-108361238D01*
X170173952Y-108409619D01*
X170077190Y-108409619D01*
X169932048Y-108361238D01*
X169835286Y-108264476D01*
X169786905Y-108167714D01*
X169738524Y-107974190D01*
X169738524Y-107829048D01*
X169786905Y-107635524D01*
X169835286Y-107538762D01*
X169932048Y-107442000D01*
X170077190Y-107393619D01*
X170173952Y-107393619D01*
X170319095Y-107442000D01*
X170367476Y-107490381D01*
X171141571Y-107877429D02*
X171286714Y-107925810D01*
X171335095Y-107974190D01*
X171383476Y-108070952D01*
X171383476Y-108216095D01*
X171335095Y-108312857D01*
X171286714Y-108361238D01*
X171189952Y-108409619D01*
X170802905Y-108409619D01*
X170802905Y-107393619D01*
X171141571Y-107393619D01*
X171238333Y-107442000D01*
X171286714Y-107490381D01*
X171335095Y-107587143D01*
X171335095Y-107683905D01*
X171286714Y-107780667D01*
X171238333Y-107829048D01*
X171141571Y-107877429D01*
X170802905Y-107877429D01*
%LPC*%
D15*
X178435000Y-114579400D03*
X179705000Y-119100600D03*
X180975000Y-114579400D03*
X182245000Y-119100600D03*
X183515000Y-114579400D03*
X184785000Y-119100600D03*
D16*
X104140000Y-121285000D03*
X101600000Y-121285000D03*
D17*
X106680000Y-121285000D03*
D18*
X201930000Y-91440000D03*
X207010000Y-91440000D03*
D19*
X111760000Y-127000000D03*
X113030000Y-78740000D03*
X194310000Y-127000000D03*
X187960000Y-78740000D03*
D20*
X125730000Y-127000000D03*
X128270000Y-127000000D03*
X130810000Y-127000000D03*
X133350000Y-127000000D03*
X135890000Y-127000000D03*
X138430000Y-127000000D03*
X140970000Y-127000000D03*
X143510000Y-127000000D03*
X148590000Y-127000000D03*
X151130000Y-127000000D03*
X153670000Y-127000000D03*
X156210000Y-127000000D03*
X158750000Y-127000000D03*
X161290000Y-127000000D03*
X163830000Y-127000000D03*
X166370000Y-127000000D03*
X171450000Y-127000000D03*
X173990000Y-127000000D03*
X176530000Y-127000000D03*
X179070000Y-127000000D03*
X181610000Y-127000000D03*
X184150000Y-127000000D03*
X186690000Y-127000000D03*
X189230000Y-127000000D03*
X116586000Y-78740000D03*
X119126000Y-78740000D03*
X121666000Y-78740000D03*
X124206000Y-78740000D03*
X126746000Y-78740000D03*
X129286000Y-78740000D03*
X131826000Y-78740000D03*
X134366000Y-78740000D03*
X136906000Y-78740000D03*
X139446000Y-78740000D03*
X143510000Y-78740000D03*
X161290000Y-78740000D03*
X158750000Y-78740000D03*
X156210000Y-78740000D03*
X153670000Y-78740000D03*
X151130000Y-78740000D03*
X148590000Y-78740000D03*
X146050000Y-78740000D03*
X166370000Y-78740000D03*
X168910000Y-78740000D03*
X171450000Y-78740000D03*
X173990000Y-78740000D03*
X176530000Y-78740000D03*
X179070000Y-78740000D03*
X181610000Y-78740000D03*
X184150000Y-78740000D03*
X191770000Y-78232000D03*
X194310000Y-78232000D03*
D21*
X191262000Y-81280000D03*
X194818000Y-81280000D03*
X191262000Y-83820000D03*
X194818000Y-83820000D03*
X191262000Y-86360000D03*
X194818000Y-86360000D03*
X191262000Y-88900000D03*
X194818000Y-88900000D03*
X191262000Y-91440000D03*
X194818000Y-91440000D03*
X191262000Y-93980000D03*
X194818000Y-93980000D03*
X191262000Y-96520000D03*
X194818000Y-96520000D03*
X191262000Y-99060000D03*
X194818000Y-99060000D03*
X191262000Y-101600000D03*
X194818000Y-101600000D03*
X191262000Y-104140000D03*
X194818000Y-104140000D03*
X191262000Y-106680000D03*
X194818000Y-106680000D03*
X191262000Y-109220000D03*
X194818000Y-109220000D03*
X191262000Y-111760000D03*
X194818000Y-111760000D03*
X191262000Y-114300000D03*
X194818000Y-114300000D03*
X191262000Y-116840000D03*
X194818000Y-116840000D03*
X191262000Y-119380000D03*
X194818000Y-119380000D03*
X191262000Y-121920000D03*
X194818000Y-121920000D03*
X199390000Y-114300000D03*
X199390000Y-116840000D03*
X199390000Y-111760000D03*
D22*
X207822800Y-101600000D03*
D23*
X204317600Y-101600000D03*
D24*
X198831200Y-101600000D03*
D25*
X205816200Y-97104200D03*
X205816200Y-106095800D03*
D26*
X135737600Y-90170000D03*
X169062400Y-90170000D03*
D20*
X142697200Y-88242140D03*
X145465800Y-88242140D03*
X148234400Y-88242140D03*
X151003000Y-88242140D03*
X153797000Y-88242140D03*
X156565600Y-88242140D03*
X159334200Y-88242140D03*
D27*
X162102800Y-88242140D03*
D20*
X144094200Y-92097860D03*
X146862800Y-92097860D03*
X149631400Y-92097860D03*
X152400000Y-92097860D03*
X155168600Y-92097860D03*
X157937200Y-92097860D03*
X160705800Y-92097860D03*
D26*
X135737600Y-115570000D03*
X169062400Y-115570000D03*
D20*
X142697200Y-113642140D03*
X145465800Y-113642140D03*
X148234400Y-113642140D03*
X151003000Y-113642140D03*
X153797000Y-113642140D03*
X156565600Y-113642140D03*
X159334200Y-113642140D03*
D27*
X162102800Y-113642140D03*
D20*
X144094200Y-117497860D03*
X146862800Y-117497860D03*
X149631400Y-117497860D03*
X152400000Y-117497860D03*
X155168600Y-117497860D03*
X157937200Y-117497860D03*
X160705800Y-117497860D03*
M02*
