M48
;DRILL file {KiCad 0.201508100901+6080~28~ubuntu14.04.1-product} date Mon 10 Aug 2015 02:14:24 PM EDT
;FORMAT={-:-/ absolute / inch / decimal}
FMAT,2
INCH,TZ
T1C0.025
T2C0.035
T3C0.038
T4C0.039
T5C0.040
T6C0.041
T7C0.043
T8C0.063
T9C0.090
T10C0.106
T11C0.122
T12C0.124
T13C0.130
%
G90
G05
M72
T1
X5.2523Y-4.5726
X7.0178Y-3.4399
X7.0773Y-4.7269
X7.1032Y-3.9082
X7.275Y-4.724
X7.3527Y-4.6574
X7.7657Y-3.4078
T2
X4.15Y-4.05
X4.25Y-3.95
X4.25Y-4.05
X4.25Y-4.15
T3
X7.075Y-4.375
X7.275Y-4.375
T4
X7.875Y-4.45
X7.875Y-4.55
X7.875Y-4.65
T5
X4.59Y-3.1
X4.69Y-3.1
X4.79Y-3.1
X4.89Y-3.1
X4.95Y-5.
X4.99Y-3.1
X5.05Y-5.
X5.09Y-3.1
X5.15Y-5.
X5.19Y-3.1
X5.25Y-5.
X5.29Y-3.1
X5.35Y-5.
X5.39Y-3.1
X5.45Y-5.
X5.49Y-3.1
X5.55Y-5.
X5.65Y-3.1
X5.65Y-5.
X5.75Y-3.1
X5.85Y-3.1
X5.85Y-5.
X5.95Y-3.1
X5.95Y-5.
X6.05Y-3.1
X6.05Y-5.
X6.15Y-3.1
X6.15Y-5.
X6.25Y-3.1
X6.25Y-5.
X6.35Y-3.1
X6.35Y-5.
X6.45Y-5.
X6.55Y-3.1
X6.55Y-5.
X6.65Y-3.1
X6.75Y-3.1
X6.75Y-5.
X6.85Y-3.1
X6.85Y-5.
X6.95Y-3.1
X6.95Y-5.
X7.05Y-3.1
X7.05Y-5.
X7.15Y-3.1
X7.15Y-5.
X7.25Y-3.1
X7.25Y-5.
X7.35Y-5.
X7.45Y-5.
X7.55Y-3.1
X7.55Y-3.2
X7.55Y-3.3
X7.55Y-3.4
X7.55Y-3.5
X7.55Y-3.6
X7.55Y-3.7
X7.55Y-3.8
X7.55Y-3.9
X7.55Y-4.
X7.55Y-4.1
X7.55Y-4.2
X7.55Y-4.3
X7.55Y-4.4
X7.55Y-4.5
X7.55Y-4.6
X7.55Y-4.7
X7.55Y-4.8
X7.65Y-3.1
X7.65Y-3.2
X7.65Y-3.3
X7.65Y-3.4
X7.65Y-3.5
X7.65Y-3.6
X7.65Y-3.7
X7.65Y-3.8
X7.65Y-3.9
X7.65Y-4.
X7.65Y-4.1
X7.65Y-4.2
X7.65Y-4.3
X7.65Y-4.4
X7.65Y-4.5
X7.65Y-4.6
X7.65Y-4.7
X7.65Y-4.8
T6
X4.8191Y-3.668
X4.8191Y-3.777
X4.8191Y-3.886
X4.8191Y-3.995
X4.8191Y-4.105
X4.8191Y-4.214
X4.8191Y-4.323
X4.8191Y-4.432
X4.9309Y-3.723
X4.9309Y-3.832
X4.9309Y-3.941
X4.9309Y-4.05
X4.9309Y-4.159
X4.9309Y-4.268
X4.9309Y-4.377
X5.6441Y-3.668
X5.6441Y-3.777
X5.6441Y-3.886
X5.6441Y-3.995
X5.6441Y-4.105
X5.6441Y-4.214
X5.6441Y-4.323
X5.6441Y-4.432
X5.7559Y-3.723
X5.7559Y-3.832
X5.7559Y-3.941
X5.7559Y-4.05
X5.7559Y-4.159
X5.7559Y-4.268
X5.7559Y-4.377
X6.4691Y-3.668
X6.4691Y-3.777
X6.4691Y-3.886
X6.4691Y-3.995
X6.4691Y-4.105
X6.4691Y-4.214
X6.4691Y-4.323
X6.4691Y-4.432
X6.5809Y-3.723
X6.5809Y-3.832
X6.5809Y-3.941
X6.5809Y-4.05
X6.5809Y-4.159
X6.5809Y-4.268
X6.5809Y-4.377
T7
X4.Y-3.175
X4.Y-3.5
X4.Y-4.525
X4.Y-4.85
X4.1Y-3.175
X4.1Y-3.5
X4.1Y-4.525
X4.1Y-4.85
X4.2Y-3.175
X4.2Y-3.5
X4.2Y-4.525
X4.2Y-4.85
X7.25Y-3.425
X7.25Y-3.525
T8
X8.207Y-4.05
T9
X3.9Y-3.85
X3.9Y-4.25
X7.0805Y-4.05
X7.0805Y-4.235
X7.2695Y-4.05
X7.2695Y-4.235
T10
X8.089Y-4.05
X8.128Y-3.873
X8.128Y-4.227
T11
X4.875Y-3.394
X4.875Y-4.706
X5.7Y-3.394
X5.7Y-4.706
X6.525Y-3.394
X6.525Y-4.706
T12
X7.853Y-4.05
T13
X4.4Y-5.
X4.45Y-3.1
X7.4Y-3.1
X7.65Y-5.
T0
M30
