M48
;DRILL file {kicad 0.201412071631+5313~19~ubuntu14.04.1-product} date Mon 08 Dec 2014 02:12:19 PM EST
;FORMAT={-:-/ absolute / inch / decimal}
FMAT,2
INCH,TZ
T1C0.025
T2C0.038
T3C0.039
T4C0.040
T5C0.041
T6C0.043
T7C0.063
T8C0.106
T9C0.122
T10C0.124
T11C0.130
%
G90
G05
M72
T1
X5.7549Y-4.7335
X6.2272Y-4.2644
X6.273Y-4.674
X6.8811Y-4.715
X6.9696Y-4.3416
X7.1116Y-4.4242
X7.209Y-4.424
T2
X7.95Y-3.6
X8.15Y-3.6
T3
X7.85Y-4.4
X7.85Y-4.5
X7.85Y-4.6
T4
X4.59Y-3.1
X4.69Y-3.1
X4.79Y-3.1
X4.89Y-3.1
X4.95Y-5.
X4.99Y-3.1
X5.05Y-5.
X5.09Y-3.1
X5.15Y-5.
X5.19Y-3.1
X5.25Y-5.
X5.29Y-3.1
X5.35Y-5.
X5.39Y-3.1
X5.45Y-5.
X5.49Y-3.1
X5.55Y-5.
X5.65Y-3.1
X5.65Y-5.
X5.75Y-3.1
X5.85Y-3.1
X5.85Y-5.
X5.95Y-3.1
X5.95Y-5.
X6.05Y-3.1
X6.05Y-5.
X6.15Y-3.1
X6.15Y-5.
X6.25Y-3.1
X6.25Y-5.
X6.35Y-3.1
X6.35Y-5.
X6.45Y-5.
X6.55Y-3.1
X6.55Y-5.
X6.65Y-3.1
X6.75Y-3.1
X6.75Y-5.
X6.85Y-3.1
X6.85Y-5.
X6.95Y-3.1
X6.95Y-5.
X7.05Y-3.1
X7.05Y-5.
X7.15Y-3.1
X7.15Y-5.
X7.25Y-3.1
X7.25Y-5.
X7.35Y-5.
X7.45Y-5.
X7.55Y-3.1
X7.55Y-3.2
X7.55Y-3.3
X7.55Y-3.4
X7.55Y-3.5
X7.55Y-3.6
X7.55Y-3.7
X7.55Y-3.8
X7.55Y-3.9
X7.55Y-4.
X7.55Y-4.1
X7.55Y-4.2
X7.55Y-4.3
X7.55Y-4.4
X7.55Y-4.5
X7.55Y-4.6
X7.55Y-4.7
X7.55Y-4.8
X7.65Y-3.1
X7.65Y-3.2
X7.65Y-3.3
X7.65Y-3.4
X7.65Y-3.5
X7.65Y-3.6
X7.65Y-3.7
X7.65Y-3.8
X7.65Y-3.9
X7.65Y-4.
X7.65Y-4.1
X7.65Y-4.2
X7.65Y-4.3
X7.65Y-4.4
X7.65Y-4.5
X7.65Y-4.6
X7.65Y-4.7
X7.65Y-4.8
T5
X5.618Y-3.4941
X5.618Y-4.4941
X5.673Y-3.6059
X5.673Y-4.6059
X5.727Y-3.4941
X5.727Y-4.4941
X5.782Y-3.6059
X5.782Y-4.6059
X5.836Y-3.4941
X5.836Y-4.4941
X5.891Y-3.6059
X5.891Y-4.6059
X5.945Y-3.4941
X5.945Y-4.4941
X6.Y-3.6059
X6.Y-4.6059
X6.055Y-3.4941
X6.055Y-4.4941
X6.109Y-3.6059
X6.109Y-4.6059
X6.164Y-3.4941
X6.164Y-4.4941
X6.218Y-3.6059
X6.218Y-4.6059
X6.273Y-3.4941
X6.273Y-4.4941
X6.327Y-3.6059
X6.327Y-4.6059
X6.382Y-3.4941
X6.382Y-4.4941
T6
X4.Y-4.775
X4.1Y-4.775
X4.2Y-4.775
T7
X8.182Y-4.
T8
X8.064Y-4.
X8.103Y-3.823
X8.103Y-4.177
T9
X5.344Y-3.55
X5.344Y-4.55
X6.656Y-3.55
X6.656Y-4.55
T10
X7.828Y-4.
T11
X4.4Y-5.
X4.45Y-3.1
X7.4Y-3.1
X7.65Y-5.
T0
M30
