G04 #@! TF.FileFunction,Soldermask,Top*
%FSLAX46Y46*%
G04 Gerber Fmt 4.6, Leading zero omitted, Abs format (unit mm)*
G04 Created by KiCad (PCBNEW 0.201412071631+5313~19~ubuntu14.04.1-product) date Mon 08 Dec 2014 02:11:31 PM EST*
%MOMM*%
G01*
G04 APERTURE LIST*
%ADD10C,0.100000*%
%ADD11C,0.228600*%
%ADD12R,1.498600X2.997200*%
%ADD13O,1.854200X2.540000*%
%ADD14R,1.854200X2.540000*%
%ADD15O,2.032000X1.524000*%
%ADD16C,3.937000*%
%ADD17O,1.524000X2.540000*%
%ADD18O,2.540000X1.524000*%
%ADD19C,1.930400*%
%ADD20O,4.572000X3.556000*%
%ADD21O,4.064000X5.080000*%
%ADD22O,5.080000X3.556000*%
%ADD23O,3.810000X6.350000*%
%ADD24R,1.524000X2.540000*%
G04 APERTURE END LIST*
D10*
D11*
X93980000Y-76200000D02*
X93980000Y-129540000D01*
X210820000Y-76200000D02*
X93980000Y-76200000D01*
X210820000Y-129540000D02*
X210820000Y-76200000D01*
X93980000Y-129540000D02*
X210820000Y-129540000D01*
D12*
X178435000Y-114579400D03*
X179705000Y-119100600D03*
X180975000Y-114579400D03*
X182245000Y-119100600D03*
X183515000Y-114579400D03*
X184785000Y-119100600D03*
D13*
X104140000Y-121285000D03*
X101600000Y-121285000D03*
D14*
X106680000Y-121285000D03*
D15*
X201930000Y-91440000D03*
X207010000Y-91440000D03*
D16*
X111760000Y-127000000D03*
X113030000Y-78740000D03*
X194310000Y-127000000D03*
X187960000Y-78740000D03*
D17*
X125730000Y-127000000D03*
X128270000Y-127000000D03*
X130810000Y-127000000D03*
X133350000Y-127000000D03*
X135890000Y-127000000D03*
X138430000Y-127000000D03*
X140970000Y-127000000D03*
X143510000Y-127000000D03*
X148590000Y-127000000D03*
X151130000Y-127000000D03*
X153670000Y-127000000D03*
X156210000Y-127000000D03*
X158750000Y-127000000D03*
X161290000Y-127000000D03*
X163830000Y-127000000D03*
X166370000Y-127000000D03*
X171450000Y-127000000D03*
X173990000Y-127000000D03*
X176530000Y-127000000D03*
X179070000Y-127000000D03*
X181610000Y-127000000D03*
X184150000Y-127000000D03*
X186690000Y-127000000D03*
X189230000Y-127000000D03*
X116586000Y-78740000D03*
X119126000Y-78740000D03*
X121666000Y-78740000D03*
X124206000Y-78740000D03*
X126746000Y-78740000D03*
X129286000Y-78740000D03*
X131826000Y-78740000D03*
X134366000Y-78740000D03*
X136906000Y-78740000D03*
X139446000Y-78740000D03*
X143510000Y-78740000D03*
X161290000Y-78740000D03*
X158750000Y-78740000D03*
X156210000Y-78740000D03*
X153670000Y-78740000D03*
X151130000Y-78740000D03*
X148590000Y-78740000D03*
X146050000Y-78740000D03*
X166370000Y-78740000D03*
X168910000Y-78740000D03*
X171450000Y-78740000D03*
X173990000Y-78740000D03*
X176530000Y-78740000D03*
X179070000Y-78740000D03*
X181610000Y-78740000D03*
X184150000Y-78740000D03*
X191770000Y-78232000D03*
X194310000Y-78232000D03*
D18*
X191262000Y-81280000D03*
X194818000Y-81280000D03*
X191262000Y-83820000D03*
X194818000Y-83820000D03*
X191262000Y-86360000D03*
X194818000Y-86360000D03*
X191262000Y-88900000D03*
X194818000Y-88900000D03*
X191262000Y-91440000D03*
X194818000Y-91440000D03*
X191262000Y-93980000D03*
X194818000Y-93980000D03*
X191262000Y-96520000D03*
X194818000Y-96520000D03*
X191262000Y-99060000D03*
X194818000Y-99060000D03*
X191262000Y-101600000D03*
X194818000Y-101600000D03*
X191262000Y-104140000D03*
X194818000Y-104140000D03*
X191262000Y-106680000D03*
X194818000Y-106680000D03*
X191262000Y-109220000D03*
X194818000Y-109220000D03*
X191262000Y-111760000D03*
X194818000Y-111760000D03*
X191262000Y-114300000D03*
X194818000Y-114300000D03*
X191262000Y-116840000D03*
X194818000Y-116840000D03*
X191262000Y-119380000D03*
X194818000Y-119380000D03*
X191262000Y-121920000D03*
X194818000Y-121920000D03*
X199390000Y-114300000D03*
X199390000Y-116840000D03*
X199390000Y-111760000D03*
D19*
X207822800Y-101600000D03*
D20*
X204317600Y-101600000D03*
D21*
X198831200Y-101600000D03*
D22*
X205816200Y-97104200D03*
X205816200Y-106095800D03*
D23*
X135737600Y-90170000D03*
X169062400Y-90170000D03*
D17*
X142697200Y-88242140D03*
X145465800Y-88242140D03*
X148234400Y-88242140D03*
X151003000Y-88242140D03*
X153797000Y-88242140D03*
X156565600Y-88242140D03*
X159334200Y-88242140D03*
D24*
X162102800Y-88242140D03*
D17*
X144094200Y-92097860D03*
X146862800Y-92097860D03*
X149631400Y-92097860D03*
X152400000Y-92097860D03*
X155168600Y-92097860D03*
X157937200Y-92097860D03*
X160705800Y-92097860D03*
D23*
X135737600Y-115570000D03*
X169062400Y-115570000D03*
D17*
X142697200Y-113642140D03*
X145465800Y-113642140D03*
X148234400Y-113642140D03*
X151003000Y-113642140D03*
X153797000Y-113642140D03*
X156565600Y-113642140D03*
X159334200Y-113642140D03*
D24*
X162102800Y-113642140D03*
D17*
X144094200Y-117497860D03*
X146862800Y-117497860D03*
X149631400Y-117497860D03*
X152400000Y-117497860D03*
X155168600Y-117497860D03*
X157937200Y-117497860D03*
X160705800Y-117497860D03*
M02*
