M48
;DRILL file {kicad 0.201501112116+5365~20~ubuntu14.04.1-product} date Fri 16 Jan 2015 04:47:58 PM EST
;FORMAT={-:-/ absolute / inch / decimal}
FMAT,2
INCH,TZ
T1C0.025
T2C0.038
T3C0.039
T4C0.040
T5C0.041
T6C0.043
T7C0.063
T8C0.090
T9C0.106
T10C0.122
T11C0.124
T12C0.130
%
G90
G05
M72
T1
X4.5174Y-4.3439
X6.3655Y-4.3955
X7.0179Y-4.0855
X7.175Y-4.9031
X7.2097Y-4.549
X7.275Y-4.9017
X7.5234Y-4.8933
X7.7359Y-3.2434
T2
X7.375Y-3.95
X7.375Y-4.15
T3
X7.875Y-4.45
X7.875Y-4.55
X7.875Y-4.65
T4
X4.59Y-3.1
X4.69Y-3.1
X4.79Y-3.1
X4.89Y-3.1
X4.95Y-5.
X4.99Y-3.1
X5.05Y-5.
X5.09Y-3.1
X5.15Y-5.
X5.19Y-3.1
X5.25Y-5.
X5.29Y-3.1
X5.35Y-5.
X5.39Y-3.1
X5.45Y-5.
X5.49Y-3.1
X5.55Y-5.
X5.65Y-3.1
X5.65Y-5.
X5.75Y-3.1
X5.85Y-3.1
X5.85Y-5.
X5.95Y-3.1
X5.95Y-5.
X6.05Y-3.1
X6.05Y-5.
X6.15Y-3.1
X6.15Y-5.
X6.25Y-3.1
X6.25Y-5.
X6.35Y-3.1
X6.35Y-5.
X6.45Y-5.
X6.55Y-3.1
X6.55Y-5.
X6.65Y-3.1
X6.75Y-3.1
X6.75Y-5.
X6.85Y-3.1
X6.85Y-5.
X6.95Y-3.1
X6.95Y-5.
X7.05Y-3.1
X7.05Y-5.
X7.15Y-3.1
X7.15Y-5.
X7.25Y-3.1
X7.25Y-5.
X7.35Y-5.
X7.45Y-5.
X7.55Y-3.1
X7.55Y-3.2
X7.55Y-3.3
X7.55Y-3.4
X7.55Y-3.5
X7.55Y-3.6
X7.55Y-3.7
X7.55Y-3.8
X7.55Y-3.9
X7.55Y-4.
X7.55Y-4.1
X7.55Y-4.2
X7.55Y-4.3
X7.55Y-4.4
X7.55Y-4.5
X7.55Y-4.6
X7.55Y-4.7
X7.55Y-4.8
X7.65Y-3.1
X7.65Y-3.2
X7.65Y-3.3
X7.65Y-3.4
X7.65Y-3.5
X7.65Y-3.6
X7.65Y-3.7
X7.65Y-3.8
X7.65Y-3.9
X7.65Y-4.
X7.65Y-4.1
X7.65Y-4.2
X7.65Y-4.3
X7.65Y-4.4
X7.65Y-4.5
X7.65Y-4.6
X7.65Y-4.7
X7.65Y-4.8
T5
X4.8191Y-3.668
X4.8191Y-3.777
X4.8191Y-3.886
X4.8191Y-3.995
X4.8191Y-4.105
X4.8191Y-4.214
X4.8191Y-4.323
X4.8191Y-4.432
X4.9309Y-3.723
X4.9309Y-3.832
X4.9309Y-3.941
X4.9309Y-4.05
X4.9309Y-4.159
X4.9309Y-4.268
X4.9309Y-4.377
X5.6441Y-3.668
X5.6441Y-3.777
X5.6441Y-3.886
X5.6441Y-3.995
X5.6441Y-4.105
X5.6441Y-4.214
X5.6441Y-4.323
X5.6441Y-4.432
X5.7559Y-3.723
X5.7559Y-3.832
X5.7559Y-3.941
X5.7559Y-4.05
X5.7559Y-4.159
X5.7559Y-4.268
X5.7559Y-4.377
X6.4691Y-3.668
X6.4691Y-3.777
X6.4691Y-3.886
X6.4691Y-3.995
X6.4691Y-4.105
X6.4691Y-4.214
X6.4691Y-4.323
X6.4691Y-4.432
X6.5809Y-3.723
X6.5809Y-3.832
X6.5809Y-3.941
X6.5809Y-4.05
X6.5809Y-4.159
X6.5809Y-4.268
X6.5809Y-4.377
T6
X4.Y-3.3
X4.Y-3.8
X4.Y-4.3
X4.Y-4.8
X4.1Y-3.3
X4.1Y-3.8
X4.1Y-4.3
X4.1Y-4.8
X4.2Y-3.3
X4.2Y-3.8
X4.2Y-4.3
X4.2Y-4.8
X7.25Y-3.425
X7.25Y-3.525
T7
X8.207Y-4.05
T8
X7.15Y-4.05
X7.15Y-4.235
T9
X8.089Y-4.05
X8.128Y-3.873
X8.128Y-4.227
T10
X4.875Y-3.394
X4.875Y-4.706
X5.7Y-3.394
X5.7Y-4.706
X6.525Y-3.394
X6.525Y-4.706
T11
X7.853Y-4.05
T12
X4.4Y-5.
X4.45Y-3.1
X7.4Y-3.1
X7.65Y-5.
T0
M30
