G04 #@! TF.FileFunction,Copper,L1,Top,Signal*
%FSLAX46Y46*%
G04 Gerber Fmt 4.6, Leading zero omitted, Abs format (unit mm)*
G04 Created by KiCad (PCBNEW 0.201412071631+5313~19~ubuntu14.04.1-product) date Mon 08 Dec 2014 02:11:31 PM EST*
%MOMM*%
G01*
G04 APERTURE LIST*
%ADD10C,0.100000*%
%ADD11C,0.228600*%
%ADD12R,1.498600X2.997200*%
%ADD13O,1.854200X2.540000*%
%ADD14R,1.854200X2.540000*%
%ADD15O,2.032000X1.524000*%
%ADD16C,3.937000*%
%ADD17O,1.524000X2.540000*%
%ADD18O,2.540000X1.524000*%
%ADD19C,1.930400*%
%ADD20O,4.572000X3.556000*%
%ADD21O,4.064000X5.080000*%
%ADD22O,5.080000X3.556000*%
%ADD23O,3.810000X6.350000*%
%ADD24R,1.524000X2.540000*%
%ADD25C,0.889000*%
%ADD26C,0.812800*%
%ADD27C,0.609600*%
%ADD28C,0.406400*%
%ADD29C,0.203200*%
G04 APERTURE END LIST*
D10*
D11*
X93980000Y-76200000D02*
X93980000Y-129540000D01*
X210820000Y-76200000D02*
X93980000Y-76200000D01*
X210820000Y-129540000D02*
X210820000Y-76200000D01*
X93980000Y-129540000D02*
X210820000Y-129540000D01*
D12*
X178435000Y-114579400D03*
X179705000Y-119100600D03*
X180975000Y-114579400D03*
X182245000Y-119100600D03*
X183515000Y-114579400D03*
X184785000Y-119100600D03*
D13*
X104140000Y-121285000D03*
X101600000Y-121285000D03*
D14*
X106680000Y-121285000D03*
D15*
X201930000Y-91440000D03*
X207010000Y-91440000D03*
D16*
X111760000Y-127000000D03*
X113030000Y-78740000D03*
X194310000Y-127000000D03*
X187960000Y-78740000D03*
D17*
X125730000Y-127000000D03*
X128270000Y-127000000D03*
X130810000Y-127000000D03*
X133350000Y-127000000D03*
X135890000Y-127000000D03*
X138430000Y-127000000D03*
X140970000Y-127000000D03*
X143510000Y-127000000D03*
X148590000Y-127000000D03*
X151130000Y-127000000D03*
X153670000Y-127000000D03*
X156210000Y-127000000D03*
X158750000Y-127000000D03*
X161290000Y-127000000D03*
X163830000Y-127000000D03*
X166370000Y-127000000D03*
X171450000Y-127000000D03*
X173990000Y-127000000D03*
X176530000Y-127000000D03*
X179070000Y-127000000D03*
X181610000Y-127000000D03*
X184150000Y-127000000D03*
X186690000Y-127000000D03*
X189230000Y-127000000D03*
X116586000Y-78740000D03*
X119126000Y-78740000D03*
X121666000Y-78740000D03*
X124206000Y-78740000D03*
X126746000Y-78740000D03*
X129286000Y-78740000D03*
X131826000Y-78740000D03*
X134366000Y-78740000D03*
X136906000Y-78740000D03*
X139446000Y-78740000D03*
X143510000Y-78740000D03*
X161290000Y-78740000D03*
X158750000Y-78740000D03*
X156210000Y-78740000D03*
X153670000Y-78740000D03*
X151130000Y-78740000D03*
X148590000Y-78740000D03*
X146050000Y-78740000D03*
X166370000Y-78740000D03*
X168910000Y-78740000D03*
X171450000Y-78740000D03*
X173990000Y-78740000D03*
X176530000Y-78740000D03*
X179070000Y-78740000D03*
X181610000Y-78740000D03*
X184150000Y-78740000D03*
X191770000Y-78232000D03*
X194310000Y-78232000D03*
D18*
X191262000Y-81280000D03*
X194818000Y-81280000D03*
X191262000Y-83820000D03*
X194818000Y-83820000D03*
X191262000Y-86360000D03*
X194818000Y-86360000D03*
X191262000Y-88900000D03*
X194818000Y-88900000D03*
X191262000Y-91440000D03*
X194818000Y-91440000D03*
X191262000Y-93980000D03*
X194818000Y-93980000D03*
X191262000Y-96520000D03*
X194818000Y-96520000D03*
X191262000Y-99060000D03*
X194818000Y-99060000D03*
X191262000Y-101600000D03*
X194818000Y-101600000D03*
X191262000Y-104140000D03*
X194818000Y-104140000D03*
X191262000Y-106680000D03*
X194818000Y-106680000D03*
X191262000Y-109220000D03*
X194818000Y-109220000D03*
X191262000Y-111760000D03*
X194818000Y-111760000D03*
X191262000Y-114300000D03*
X194818000Y-114300000D03*
X191262000Y-116840000D03*
X194818000Y-116840000D03*
X191262000Y-119380000D03*
X194818000Y-119380000D03*
X191262000Y-121920000D03*
X194818000Y-121920000D03*
X199390000Y-114300000D03*
X199390000Y-116840000D03*
X199390000Y-111760000D03*
D19*
X207822800Y-101600000D03*
D20*
X204317600Y-101600000D03*
D21*
X198831200Y-101600000D03*
D22*
X205816200Y-97104200D03*
X205816200Y-106095800D03*
D23*
X135737600Y-90170000D03*
X169062400Y-90170000D03*
D17*
X142697200Y-88242140D03*
X145465800Y-88242140D03*
X148234400Y-88242140D03*
X151003000Y-88242140D03*
X153797000Y-88242140D03*
X156565600Y-88242140D03*
X159334200Y-88242140D03*
D24*
X162102800Y-88242140D03*
D17*
X144094200Y-92097860D03*
X146862800Y-92097860D03*
X149631400Y-92097860D03*
X152400000Y-92097860D03*
X155168600Y-92097860D03*
X157937200Y-92097860D03*
X160705800Y-92097860D03*
D23*
X135737600Y-115570000D03*
X169062400Y-115570000D03*
D17*
X142697200Y-113642140D03*
X145465800Y-113642140D03*
X148234400Y-113642140D03*
X151003000Y-113642140D03*
X153797000Y-113642140D03*
X156565600Y-113642140D03*
X159334200Y-113642140D03*
D24*
X162102800Y-113642140D03*
D17*
X144094200Y-117497860D03*
X146862800Y-117497860D03*
X149631400Y-117497860D03*
X152400000Y-117497860D03*
X155168600Y-117497860D03*
X157937200Y-117497860D03*
X160705800Y-117497860D03*
D25*
X174779000Y-119761900D03*
X146175600Y-120231700D03*
X180634300Y-112375600D03*
X177029000Y-110277800D03*
X183107600Y-112370700D03*
X159334200Y-118719700D03*
X158171500Y-108315500D03*
D26*
X145465800Y-114150100D02*
X145465800Y-115572800D01*
X145465800Y-115572800D02*
X144876500Y-115572800D01*
X144876500Y-115572800D02*
X144788800Y-115485100D01*
X144788800Y-115485100D02*
X143562000Y-115485100D01*
X143562000Y-115485100D02*
X142653100Y-116394000D01*
X142653100Y-116394000D02*
X142653100Y-118584500D01*
X142653100Y-118584500D02*
X147424700Y-123356100D01*
X147424700Y-123356100D02*
X195933800Y-123356100D01*
X195933800Y-123356100D02*
X197104000Y-122185900D01*
X197104000Y-122185900D02*
X197104000Y-114046000D01*
X197104000Y-114046000D02*
X199390000Y-111760000D01*
X198831200Y-101600000D02*
X201930000Y-98501200D01*
X201930000Y-98501200D02*
X201930000Y-91440000D01*
D27*
X207010000Y-91440000D02*
X207010000Y-92761100D01*
X204825600Y-101600000D02*
X205398000Y-101600000D01*
X205398000Y-101600000D02*
X208927300Y-98070700D01*
X208927300Y-98070700D02*
X208927300Y-94678400D01*
X208927300Y-94678400D02*
X207010000Y-92761100D01*
X178435000Y-114579400D02*
X178435000Y-112521700D01*
X162102800Y-114150100D02*
X162102800Y-111813000D01*
X162102800Y-111813000D02*
X177726300Y-111813000D01*
X177726300Y-111813000D02*
X178435000Y-112521700D01*
X157937200Y-116989900D02*
X157937200Y-115668800D01*
X157937200Y-115668800D02*
X156763200Y-115668800D01*
X156763200Y-115668800D02*
X156565600Y-115471200D01*
X104140000Y-121285000D02*
X104140000Y-123114100D01*
X104140000Y-123114100D02*
X136373200Y-123114100D01*
X136373200Y-123114100D02*
X138430000Y-125170900D01*
X138430000Y-127000000D02*
X138430000Y-125170900D01*
X140970000Y-127000000D02*
X140970000Y-125170900D01*
X140970000Y-125170900D02*
X138430000Y-125170900D01*
X178435000Y-114579400D02*
X178435000Y-116637100D01*
X179705000Y-119100600D02*
X179705000Y-117042900D01*
X179705000Y-117042900D02*
X179299200Y-116637100D01*
X179299200Y-116637100D02*
X178435000Y-116637100D01*
X151003000Y-114150100D02*
X151003000Y-115471200D01*
X156565600Y-114150100D02*
X156565600Y-115471200D01*
X156565600Y-115471200D02*
X151003000Y-115471200D01*
D28*
X143510000Y-127000000D02*
X143510000Y-125272500D01*
X199390000Y-116840000D02*
X199390000Y-121121700D01*
X199390000Y-121121700D02*
X195999200Y-124512500D01*
X195999200Y-124512500D02*
X144270000Y-124512500D01*
X144270000Y-124512500D02*
X143510000Y-125272500D01*
D26*
X174779000Y-119761900D02*
X176277000Y-121259900D01*
X176277000Y-121259900D02*
X184785000Y-121259900D01*
X146175600Y-120231700D02*
X174309200Y-120231700D01*
X174309200Y-120231700D02*
X174779000Y-119761900D01*
X184785000Y-119100600D02*
X184785000Y-121259900D01*
X101600000Y-121285000D02*
X101600000Y-123215700D01*
X135890000Y-127000000D02*
X135890000Y-125069300D01*
X135890000Y-125069300D02*
X135154700Y-124334000D01*
X135154700Y-124334000D02*
X102718300Y-124334000D01*
X102718300Y-124334000D02*
X101600000Y-123215700D01*
D28*
X180975000Y-114579400D02*
X180975000Y-112623300D01*
X180975000Y-112623300D02*
X180882000Y-112623300D01*
X180882000Y-112623300D02*
X180634300Y-112375600D01*
X182245000Y-119100600D02*
X182245000Y-117144500D01*
X177029000Y-110277800D02*
X179862100Y-110277800D01*
X179862100Y-110277800D02*
X182181900Y-112597600D01*
X182181900Y-112597600D02*
X182181900Y-117081400D01*
X182181900Y-117081400D02*
X182245000Y-117144500D01*
X183515000Y-114579400D02*
X183515000Y-112623300D01*
X183515000Y-112623300D02*
X183360200Y-112623300D01*
X183360200Y-112623300D02*
X183107600Y-112370700D01*
X153797000Y-88750100D02*
X153797000Y-86514600D01*
X153797000Y-86514600D02*
X159031600Y-81280000D01*
X159031600Y-81280000D02*
X191770000Y-81280000D01*
X152400000Y-90370400D02*
X163587700Y-90370400D01*
X163587700Y-90370400D02*
X171408100Y-82550000D01*
X171408100Y-82550000D02*
X192325800Y-82550000D01*
X192325800Y-82550000D02*
X193090500Y-81785300D01*
X193090500Y-81785300D02*
X193090500Y-81280000D01*
X194310000Y-81280000D02*
X193090500Y-81280000D01*
X152400000Y-91589900D02*
X152400000Y-90370400D01*
X189534500Y-83820000D02*
X181391400Y-83820000D01*
X181391400Y-83820000D02*
X153797000Y-111414400D01*
X153797000Y-111414400D02*
X153797000Y-111914600D01*
X191770000Y-83820000D02*
X189534500Y-83820000D01*
X153797000Y-114150100D02*
X153797000Y-111914600D01*
X159334200Y-114150100D02*
X159334200Y-118719700D01*
X194310000Y-83820000D02*
X193090500Y-83820000D01*
X158171500Y-108315500D02*
X181397000Y-85090000D01*
X181397000Y-85090000D02*
X192325800Y-85090000D01*
X192325800Y-85090000D02*
X193090500Y-84325300D01*
X193090500Y-84325300D02*
X193090500Y-83820000D01*
X184150000Y-78740000D02*
X184150000Y-80467500D01*
X116586000Y-78740000D02*
X116586000Y-80467500D01*
X116586000Y-80467500D02*
X184150000Y-80467500D01*
X119126000Y-78740000D02*
X119126000Y-77012500D01*
X181610000Y-78740000D02*
X181610000Y-77012500D01*
X181610000Y-77012500D02*
X119126000Y-77012500D01*
D29*
G36*
X210400900Y-129120900D02*
X209587700Y-129120900D01*
X209587700Y-98070700D01*
X209587700Y-94678400D01*
X209537430Y-94425676D01*
X209394274Y-94211427D01*
X207670400Y-92487553D01*
X207670400Y-92482107D01*
X207718558Y-92472528D01*
X208081134Y-92230263D01*
X208323399Y-91867687D01*
X208408471Y-91440000D01*
X208323399Y-91012313D01*
X208081134Y-90649737D01*
X207718558Y-90407472D01*
X207290871Y-90322400D01*
X206729129Y-90322400D01*
X206301442Y-90407472D01*
X205938866Y-90649737D01*
X205696601Y-91012313D01*
X205611529Y-91440000D01*
X205696601Y-91867687D01*
X205938866Y-92230263D01*
X206301442Y-92472528D01*
X206349600Y-92482107D01*
X206349600Y-92761100D01*
X206399870Y-93013824D01*
X206543027Y-93228073D01*
X208266900Y-94951946D01*
X208266900Y-95780032D01*
X208143611Y-95595517D01*
X207451421Y-95133011D01*
X206634928Y-94970600D01*
X204997472Y-94970600D01*
X204180979Y-95133011D01*
X203506484Y-95583693D01*
X203506484Y-91803761D01*
X203506484Y-91076239D01*
X203499454Y-91019701D01*
X203238480Y-90548292D01*
X202816970Y-90212637D01*
X202299096Y-90063837D01*
X202082400Y-90215175D01*
X202082400Y-91287600D01*
X203393637Y-91287600D01*
X203506484Y-91076239D01*
X203506484Y-91803761D01*
X203393637Y-91592400D01*
X202082400Y-91592400D01*
X202082400Y-92664825D01*
X202299096Y-92816163D01*
X202816970Y-92667363D01*
X203238480Y-92331708D01*
X203499454Y-91860299D01*
X203506484Y-91803761D01*
X203506484Y-95583693D01*
X203488789Y-95595517D01*
X203026283Y-96287707D01*
X202863872Y-97104200D01*
X203026283Y-97920693D01*
X203488789Y-98612883D01*
X204180979Y-99075389D01*
X204997472Y-99237800D01*
X206634928Y-99237800D01*
X206873760Y-99190293D01*
X206138280Y-99925773D01*
X205693845Y-99628811D01*
X204877352Y-99466400D01*
X203757848Y-99466400D01*
X202941355Y-99628811D01*
X202249165Y-100091317D01*
X201786659Y-100783507D01*
X201777600Y-100829049D01*
X201777600Y-92664825D01*
X201777600Y-91592400D01*
X201777600Y-91287600D01*
X201777600Y-90215175D01*
X201560904Y-90063837D01*
X201043030Y-90212637D01*
X200621520Y-90548292D01*
X200360546Y-91019701D01*
X200353516Y-91076239D01*
X200466363Y-91287600D01*
X201777600Y-91287600D01*
X201777600Y-91592400D01*
X200466363Y-91592400D01*
X200353516Y-91803761D01*
X200360546Y-91860299D01*
X200621520Y-92331708D01*
X201043030Y-92667363D01*
X201560904Y-92816163D01*
X201777600Y-92664825D01*
X201777600Y-100829049D01*
X201624248Y-101600000D01*
X201786659Y-102416493D01*
X202249165Y-103108683D01*
X202941355Y-103571189D01*
X203757848Y-103733600D01*
X204877352Y-103733600D01*
X205693845Y-103571189D01*
X206386035Y-103108683D01*
X206817691Y-102462662D01*
X207073650Y-102719067D01*
X207558924Y-102920570D01*
X208084371Y-102921029D01*
X208569996Y-102720373D01*
X208941867Y-102349150D01*
X209143370Y-101863876D01*
X209143829Y-101338429D01*
X208943173Y-100852804D01*
X208571950Y-100480933D01*
X208086676Y-100279430D01*
X207652894Y-100279051D01*
X209394273Y-98537673D01*
X209537430Y-98323424D01*
X209587700Y-98070700D01*
X209587700Y-129120900D01*
X208768528Y-129120900D01*
X208768528Y-106095800D01*
X208606117Y-105279307D01*
X208143611Y-104587117D01*
X207451421Y-104124611D01*
X206634928Y-103962200D01*
X204997472Y-103962200D01*
X204180979Y-104124611D01*
X203488789Y-104587117D01*
X203026283Y-105279307D01*
X202863872Y-106095800D01*
X203026283Y-106912293D01*
X203488789Y-107604483D01*
X204180979Y-108066989D01*
X204997472Y-108229400D01*
X206634928Y-108229400D01*
X207451421Y-108066989D01*
X208143611Y-107604483D01*
X208606117Y-106912293D01*
X208768528Y-106095800D01*
X208768528Y-129120900D01*
X201472800Y-129120900D01*
X201472800Y-102260400D01*
X201472800Y-101752400D01*
X201472800Y-101447600D01*
X201472800Y-100939600D01*
X201213399Y-99940304D01*
X200591330Y-99116344D01*
X199701297Y-98593159D01*
X199394273Y-98511109D01*
X198983600Y-98607470D01*
X198983600Y-101447600D01*
X201472800Y-101447600D01*
X201472800Y-101752400D01*
X198983600Y-101752400D01*
X198983600Y-104592530D01*
X199394273Y-104688891D01*
X199701297Y-104606841D01*
X200591330Y-104083656D01*
X201213399Y-103259696D01*
X201472800Y-102260400D01*
X201472800Y-129120900D01*
X201220484Y-129120900D01*
X201220484Y-112123761D01*
X201220484Y-111396239D01*
X200975631Y-110897896D01*
X200563688Y-110551128D01*
X200050400Y-110388400D01*
X199542400Y-110388400D01*
X199542400Y-111607600D01*
X201107637Y-111607600D01*
X201220484Y-111396239D01*
X201220484Y-112123761D01*
X201107637Y-111912400D01*
X199542400Y-111912400D01*
X199542400Y-113131600D01*
X200050400Y-113131600D01*
X200563688Y-112968872D01*
X200975631Y-112622104D01*
X201220484Y-112123761D01*
X201220484Y-129120900D01*
X195263020Y-129120900D01*
X195624777Y-128971425D01*
X196279127Y-128318216D01*
X196633696Y-127464320D01*
X196634503Y-126539736D01*
X196281425Y-125685223D01*
X195668572Y-125071300D01*
X195999200Y-125071300D01*
X196213043Y-125028764D01*
X196213044Y-125028764D01*
X196394331Y-124907631D01*
X199785131Y-121516832D01*
X199785131Y-121516831D01*
X199845697Y-121426187D01*
X199906264Y-121335544D01*
X199906264Y-121335543D01*
X199948799Y-121121700D01*
X199948800Y-121121700D01*
X199948800Y-117953830D01*
X200357534Y-117872528D01*
X200720110Y-117630263D01*
X200962375Y-117267687D01*
X201047447Y-116840000D01*
X201047447Y-114300000D01*
X200962375Y-113872313D01*
X200720110Y-113509737D01*
X200357534Y-113267472D01*
X199929847Y-113182400D01*
X199237600Y-113182400D01*
X199237600Y-113131600D01*
X199237600Y-111912400D01*
X199237600Y-111607600D01*
X199237600Y-110388400D01*
X198729600Y-110388400D01*
X198678800Y-110404505D01*
X198678800Y-104592530D01*
X198678800Y-101752400D01*
X198658800Y-101752400D01*
X198658800Y-101447600D01*
X198678800Y-101447600D01*
X198678800Y-98607470D01*
X198268127Y-98511109D01*
X197961103Y-98593159D01*
X197071070Y-99116344D01*
X196475447Y-99905275D01*
X196475447Y-99060000D01*
X196475447Y-96520000D01*
X196475447Y-93980000D01*
X196475447Y-91440000D01*
X196475447Y-88900000D01*
X196475447Y-86360000D01*
X196390375Y-85932313D01*
X196148110Y-85569737D01*
X195785534Y-85327472D01*
X195357847Y-85242400D01*
X194278153Y-85242400D01*
X193850466Y-85327472D01*
X193487890Y-85569737D01*
X193245625Y-85932313D01*
X193160553Y-86360000D01*
X193245625Y-86787687D01*
X193487890Y-87150263D01*
X193850466Y-87392528D01*
X194278153Y-87477600D01*
X195357847Y-87477600D01*
X195785534Y-87392528D01*
X196148110Y-87150263D01*
X196390375Y-86787687D01*
X196475447Y-86360000D01*
X196475447Y-88900000D01*
X196390375Y-88472313D01*
X196148110Y-88109737D01*
X195785534Y-87867472D01*
X195357847Y-87782400D01*
X194278153Y-87782400D01*
X193850466Y-87867472D01*
X193487890Y-88109737D01*
X193245625Y-88472313D01*
X193160553Y-88900000D01*
X193245625Y-89327687D01*
X193487890Y-89690263D01*
X193850466Y-89932528D01*
X194278153Y-90017600D01*
X195357847Y-90017600D01*
X195785534Y-89932528D01*
X196148110Y-89690263D01*
X196390375Y-89327687D01*
X196475447Y-88900000D01*
X196475447Y-91440000D01*
X196390375Y-91012313D01*
X196148110Y-90649737D01*
X195785534Y-90407472D01*
X195357847Y-90322400D01*
X194278153Y-90322400D01*
X193850466Y-90407472D01*
X193487890Y-90649737D01*
X193245625Y-91012313D01*
X193160553Y-91440000D01*
X193245625Y-91867687D01*
X193487890Y-92230263D01*
X193850466Y-92472528D01*
X194278153Y-92557600D01*
X195357847Y-92557600D01*
X195785534Y-92472528D01*
X196148110Y-92230263D01*
X196390375Y-91867687D01*
X196475447Y-91440000D01*
X196475447Y-93980000D01*
X196390375Y-93552313D01*
X196148110Y-93189737D01*
X195785534Y-92947472D01*
X195357847Y-92862400D01*
X194278153Y-92862400D01*
X193850466Y-92947472D01*
X193487890Y-93189737D01*
X193245625Y-93552313D01*
X193160553Y-93980000D01*
X193245625Y-94407687D01*
X193487890Y-94770263D01*
X193850466Y-95012528D01*
X194278153Y-95097600D01*
X195357847Y-95097600D01*
X195785534Y-95012528D01*
X196148110Y-94770263D01*
X196390375Y-94407687D01*
X196475447Y-93980000D01*
X196475447Y-96520000D01*
X196390375Y-96092313D01*
X196148110Y-95729737D01*
X195785534Y-95487472D01*
X195357847Y-95402400D01*
X194278153Y-95402400D01*
X193850466Y-95487472D01*
X193487890Y-95729737D01*
X193245625Y-96092313D01*
X193160553Y-96520000D01*
X193245625Y-96947687D01*
X193487890Y-97310263D01*
X193850466Y-97552528D01*
X194278153Y-97637600D01*
X195357847Y-97637600D01*
X195785534Y-97552528D01*
X196148110Y-97310263D01*
X196390375Y-96947687D01*
X196475447Y-96520000D01*
X196475447Y-99060000D01*
X196390375Y-98632313D01*
X196148110Y-98269737D01*
X195785534Y-98027472D01*
X195357847Y-97942400D01*
X194278153Y-97942400D01*
X193850466Y-98027472D01*
X193487890Y-98269737D01*
X193245625Y-98632313D01*
X193160553Y-99060000D01*
X193245625Y-99487687D01*
X193487890Y-99850263D01*
X193850466Y-100092528D01*
X194278153Y-100177600D01*
X195357847Y-100177600D01*
X195785534Y-100092528D01*
X196148110Y-99850263D01*
X196390375Y-99487687D01*
X196475447Y-99060000D01*
X196475447Y-99905275D01*
X196449001Y-99940304D01*
X196202269Y-100890792D01*
X196148110Y-100809737D01*
X195785534Y-100567472D01*
X195357847Y-100482400D01*
X194278153Y-100482400D01*
X193850466Y-100567472D01*
X193487890Y-100809737D01*
X193245625Y-101172313D01*
X193160553Y-101600000D01*
X193245625Y-102027687D01*
X193487890Y-102390263D01*
X193850466Y-102632528D01*
X194278153Y-102717600D01*
X195357847Y-102717600D01*
X195785534Y-102632528D01*
X196148110Y-102390263D01*
X196202269Y-102309207D01*
X196449001Y-103259696D01*
X197071070Y-104083656D01*
X197961103Y-104606841D01*
X198268127Y-104688891D01*
X198678800Y-104592530D01*
X198678800Y-110404505D01*
X198216312Y-110551128D01*
X197804369Y-110897896D01*
X197559516Y-111396239D01*
X197672363Y-111607600D01*
X199237600Y-111607600D01*
X199237600Y-111912400D01*
X197672363Y-111912400D01*
X197559516Y-112123761D01*
X197804369Y-112622104D01*
X198216312Y-112968872D01*
X198729600Y-113131600D01*
X199237600Y-113131600D01*
X199237600Y-113182400D01*
X198850153Y-113182400D01*
X198422466Y-113267472D01*
X198059890Y-113509737D01*
X197817625Y-113872313D01*
X197732553Y-114300000D01*
X197817625Y-114727687D01*
X198059890Y-115090263D01*
X198422466Y-115332528D01*
X198850153Y-115417600D01*
X199929847Y-115417600D01*
X200357534Y-115332528D01*
X200720110Y-115090263D01*
X200962375Y-114727687D01*
X201047447Y-114300000D01*
X201047447Y-116840000D01*
X200962375Y-116412313D01*
X200720110Y-116049737D01*
X200357534Y-115807472D01*
X199929847Y-115722400D01*
X198850153Y-115722400D01*
X198422466Y-115807472D01*
X198059890Y-116049737D01*
X197817625Y-116412313D01*
X197732553Y-116840000D01*
X197817625Y-117267687D01*
X198059890Y-117630263D01*
X198422466Y-117872528D01*
X198831200Y-117953830D01*
X198831200Y-120890237D01*
X196475447Y-123245990D01*
X196475447Y-121920000D01*
X196475447Y-119380000D01*
X196475447Y-116840000D01*
X196475447Y-114300000D01*
X196475447Y-111760000D01*
X196475447Y-109220000D01*
X196475447Y-106680000D01*
X196475447Y-104140000D01*
X196390375Y-103712313D01*
X196148110Y-103349737D01*
X195785534Y-103107472D01*
X195357847Y-103022400D01*
X194278153Y-103022400D01*
X193850466Y-103107472D01*
X193487890Y-103349737D01*
X193245625Y-103712313D01*
X193160553Y-104140000D01*
X193245625Y-104567687D01*
X193487890Y-104930263D01*
X193850466Y-105172528D01*
X194278153Y-105257600D01*
X195357847Y-105257600D01*
X195785534Y-105172528D01*
X196148110Y-104930263D01*
X196390375Y-104567687D01*
X196475447Y-104140000D01*
X196475447Y-106680000D01*
X196390375Y-106252313D01*
X196148110Y-105889737D01*
X195785534Y-105647472D01*
X195357847Y-105562400D01*
X194278153Y-105562400D01*
X193850466Y-105647472D01*
X193487890Y-105889737D01*
X193245625Y-106252313D01*
X193160553Y-106680000D01*
X193245625Y-107107687D01*
X193487890Y-107470263D01*
X193850466Y-107712528D01*
X194278153Y-107797600D01*
X195357847Y-107797600D01*
X195785534Y-107712528D01*
X196148110Y-107470263D01*
X196390375Y-107107687D01*
X196475447Y-106680000D01*
X196475447Y-109220000D01*
X196390375Y-108792313D01*
X196148110Y-108429737D01*
X195785534Y-108187472D01*
X195357847Y-108102400D01*
X194278153Y-108102400D01*
X193850466Y-108187472D01*
X193487890Y-108429737D01*
X193245625Y-108792313D01*
X193160553Y-109220000D01*
X193245625Y-109647687D01*
X193487890Y-110010263D01*
X193850466Y-110252528D01*
X194278153Y-110337600D01*
X195357847Y-110337600D01*
X195785534Y-110252528D01*
X196148110Y-110010263D01*
X196390375Y-109647687D01*
X196475447Y-109220000D01*
X196475447Y-111760000D01*
X196390375Y-111332313D01*
X196148110Y-110969737D01*
X195785534Y-110727472D01*
X195357847Y-110642400D01*
X194278153Y-110642400D01*
X193850466Y-110727472D01*
X193487890Y-110969737D01*
X193245625Y-111332313D01*
X193160553Y-111760000D01*
X193245625Y-112187687D01*
X193487890Y-112550263D01*
X193850466Y-112792528D01*
X194278153Y-112877600D01*
X195357847Y-112877600D01*
X195785534Y-112792528D01*
X196148110Y-112550263D01*
X196390375Y-112187687D01*
X196475447Y-111760000D01*
X196475447Y-114300000D01*
X196390375Y-113872313D01*
X196148110Y-113509737D01*
X195785534Y-113267472D01*
X195357847Y-113182400D01*
X194278153Y-113182400D01*
X193850466Y-113267472D01*
X193487890Y-113509737D01*
X193245625Y-113872313D01*
X193160553Y-114300000D01*
X193245625Y-114727687D01*
X193487890Y-115090263D01*
X193850466Y-115332528D01*
X194278153Y-115417600D01*
X195357847Y-115417600D01*
X195785534Y-115332528D01*
X196148110Y-115090263D01*
X196390375Y-114727687D01*
X196475447Y-114300000D01*
X196475447Y-116840000D01*
X196390375Y-116412313D01*
X196148110Y-116049737D01*
X195785534Y-115807472D01*
X195357847Y-115722400D01*
X194278153Y-115722400D01*
X193850466Y-115807472D01*
X193487890Y-116049737D01*
X193245625Y-116412313D01*
X193160553Y-116840000D01*
X193245625Y-117267687D01*
X193487890Y-117630263D01*
X193850466Y-117872528D01*
X194278153Y-117957600D01*
X195357847Y-117957600D01*
X195785534Y-117872528D01*
X196148110Y-117630263D01*
X196390375Y-117267687D01*
X196475447Y-116840000D01*
X196475447Y-119380000D01*
X196390375Y-118952313D01*
X196148110Y-118589737D01*
X195785534Y-118347472D01*
X195357847Y-118262400D01*
X194278153Y-118262400D01*
X193850466Y-118347472D01*
X193487890Y-118589737D01*
X193245625Y-118952313D01*
X193160553Y-119380000D01*
X193245625Y-119807687D01*
X193487890Y-120170263D01*
X193850466Y-120412528D01*
X194278153Y-120497600D01*
X195357847Y-120497600D01*
X195785534Y-120412528D01*
X196148110Y-120170263D01*
X196390375Y-119807687D01*
X196475447Y-119380000D01*
X196475447Y-121920000D01*
X196390375Y-121492313D01*
X196148110Y-121129737D01*
X195785534Y-120887472D01*
X195357847Y-120802400D01*
X194278153Y-120802400D01*
X193850466Y-120887472D01*
X193487890Y-121129737D01*
X193245625Y-121492313D01*
X193160553Y-121920000D01*
X193245625Y-122347687D01*
X193487890Y-122710263D01*
X193850466Y-122952528D01*
X194278153Y-123037600D01*
X195357847Y-123037600D01*
X195785534Y-122952528D01*
X196148110Y-122710263D01*
X196390375Y-122347687D01*
X196475447Y-121920000D01*
X196475447Y-123245990D01*
X195767737Y-123953700D01*
X192919447Y-123953700D01*
X192919447Y-121920000D01*
X192919447Y-119380000D01*
X192919447Y-116840000D01*
X192919447Y-114300000D01*
X192919447Y-111760000D01*
X192919447Y-109220000D01*
X192919447Y-106680000D01*
X192919447Y-104140000D01*
X192919447Y-101600000D01*
X192919447Y-99060000D01*
X192919447Y-96520000D01*
X192919447Y-93980000D01*
X192919447Y-91440000D01*
X192919447Y-88900000D01*
X192834375Y-88472313D01*
X192592110Y-88109737D01*
X192229534Y-87867472D01*
X191801847Y-87782400D01*
X190722153Y-87782400D01*
X190294466Y-87867472D01*
X189931890Y-88109737D01*
X189689625Y-88472313D01*
X189604553Y-88900000D01*
X189689625Y-89327687D01*
X189931890Y-89690263D01*
X190294466Y-89932528D01*
X190722153Y-90017600D01*
X191801847Y-90017600D01*
X192229534Y-89932528D01*
X192592110Y-89690263D01*
X192834375Y-89327687D01*
X192919447Y-88900000D01*
X192919447Y-91440000D01*
X192834375Y-91012313D01*
X192592110Y-90649737D01*
X192229534Y-90407472D01*
X191801847Y-90322400D01*
X190722153Y-90322400D01*
X190294466Y-90407472D01*
X189931890Y-90649737D01*
X189689625Y-91012313D01*
X189604553Y-91440000D01*
X189689625Y-91867687D01*
X189931890Y-92230263D01*
X190294466Y-92472528D01*
X190722153Y-92557600D01*
X191801847Y-92557600D01*
X192229534Y-92472528D01*
X192592110Y-92230263D01*
X192834375Y-91867687D01*
X192919447Y-91440000D01*
X192919447Y-93980000D01*
X192834375Y-93552313D01*
X192592110Y-93189737D01*
X192229534Y-92947472D01*
X191801847Y-92862400D01*
X190722153Y-92862400D01*
X190294466Y-92947472D01*
X189931890Y-93189737D01*
X189689625Y-93552313D01*
X189604553Y-93980000D01*
X189689625Y-94407687D01*
X189931890Y-94770263D01*
X190294466Y-95012528D01*
X190722153Y-95097600D01*
X191801847Y-95097600D01*
X192229534Y-95012528D01*
X192592110Y-94770263D01*
X192834375Y-94407687D01*
X192919447Y-93980000D01*
X192919447Y-96520000D01*
X192834375Y-96092313D01*
X192592110Y-95729737D01*
X192229534Y-95487472D01*
X191801847Y-95402400D01*
X190722153Y-95402400D01*
X190294466Y-95487472D01*
X189931890Y-95729737D01*
X189689625Y-96092313D01*
X189604553Y-96520000D01*
X189689625Y-96947687D01*
X189931890Y-97310263D01*
X190294466Y-97552528D01*
X190722153Y-97637600D01*
X191801847Y-97637600D01*
X192229534Y-97552528D01*
X192592110Y-97310263D01*
X192834375Y-96947687D01*
X192919447Y-96520000D01*
X192919447Y-99060000D01*
X192834375Y-98632313D01*
X192592110Y-98269737D01*
X192229534Y-98027472D01*
X191801847Y-97942400D01*
X190722153Y-97942400D01*
X190294466Y-98027472D01*
X189931890Y-98269737D01*
X189689625Y-98632313D01*
X189604553Y-99060000D01*
X189689625Y-99487687D01*
X189931890Y-99850263D01*
X190294466Y-100092528D01*
X190722153Y-100177600D01*
X191801847Y-100177600D01*
X192229534Y-100092528D01*
X192592110Y-99850263D01*
X192834375Y-99487687D01*
X192919447Y-99060000D01*
X192919447Y-101600000D01*
X192834375Y-101172313D01*
X192592110Y-100809737D01*
X192229534Y-100567472D01*
X191801847Y-100482400D01*
X190722153Y-100482400D01*
X190294466Y-100567472D01*
X189931890Y-100809737D01*
X189689625Y-101172313D01*
X189604553Y-101600000D01*
X189689625Y-102027687D01*
X189931890Y-102390263D01*
X190294466Y-102632528D01*
X190722153Y-102717600D01*
X191801847Y-102717600D01*
X192229534Y-102632528D01*
X192592110Y-102390263D01*
X192834375Y-102027687D01*
X192919447Y-101600000D01*
X192919447Y-104140000D01*
X192834375Y-103712313D01*
X192592110Y-103349737D01*
X192229534Y-103107472D01*
X191801847Y-103022400D01*
X190722153Y-103022400D01*
X190294466Y-103107472D01*
X189931890Y-103349737D01*
X189689625Y-103712313D01*
X189604553Y-104140000D01*
X189689625Y-104567687D01*
X189931890Y-104930263D01*
X190294466Y-105172528D01*
X190722153Y-105257600D01*
X191801847Y-105257600D01*
X192229534Y-105172528D01*
X192592110Y-104930263D01*
X192834375Y-104567687D01*
X192919447Y-104140000D01*
X192919447Y-106680000D01*
X192834375Y-106252313D01*
X192592110Y-105889737D01*
X192229534Y-105647472D01*
X191801847Y-105562400D01*
X190722153Y-105562400D01*
X190294466Y-105647472D01*
X189931890Y-105889737D01*
X189689625Y-106252313D01*
X189604553Y-106680000D01*
X189689625Y-107107687D01*
X189931890Y-107470263D01*
X190294466Y-107712528D01*
X190722153Y-107797600D01*
X191801847Y-107797600D01*
X192229534Y-107712528D01*
X192592110Y-107470263D01*
X192834375Y-107107687D01*
X192919447Y-106680000D01*
X192919447Y-109220000D01*
X192834375Y-108792313D01*
X192592110Y-108429737D01*
X192229534Y-108187472D01*
X191801847Y-108102400D01*
X190722153Y-108102400D01*
X190294466Y-108187472D01*
X189931890Y-108429737D01*
X189689625Y-108792313D01*
X189604553Y-109220000D01*
X189689625Y-109647687D01*
X189931890Y-110010263D01*
X190294466Y-110252528D01*
X190722153Y-110337600D01*
X191801847Y-110337600D01*
X192229534Y-110252528D01*
X192592110Y-110010263D01*
X192834375Y-109647687D01*
X192919447Y-109220000D01*
X192919447Y-111760000D01*
X192834375Y-111332313D01*
X192592110Y-110969737D01*
X192229534Y-110727472D01*
X191801847Y-110642400D01*
X190722153Y-110642400D01*
X190294466Y-110727472D01*
X189931890Y-110969737D01*
X189689625Y-111332313D01*
X189604553Y-111760000D01*
X189689625Y-112187687D01*
X189931890Y-112550263D01*
X190294466Y-112792528D01*
X190722153Y-112877600D01*
X191801847Y-112877600D01*
X192229534Y-112792528D01*
X192592110Y-112550263D01*
X192834375Y-112187687D01*
X192919447Y-111760000D01*
X192919447Y-114300000D01*
X192834375Y-113872313D01*
X192592110Y-113509737D01*
X192229534Y-113267472D01*
X191801847Y-113182400D01*
X190722153Y-113182400D01*
X190294466Y-113267472D01*
X189931890Y-113509737D01*
X189689625Y-113872313D01*
X189604553Y-114300000D01*
X189689625Y-114727687D01*
X189931890Y-115090263D01*
X190294466Y-115332528D01*
X190722153Y-115417600D01*
X191801847Y-115417600D01*
X192229534Y-115332528D01*
X192592110Y-115090263D01*
X192834375Y-114727687D01*
X192919447Y-114300000D01*
X192919447Y-116840000D01*
X192834375Y-116412313D01*
X192592110Y-116049737D01*
X192229534Y-115807472D01*
X191801847Y-115722400D01*
X190722153Y-115722400D01*
X190294466Y-115807472D01*
X189931890Y-116049737D01*
X189689625Y-116412313D01*
X189604553Y-116840000D01*
X189689625Y-117267687D01*
X189931890Y-117630263D01*
X190294466Y-117872528D01*
X190722153Y-117957600D01*
X191801847Y-117957600D01*
X192229534Y-117872528D01*
X192592110Y-117630263D01*
X192834375Y-117267687D01*
X192919447Y-116840000D01*
X192919447Y-119380000D01*
X192834375Y-118952313D01*
X192592110Y-118589737D01*
X192229534Y-118347472D01*
X191801847Y-118262400D01*
X190722153Y-118262400D01*
X190294466Y-118347472D01*
X189931890Y-118589737D01*
X189689625Y-118952313D01*
X189604553Y-119380000D01*
X189689625Y-119807687D01*
X189931890Y-120170263D01*
X190294466Y-120412528D01*
X190722153Y-120497600D01*
X191801847Y-120497600D01*
X192229534Y-120412528D01*
X192592110Y-120170263D01*
X192834375Y-119807687D01*
X192919447Y-119380000D01*
X192919447Y-121920000D01*
X192834375Y-121492313D01*
X192592110Y-121129737D01*
X192229534Y-120887472D01*
X191801847Y-120802400D01*
X190722153Y-120802400D01*
X190294466Y-120887472D01*
X189931890Y-121129737D01*
X189689625Y-121492313D01*
X189604553Y-121920000D01*
X189689625Y-122347687D01*
X189931890Y-122710263D01*
X190294466Y-122952528D01*
X190722153Y-123037600D01*
X191801847Y-123037600D01*
X192229534Y-122952528D01*
X192592110Y-122710263D01*
X192834375Y-122347687D01*
X192919447Y-121920000D01*
X192919447Y-123953700D01*
X145313400Y-123953700D01*
X145313400Y-115359777D01*
X145313400Y-113794540D01*
X145313400Y-113489740D01*
X145313400Y-111924503D01*
X145313400Y-89959777D01*
X145313400Y-88394540D01*
X145313400Y-88089740D01*
X145313400Y-86524503D01*
X145102039Y-86411656D01*
X144603696Y-86656509D01*
X144256928Y-87068452D01*
X144094200Y-87581740D01*
X144094200Y-88089740D01*
X145313400Y-88089740D01*
X145313400Y-88394540D01*
X144094200Y-88394540D01*
X144094200Y-88902540D01*
X144256928Y-89415828D01*
X144603696Y-89827771D01*
X145102039Y-90072624D01*
X145313400Y-89959777D01*
X145313400Y-111924503D01*
X145211800Y-111870258D01*
X145211800Y-92637707D01*
X145211800Y-91558013D01*
X145126728Y-91130326D01*
X144884463Y-90767750D01*
X144521887Y-90525485D01*
X144094200Y-90440413D01*
X143814800Y-90495988D01*
X143814800Y-88781987D01*
X143814800Y-87702293D01*
X143729728Y-87274606D01*
X143487463Y-86912030D01*
X143124887Y-86669765D01*
X142697200Y-86584693D01*
X142269513Y-86669765D01*
X141906937Y-86912030D01*
X141664672Y-87274606D01*
X141579600Y-87702293D01*
X141579600Y-88781987D01*
X141664672Y-89209674D01*
X141906937Y-89572250D01*
X142269513Y-89814515D01*
X142697200Y-89899587D01*
X143124887Y-89814515D01*
X143487463Y-89572250D01*
X143729728Y-89209674D01*
X143814800Y-88781987D01*
X143814800Y-90495988D01*
X143666513Y-90525485D01*
X143303937Y-90767750D01*
X143061672Y-91130326D01*
X142976600Y-91558013D01*
X142976600Y-92637707D01*
X143061672Y-93065394D01*
X143303937Y-93427970D01*
X143666513Y-93670235D01*
X144094200Y-93755307D01*
X144521887Y-93670235D01*
X144884463Y-93427970D01*
X145126728Y-93065394D01*
X145211800Y-92637707D01*
X145211800Y-111870258D01*
X145102039Y-111811656D01*
X144603696Y-112056509D01*
X144256928Y-112468452D01*
X144094200Y-112981740D01*
X144094200Y-113489740D01*
X145313400Y-113489740D01*
X145313400Y-113794540D01*
X144094200Y-113794540D01*
X144094200Y-114302540D01*
X144256928Y-114815828D01*
X144603696Y-115227771D01*
X145102039Y-115472624D01*
X145313400Y-115359777D01*
X145313400Y-123953700D01*
X145211800Y-123953700D01*
X145211800Y-118037707D01*
X145211800Y-116958013D01*
X145126728Y-116530326D01*
X144884463Y-116167750D01*
X144521887Y-115925485D01*
X144094200Y-115840413D01*
X143814800Y-115895988D01*
X143814800Y-114181987D01*
X143814800Y-113102293D01*
X143729728Y-112674606D01*
X143487463Y-112312030D01*
X143124887Y-112069765D01*
X142697200Y-111984693D01*
X142269513Y-112069765D01*
X141906937Y-112312030D01*
X141664672Y-112674606D01*
X141579600Y-113102293D01*
X141579600Y-114181987D01*
X141664672Y-114609674D01*
X141906937Y-114972250D01*
X142269513Y-115214515D01*
X142697200Y-115299587D01*
X143124887Y-115214515D01*
X143487463Y-114972250D01*
X143729728Y-114609674D01*
X143814800Y-114181987D01*
X143814800Y-115895988D01*
X143666513Y-115925485D01*
X143303937Y-116167750D01*
X143061672Y-116530326D01*
X142976600Y-116958013D01*
X142976600Y-118037707D01*
X143061672Y-118465394D01*
X143303937Y-118827970D01*
X143666513Y-119070235D01*
X144094200Y-119155307D01*
X144521887Y-119070235D01*
X144884463Y-118827970D01*
X145126728Y-118465394D01*
X145211800Y-118037707D01*
X145211800Y-123953700D01*
X144270000Y-123953700D01*
X144056156Y-123996236D01*
X143874869Y-124117369D01*
X143114869Y-124877369D01*
X142993736Y-125058656D01*
X142951200Y-125272500D01*
X142951200Y-125515231D01*
X142719737Y-125669890D01*
X142477472Y-126032466D01*
X142392400Y-126460153D01*
X142392400Y-127539847D01*
X142477472Y-127967534D01*
X142719737Y-128330110D01*
X143082313Y-128572375D01*
X143510000Y-128657447D01*
X143937687Y-128572375D01*
X144300263Y-128330110D01*
X144542528Y-127967534D01*
X144627600Y-127539847D01*
X144627600Y-126460153D01*
X144542528Y-126032466D01*
X144300263Y-125669890D01*
X144068800Y-125515231D01*
X144068800Y-125503962D01*
X144501462Y-125071300D01*
X192952423Y-125071300D01*
X192340873Y-125681784D01*
X191986304Y-126535680D01*
X191985497Y-127460264D01*
X192338575Y-128314777D01*
X192991784Y-128969127D01*
X193357293Y-129120900D01*
X190347600Y-129120900D01*
X190347600Y-127539847D01*
X190347600Y-126460153D01*
X190262528Y-126032466D01*
X190020263Y-125669890D01*
X189657687Y-125427625D01*
X189230000Y-125342553D01*
X188802313Y-125427625D01*
X188439737Y-125669890D01*
X188197472Y-126032466D01*
X188112400Y-126460153D01*
X188112400Y-127539847D01*
X188197472Y-127967534D01*
X188439737Y-128330110D01*
X188802313Y-128572375D01*
X189230000Y-128657447D01*
X189657687Y-128572375D01*
X190020263Y-128330110D01*
X190262528Y-127967534D01*
X190347600Y-127539847D01*
X190347600Y-129120900D01*
X187807600Y-129120900D01*
X187807600Y-127539847D01*
X187807600Y-126460153D01*
X187722528Y-126032466D01*
X187480263Y-125669890D01*
X187117687Y-125427625D01*
X186690000Y-125342553D01*
X186262313Y-125427625D01*
X185899737Y-125669890D01*
X185657472Y-126032466D01*
X185572400Y-126460153D01*
X185572400Y-127539847D01*
X185657472Y-127967534D01*
X185899737Y-128330110D01*
X186262313Y-128572375D01*
X186690000Y-128657447D01*
X187117687Y-128572375D01*
X187480263Y-128330110D01*
X187722528Y-127967534D01*
X187807600Y-127539847D01*
X187807600Y-129120900D01*
X185267600Y-129120900D01*
X185267600Y-127539847D01*
X185267600Y-126460153D01*
X185182528Y-126032466D01*
X184940263Y-125669890D01*
X184577687Y-125427625D01*
X184150000Y-125342553D01*
X183722313Y-125427625D01*
X183359737Y-125669890D01*
X183117472Y-126032466D01*
X183032400Y-126460153D01*
X183032400Y-127539847D01*
X183117472Y-127967534D01*
X183359737Y-128330110D01*
X183722313Y-128572375D01*
X184150000Y-128657447D01*
X184577687Y-128572375D01*
X184940263Y-128330110D01*
X185182528Y-127967534D01*
X185267600Y-127539847D01*
X185267600Y-129120900D01*
X182727600Y-129120900D01*
X182727600Y-127539847D01*
X182727600Y-126460153D01*
X182642528Y-126032466D01*
X182400263Y-125669890D01*
X182037687Y-125427625D01*
X181610000Y-125342553D01*
X181182313Y-125427625D01*
X180819737Y-125669890D01*
X180577472Y-126032466D01*
X180492400Y-126460153D01*
X180492400Y-127539847D01*
X180577472Y-127967534D01*
X180819737Y-128330110D01*
X181182313Y-128572375D01*
X181610000Y-128657447D01*
X182037687Y-128572375D01*
X182400263Y-128330110D01*
X182642528Y-127967534D01*
X182727600Y-127539847D01*
X182727600Y-129120900D01*
X180187600Y-129120900D01*
X180187600Y-127539847D01*
X180187600Y-126460153D01*
X180102528Y-126032466D01*
X179860263Y-125669890D01*
X179497687Y-125427625D01*
X179070000Y-125342553D01*
X178642313Y-125427625D01*
X178279737Y-125669890D01*
X178037472Y-126032466D01*
X177952400Y-126460153D01*
X177952400Y-127539847D01*
X178037472Y-127967534D01*
X178279737Y-128330110D01*
X178642313Y-128572375D01*
X179070000Y-128657447D01*
X179497687Y-128572375D01*
X179860263Y-128330110D01*
X180102528Y-127967534D01*
X180187600Y-127539847D01*
X180187600Y-129120900D01*
X177647600Y-129120900D01*
X177647600Y-127539847D01*
X177647600Y-126460153D01*
X177562528Y-126032466D01*
X177320263Y-125669890D01*
X176957687Y-125427625D01*
X176530000Y-125342553D01*
X176102313Y-125427625D01*
X175739737Y-125669890D01*
X175497472Y-126032466D01*
X175412400Y-126460153D01*
X175412400Y-127539847D01*
X175497472Y-127967534D01*
X175739737Y-128330110D01*
X176102313Y-128572375D01*
X176530000Y-128657447D01*
X176957687Y-128572375D01*
X177320263Y-128330110D01*
X177562528Y-127967534D01*
X177647600Y-127539847D01*
X177647600Y-129120900D01*
X175107600Y-129120900D01*
X175107600Y-127539847D01*
X175107600Y-126460153D01*
X175022528Y-126032466D01*
X174780263Y-125669890D01*
X174417687Y-125427625D01*
X173990000Y-125342553D01*
X173562313Y-125427625D01*
X173199737Y-125669890D01*
X172957472Y-126032466D01*
X172872400Y-126460153D01*
X172872400Y-127539847D01*
X172957472Y-127967534D01*
X173199737Y-128330110D01*
X173562313Y-128572375D01*
X173990000Y-128657447D01*
X174417687Y-128572375D01*
X174780263Y-128330110D01*
X175022528Y-127967534D01*
X175107600Y-127539847D01*
X175107600Y-129120900D01*
X172567600Y-129120900D01*
X172567600Y-127539847D01*
X172567600Y-126460153D01*
X172482528Y-126032466D01*
X172240263Y-125669890D01*
X171877687Y-125427625D01*
X171450000Y-125342553D01*
X171022313Y-125427625D01*
X170659737Y-125669890D01*
X170417472Y-126032466D01*
X170332400Y-126460153D01*
X170332400Y-127539847D01*
X170417472Y-127967534D01*
X170659737Y-128330110D01*
X171022313Y-128572375D01*
X171450000Y-128657447D01*
X171877687Y-128572375D01*
X172240263Y-128330110D01*
X172482528Y-127967534D01*
X172567600Y-127539847D01*
X172567600Y-129120900D01*
X167487600Y-129120900D01*
X167487600Y-127539847D01*
X167487600Y-126460153D01*
X167402528Y-126032466D01*
X167160263Y-125669890D01*
X166797687Y-125427625D01*
X166370000Y-125342553D01*
X165942313Y-125427625D01*
X165579737Y-125669890D01*
X165337472Y-126032466D01*
X165252400Y-126460153D01*
X165252400Y-127539847D01*
X165337472Y-127967534D01*
X165579737Y-128330110D01*
X165942313Y-128572375D01*
X166370000Y-128657447D01*
X166797687Y-128572375D01*
X167160263Y-128330110D01*
X167402528Y-127967534D01*
X167487600Y-127539847D01*
X167487600Y-129120900D01*
X164947600Y-129120900D01*
X164947600Y-127539847D01*
X164947600Y-126460153D01*
X164862528Y-126032466D01*
X164620263Y-125669890D01*
X164257687Y-125427625D01*
X163830000Y-125342553D01*
X163402313Y-125427625D01*
X163039737Y-125669890D01*
X162797472Y-126032466D01*
X162712400Y-126460153D01*
X162712400Y-127539847D01*
X162797472Y-127967534D01*
X163039737Y-128330110D01*
X163402313Y-128572375D01*
X163830000Y-128657447D01*
X164257687Y-128572375D01*
X164620263Y-128330110D01*
X164862528Y-127967534D01*
X164947600Y-127539847D01*
X164947600Y-129120900D01*
X162407600Y-129120900D01*
X162407600Y-127539847D01*
X162407600Y-126460153D01*
X162322528Y-126032466D01*
X162080263Y-125669890D01*
X161717687Y-125427625D01*
X161290000Y-125342553D01*
X160862313Y-125427625D01*
X160499737Y-125669890D01*
X160257472Y-126032466D01*
X160172400Y-126460153D01*
X160172400Y-127539847D01*
X160257472Y-127967534D01*
X160499737Y-128330110D01*
X160862313Y-128572375D01*
X161290000Y-128657447D01*
X161717687Y-128572375D01*
X162080263Y-128330110D01*
X162322528Y-127967534D01*
X162407600Y-127539847D01*
X162407600Y-129120900D01*
X159867600Y-129120900D01*
X159867600Y-127539847D01*
X159867600Y-126460153D01*
X159782528Y-126032466D01*
X159540263Y-125669890D01*
X159177687Y-125427625D01*
X158750000Y-125342553D01*
X158322313Y-125427625D01*
X157959737Y-125669890D01*
X157717472Y-126032466D01*
X157632400Y-126460153D01*
X157632400Y-127539847D01*
X157717472Y-127967534D01*
X157959737Y-128330110D01*
X158322313Y-128572375D01*
X158750000Y-128657447D01*
X159177687Y-128572375D01*
X159540263Y-128330110D01*
X159782528Y-127967534D01*
X159867600Y-127539847D01*
X159867600Y-129120900D01*
X157327600Y-129120900D01*
X157327600Y-127539847D01*
X157327600Y-126460153D01*
X157242528Y-126032466D01*
X157000263Y-125669890D01*
X156637687Y-125427625D01*
X156210000Y-125342553D01*
X155782313Y-125427625D01*
X155419737Y-125669890D01*
X155177472Y-126032466D01*
X155092400Y-126460153D01*
X155092400Y-127539847D01*
X155177472Y-127967534D01*
X155419737Y-128330110D01*
X155782313Y-128572375D01*
X156210000Y-128657447D01*
X156637687Y-128572375D01*
X157000263Y-128330110D01*
X157242528Y-127967534D01*
X157327600Y-127539847D01*
X157327600Y-129120900D01*
X154787600Y-129120900D01*
X154787600Y-127539847D01*
X154787600Y-126460153D01*
X154702528Y-126032466D01*
X154460263Y-125669890D01*
X154097687Y-125427625D01*
X153670000Y-125342553D01*
X153242313Y-125427625D01*
X152879737Y-125669890D01*
X152637472Y-126032466D01*
X152552400Y-126460153D01*
X152552400Y-127539847D01*
X152637472Y-127967534D01*
X152879737Y-128330110D01*
X153242313Y-128572375D01*
X153670000Y-128657447D01*
X154097687Y-128572375D01*
X154460263Y-128330110D01*
X154702528Y-127967534D01*
X154787600Y-127539847D01*
X154787600Y-129120900D01*
X152247600Y-129120900D01*
X152247600Y-127539847D01*
X152247600Y-126460153D01*
X152162528Y-126032466D01*
X151920263Y-125669890D01*
X151557687Y-125427625D01*
X151130000Y-125342553D01*
X150702313Y-125427625D01*
X150339737Y-125669890D01*
X150097472Y-126032466D01*
X150012400Y-126460153D01*
X150012400Y-127539847D01*
X150097472Y-127967534D01*
X150339737Y-128330110D01*
X150702313Y-128572375D01*
X151130000Y-128657447D01*
X151557687Y-128572375D01*
X151920263Y-128330110D01*
X152162528Y-127967534D01*
X152247600Y-127539847D01*
X152247600Y-129120900D01*
X149707600Y-129120900D01*
X149707600Y-127539847D01*
X149707600Y-126460153D01*
X149622528Y-126032466D01*
X149380263Y-125669890D01*
X149017687Y-125427625D01*
X148590000Y-125342553D01*
X148162313Y-125427625D01*
X147799737Y-125669890D01*
X147557472Y-126032466D01*
X147472400Y-126460153D01*
X147472400Y-127539847D01*
X147557472Y-127967534D01*
X147799737Y-128330110D01*
X148162313Y-128572375D01*
X148590000Y-128657447D01*
X149017687Y-128572375D01*
X149380263Y-128330110D01*
X149622528Y-127967534D01*
X149707600Y-127539847D01*
X149707600Y-129120900D01*
X134467600Y-129120900D01*
X134467600Y-127539847D01*
X134467600Y-126460153D01*
X134382528Y-126032466D01*
X134140263Y-125669890D01*
X133777687Y-125427625D01*
X133350000Y-125342553D01*
X132922313Y-125427625D01*
X132559737Y-125669890D01*
X132317472Y-126032466D01*
X132232400Y-126460153D01*
X132232400Y-127539847D01*
X132317472Y-127967534D01*
X132559737Y-128330110D01*
X132922313Y-128572375D01*
X133350000Y-128657447D01*
X133777687Y-128572375D01*
X134140263Y-128330110D01*
X134382528Y-127967534D01*
X134467600Y-127539847D01*
X134467600Y-129120900D01*
X131927600Y-129120900D01*
X131927600Y-127539847D01*
X131927600Y-126460153D01*
X131842528Y-126032466D01*
X131600263Y-125669890D01*
X131237687Y-125427625D01*
X130810000Y-125342553D01*
X130382313Y-125427625D01*
X130019737Y-125669890D01*
X129777472Y-126032466D01*
X129692400Y-126460153D01*
X129692400Y-127539847D01*
X129777472Y-127967534D01*
X130019737Y-128330110D01*
X130382313Y-128572375D01*
X130810000Y-128657447D01*
X131237687Y-128572375D01*
X131600263Y-128330110D01*
X131842528Y-127967534D01*
X131927600Y-127539847D01*
X131927600Y-129120900D01*
X129387600Y-129120900D01*
X129387600Y-127539847D01*
X129387600Y-126460153D01*
X129302528Y-126032466D01*
X129060263Y-125669890D01*
X128697687Y-125427625D01*
X128270000Y-125342553D01*
X127842313Y-125427625D01*
X127479737Y-125669890D01*
X127237472Y-126032466D01*
X127152400Y-126460153D01*
X127152400Y-127539847D01*
X127237472Y-127967534D01*
X127479737Y-128330110D01*
X127842313Y-128572375D01*
X128270000Y-128657447D01*
X128697687Y-128572375D01*
X129060263Y-128330110D01*
X129302528Y-127967534D01*
X129387600Y-127539847D01*
X129387600Y-129120900D01*
X126847600Y-129120900D01*
X126847600Y-127539847D01*
X126847600Y-126460153D01*
X126762528Y-126032466D01*
X126520263Y-125669890D01*
X126157687Y-125427625D01*
X125730000Y-125342553D01*
X125302313Y-125427625D01*
X124939737Y-125669890D01*
X124697472Y-126032466D01*
X124612400Y-126460153D01*
X124612400Y-127539847D01*
X124697472Y-127967534D01*
X124939737Y-128330110D01*
X125302313Y-128572375D01*
X125730000Y-128657447D01*
X126157687Y-128572375D01*
X126520263Y-128330110D01*
X126762528Y-127967534D01*
X126847600Y-127539847D01*
X126847600Y-129120900D01*
X112713020Y-129120900D01*
X113074777Y-128971425D01*
X113729127Y-128318216D01*
X114083696Y-127464320D01*
X114084503Y-126539736D01*
X113731425Y-125685223D01*
X113143229Y-125096000D01*
X134839069Y-125096000D01*
X135128000Y-125384930D01*
X135128000Y-125651005D01*
X135099737Y-125669890D01*
X134857472Y-126032466D01*
X134772400Y-126460153D01*
X134772400Y-127539847D01*
X134857472Y-127967534D01*
X135099737Y-128330110D01*
X135462313Y-128572375D01*
X135890000Y-128657447D01*
X136317687Y-128572375D01*
X136680263Y-128330110D01*
X136922528Y-127967534D01*
X137007600Y-127539847D01*
X137007600Y-126460153D01*
X136922528Y-126032466D01*
X136680263Y-125669890D01*
X136652000Y-125651005D01*
X136652000Y-125069300D01*
X136593996Y-124777695D01*
X136428815Y-124530485D01*
X136428815Y-124530484D01*
X135693515Y-123795185D01*
X135662557Y-123774500D01*
X136099653Y-123774500D01*
X137769600Y-125444446D01*
X137769600Y-125583118D01*
X137639737Y-125669890D01*
X137397472Y-126032466D01*
X137312400Y-126460153D01*
X137312400Y-127539847D01*
X137397472Y-127967534D01*
X137639737Y-128330110D01*
X138002313Y-128572375D01*
X138430000Y-128657447D01*
X138857687Y-128572375D01*
X139220263Y-128330110D01*
X139462528Y-127967534D01*
X139547600Y-127539847D01*
X139547600Y-126460153D01*
X139462528Y-126032466D01*
X139328113Y-125831300D01*
X140071886Y-125831300D01*
X139937472Y-126032466D01*
X139852400Y-126460153D01*
X139852400Y-127539847D01*
X139937472Y-127967534D01*
X140179737Y-128330110D01*
X140542313Y-128572375D01*
X140970000Y-128657447D01*
X141397687Y-128572375D01*
X141760263Y-128330110D01*
X142002528Y-127967534D01*
X142087600Y-127539847D01*
X142087600Y-126460153D01*
X142002528Y-126032466D01*
X141760263Y-125669890D01*
X141630400Y-125583118D01*
X141630400Y-125170900D01*
X141580130Y-124918176D01*
X141436973Y-124703927D01*
X141222724Y-124560770D01*
X140970000Y-124510500D01*
X138703546Y-124510500D01*
X137998200Y-123805154D01*
X137998200Y-116909169D01*
X137998200Y-114230831D01*
X137998200Y-91509169D01*
X137998200Y-88830831D01*
X137826122Y-87965737D01*
X137336086Y-87232345D01*
X136602694Y-86742309D01*
X135737600Y-86570231D01*
X134872506Y-86742309D01*
X134139114Y-87232345D01*
X133649078Y-87965737D01*
X133477000Y-88830831D01*
X133477000Y-91509169D01*
X133649078Y-92374263D01*
X134139114Y-93107655D01*
X134872506Y-93597691D01*
X135737600Y-93769769D01*
X136602694Y-93597691D01*
X137336086Y-93107655D01*
X137826122Y-92374263D01*
X137998200Y-91509169D01*
X137998200Y-114230831D01*
X137826122Y-113365737D01*
X137336086Y-112632345D01*
X136602694Y-112142309D01*
X135737600Y-111970231D01*
X134872506Y-112142309D01*
X134139114Y-112632345D01*
X133649078Y-113365737D01*
X133477000Y-114230831D01*
X133477000Y-116909169D01*
X133649078Y-117774263D01*
X134139114Y-118507655D01*
X134872506Y-118997691D01*
X135737600Y-119169769D01*
X136602694Y-118997691D01*
X137336086Y-118507655D01*
X137826122Y-117774263D01*
X137998200Y-116909169D01*
X137998200Y-123805154D01*
X136840173Y-122647127D01*
X136625924Y-122503970D01*
X136373200Y-122453700D01*
X107969667Y-122453700D01*
X107969667Y-120015000D01*
X107943359Y-119879411D01*
X107865077Y-119760241D01*
X107746899Y-119680469D01*
X107607100Y-119652433D01*
X105752900Y-119652433D01*
X105617311Y-119678741D01*
X105498141Y-119757023D01*
X105418369Y-119875201D01*
X105390333Y-120015000D01*
X105390333Y-120747533D01*
X105325060Y-120419385D01*
X105047006Y-120003247D01*
X104630868Y-119725193D01*
X104140000Y-119627553D01*
X103649132Y-119725193D01*
X103232994Y-120003247D01*
X102954940Y-120419385D01*
X102870000Y-120846405D01*
X102785060Y-120419385D01*
X102507006Y-120003247D01*
X102090868Y-119725193D01*
X101600000Y-119627553D01*
X101109132Y-119725193D01*
X100692994Y-120003247D01*
X100414940Y-120419385D01*
X100317300Y-120910253D01*
X100317300Y-121659747D01*
X100414940Y-122150615D01*
X100692994Y-122566753D01*
X100838000Y-122663642D01*
X100838000Y-123215700D01*
X100896004Y-123507305D01*
X101061185Y-123754515D01*
X102179485Y-124872815D01*
X102426695Y-125037996D01*
X102426696Y-125037996D01*
X102718300Y-125096000D01*
X110377680Y-125096000D01*
X109790873Y-125681784D01*
X109436304Y-126535680D01*
X109435497Y-127460264D01*
X109788575Y-128314777D01*
X110441784Y-128969127D01*
X110807293Y-129120900D01*
X94399100Y-129120900D01*
X94399100Y-76619100D01*
X112076979Y-76619100D01*
X111715223Y-76768575D01*
X111060873Y-77421784D01*
X110706304Y-78275680D01*
X110705497Y-79200264D01*
X111058575Y-80054777D01*
X111711784Y-80709127D01*
X112565680Y-81063696D01*
X113490264Y-81064503D01*
X114344777Y-80711425D01*
X114999127Y-80058216D01*
X115353696Y-79204320D01*
X115354503Y-78279736D01*
X115001425Y-77425223D01*
X114348216Y-76770873D01*
X113982706Y-76619100D01*
X118729712Y-76619100D01*
X118609736Y-76798656D01*
X118567200Y-77012500D01*
X118567200Y-77255231D01*
X118335737Y-77409890D01*
X118093472Y-77772466D01*
X118008400Y-78200153D01*
X118008400Y-79279847D01*
X118093472Y-79707534D01*
X118227886Y-79908700D01*
X117484113Y-79908700D01*
X117618528Y-79707534D01*
X117703600Y-79279847D01*
X117703600Y-78200153D01*
X117618528Y-77772466D01*
X117376263Y-77409890D01*
X117013687Y-77167625D01*
X116586000Y-77082553D01*
X116158313Y-77167625D01*
X115795737Y-77409890D01*
X115553472Y-77772466D01*
X115468400Y-78200153D01*
X115468400Y-79279847D01*
X115553472Y-79707534D01*
X115795737Y-80070110D01*
X116027200Y-80224768D01*
X116027200Y-80467500D01*
X116069736Y-80681344D01*
X116190869Y-80862631D01*
X116372156Y-80983764D01*
X116586000Y-81026300D01*
X158495038Y-81026300D01*
X153401869Y-86119469D01*
X153280736Y-86300756D01*
X153238200Y-86514600D01*
X153238200Y-86757371D01*
X153006737Y-86912030D01*
X152764472Y-87274606D01*
X152679400Y-87702293D01*
X152679400Y-88781987D01*
X152764472Y-89209674D01*
X153006737Y-89572250D01*
X153364950Y-89811600D01*
X152400000Y-89811600D01*
X152186156Y-89854136D01*
X152120600Y-89897939D01*
X152120600Y-88781987D01*
X152120600Y-87702293D01*
X152035528Y-87274606D01*
X151793263Y-86912030D01*
X151430687Y-86669765D01*
X151003000Y-86584693D01*
X150575313Y-86669765D01*
X150212737Y-86912030D01*
X149970472Y-87274606D01*
X149885400Y-87702293D01*
X149885400Y-88781987D01*
X149970472Y-89209674D01*
X150212737Y-89572250D01*
X150575313Y-89814515D01*
X151003000Y-89899587D01*
X151430687Y-89814515D01*
X151793263Y-89572250D01*
X152035528Y-89209674D01*
X152120600Y-88781987D01*
X152120600Y-89897939D01*
X152004869Y-89975269D01*
X151883736Y-90156556D01*
X151841200Y-90370400D01*
X151841200Y-90613091D01*
X151609737Y-90767750D01*
X151367472Y-91130326D01*
X151282400Y-91558013D01*
X151282400Y-92637707D01*
X151367472Y-93065394D01*
X151609737Y-93427970D01*
X151972313Y-93670235D01*
X152400000Y-93755307D01*
X152827687Y-93670235D01*
X153190263Y-93427970D01*
X153432528Y-93065394D01*
X153517600Y-92637707D01*
X153517600Y-91558013D01*
X153432528Y-91130326D01*
X153298140Y-90929200D01*
X154270459Y-90929200D01*
X154136072Y-91130326D01*
X154051000Y-91558013D01*
X154051000Y-92637707D01*
X154136072Y-93065394D01*
X154378337Y-93427970D01*
X154740913Y-93670235D01*
X155168600Y-93755307D01*
X155596287Y-93670235D01*
X155958863Y-93427970D01*
X156201128Y-93065394D01*
X156286200Y-92637707D01*
X156286200Y-91558013D01*
X156201128Y-91130326D01*
X156066740Y-90929200D01*
X157039059Y-90929200D01*
X156904672Y-91130326D01*
X156819600Y-91558013D01*
X156819600Y-92637707D01*
X156904672Y-93065394D01*
X157146937Y-93427970D01*
X157509513Y-93670235D01*
X157937200Y-93755307D01*
X158364887Y-93670235D01*
X158727463Y-93427970D01*
X158969728Y-93065394D01*
X159054800Y-92637707D01*
X159054800Y-91558013D01*
X158969728Y-91130326D01*
X158835340Y-90929200D01*
X159807659Y-90929200D01*
X159673272Y-91130326D01*
X159588200Y-91558013D01*
X159588200Y-92637707D01*
X159673272Y-93065394D01*
X159915537Y-93427970D01*
X160278113Y-93670235D01*
X160705800Y-93755307D01*
X161133487Y-93670235D01*
X161496063Y-93427970D01*
X161738328Y-93065394D01*
X161823400Y-92637707D01*
X161823400Y-91558013D01*
X161738328Y-91130326D01*
X161603940Y-90929200D01*
X163587700Y-90929200D01*
X163801543Y-90886664D01*
X163801544Y-90886664D01*
X163982831Y-90765531D01*
X167358996Y-87389365D01*
X166973878Y-87965737D01*
X166801800Y-88830831D01*
X166801800Y-91509169D01*
X166973878Y-92374263D01*
X167463914Y-93107655D01*
X168197306Y-93597691D01*
X169062400Y-93769769D01*
X169927494Y-93597691D01*
X170660886Y-93107655D01*
X171150922Y-92374263D01*
X171323000Y-91509169D01*
X171323000Y-88830831D01*
X171150922Y-87965737D01*
X170660886Y-87232345D01*
X169927494Y-86742309D01*
X169062400Y-86570231D01*
X168197306Y-86742309D01*
X167620934Y-87127427D01*
X171639562Y-83108800D01*
X189879061Y-83108800D01*
X189777231Y-83261200D01*
X189534500Y-83261200D01*
X181391400Y-83261200D01*
X181177557Y-83303735D01*
X180996269Y-83424869D01*
X153401869Y-111019269D01*
X153280736Y-111200556D01*
X153238200Y-111414400D01*
X153238200Y-111914600D01*
X153238200Y-112157371D01*
X153006737Y-112312030D01*
X152764472Y-112674606D01*
X152679400Y-113102293D01*
X152679400Y-114181987D01*
X152764472Y-114609674D01*
X152898859Y-114810800D01*
X151901140Y-114810800D01*
X152035528Y-114609674D01*
X152120600Y-114181987D01*
X152120600Y-113102293D01*
X152035528Y-112674606D01*
X151793263Y-112312030D01*
X151430687Y-112069765D01*
X151003000Y-111984693D01*
X150749000Y-112035216D01*
X150749000Y-92637707D01*
X150749000Y-91558013D01*
X150663928Y-91130326D01*
X150421663Y-90767750D01*
X150059087Y-90525485D01*
X149631400Y-90440413D01*
X149352000Y-90495988D01*
X149352000Y-88781987D01*
X149352000Y-87702293D01*
X149266928Y-87274606D01*
X149024663Y-86912030D01*
X148662087Y-86669765D01*
X148234400Y-86584693D01*
X147806713Y-86669765D01*
X147444137Y-86912030D01*
X147201872Y-87274606D01*
X147116800Y-87702293D01*
X147116800Y-88781987D01*
X147201872Y-89209674D01*
X147444137Y-89572250D01*
X147806713Y-89814515D01*
X148234400Y-89899587D01*
X148662087Y-89814515D01*
X149024663Y-89572250D01*
X149266928Y-89209674D01*
X149352000Y-88781987D01*
X149352000Y-90495988D01*
X149203713Y-90525485D01*
X148841137Y-90767750D01*
X148598872Y-91130326D01*
X148513800Y-91558013D01*
X148513800Y-92637707D01*
X148598872Y-93065394D01*
X148841137Y-93427970D01*
X149203713Y-93670235D01*
X149631400Y-93755307D01*
X150059087Y-93670235D01*
X150421663Y-93427970D01*
X150663928Y-93065394D01*
X150749000Y-92637707D01*
X150749000Y-112035216D01*
X150575313Y-112069765D01*
X150212737Y-112312030D01*
X149970472Y-112674606D01*
X149885400Y-113102293D01*
X149885400Y-114181987D01*
X149970472Y-114609674D01*
X150212737Y-114972250D01*
X150342600Y-115059021D01*
X150342600Y-115471200D01*
X150392870Y-115723924D01*
X150536027Y-115938173D01*
X150750276Y-116081330D01*
X151003000Y-116131600D01*
X151663839Y-116131600D01*
X151609737Y-116167750D01*
X151367472Y-116530326D01*
X151282400Y-116958013D01*
X151282400Y-118037707D01*
X151367472Y-118465394D01*
X151609737Y-118827970D01*
X151972313Y-119070235D01*
X152400000Y-119155307D01*
X152827687Y-119070235D01*
X153190263Y-118827970D01*
X153432528Y-118465394D01*
X153517600Y-118037707D01*
X153517600Y-116958013D01*
X153432528Y-116530326D01*
X153190263Y-116167750D01*
X153136160Y-116131600D01*
X154432439Y-116131600D01*
X154378337Y-116167750D01*
X154136072Y-116530326D01*
X154051000Y-116958013D01*
X154051000Y-118037707D01*
X154136072Y-118465394D01*
X154378337Y-118827970D01*
X154740913Y-119070235D01*
X155168600Y-119155307D01*
X155596287Y-119070235D01*
X155958863Y-118827970D01*
X156201128Y-118465394D01*
X156286200Y-118037707D01*
X156286200Y-116958013D01*
X156201128Y-116530326D01*
X155958863Y-116167750D01*
X155904760Y-116131600D01*
X156292053Y-116131600D01*
X156296227Y-116135774D01*
X156510476Y-116278930D01*
X156763200Y-116329200D01*
X157039059Y-116329200D01*
X156904672Y-116530326D01*
X156819600Y-116958013D01*
X156819600Y-118037707D01*
X156904672Y-118465394D01*
X157146937Y-118827970D01*
X157509513Y-119070235D01*
X157937200Y-119155307D01*
X158364887Y-119070235D01*
X158559577Y-118940147D01*
X158655513Y-119172328D01*
X158880388Y-119397596D01*
X159054033Y-119469700D01*
X150749000Y-119469700D01*
X150749000Y-118037707D01*
X150749000Y-116958013D01*
X150663928Y-116530326D01*
X150421663Y-116167750D01*
X150059087Y-115925485D01*
X149631400Y-115840413D01*
X149352000Y-115895988D01*
X149352000Y-114181987D01*
X149352000Y-113102293D01*
X149266928Y-112674606D01*
X149024663Y-112312030D01*
X148662087Y-112069765D01*
X148234400Y-111984693D01*
X147980400Y-112035216D01*
X147980400Y-92637707D01*
X147980400Y-91558013D01*
X147895328Y-91130326D01*
X147653063Y-90767750D01*
X147290487Y-90525485D01*
X146862800Y-90440413D01*
X146837400Y-90445465D01*
X146837400Y-88902540D01*
X146837400Y-88394540D01*
X146837400Y-88089740D01*
X146837400Y-87581740D01*
X146674672Y-87068452D01*
X146327904Y-86656509D01*
X145829561Y-86411656D01*
X145618200Y-86524503D01*
X145618200Y-88089740D01*
X146837400Y-88089740D01*
X146837400Y-88394540D01*
X145618200Y-88394540D01*
X145618200Y-89959777D01*
X145829561Y-90072624D01*
X146327904Y-89827771D01*
X146674672Y-89415828D01*
X146837400Y-88902540D01*
X146837400Y-90445465D01*
X146435113Y-90525485D01*
X146072537Y-90767750D01*
X145830272Y-91130326D01*
X145745200Y-91558013D01*
X145745200Y-92637707D01*
X145830272Y-93065394D01*
X146072537Y-93427970D01*
X146435113Y-93670235D01*
X146862800Y-93755307D01*
X147290487Y-93670235D01*
X147653063Y-93427970D01*
X147895328Y-93065394D01*
X147980400Y-92637707D01*
X147980400Y-112035216D01*
X147806713Y-112069765D01*
X147444137Y-112312030D01*
X147201872Y-112674606D01*
X147116800Y-113102293D01*
X147116800Y-114181987D01*
X147201872Y-114609674D01*
X147444137Y-114972250D01*
X147806713Y-115214515D01*
X148234400Y-115299587D01*
X148662087Y-115214515D01*
X149024663Y-114972250D01*
X149266928Y-114609674D01*
X149352000Y-114181987D01*
X149352000Y-115895988D01*
X149203713Y-115925485D01*
X148841137Y-116167750D01*
X148598872Y-116530326D01*
X148513800Y-116958013D01*
X148513800Y-118037707D01*
X148598872Y-118465394D01*
X148841137Y-118827970D01*
X149203713Y-119070235D01*
X149631400Y-119155307D01*
X150059087Y-119070235D01*
X150421663Y-118827970D01*
X150663928Y-118465394D01*
X150749000Y-118037707D01*
X150749000Y-119469700D01*
X147980400Y-119469700D01*
X147980400Y-118037707D01*
X147980400Y-116958013D01*
X147895328Y-116530326D01*
X147653063Y-116167750D01*
X147290487Y-115925485D01*
X146862800Y-115840413D01*
X146837400Y-115845465D01*
X146837400Y-114302540D01*
X146837400Y-113794540D01*
X146837400Y-113489740D01*
X146837400Y-112981740D01*
X146674672Y-112468452D01*
X146327904Y-112056509D01*
X145829561Y-111811656D01*
X145618200Y-111924503D01*
X145618200Y-113489740D01*
X146837400Y-113489740D01*
X146837400Y-113794540D01*
X145618200Y-113794540D01*
X145618200Y-115359777D01*
X145829561Y-115472624D01*
X146327904Y-115227771D01*
X146674672Y-114815828D01*
X146837400Y-114302540D01*
X146837400Y-115845465D01*
X146435113Y-115925485D01*
X146072537Y-116167750D01*
X145830272Y-116530326D01*
X145745200Y-116958013D01*
X145745200Y-118037707D01*
X145830272Y-118465394D01*
X146072537Y-118827970D01*
X146435113Y-119070235D01*
X146862800Y-119155307D01*
X147290487Y-119070235D01*
X147653063Y-118827970D01*
X147895328Y-118465394D01*
X147980400Y-118037707D01*
X147980400Y-119469700D01*
X146426867Y-119469700D01*
X146335448Y-119431739D01*
X146017148Y-119431461D01*
X145722972Y-119553013D01*
X145497704Y-119777888D01*
X145375639Y-120071852D01*
X145375361Y-120390152D01*
X145496913Y-120684328D01*
X145721788Y-120909596D01*
X146015752Y-121031661D01*
X146334052Y-121031939D01*
X146426596Y-120993700D01*
X174309200Y-120993700D01*
X174309200Y-120993699D01*
X174600804Y-120935696D01*
X174600805Y-120935696D01*
X174765272Y-120825802D01*
X175738185Y-121798715D01*
X175985395Y-121963896D01*
X175985396Y-121963896D01*
X176277000Y-122021900D01*
X184785000Y-122021900D01*
X185076605Y-121963896D01*
X185323815Y-121798715D01*
X185488996Y-121551505D01*
X185547000Y-121259900D01*
X185547000Y-120959302D01*
X185669889Y-120935459D01*
X185789059Y-120857177D01*
X185868831Y-120738999D01*
X185896867Y-120599200D01*
X185896867Y-117602000D01*
X185870559Y-117466411D01*
X185792277Y-117347241D01*
X185674099Y-117267469D01*
X185534300Y-117239433D01*
X184035700Y-117239433D01*
X183900111Y-117265741D01*
X183780941Y-117344023D01*
X183701169Y-117462201D01*
X183673133Y-117602000D01*
X183673133Y-120497900D01*
X183356867Y-120497900D01*
X183356867Y-117602000D01*
X183330559Y-117466411D01*
X183252277Y-117347241D01*
X183134099Y-117267469D01*
X182994300Y-117239433D01*
X182803800Y-117239433D01*
X182803800Y-117144500D01*
X182761264Y-116930657D01*
X182761264Y-116930656D01*
X182740700Y-116899880D01*
X182740700Y-116435553D01*
X182765700Y-116440567D01*
X184264300Y-116440567D01*
X184399889Y-116414259D01*
X184519059Y-116335977D01*
X184598831Y-116217799D01*
X184626867Y-116078000D01*
X184626867Y-113080800D01*
X184600559Y-112945211D01*
X184522277Y-112826041D01*
X184404099Y-112746269D01*
X184264300Y-112718233D01*
X184073800Y-112718233D01*
X184073800Y-112623300D01*
X184031264Y-112409456D01*
X183910131Y-112228169D01*
X183907826Y-112226629D01*
X183907839Y-112212248D01*
X183786287Y-111918072D01*
X183561412Y-111692804D01*
X183267448Y-111570739D01*
X182949148Y-111570461D01*
X182654972Y-111692013D01*
X182429704Y-111916888D01*
X182389139Y-112014576D01*
X180257231Y-109882669D01*
X180075944Y-109761536D01*
X179862100Y-109719000D01*
X177601700Y-109719000D01*
X177482812Y-109599904D01*
X177188848Y-109477839D01*
X176870548Y-109477561D01*
X176576372Y-109599113D01*
X176351104Y-109823988D01*
X176229039Y-110117952D01*
X176228761Y-110436252D01*
X176350313Y-110730428D01*
X176575188Y-110955696D01*
X176869152Y-111077761D01*
X177187452Y-111078039D01*
X177481628Y-110956487D01*
X177601724Y-110836600D01*
X179630637Y-110836600D01*
X180400522Y-111606485D01*
X180181672Y-111696913D01*
X179956404Y-111921788D01*
X179834339Y-112215752D01*
X179834061Y-112534052D01*
X179955613Y-112828228D01*
X179962580Y-112835208D01*
X179891169Y-112941001D01*
X179863133Y-113080800D01*
X179863133Y-116078000D01*
X179889441Y-116213589D01*
X179967723Y-116332759D01*
X180085901Y-116412531D01*
X180225700Y-116440567D01*
X181623100Y-116440567D01*
X181623100Y-117081400D01*
X181654534Y-117239433D01*
X181495700Y-117239433D01*
X181360111Y-117265741D01*
X181240941Y-117344023D01*
X181161169Y-117462201D01*
X181133133Y-117602000D01*
X181133133Y-120497900D01*
X180816867Y-120497900D01*
X180816867Y-117602000D01*
X180790559Y-117466411D01*
X180712277Y-117347241D01*
X180594099Y-117267469D01*
X180454300Y-117239433D01*
X180365400Y-117239433D01*
X180365400Y-117042900D01*
X180315130Y-116790176D01*
X180171973Y-116575927D01*
X179766173Y-116170127D01*
X179551924Y-116026970D01*
X179546867Y-116025964D01*
X179546867Y-113080800D01*
X179520559Y-112945211D01*
X179442277Y-112826041D01*
X179324099Y-112746269D01*
X179184300Y-112718233D01*
X179095400Y-112718233D01*
X179095400Y-112521700D01*
X179045130Y-112268976D01*
X178901973Y-112054727D01*
X178193273Y-111346027D01*
X177979024Y-111202870D01*
X177726300Y-111152600D01*
X162102800Y-111152600D01*
X161850076Y-111202870D01*
X161635827Y-111346027D01*
X161492670Y-111560276D01*
X161442400Y-111813000D01*
X161442400Y-112009573D01*
X161340800Y-112009573D01*
X161205211Y-112035881D01*
X161086041Y-112114163D01*
X161006269Y-112232341D01*
X160978233Y-112372140D01*
X160978233Y-114912140D01*
X161004541Y-115047729D01*
X161082823Y-115166899D01*
X161201001Y-115246671D01*
X161340800Y-115274707D01*
X162864800Y-115274707D01*
X163000389Y-115248399D01*
X163119559Y-115170117D01*
X163199331Y-115051939D01*
X163227367Y-114912140D01*
X163227367Y-112473400D01*
X167701792Y-112473400D01*
X167463914Y-112632345D01*
X166973878Y-113365737D01*
X166801800Y-114230831D01*
X166801800Y-116909169D01*
X166973878Y-117774263D01*
X167463914Y-118507655D01*
X168197306Y-118997691D01*
X169062400Y-119169769D01*
X169927494Y-118997691D01*
X170660886Y-118507655D01*
X171150922Y-117774263D01*
X171323000Y-116909169D01*
X171323000Y-114230831D01*
X171150922Y-113365737D01*
X170660886Y-112632345D01*
X170423007Y-112473400D01*
X177452754Y-112473400D01*
X177697587Y-112718233D01*
X177685700Y-112718233D01*
X177550111Y-112744541D01*
X177430941Y-112822823D01*
X177351169Y-112941001D01*
X177323133Y-113080800D01*
X177323133Y-116078000D01*
X177349441Y-116213589D01*
X177427723Y-116332759D01*
X177545901Y-116412531D01*
X177685700Y-116440567D01*
X177774600Y-116440567D01*
X177774600Y-116637100D01*
X177824870Y-116889824D01*
X177968027Y-117104073D01*
X178182276Y-117247230D01*
X178435000Y-117297500D01*
X178771763Y-117297500D01*
X178700941Y-117344023D01*
X178621169Y-117462201D01*
X178593133Y-117602000D01*
X178593133Y-120497900D01*
X176592630Y-120497900D01*
X175495488Y-119400758D01*
X175457687Y-119309272D01*
X175232812Y-119084004D01*
X174938848Y-118961939D01*
X174620548Y-118961661D01*
X174326372Y-119083213D01*
X174101104Y-119308088D01*
X174062703Y-119400565D01*
X173993569Y-119469700D01*
X159614238Y-119469700D01*
X159786828Y-119398387D01*
X160012096Y-119173512D01*
X160103443Y-118953524D01*
X160278113Y-119070235D01*
X160705800Y-119155307D01*
X161133487Y-119070235D01*
X161496063Y-118827970D01*
X161738328Y-118465394D01*
X161823400Y-118037707D01*
X161823400Y-116958013D01*
X161738328Y-116530326D01*
X161496063Y-116167750D01*
X161133487Y-115925485D01*
X160705800Y-115840413D01*
X160278113Y-115925485D01*
X159915537Y-116167750D01*
X159893000Y-116201479D01*
X159893000Y-115126908D01*
X160124463Y-114972250D01*
X160366728Y-114609674D01*
X160451800Y-114181987D01*
X160451800Y-113102293D01*
X160366728Y-112674606D01*
X160124463Y-112312030D01*
X159761887Y-112069765D01*
X159334200Y-111984693D01*
X158906513Y-112069765D01*
X158543937Y-112312030D01*
X158301672Y-112674606D01*
X158216600Y-113102293D01*
X158216600Y-114181987D01*
X158301672Y-114609674D01*
X158543937Y-114972250D01*
X158775400Y-115126908D01*
X158775400Y-116239492D01*
X158727463Y-116167750D01*
X158597600Y-116080978D01*
X158597600Y-115668800D01*
X158547330Y-115416076D01*
X158404173Y-115201827D01*
X158189924Y-115058670D01*
X157937200Y-115008400D01*
X157301760Y-115008400D01*
X157355863Y-114972250D01*
X157598128Y-114609674D01*
X157683200Y-114181987D01*
X157683200Y-113102293D01*
X157598128Y-112674606D01*
X157355863Y-112312030D01*
X156993287Y-112069765D01*
X156565600Y-111984693D01*
X156137913Y-112069765D01*
X155775337Y-112312030D01*
X155533072Y-112674606D01*
X155448000Y-113102293D01*
X155448000Y-114181987D01*
X155533072Y-114609674D01*
X155667459Y-114810800D01*
X154695140Y-114810800D01*
X154829528Y-114609674D01*
X154914600Y-114181987D01*
X154914600Y-113102293D01*
X154829528Y-112674606D01*
X154587263Y-112312030D01*
X154355800Y-112157371D01*
X154355800Y-111914600D01*
X154355800Y-111645862D01*
X157417004Y-108584657D01*
X157492813Y-108768128D01*
X157717688Y-108993396D01*
X158011652Y-109115461D01*
X158329952Y-109115739D01*
X158624128Y-108994187D01*
X158849396Y-108769312D01*
X158971461Y-108475348D01*
X158971609Y-108305652D01*
X181628462Y-85648800D01*
X189879061Y-85648800D01*
X189689625Y-85932313D01*
X189604553Y-86360000D01*
X189689625Y-86787687D01*
X189931890Y-87150263D01*
X190294466Y-87392528D01*
X190722153Y-87477600D01*
X191801847Y-87477600D01*
X192229534Y-87392528D01*
X192592110Y-87150263D01*
X192834375Y-86787687D01*
X192919447Y-86360000D01*
X192834375Y-85932313D01*
X192592789Y-85570753D01*
X192720931Y-85485131D01*
X193485631Y-84720431D01*
X193537219Y-84643223D01*
X193850466Y-84852528D01*
X194278153Y-84937600D01*
X195357847Y-84937600D01*
X195785534Y-84852528D01*
X196148110Y-84610263D01*
X196390375Y-84247687D01*
X196475447Y-83820000D01*
X196390375Y-83392313D01*
X196148110Y-83029737D01*
X195785534Y-82787472D01*
X195357847Y-82702400D01*
X194278153Y-82702400D01*
X193850466Y-82787472D01*
X193487890Y-83029737D01*
X193333231Y-83261200D01*
X193090500Y-83261200D01*
X192876656Y-83303736D01*
X192806508Y-83350607D01*
X192592789Y-83030753D01*
X192720931Y-82945131D01*
X193485631Y-82180431D01*
X193537219Y-82103223D01*
X193850466Y-82312528D01*
X194278153Y-82397600D01*
X195357847Y-82397600D01*
X195785534Y-82312528D01*
X196148110Y-82070263D01*
X196390375Y-81707687D01*
X196475447Y-81280000D01*
X196390375Y-80852313D01*
X196148110Y-80489737D01*
X195785534Y-80247472D01*
X195357847Y-80162400D01*
X194278153Y-80162400D01*
X193850466Y-80247472D01*
X193487890Y-80489737D01*
X193333231Y-80721200D01*
X193090500Y-80721200D01*
X192876656Y-80763736D01*
X192806508Y-80810607D01*
X192592110Y-80489737D01*
X192229534Y-80247472D01*
X191801847Y-80162400D01*
X190722153Y-80162400D01*
X190294466Y-80247472D01*
X189931890Y-80489737D01*
X189777231Y-80721200D01*
X189251119Y-80721200D01*
X189274777Y-80711425D01*
X189929127Y-80058216D01*
X190283696Y-79204320D01*
X190284503Y-78279736D01*
X189931425Y-77425223D01*
X189278216Y-76770873D01*
X188912706Y-76619100D01*
X191546046Y-76619100D01*
X191342313Y-76659625D01*
X190979737Y-76901890D01*
X190737472Y-77264466D01*
X190652400Y-77692153D01*
X190652400Y-78771847D01*
X190737472Y-79199534D01*
X190979737Y-79562110D01*
X191342313Y-79804375D01*
X191770000Y-79889447D01*
X192197687Y-79804375D01*
X192560263Y-79562110D01*
X192802528Y-79199534D01*
X192887600Y-78771847D01*
X192887600Y-77692153D01*
X192802528Y-77264466D01*
X192560263Y-76901890D01*
X192197687Y-76659625D01*
X191993953Y-76619100D01*
X194086046Y-76619100D01*
X193882313Y-76659625D01*
X193519737Y-76901890D01*
X193277472Y-77264466D01*
X193192400Y-77692153D01*
X193192400Y-78771847D01*
X193277472Y-79199534D01*
X193519737Y-79562110D01*
X193882313Y-79804375D01*
X194310000Y-79889447D01*
X194737687Y-79804375D01*
X195100263Y-79562110D01*
X195342528Y-79199534D01*
X195427600Y-78771847D01*
X195427600Y-77692153D01*
X195342528Y-77264466D01*
X195100263Y-76901890D01*
X194737687Y-76659625D01*
X194533953Y-76619100D01*
X210400900Y-76619100D01*
X210400900Y-129120900D01*
X210400900Y-129120900D01*
G37*
X210400900Y-129120900D02*
X209587700Y-129120900D01*
X209587700Y-98070700D01*
X209587700Y-94678400D01*
X209537430Y-94425676D01*
X209394274Y-94211427D01*
X207670400Y-92487553D01*
X207670400Y-92482107D01*
X207718558Y-92472528D01*
X208081134Y-92230263D01*
X208323399Y-91867687D01*
X208408471Y-91440000D01*
X208323399Y-91012313D01*
X208081134Y-90649737D01*
X207718558Y-90407472D01*
X207290871Y-90322400D01*
X206729129Y-90322400D01*
X206301442Y-90407472D01*
X205938866Y-90649737D01*
X205696601Y-91012313D01*
X205611529Y-91440000D01*
X205696601Y-91867687D01*
X205938866Y-92230263D01*
X206301442Y-92472528D01*
X206349600Y-92482107D01*
X206349600Y-92761100D01*
X206399870Y-93013824D01*
X206543027Y-93228073D01*
X208266900Y-94951946D01*
X208266900Y-95780032D01*
X208143611Y-95595517D01*
X207451421Y-95133011D01*
X206634928Y-94970600D01*
X204997472Y-94970600D01*
X204180979Y-95133011D01*
X203506484Y-95583693D01*
X203506484Y-91803761D01*
X203506484Y-91076239D01*
X203499454Y-91019701D01*
X203238480Y-90548292D01*
X202816970Y-90212637D01*
X202299096Y-90063837D01*
X202082400Y-90215175D01*
X202082400Y-91287600D01*
X203393637Y-91287600D01*
X203506484Y-91076239D01*
X203506484Y-91803761D01*
X203393637Y-91592400D01*
X202082400Y-91592400D01*
X202082400Y-92664825D01*
X202299096Y-92816163D01*
X202816970Y-92667363D01*
X203238480Y-92331708D01*
X203499454Y-91860299D01*
X203506484Y-91803761D01*
X203506484Y-95583693D01*
X203488789Y-95595517D01*
X203026283Y-96287707D01*
X202863872Y-97104200D01*
X203026283Y-97920693D01*
X203488789Y-98612883D01*
X204180979Y-99075389D01*
X204997472Y-99237800D01*
X206634928Y-99237800D01*
X206873760Y-99190293D01*
X206138280Y-99925773D01*
X205693845Y-99628811D01*
X204877352Y-99466400D01*
X203757848Y-99466400D01*
X202941355Y-99628811D01*
X202249165Y-100091317D01*
X201786659Y-100783507D01*
X201777600Y-100829049D01*
X201777600Y-92664825D01*
X201777600Y-91592400D01*
X201777600Y-91287600D01*
X201777600Y-90215175D01*
X201560904Y-90063837D01*
X201043030Y-90212637D01*
X200621520Y-90548292D01*
X200360546Y-91019701D01*
X200353516Y-91076239D01*
X200466363Y-91287600D01*
X201777600Y-91287600D01*
X201777600Y-91592400D01*
X200466363Y-91592400D01*
X200353516Y-91803761D01*
X200360546Y-91860299D01*
X200621520Y-92331708D01*
X201043030Y-92667363D01*
X201560904Y-92816163D01*
X201777600Y-92664825D01*
X201777600Y-100829049D01*
X201624248Y-101600000D01*
X201786659Y-102416493D01*
X202249165Y-103108683D01*
X202941355Y-103571189D01*
X203757848Y-103733600D01*
X204877352Y-103733600D01*
X205693845Y-103571189D01*
X206386035Y-103108683D01*
X206817691Y-102462662D01*
X207073650Y-102719067D01*
X207558924Y-102920570D01*
X208084371Y-102921029D01*
X208569996Y-102720373D01*
X208941867Y-102349150D01*
X209143370Y-101863876D01*
X209143829Y-101338429D01*
X208943173Y-100852804D01*
X208571950Y-100480933D01*
X208086676Y-100279430D01*
X207652894Y-100279051D01*
X209394273Y-98537673D01*
X209537430Y-98323424D01*
X209587700Y-98070700D01*
X209587700Y-129120900D01*
X208768528Y-129120900D01*
X208768528Y-106095800D01*
X208606117Y-105279307D01*
X208143611Y-104587117D01*
X207451421Y-104124611D01*
X206634928Y-103962200D01*
X204997472Y-103962200D01*
X204180979Y-104124611D01*
X203488789Y-104587117D01*
X203026283Y-105279307D01*
X202863872Y-106095800D01*
X203026283Y-106912293D01*
X203488789Y-107604483D01*
X204180979Y-108066989D01*
X204997472Y-108229400D01*
X206634928Y-108229400D01*
X207451421Y-108066989D01*
X208143611Y-107604483D01*
X208606117Y-106912293D01*
X208768528Y-106095800D01*
X208768528Y-129120900D01*
X201472800Y-129120900D01*
X201472800Y-102260400D01*
X201472800Y-101752400D01*
X201472800Y-101447600D01*
X201472800Y-100939600D01*
X201213399Y-99940304D01*
X200591330Y-99116344D01*
X199701297Y-98593159D01*
X199394273Y-98511109D01*
X198983600Y-98607470D01*
X198983600Y-101447600D01*
X201472800Y-101447600D01*
X201472800Y-101752400D01*
X198983600Y-101752400D01*
X198983600Y-104592530D01*
X199394273Y-104688891D01*
X199701297Y-104606841D01*
X200591330Y-104083656D01*
X201213399Y-103259696D01*
X201472800Y-102260400D01*
X201472800Y-129120900D01*
X201220484Y-129120900D01*
X201220484Y-112123761D01*
X201220484Y-111396239D01*
X200975631Y-110897896D01*
X200563688Y-110551128D01*
X200050400Y-110388400D01*
X199542400Y-110388400D01*
X199542400Y-111607600D01*
X201107637Y-111607600D01*
X201220484Y-111396239D01*
X201220484Y-112123761D01*
X201107637Y-111912400D01*
X199542400Y-111912400D01*
X199542400Y-113131600D01*
X200050400Y-113131600D01*
X200563688Y-112968872D01*
X200975631Y-112622104D01*
X201220484Y-112123761D01*
X201220484Y-129120900D01*
X195263020Y-129120900D01*
X195624777Y-128971425D01*
X196279127Y-128318216D01*
X196633696Y-127464320D01*
X196634503Y-126539736D01*
X196281425Y-125685223D01*
X195668572Y-125071300D01*
X195999200Y-125071300D01*
X196213043Y-125028764D01*
X196213044Y-125028764D01*
X196394331Y-124907631D01*
X199785131Y-121516832D01*
X199785131Y-121516831D01*
X199845697Y-121426187D01*
X199906264Y-121335544D01*
X199906264Y-121335543D01*
X199948799Y-121121700D01*
X199948800Y-121121700D01*
X199948800Y-117953830D01*
X200357534Y-117872528D01*
X200720110Y-117630263D01*
X200962375Y-117267687D01*
X201047447Y-116840000D01*
X201047447Y-114300000D01*
X200962375Y-113872313D01*
X200720110Y-113509737D01*
X200357534Y-113267472D01*
X199929847Y-113182400D01*
X199237600Y-113182400D01*
X199237600Y-113131600D01*
X199237600Y-111912400D01*
X199237600Y-111607600D01*
X199237600Y-110388400D01*
X198729600Y-110388400D01*
X198678800Y-110404505D01*
X198678800Y-104592530D01*
X198678800Y-101752400D01*
X198658800Y-101752400D01*
X198658800Y-101447600D01*
X198678800Y-101447600D01*
X198678800Y-98607470D01*
X198268127Y-98511109D01*
X197961103Y-98593159D01*
X197071070Y-99116344D01*
X196475447Y-99905275D01*
X196475447Y-99060000D01*
X196475447Y-96520000D01*
X196475447Y-93980000D01*
X196475447Y-91440000D01*
X196475447Y-88900000D01*
X196475447Y-86360000D01*
X196390375Y-85932313D01*
X196148110Y-85569737D01*
X195785534Y-85327472D01*
X195357847Y-85242400D01*
X194278153Y-85242400D01*
X193850466Y-85327472D01*
X193487890Y-85569737D01*
X193245625Y-85932313D01*
X193160553Y-86360000D01*
X193245625Y-86787687D01*
X193487890Y-87150263D01*
X193850466Y-87392528D01*
X194278153Y-87477600D01*
X195357847Y-87477600D01*
X195785534Y-87392528D01*
X196148110Y-87150263D01*
X196390375Y-86787687D01*
X196475447Y-86360000D01*
X196475447Y-88900000D01*
X196390375Y-88472313D01*
X196148110Y-88109737D01*
X195785534Y-87867472D01*
X195357847Y-87782400D01*
X194278153Y-87782400D01*
X193850466Y-87867472D01*
X193487890Y-88109737D01*
X193245625Y-88472313D01*
X193160553Y-88900000D01*
X193245625Y-89327687D01*
X193487890Y-89690263D01*
X193850466Y-89932528D01*
X194278153Y-90017600D01*
X195357847Y-90017600D01*
X195785534Y-89932528D01*
X196148110Y-89690263D01*
X196390375Y-89327687D01*
X196475447Y-88900000D01*
X196475447Y-91440000D01*
X196390375Y-91012313D01*
X196148110Y-90649737D01*
X195785534Y-90407472D01*
X195357847Y-90322400D01*
X194278153Y-90322400D01*
X193850466Y-90407472D01*
X193487890Y-90649737D01*
X193245625Y-91012313D01*
X193160553Y-91440000D01*
X193245625Y-91867687D01*
X193487890Y-92230263D01*
X193850466Y-92472528D01*
X194278153Y-92557600D01*
X195357847Y-92557600D01*
X195785534Y-92472528D01*
X196148110Y-92230263D01*
X196390375Y-91867687D01*
X196475447Y-91440000D01*
X196475447Y-93980000D01*
X196390375Y-93552313D01*
X196148110Y-93189737D01*
X195785534Y-92947472D01*
X195357847Y-92862400D01*
X194278153Y-92862400D01*
X193850466Y-92947472D01*
X193487890Y-93189737D01*
X193245625Y-93552313D01*
X193160553Y-93980000D01*
X193245625Y-94407687D01*
X193487890Y-94770263D01*
X193850466Y-95012528D01*
X194278153Y-95097600D01*
X195357847Y-95097600D01*
X195785534Y-95012528D01*
X196148110Y-94770263D01*
X196390375Y-94407687D01*
X196475447Y-93980000D01*
X196475447Y-96520000D01*
X196390375Y-96092313D01*
X196148110Y-95729737D01*
X195785534Y-95487472D01*
X195357847Y-95402400D01*
X194278153Y-95402400D01*
X193850466Y-95487472D01*
X193487890Y-95729737D01*
X193245625Y-96092313D01*
X193160553Y-96520000D01*
X193245625Y-96947687D01*
X193487890Y-97310263D01*
X193850466Y-97552528D01*
X194278153Y-97637600D01*
X195357847Y-97637600D01*
X195785534Y-97552528D01*
X196148110Y-97310263D01*
X196390375Y-96947687D01*
X196475447Y-96520000D01*
X196475447Y-99060000D01*
X196390375Y-98632313D01*
X196148110Y-98269737D01*
X195785534Y-98027472D01*
X195357847Y-97942400D01*
X194278153Y-97942400D01*
X193850466Y-98027472D01*
X193487890Y-98269737D01*
X193245625Y-98632313D01*
X193160553Y-99060000D01*
X193245625Y-99487687D01*
X193487890Y-99850263D01*
X193850466Y-100092528D01*
X194278153Y-100177600D01*
X195357847Y-100177600D01*
X195785534Y-100092528D01*
X196148110Y-99850263D01*
X196390375Y-99487687D01*
X196475447Y-99060000D01*
X196475447Y-99905275D01*
X196449001Y-99940304D01*
X196202269Y-100890792D01*
X196148110Y-100809737D01*
X195785534Y-100567472D01*
X195357847Y-100482400D01*
X194278153Y-100482400D01*
X193850466Y-100567472D01*
X193487890Y-100809737D01*
X193245625Y-101172313D01*
X193160553Y-101600000D01*
X193245625Y-102027687D01*
X193487890Y-102390263D01*
X193850466Y-102632528D01*
X194278153Y-102717600D01*
X195357847Y-102717600D01*
X195785534Y-102632528D01*
X196148110Y-102390263D01*
X196202269Y-102309207D01*
X196449001Y-103259696D01*
X197071070Y-104083656D01*
X197961103Y-104606841D01*
X198268127Y-104688891D01*
X198678800Y-104592530D01*
X198678800Y-110404505D01*
X198216312Y-110551128D01*
X197804369Y-110897896D01*
X197559516Y-111396239D01*
X197672363Y-111607600D01*
X199237600Y-111607600D01*
X199237600Y-111912400D01*
X197672363Y-111912400D01*
X197559516Y-112123761D01*
X197804369Y-112622104D01*
X198216312Y-112968872D01*
X198729600Y-113131600D01*
X199237600Y-113131600D01*
X199237600Y-113182400D01*
X198850153Y-113182400D01*
X198422466Y-113267472D01*
X198059890Y-113509737D01*
X197817625Y-113872313D01*
X197732553Y-114300000D01*
X197817625Y-114727687D01*
X198059890Y-115090263D01*
X198422466Y-115332528D01*
X198850153Y-115417600D01*
X199929847Y-115417600D01*
X200357534Y-115332528D01*
X200720110Y-115090263D01*
X200962375Y-114727687D01*
X201047447Y-114300000D01*
X201047447Y-116840000D01*
X200962375Y-116412313D01*
X200720110Y-116049737D01*
X200357534Y-115807472D01*
X199929847Y-115722400D01*
X198850153Y-115722400D01*
X198422466Y-115807472D01*
X198059890Y-116049737D01*
X197817625Y-116412313D01*
X197732553Y-116840000D01*
X197817625Y-117267687D01*
X198059890Y-117630263D01*
X198422466Y-117872528D01*
X198831200Y-117953830D01*
X198831200Y-120890237D01*
X196475447Y-123245990D01*
X196475447Y-121920000D01*
X196475447Y-119380000D01*
X196475447Y-116840000D01*
X196475447Y-114300000D01*
X196475447Y-111760000D01*
X196475447Y-109220000D01*
X196475447Y-106680000D01*
X196475447Y-104140000D01*
X196390375Y-103712313D01*
X196148110Y-103349737D01*
X195785534Y-103107472D01*
X195357847Y-103022400D01*
X194278153Y-103022400D01*
X193850466Y-103107472D01*
X193487890Y-103349737D01*
X193245625Y-103712313D01*
X193160553Y-104140000D01*
X193245625Y-104567687D01*
X193487890Y-104930263D01*
X193850466Y-105172528D01*
X194278153Y-105257600D01*
X195357847Y-105257600D01*
X195785534Y-105172528D01*
X196148110Y-104930263D01*
X196390375Y-104567687D01*
X196475447Y-104140000D01*
X196475447Y-106680000D01*
X196390375Y-106252313D01*
X196148110Y-105889737D01*
X195785534Y-105647472D01*
X195357847Y-105562400D01*
X194278153Y-105562400D01*
X193850466Y-105647472D01*
X193487890Y-105889737D01*
X193245625Y-106252313D01*
X193160553Y-106680000D01*
X193245625Y-107107687D01*
X193487890Y-107470263D01*
X193850466Y-107712528D01*
X194278153Y-107797600D01*
X195357847Y-107797600D01*
X195785534Y-107712528D01*
X196148110Y-107470263D01*
X196390375Y-107107687D01*
X196475447Y-106680000D01*
X196475447Y-109220000D01*
X196390375Y-108792313D01*
X196148110Y-108429737D01*
X195785534Y-108187472D01*
X195357847Y-108102400D01*
X194278153Y-108102400D01*
X193850466Y-108187472D01*
X193487890Y-108429737D01*
X193245625Y-108792313D01*
X193160553Y-109220000D01*
X193245625Y-109647687D01*
X193487890Y-110010263D01*
X193850466Y-110252528D01*
X194278153Y-110337600D01*
X195357847Y-110337600D01*
X195785534Y-110252528D01*
X196148110Y-110010263D01*
X196390375Y-109647687D01*
X196475447Y-109220000D01*
X196475447Y-111760000D01*
X196390375Y-111332313D01*
X196148110Y-110969737D01*
X195785534Y-110727472D01*
X195357847Y-110642400D01*
X194278153Y-110642400D01*
X193850466Y-110727472D01*
X193487890Y-110969737D01*
X193245625Y-111332313D01*
X193160553Y-111760000D01*
X193245625Y-112187687D01*
X193487890Y-112550263D01*
X193850466Y-112792528D01*
X194278153Y-112877600D01*
X195357847Y-112877600D01*
X195785534Y-112792528D01*
X196148110Y-112550263D01*
X196390375Y-112187687D01*
X196475447Y-111760000D01*
X196475447Y-114300000D01*
X196390375Y-113872313D01*
X196148110Y-113509737D01*
X195785534Y-113267472D01*
X195357847Y-113182400D01*
X194278153Y-113182400D01*
X193850466Y-113267472D01*
X193487890Y-113509737D01*
X193245625Y-113872313D01*
X193160553Y-114300000D01*
X193245625Y-114727687D01*
X193487890Y-115090263D01*
X193850466Y-115332528D01*
X194278153Y-115417600D01*
X195357847Y-115417600D01*
X195785534Y-115332528D01*
X196148110Y-115090263D01*
X196390375Y-114727687D01*
X196475447Y-114300000D01*
X196475447Y-116840000D01*
X196390375Y-116412313D01*
X196148110Y-116049737D01*
X195785534Y-115807472D01*
X195357847Y-115722400D01*
X194278153Y-115722400D01*
X193850466Y-115807472D01*
X193487890Y-116049737D01*
X193245625Y-116412313D01*
X193160553Y-116840000D01*
X193245625Y-117267687D01*
X193487890Y-117630263D01*
X193850466Y-117872528D01*
X194278153Y-117957600D01*
X195357847Y-117957600D01*
X195785534Y-117872528D01*
X196148110Y-117630263D01*
X196390375Y-117267687D01*
X196475447Y-116840000D01*
X196475447Y-119380000D01*
X196390375Y-118952313D01*
X196148110Y-118589737D01*
X195785534Y-118347472D01*
X195357847Y-118262400D01*
X194278153Y-118262400D01*
X193850466Y-118347472D01*
X193487890Y-118589737D01*
X193245625Y-118952313D01*
X193160553Y-119380000D01*
X193245625Y-119807687D01*
X193487890Y-120170263D01*
X193850466Y-120412528D01*
X194278153Y-120497600D01*
X195357847Y-120497600D01*
X195785534Y-120412528D01*
X196148110Y-120170263D01*
X196390375Y-119807687D01*
X196475447Y-119380000D01*
X196475447Y-121920000D01*
X196390375Y-121492313D01*
X196148110Y-121129737D01*
X195785534Y-120887472D01*
X195357847Y-120802400D01*
X194278153Y-120802400D01*
X193850466Y-120887472D01*
X193487890Y-121129737D01*
X193245625Y-121492313D01*
X193160553Y-121920000D01*
X193245625Y-122347687D01*
X193487890Y-122710263D01*
X193850466Y-122952528D01*
X194278153Y-123037600D01*
X195357847Y-123037600D01*
X195785534Y-122952528D01*
X196148110Y-122710263D01*
X196390375Y-122347687D01*
X196475447Y-121920000D01*
X196475447Y-123245990D01*
X195767737Y-123953700D01*
X192919447Y-123953700D01*
X192919447Y-121920000D01*
X192919447Y-119380000D01*
X192919447Y-116840000D01*
X192919447Y-114300000D01*
X192919447Y-111760000D01*
X192919447Y-109220000D01*
X192919447Y-106680000D01*
X192919447Y-104140000D01*
X192919447Y-101600000D01*
X192919447Y-99060000D01*
X192919447Y-96520000D01*
X192919447Y-93980000D01*
X192919447Y-91440000D01*
X192919447Y-88900000D01*
X192834375Y-88472313D01*
X192592110Y-88109737D01*
X192229534Y-87867472D01*
X191801847Y-87782400D01*
X190722153Y-87782400D01*
X190294466Y-87867472D01*
X189931890Y-88109737D01*
X189689625Y-88472313D01*
X189604553Y-88900000D01*
X189689625Y-89327687D01*
X189931890Y-89690263D01*
X190294466Y-89932528D01*
X190722153Y-90017600D01*
X191801847Y-90017600D01*
X192229534Y-89932528D01*
X192592110Y-89690263D01*
X192834375Y-89327687D01*
X192919447Y-88900000D01*
X192919447Y-91440000D01*
X192834375Y-91012313D01*
X192592110Y-90649737D01*
X192229534Y-90407472D01*
X191801847Y-90322400D01*
X190722153Y-90322400D01*
X190294466Y-90407472D01*
X189931890Y-90649737D01*
X189689625Y-91012313D01*
X189604553Y-91440000D01*
X189689625Y-91867687D01*
X189931890Y-92230263D01*
X190294466Y-92472528D01*
X190722153Y-92557600D01*
X191801847Y-92557600D01*
X192229534Y-92472528D01*
X192592110Y-92230263D01*
X192834375Y-91867687D01*
X192919447Y-91440000D01*
X192919447Y-93980000D01*
X192834375Y-93552313D01*
X192592110Y-93189737D01*
X192229534Y-92947472D01*
X191801847Y-92862400D01*
X190722153Y-92862400D01*
X190294466Y-92947472D01*
X189931890Y-93189737D01*
X189689625Y-93552313D01*
X189604553Y-93980000D01*
X189689625Y-94407687D01*
X189931890Y-94770263D01*
X190294466Y-95012528D01*
X190722153Y-95097600D01*
X191801847Y-95097600D01*
X192229534Y-95012528D01*
X192592110Y-94770263D01*
X192834375Y-94407687D01*
X192919447Y-93980000D01*
X192919447Y-96520000D01*
X192834375Y-96092313D01*
X192592110Y-95729737D01*
X192229534Y-95487472D01*
X191801847Y-95402400D01*
X190722153Y-95402400D01*
X190294466Y-95487472D01*
X189931890Y-95729737D01*
X189689625Y-96092313D01*
X189604553Y-96520000D01*
X189689625Y-96947687D01*
X189931890Y-97310263D01*
X190294466Y-97552528D01*
X190722153Y-97637600D01*
X191801847Y-97637600D01*
X192229534Y-97552528D01*
X192592110Y-97310263D01*
X192834375Y-96947687D01*
X192919447Y-96520000D01*
X192919447Y-99060000D01*
X192834375Y-98632313D01*
X192592110Y-98269737D01*
X192229534Y-98027472D01*
X191801847Y-97942400D01*
X190722153Y-97942400D01*
X190294466Y-98027472D01*
X189931890Y-98269737D01*
X189689625Y-98632313D01*
X189604553Y-99060000D01*
X189689625Y-99487687D01*
X189931890Y-99850263D01*
X190294466Y-100092528D01*
X190722153Y-100177600D01*
X191801847Y-100177600D01*
X192229534Y-100092528D01*
X192592110Y-99850263D01*
X192834375Y-99487687D01*
X192919447Y-99060000D01*
X192919447Y-101600000D01*
X192834375Y-101172313D01*
X192592110Y-100809737D01*
X192229534Y-100567472D01*
X191801847Y-100482400D01*
X190722153Y-100482400D01*
X190294466Y-100567472D01*
X189931890Y-100809737D01*
X189689625Y-101172313D01*
X189604553Y-101600000D01*
X189689625Y-102027687D01*
X189931890Y-102390263D01*
X190294466Y-102632528D01*
X190722153Y-102717600D01*
X191801847Y-102717600D01*
X192229534Y-102632528D01*
X192592110Y-102390263D01*
X192834375Y-102027687D01*
X192919447Y-101600000D01*
X192919447Y-104140000D01*
X192834375Y-103712313D01*
X192592110Y-103349737D01*
X192229534Y-103107472D01*
X191801847Y-103022400D01*
X190722153Y-103022400D01*
X190294466Y-103107472D01*
X189931890Y-103349737D01*
X189689625Y-103712313D01*
X189604553Y-104140000D01*
X189689625Y-104567687D01*
X189931890Y-104930263D01*
X190294466Y-105172528D01*
X190722153Y-105257600D01*
X191801847Y-105257600D01*
X192229534Y-105172528D01*
X192592110Y-104930263D01*
X192834375Y-104567687D01*
X192919447Y-104140000D01*
X192919447Y-106680000D01*
X192834375Y-106252313D01*
X192592110Y-105889737D01*
X192229534Y-105647472D01*
X191801847Y-105562400D01*
X190722153Y-105562400D01*
X190294466Y-105647472D01*
X189931890Y-105889737D01*
X189689625Y-106252313D01*
X189604553Y-106680000D01*
X189689625Y-107107687D01*
X189931890Y-107470263D01*
X190294466Y-107712528D01*
X190722153Y-107797600D01*
X191801847Y-107797600D01*
X192229534Y-107712528D01*
X192592110Y-107470263D01*
X192834375Y-107107687D01*
X192919447Y-106680000D01*
X192919447Y-109220000D01*
X192834375Y-108792313D01*
X192592110Y-108429737D01*
X192229534Y-108187472D01*
X191801847Y-108102400D01*
X190722153Y-108102400D01*
X190294466Y-108187472D01*
X189931890Y-108429737D01*
X189689625Y-108792313D01*
X189604553Y-109220000D01*
X189689625Y-109647687D01*
X189931890Y-110010263D01*
X190294466Y-110252528D01*
X190722153Y-110337600D01*
X191801847Y-110337600D01*
X192229534Y-110252528D01*
X192592110Y-110010263D01*
X192834375Y-109647687D01*
X192919447Y-109220000D01*
X192919447Y-111760000D01*
X192834375Y-111332313D01*
X192592110Y-110969737D01*
X192229534Y-110727472D01*
X191801847Y-110642400D01*
X190722153Y-110642400D01*
X190294466Y-110727472D01*
X189931890Y-110969737D01*
X189689625Y-111332313D01*
X189604553Y-111760000D01*
X189689625Y-112187687D01*
X189931890Y-112550263D01*
X190294466Y-112792528D01*
X190722153Y-112877600D01*
X191801847Y-112877600D01*
X192229534Y-112792528D01*
X192592110Y-112550263D01*
X192834375Y-112187687D01*
X192919447Y-111760000D01*
X192919447Y-114300000D01*
X192834375Y-113872313D01*
X192592110Y-113509737D01*
X192229534Y-113267472D01*
X191801847Y-113182400D01*
X190722153Y-113182400D01*
X190294466Y-113267472D01*
X189931890Y-113509737D01*
X189689625Y-113872313D01*
X189604553Y-114300000D01*
X189689625Y-114727687D01*
X189931890Y-115090263D01*
X190294466Y-115332528D01*
X190722153Y-115417600D01*
X191801847Y-115417600D01*
X192229534Y-115332528D01*
X192592110Y-115090263D01*
X192834375Y-114727687D01*
X192919447Y-114300000D01*
X192919447Y-116840000D01*
X192834375Y-116412313D01*
X192592110Y-116049737D01*
X192229534Y-115807472D01*
X191801847Y-115722400D01*
X190722153Y-115722400D01*
X190294466Y-115807472D01*
X189931890Y-116049737D01*
X189689625Y-116412313D01*
X189604553Y-116840000D01*
X189689625Y-117267687D01*
X189931890Y-117630263D01*
X190294466Y-117872528D01*
X190722153Y-117957600D01*
X191801847Y-117957600D01*
X192229534Y-117872528D01*
X192592110Y-117630263D01*
X192834375Y-117267687D01*
X192919447Y-116840000D01*
X192919447Y-119380000D01*
X192834375Y-118952313D01*
X192592110Y-118589737D01*
X192229534Y-118347472D01*
X191801847Y-118262400D01*
X190722153Y-118262400D01*
X190294466Y-118347472D01*
X189931890Y-118589737D01*
X189689625Y-118952313D01*
X189604553Y-119380000D01*
X189689625Y-119807687D01*
X189931890Y-120170263D01*
X190294466Y-120412528D01*
X190722153Y-120497600D01*
X191801847Y-120497600D01*
X192229534Y-120412528D01*
X192592110Y-120170263D01*
X192834375Y-119807687D01*
X192919447Y-119380000D01*
X192919447Y-121920000D01*
X192834375Y-121492313D01*
X192592110Y-121129737D01*
X192229534Y-120887472D01*
X191801847Y-120802400D01*
X190722153Y-120802400D01*
X190294466Y-120887472D01*
X189931890Y-121129737D01*
X189689625Y-121492313D01*
X189604553Y-121920000D01*
X189689625Y-122347687D01*
X189931890Y-122710263D01*
X190294466Y-122952528D01*
X190722153Y-123037600D01*
X191801847Y-123037600D01*
X192229534Y-122952528D01*
X192592110Y-122710263D01*
X192834375Y-122347687D01*
X192919447Y-121920000D01*
X192919447Y-123953700D01*
X145313400Y-123953700D01*
X145313400Y-115359777D01*
X145313400Y-113794540D01*
X145313400Y-113489740D01*
X145313400Y-111924503D01*
X145313400Y-89959777D01*
X145313400Y-88394540D01*
X145313400Y-88089740D01*
X145313400Y-86524503D01*
X145102039Y-86411656D01*
X144603696Y-86656509D01*
X144256928Y-87068452D01*
X144094200Y-87581740D01*
X144094200Y-88089740D01*
X145313400Y-88089740D01*
X145313400Y-88394540D01*
X144094200Y-88394540D01*
X144094200Y-88902540D01*
X144256928Y-89415828D01*
X144603696Y-89827771D01*
X145102039Y-90072624D01*
X145313400Y-89959777D01*
X145313400Y-111924503D01*
X145211800Y-111870258D01*
X145211800Y-92637707D01*
X145211800Y-91558013D01*
X145126728Y-91130326D01*
X144884463Y-90767750D01*
X144521887Y-90525485D01*
X144094200Y-90440413D01*
X143814800Y-90495988D01*
X143814800Y-88781987D01*
X143814800Y-87702293D01*
X143729728Y-87274606D01*
X143487463Y-86912030D01*
X143124887Y-86669765D01*
X142697200Y-86584693D01*
X142269513Y-86669765D01*
X141906937Y-86912030D01*
X141664672Y-87274606D01*
X141579600Y-87702293D01*
X141579600Y-88781987D01*
X141664672Y-89209674D01*
X141906937Y-89572250D01*
X142269513Y-89814515D01*
X142697200Y-89899587D01*
X143124887Y-89814515D01*
X143487463Y-89572250D01*
X143729728Y-89209674D01*
X143814800Y-88781987D01*
X143814800Y-90495988D01*
X143666513Y-90525485D01*
X143303937Y-90767750D01*
X143061672Y-91130326D01*
X142976600Y-91558013D01*
X142976600Y-92637707D01*
X143061672Y-93065394D01*
X143303937Y-93427970D01*
X143666513Y-93670235D01*
X144094200Y-93755307D01*
X144521887Y-93670235D01*
X144884463Y-93427970D01*
X145126728Y-93065394D01*
X145211800Y-92637707D01*
X145211800Y-111870258D01*
X145102039Y-111811656D01*
X144603696Y-112056509D01*
X144256928Y-112468452D01*
X144094200Y-112981740D01*
X144094200Y-113489740D01*
X145313400Y-113489740D01*
X145313400Y-113794540D01*
X144094200Y-113794540D01*
X144094200Y-114302540D01*
X144256928Y-114815828D01*
X144603696Y-115227771D01*
X145102039Y-115472624D01*
X145313400Y-115359777D01*
X145313400Y-123953700D01*
X145211800Y-123953700D01*
X145211800Y-118037707D01*
X145211800Y-116958013D01*
X145126728Y-116530326D01*
X144884463Y-116167750D01*
X144521887Y-115925485D01*
X144094200Y-115840413D01*
X143814800Y-115895988D01*
X143814800Y-114181987D01*
X143814800Y-113102293D01*
X143729728Y-112674606D01*
X143487463Y-112312030D01*
X143124887Y-112069765D01*
X142697200Y-111984693D01*
X142269513Y-112069765D01*
X141906937Y-112312030D01*
X141664672Y-112674606D01*
X141579600Y-113102293D01*
X141579600Y-114181987D01*
X141664672Y-114609674D01*
X141906937Y-114972250D01*
X142269513Y-115214515D01*
X142697200Y-115299587D01*
X143124887Y-115214515D01*
X143487463Y-114972250D01*
X143729728Y-114609674D01*
X143814800Y-114181987D01*
X143814800Y-115895988D01*
X143666513Y-115925485D01*
X143303937Y-116167750D01*
X143061672Y-116530326D01*
X142976600Y-116958013D01*
X142976600Y-118037707D01*
X143061672Y-118465394D01*
X143303937Y-118827970D01*
X143666513Y-119070235D01*
X144094200Y-119155307D01*
X144521887Y-119070235D01*
X144884463Y-118827970D01*
X145126728Y-118465394D01*
X145211800Y-118037707D01*
X145211800Y-123953700D01*
X144270000Y-123953700D01*
X144056156Y-123996236D01*
X143874869Y-124117369D01*
X143114869Y-124877369D01*
X142993736Y-125058656D01*
X142951200Y-125272500D01*
X142951200Y-125515231D01*
X142719737Y-125669890D01*
X142477472Y-126032466D01*
X142392400Y-126460153D01*
X142392400Y-127539847D01*
X142477472Y-127967534D01*
X142719737Y-128330110D01*
X143082313Y-128572375D01*
X143510000Y-128657447D01*
X143937687Y-128572375D01*
X144300263Y-128330110D01*
X144542528Y-127967534D01*
X144627600Y-127539847D01*
X144627600Y-126460153D01*
X144542528Y-126032466D01*
X144300263Y-125669890D01*
X144068800Y-125515231D01*
X144068800Y-125503962D01*
X144501462Y-125071300D01*
X192952423Y-125071300D01*
X192340873Y-125681784D01*
X191986304Y-126535680D01*
X191985497Y-127460264D01*
X192338575Y-128314777D01*
X192991784Y-128969127D01*
X193357293Y-129120900D01*
X190347600Y-129120900D01*
X190347600Y-127539847D01*
X190347600Y-126460153D01*
X190262528Y-126032466D01*
X190020263Y-125669890D01*
X189657687Y-125427625D01*
X189230000Y-125342553D01*
X188802313Y-125427625D01*
X188439737Y-125669890D01*
X188197472Y-126032466D01*
X188112400Y-126460153D01*
X188112400Y-127539847D01*
X188197472Y-127967534D01*
X188439737Y-128330110D01*
X188802313Y-128572375D01*
X189230000Y-128657447D01*
X189657687Y-128572375D01*
X190020263Y-128330110D01*
X190262528Y-127967534D01*
X190347600Y-127539847D01*
X190347600Y-129120900D01*
X187807600Y-129120900D01*
X187807600Y-127539847D01*
X187807600Y-126460153D01*
X187722528Y-126032466D01*
X187480263Y-125669890D01*
X187117687Y-125427625D01*
X186690000Y-125342553D01*
X186262313Y-125427625D01*
X185899737Y-125669890D01*
X185657472Y-126032466D01*
X185572400Y-126460153D01*
X185572400Y-127539847D01*
X185657472Y-127967534D01*
X185899737Y-128330110D01*
X186262313Y-128572375D01*
X186690000Y-128657447D01*
X187117687Y-128572375D01*
X187480263Y-128330110D01*
X187722528Y-127967534D01*
X187807600Y-127539847D01*
X187807600Y-129120900D01*
X185267600Y-129120900D01*
X185267600Y-127539847D01*
X185267600Y-126460153D01*
X185182528Y-126032466D01*
X184940263Y-125669890D01*
X184577687Y-125427625D01*
X184150000Y-125342553D01*
X183722313Y-125427625D01*
X183359737Y-125669890D01*
X183117472Y-126032466D01*
X183032400Y-126460153D01*
X183032400Y-127539847D01*
X183117472Y-127967534D01*
X183359737Y-128330110D01*
X183722313Y-128572375D01*
X184150000Y-128657447D01*
X184577687Y-128572375D01*
X184940263Y-128330110D01*
X185182528Y-127967534D01*
X185267600Y-127539847D01*
X185267600Y-129120900D01*
X182727600Y-129120900D01*
X182727600Y-127539847D01*
X182727600Y-126460153D01*
X182642528Y-126032466D01*
X182400263Y-125669890D01*
X182037687Y-125427625D01*
X181610000Y-125342553D01*
X181182313Y-125427625D01*
X180819737Y-125669890D01*
X180577472Y-126032466D01*
X180492400Y-126460153D01*
X180492400Y-127539847D01*
X180577472Y-127967534D01*
X180819737Y-128330110D01*
X181182313Y-128572375D01*
X181610000Y-128657447D01*
X182037687Y-128572375D01*
X182400263Y-128330110D01*
X182642528Y-127967534D01*
X182727600Y-127539847D01*
X182727600Y-129120900D01*
X180187600Y-129120900D01*
X180187600Y-127539847D01*
X180187600Y-126460153D01*
X180102528Y-126032466D01*
X179860263Y-125669890D01*
X179497687Y-125427625D01*
X179070000Y-125342553D01*
X178642313Y-125427625D01*
X178279737Y-125669890D01*
X178037472Y-126032466D01*
X177952400Y-126460153D01*
X177952400Y-127539847D01*
X178037472Y-127967534D01*
X178279737Y-128330110D01*
X178642313Y-128572375D01*
X179070000Y-128657447D01*
X179497687Y-128572375D01*
X179860263Y-128330110D01*
X180102528Y-127967534D01*
X180187600Y-127539847D01*
X180187600Y-129120900D01*
X177647600Y-129120900D01*
X177647600Y-127539847D01*
X177647600Y-126460153D01*
X177562528Y-126032466D01*
X177320263Y-125669890D01*
X176957687Y-125427625D01*
X176530000Y-125342553D01*
X176102313Y-125427625D01*
X175739737Y-125669890D01*
X175497472Y-126032466D01*
X175412400Y-126460153D01*
X175412400Y-127539847D01*
X175497472Y-127967534D01*
X175739737Y-128330110D01*
X176102313Y-128572375D01*
X176530000Y-128657447D01*
X176957687Y-128572375D01*
X177320263Y-128330110D01*
X177562528Y-127967534D01*
X177647600Y-127539847D01*
X177647600Y-129120900D01*
X175107600Y-129120900D01*
X175107600Y-127539847D01*
X175107600Y-126460153D01*
X175022528Y-126032466D01*
X174780263Y-125669890D01*
X174417687Y-125427625D01*
X173990000Y-125342553D01*
X173562313Y-125427625D01*
X173199737Y-125669890D01*
X172957472Y-126032466D01*
X172872400Y-126460153D01*
X172872400Y-127539847D01*
X172957472Y-127967534D01*
X173199737Y-128330110D01*
X173562313Y-128572375D01*
X173990000Y-128657447D01*
X174417687Y-128572375D01*
X174780263Y-128330110D01*
X175022528Y-127967534D01*
X175107600Y-127539847D01*
X175107600Y-129120900D01*
X172567600Y-129120900D01*
X172567600Y-127539847D01*
X172567600Y-126460153D01*
X172482528Y-126032466D01*
X172240263Y-125669890D01*
X171877687Y-125427625D01*
X171450000Y-125342553D01*
X171022313Y-125427625D01*
X170659737Y-125669890D01*
X170417472Y-126032466D01*
X170332400Y-126460153D01*
X170332400Y-127539847D01*
X170417472Y-127967534D01*
X170659737Y-128330110D01*
X171022313Y-128572375D01*
X171450000Y-128657447D01*
X171877687Y-128572375D01*
X172240263Y-128330110D01*
X172482528Y-127967534D01*
X172567600Y-127539847D01*
X172567600Y-129120900D01*
X167487600Y-129120900D01*
X167487600Y-127539847D01*
X167487600Y-126460153D01*
X167402528Y-126032466D01*
X167160263Y-125669890D01*
X166797687Y-125427625D01*
X166370000Y-125342553D01*
X165942313Y-125427625D01*
X165579737Y-125669890D01*
X165337472Y-126032466D01*
X165252400Y-126460153D01*
X165252400Y-127539847D01*
X165337472Y-127967534D01*
X165579737Y-128330110D01*
X165942313Y-128572375D01*
X166370000Y-128657447D01*
X166797687Y-128572375D01*
X167160263Y-128330110D01*
X167402528Y-127967534D01*
X167487600Y-127539847D01*
X167487600Y-129120900D01*
X164947600Y-129120900D01*
X164947600Y-127539847D01*
X164947600Y-126460153D01*
X164862528Y-126032466D01*
X164620263Y-125669890D01*
X164257687Y-125427625D01*
X163830000Y-125342553D01*
X163402313Y-125427625D01*
X163039737Y-125669890D01*
X162797472Y-126032466D01*
X162712400Y-126460153D01*
X162712400Y-127539847D01*
X162797472Y-127967534D01*
X163039737Y-128330110D01*
X163402313Y-128572375D01*
X163830000Y-128657447D01*
X164257687Y-128572375D01*
X164620263Y-128330110D01*
X164862528Y-127967534D01*
X164947600Y-127539847D01*
X164947600Y-129120900D01*
X162407600Y-129120900D01*
X162407600Y-127539847D01*
X162407600Y-126460153D01*
X162322528Y-126032466D01*
X162080263Y-125669890D01*
X161717687Y-125427625D01*
X161290000Y-125342553D01*
X160862313Y-125427625D01*
X160499737Y-125669890D01*
X160257472Y-126032466D01*
X160172400Y-126460153D01*
X160172400Y-127539847D01*
X160257472Y-127967534D01*
X160499737Y-128330110D01*
X160862313Y-128572375D01*
X161290000Y-128657447D01*
X161717687Y-128572375D01*
X162080263Y-128330110D01*
X162322528Y-127967534D01*
X162407600Y-127539847D01*
X162407600Y-129120900D01*
X159867600Y-129120900D01*
X159867600Y-127539847D01*
X159867600Y-126460153D01*
X159782528Y-126032466D01*
X159540263Y-125669890D01*
X159177687Y-125427625D01*
X158750000Y-125342553D01*
X158322313Y-125427625D01*
X157959737Y-125669890D01*
X157717472Y-126032466D01*
X157632400Y-126460153D01*
X157632400Y-127539847D01*
X157717472Y-127967534D01*
X157959737Y-128330110D01*
X158322313Y-128572375D01*
X158750000Y-128657447D01*
X159177687Y-128572375D01*
X159540263Y-128330110D01*
X159782528Y-127967534D01*
X159867600Y-127539847D01*
X159867600Y-129120900D01*
X157327600Y-129120900D01*
X157327600Y-127539847D01*
X157327600Y-126460153D01*
X157242528Y-126032466D01*
X157000263Y-125669890D01*
X156637687Y-125427625D01*
X156210000Y-125342553D01*
X155782313Y-125427625D01*
X155419737Y-125669890D01*
X155177472Y-126032466D01*
X155092400Y-126460153D01*
X155092400Y-127539847D01*
X155177472Y-127967534D01*
X155419737Y-128330110D01*
X155782313Y-128572375D01*
X156210000Y-128657447D01*
X156637687Y-128572375D01*
X157000263Y-128330110D01*
X157242528Y-127967534D01*
X157327600Y-127539847D01*
X157327600Y-129120900D01*
X154787600Y-129120900D01*
X154787600Y-127539847D01*
X154787600Y-126460153D01*
X154702528Y-126032466D01*
X154460263Y-125669890D01*
X154097687Y-125427625D01*
X153670000Y-125342553D01*
X153242313Y-125427625D01*
X152879737Y-125669890D01*
X152637472Y-126032466D01*
X152552400Y-126460153D01*
X152552400Y-127539847D01*
X152637472Y-127967534D01*
X152879737Y-128330110D01*
X153242313Y-128572375D01*
X153670000Y-128657447D01*
X154097687Y-128572375D01*
X154460263Y-128330110D01*
X154702528Y-127967534D01*
X154787600Y-127539847D01*
X154787600Y-129120900D01*
X152247600Y-129120900D01*
X152247600Y-127539847D01*
X152247600Y-126460153D01*
X152162528Y-126032466D01*
X151920263Y-125669890D01*
X151557687Y-125427625D01*
X151130000Y-125342553D01*
X150702313Y-125427625D01*
X150339737Y-125669890D01*
X150097472Y-126032466D01*
X150012400Y-126460153D01*
X150012400Y-127539847D01*
X150097472Y-127967534D01*
X150339737Y-128330110D01*
X150702313Y-128572375D01*
X151130000Y-128657447D01*
X151557687Y-128572375D01*
X151920263Y-128330110D01*
X152162528Y-127967534D01*
X152247600Y-127539847D01*
X152247600Y-129120900D01*
X149707600Y-129120900D01*
X149707600Y-127539847D01*
X149707600Y-126460153D01*
X149622528Y-126032466D01*
X149380263Y-125669890D01*
X149017687Y-125427625D01*
X148590000Y-125342553D01*
X148162313Y-125427625D01*
X147799737Y-125669890D01*
X147557472Y-126032466D01*
X147472400Y-126460153D01*
X147472400Y-127539847D01*
X147557472Y-127967534D01*
X147799737Y-128330110D01*
X148162313Y-128572375D01*
X148590000Y-128657447D01*
X149017687Y-128572375D01*
X149380263Y-128330110D01*
X149622528Y-127967534D01*
X149707600Y-127539847D01*
X149707600Y-129120900D01*
X134467600Y-129120900D01*
X134467600Y-127539847D01*
X134467600Y-126460153D01*
X134382528Y-126032466D01*
X134140263Y-125669890D01*
X133777687Y-125427625D01*
X133350000Y-125342553D01*
X132922313Y-125427625D01*
X132559737Y-125669890D01*
X132317472Y-126032466D01*
X132232400Y-126460153D01*
X132232400Y-127539847D01*
X132317472Y-127967534D01*
X132559737Y-128330110D01*
X132922313Y-128572375D01*
X133350000Y-128657447D01*
X133777687Y-128572375D01*
X134140263Y-128330110D01*
X134382528Y-127967534D01*
X134467600Y-127539847D01*
X134467600Y-129120900D01*
X131927600Y-129120900D01*
X131927600Y-127539847D01*
X131927600Y-126460153D01*
X131842528Y-126032466D01*
X131600263Y-125669890D01*
X131237687Y-125427625D01*
X130810000Y-125342553D01*
X130382313Y-125427625D01*
X130019737Y-125669890D01*
X129777472Y-126032466D01*
X129692400Y-126460153D01*
X129692400Y-127539847D01*
X129777472Y-127967534D01*
X130019737Y-128330110D01*
X130382313Y-128572375D01*
X130810000Y-128657447D01*
X131237687Y-128572375D01*
X131600263Y-128330110D01*
X131842528Y-127967534D01*
X131927600Y-127539847D01*
X131927600Y-129120900D01*
X129387600Y-129120900D01*
X129387600Y-127539847D01*
X129387600Y-126460153D01*
X129302528Y-126032466D01*
X129060263Y-125669890D01*
X128697687Y-125427625D01*
X128270000Y-125342553D01*
X127842313Y-125427625D01*
X127479737Y-125669890D01*
X127237472Y-126032466D01*
X127152400Y-126460153D01*
X127152400Y-127539847D01*
X127237472Y-127967534D01*
X127479737Y-128330110D01*
X127842313Y-128572375D01*
X128270000Y-128657447D01*
X128697687Y-128572375D01*
X129060263Y-128330110D01*
X129302528Y-127967534D01*
X129387600Y-127539847D01*
X129387600Y-129120900D01*
X126847600Y-129120900D01*
X126847600Y-127539847D01*
X126847600Y-126460153D01*
X126762528Y-126032466D01*
X126520263Y-125669890D01*
X126157687Y-125427625D01*
X125730000Y-125342553D01*
X125302313Y-125427625D01*
X124939737Y-125669890D01*
X124697472Y-126032466D01*
X124612400Y-126460153D01*
X124612400Y-127539847D01*
X124697472Y-127967534D01*
X124939737Y-128330110D01*
X125302313Y-128572375D01*
X125730000Y-128657447D01*
X126157687Y-128572375D01*
X126520263Y-128330110D01*
X126762528Y-127967534D01*
X126847600Y-127539847D01*
X126847600Y-129120900D01*
X112713020Y-129120900D01*
X113074777Y-128971425D01*
X113729127Y-128318216D01*
X114083696Y-127464320D01*
X114084503Y-126539736D01*
X113731425Y-125685223D01*
X113143229Y-125096000D01*
X134839069Y-125096000D01*
X135128000Y-125384930D01*
X135128000Y-125651005D01*
X135099737Y-125669890D01*
X134857472Y-126032466D01*
X134772400Y-126460153D01*
X134772400Y-127539847D01*
X134857472Y-127967534D01*
X135099737Y-128330110D01*
X135462313Y-128572375D01*
X135890000Y-128657447D01*
X136317687Y-128572375D01*
X136680263Y-128330110D01*
X136922528Y-127967534D01*
X137007600Y-127539847D01*
X137007600Y-126460153D01*
X136922528Y-126032466D01*
X136680263Y-125669890D01*
X136652000Y-125651005D01*
X136652000Y-125069300D01*
X136593996Y-124777695D01*
X136428815Y-124530485D01*
X136428815Y-124530484D01*
X135693515Y-123795185D01*
X135662557Y-123774500D01*
X136099653Y-123774500D01*
X137769600Y-125444446D01*
X137769600Y-125583118D01*
X137639737Y-125669890D01*
X137397472Y-126032466D01*
X137312400Y-126460153D01*
X137312400Y-127539847D01*
X137397472Y-127967534D01*
X137639737Y-128330110D01*
X138002313Y-128572375D01*
X138430000Y-128657447D01*
X138857687Y-128572375D01*
X139220263Y-128330110D01*
X139462528Y-127967534D01*
X139547600Y-127539847D01*
X139547600Y-126460153D01*
X139462528Y-126032466D01*
X139328113Y-125831300D01*
X140071886Y-125831300D01*
X139937472Y-126032466D01*
X139852400Y-126460153D01*
X139852400Y-127539847D01*
X139937472Y-127967534D01*
X140179737Y-128330110D01*
X140542313Y-128572375D01*
X140970000Y-128657447D01*
X141397687Y-128572375D01*
X141760263Y-128330110D01*
X142002528Y-127967534D01*
X142087600Y-127539847D01*
X142087600Y-126460153D01*
X142002528Y-126032466D01*
X141760263Y-125669890D01*
X141630400Y-125583118D01*
X141630400Y-125170900D01*
X141580130Y-124918176D01*
X141436973Y-124703927D01*
X141222724Y-124560770D01*
X140970000Y-124510500D01*
X138703546Y-124510500D01*
X137998200Y-123805154D01*
X137998200Y-116909169D01*
X137998200Y-114230831D01*
X137998200Y-91509169D01*
X137998200Y-88830831D01*
X137826122Y-87965737D01*
X137336086Y-87232345D01*
X136602694Y-86742309D01*
X135737600Y-86570231D01*
X134872506Y-86742309D01*
X134139114Y-87232345D01*
X133649078Y-87965737D01*
X133477000Y-88830831D01*
X133477000Y-91509169D01*
X133649078Y-92374263D01*
X134139114Y-93107655D01*
X134872506Y-93597691D01*
X135737600Y-93769769D01*
X136602694Y-93597691D01*
X137336086Y-93107655D01*
X137826122Y-92374263D01*
X137998200Y-91509169D01*
X137998200Y-114230831D01*
X137826122Y-113365737D01*
X137336086Y-112632345D01*
X136602694Y-112142309D01*
X135737600Y-111970231D01*
X134872506Y-112142309D01*
X134139114Y-112632345D01*
X133649078Y-113365737D01*
X133477000Y-114230831D01*
X133477000Y-116909169D01*
X133649078Y-117774263D01*
X134139114Y-118507655D01*
X134872506Y-118997691D01*
X135737600Y-119169769D01*
X136602694Y-118997691D01*
X137336086Y-118507655D01*
X137826122Y-117774263D01*
X137998200Y-116909169D01*
X137998200Y-123805154D01*
X136840173Y-122647127D01*
X136625924Y-122503970D01*
X136373200Y-122453700D01*
X107969667Y-122453700D01*
X107969667Y-120015000D01*
X107943359Y-119879411D01*
X107865077Y-119760241D01*
X107746899Y-119680469D01*
X107607100Y-119652433D01*
X105752900Y-119652433D01*
X105617311Y-119678741D01*
X105498141Y-119757023D01*
X105418369Y-119875201D01*
X105390333Y-120015000D01*
X105390333Y-120747533D01*
X105325060Y-120419385D01*
X105047006Y-120003247D01*
X104630868Y-119725193D01*
X104140000Y-119627553D01*
X103649132Y-119725193D01*
X103232994Y-120003247D01*
X102954940Y-120419385D01*
X102870000Y-120846405D01*
X102785060Y-120419385D01*
X102507006Y-120003247D01*
X102090868Y-119725193D01*
X101600000Y-119627553D01*
X101109132Y-119725193D01*
X100692994Y-120003247D01*
X100414940Y-120419385D01*
X100317300Y-120910253D01*
X100317300Y-121659747D01*
X100414940Y-122150615D01*
X100692994Y-122566753D01*
X100838000Y-122663642D01*
X100838000Y-123215700D01*
X100896004Y-123507305D01*
X101061185Y-123754515D01*
X102179485Y-124872815D01*
X102426695Y-125037996D01*
X102426696Y-125037996D01*
X102718300Y-125096000D01*
X110377680Y-125096000D01*
X109790873Y-125681784D01*
X109436304Y-126535680D01*
X109435497Y-127460264D01*
X109788575Y-128314777D01*
X110441784Y-128969127D01*
X110807293Y-129120900D01*
X94399100Y-129120900D01*
X94399100Y-76619100D01*
X112076979Y-76619100D01*
X111715223Y-76768575D01*
X111060873Y-77421784D01*
X110706304Y-78275680D01*
X110705497Y-79200264D01*
X111058575Y-80054777D01*
X111711784Y-80709127D01*
X112565680Y-81063696D01*
X113490264Y-81064503D01*
X114344777Y-80711425D01*
X114999127Y-80058216D01*
X115353696Y-79204320D01*
X115354503Y-78279736D01*
X115001425Y-77425223D01*
X114348216Y-76770873D01*
X113982706Y-76619100D01*
X118729712Y-76619100D01*
X118609736Y-76798656D01*
X118567200Y-77012500D01*
X118567200Y-77255231D01*
X118335737Y-77409890D01*
X118093472Y-77772466D01*
X118008400Y-78200153D01*
X118008400Y-79279847D01*
X118093472Y-79707534D01*
X118227886Y-79908700D01*
X117484113Y-79908700D01*
X117618528Y-79707534D01*
X117703600Y-79279847D01*
X117703600Y-78200153D01*
X117618528Y-77772466D01*
X117376263Y-77409890D01*
X117013687Y-77167625D01*
X116586000Y-77082553D01*
X116158313Y-77167625D01*
X115795737Y-77409890D01*
X115553472Y-77772466D01*
X115468400Y-78200153D01*
X115468400Y-79279847D01*
X115553472Y-79707534D01*
X115795737Y-80070110D01*
X116027200Y-80224768D01*
X116027200Y-80467500D01*
X116069736Y-80681344D01*
X116190869Y-80862631D01*
X116372156Y-80983764D01*
X116586000Y-81026300D01*
X158495038Y-81026300D01*
X153401869Y-86119469D01*
X153280736Y-86300756D01*
X153238200Y-86514600D01*
X153238200Y-86757371D01*
X153006737Y-86912030D01*
X152764472Y-87274606D01*
X152679400Y-87702293D01*
X152679400Y-88781987D01*
X152764472Y-89209674D01*
X153006737Y-89572250D01*
X153364950Y-89811600D01*
X152400000Y-89811600D01*
X152186156Y-89854136D01*
X152120600Y-89897939D01*
X152120600Y-88781987D01*
X152120600Y-87702293D01*
X152035528Y-87274606D01*
X151793263Y-86912030D01*
X151430687Y-86669765D01*
X151003000Y-86584693D01*
X150575313Y-86669765D01*
X150212737Y-86912030D01*
X149970472Y-87274606D01*
X149885400Y-87702293D01*
X149885400Y-88781987D01*
X149970472Y-89209674D01*
X150212737Y-89572250D01*
X150575313Y-89814515D01*
X151003000Y-89899587D01*
X151430687Y-89814515D01*
X151793263Y-89572250D01*
X152035528Y-89209674D01*
X152120600Y-88781987D01*
X152120600Y-89897939D01*
X152004869Y-89975269D01*
X151883736Y-90156556D01*
X151841200Y-90370400D01*
X151841200Y-90613091D01*
X151609737Y-90767750D01*
X151367472Y-91130326D01*
X151282400Y-91558013D01*
X151282400Y-92637707D01*
X151367472Y-93065394D01*
X151609737Y-93427970D01*
X151972313Y-93670235D01*
X152400000Y-93755307D01*
X152827687Y-93670235D01*
X153190263Y-93427970D01*
X153432528Y-93065394D01*
X153517600Y-92637707D01*
X153517600Y-91558013D01*
X153432528Y-91130326D01*
X153298140Y-90929200D01*
X154270459Y-90929200D01*
X154136072Y-91130326D01*
X154051000Y-91558013D01*
X154051000Y-92637707D01*
X154136072Y-93065394D01*
X154378337Y-93427970D01*
X154740913Y-93670235D01*
X155168600Y-93755307D01*
X155596287Y-93670235D01*
X155958863Y-93427970D01*
X156201128Y-93065394D01*
X156286200Y-92637707D01*
X156286200Y-91558013D01*
X156201128Y-91130326D01*
X156066740Y-90929200D01*
X157039059Y-90929200D01*
X156904672Y-91130326D01*
X156819600Y-91558013D01*
X156819600Y-92637707D01*
X156904672Y-93065394D01*
X157146937Y-93427970D01*
X157509513Y-93670235D01*
X157937200Y-93755307D01*
X158364887Y-93670235D01*
X158727463Y-93427970D01*
X158969728Y-93065394D01*
X159054800Y-92637707D01*
X159054800Y-91558013D01*
X158969728Y-91130326D01*
X158835340Y-90929200D01*
X159807659Y-90929200D01*
X159673272Y-91130326D01*
X159588200Y-91558013D01*
X159588200Y-92637707D01*
X159673272Y-93065394D01*
X159915537Y-93427970D01*
X160278113Y-93670235D01*
X160705800Y-93755307D01*
X161133487Y-93670235D01*
X161496063Y-93427970D01*
X161738328Y-93065394D01*
X161823400Y-92637707D01*
X161823400Y-91558013D01*
X161738328Y-91130326D01*
X161603940Y-90929200D01*
X163587700Y-90929200D01*
X163801543Y-90886664D01*
X163801544Y-90886664D01*
X163982831Y-90765531D01*
X167358996Y-87389365D01*
X166973878Y-87965737D01*
X166801800Y-88830831D01*
X166801800Y-91509169D01*
X166973878Y-92374263D01*
X167463914Y-93107655D01*
X168197306Y-93597691D01*
X169062400Y-93769769D01*
X169927494Y-93597691D01*
X170660886Y-93107655D01*
X171150922Y-92374263D01*
X171323000Y-91509169D01*
X171323000Y-88830831D01*
X171150922Y-87965737D01*
X170660886Y-87232345D01*
X169927494Y-86742309D01*
X169062400Y-86570231D01*
X168197306Y-86742309D01*
X167620934Y-87127427D01*
X171639562Y-83108800D01*
X189879061Y-83108800D01*
X189777231Y-83261200D01*
X189534500Y-83261200D01*
X181391400Y-83261200D01*
X181177557Y-83303735D01*
X180996269Y-83424869D01*
X153401869Y-111019269D01*
X153280736Y-111200556D01*
X153238200Y-111414400D01*
X153238200Y-111914600D01*
X153238200Y-112157371D01*
X153006737Y-112312030D01*
X152764472Y-112674606D01*
X152679400Y-113102293D01*
X152679400Y-114181987D01*
X152764472Y-114609674D01*
X152898859Y-114810800D01*
X151901140Y-114810800D01*
X152035528Y-114609674D01*
X152120600Y-114181987D01*
X152120600Y-113102293D01*
X152035528Y-112674606D01*
X151793263Y-112312030D01*
X151430687Y-112069765D01*
X151003000Y-111984693D01*
X150749000Y-112035216D01*
X150749000Y-92637707D01*
X150749000Y-91558013D01*
X150663928Y-91130326D01*
X150421663Y-90767750D01*
X150059087Y-90525485D01*
X149631400Y-90440413D01*
X149352000Y-90495988D01*
X149352000Y-88781987D01*
X149352000Y-87702293D01*
X149266928Y-87274606D01*
X149024663Y-86912030D01*
X148662087Y-86669765D01*
X148234400Y-86584693D01*
X147806713Y-86669765D01*
X147444137Y-86912030D01*
X147201872Y-87274606D01*
X147116800Y-87702293D01*
X147116800Y-88781987D01*
X147201872Y-89209674D01*
X147444137Y-89572250D01*
X147806713Y-89814515D01*
X148234400Y-89899587D01*
X148662087Y-89814515D01*
X149024663Y-89572250D01*
X149266928Y-89209674D01*
X149352000Y-88781987D01*
X149352000Y-90495988D01*
X149203713Y-90525485D01*
X148841137Y-90767750D01*
X148598872Y-91130326D01*
X148513800Y-91558013D01*
X148513800Y-92637707D01*
X148598872Y-93065394D01*
X148841137Y-93427970D01*
X149203713Y-93670235D01*
X149631400Y-93755307D01*
X150059087Y-93670235D01*
X150421663Y-93427970D01*
X150663928Y-93065394D01*
X150749000Y-92637707D01*
X150749000Y-112035216D01*
X150575313Y-112069765D01*
X150212737Y-112312030D01*
X149970472Y-112674606D01*
X149885400Y-113102293D01*
X149885400Y-114181987D01*
X149970472Y-114609674D01*
X150212737Y-114972250D01*
X150342600Y-115059021D01*
X150342600Y-115471200D01*
X150392870Y-115723924D01*
X150536027Y-115938173D01*
X150750276Y-116081330D01*
X151003000Y-116131600D01*
X151663839Y-116131600D01*
X151609737Y-116167750D01*
X151367472Y-116530326D01*
X151282400Y-116958013D01*
X151282400Y-118037707D01*
X151367472Y-118465394D01*
X151609737Y-118827970D01*
X151972313Y-119070235D01*
X152400000Y-119155307D01*
X152827687Y-119070235D01*
X153190263Y-118827970D01*
X153432528Y-118465394D01*
X153517600Y-118037707D01*
X153517600Y-116958013D01*
X153432528Y-116530326D01*
X153190263Y-116167750D01*
X153136160Y-116131600D01*
X154432439Y-116131600D01*
X154378337Y-116167750D01*
X154136072Y-116530326D01*
X154051000Y-116958013D01*
X154051000Y-118037707D01*
X154136072Y-118465394D01*
X154378337Y-118827970D01*
X154740913Y-119070235D01*
X155168600Y-119155307D01*
X155596287Y-119070235D01*
X155958863Y-118827970D01*
X156201128Y-118465394D01*
X156286200Y-118037707D01*
X156286200Y-116958013D01*
X156201128Y-116530326D01*
X155958863Y-116167750D01*
X155904760Y-116131600D01*
X156292053Y-116131600D01*
X156296227Y-116135774D01*
X156510476Y-116278930D01*
X156763200Y-116329200D01*
X157039059Y-116329200D01*
X156904672Y-116530326D01*
X156819600Y-116958013D01*
X156819600Y-118037707D01*
X156904672Y-118465394D01*
X157146937Y-118827970D01*
X157509513Y-119070235D01*
X157937200Y-119155307D01*
X158364887Y-119070235D01*
X158559577Y-118940147D01*
X158655513Y-119172328D01*
X158880388Y-119397596D01*
X159054033Y-119469700D01*
X150749000Y-119469700D01*
X150749000Y-118037707D01*
X150749000Y-116958013D01*
X150663928Y-116530326D01*
X150421663Y-116167750D01*
X150059087Y-115925485D01*
X149631400Y-115840413D01*
X149352000Y-115895988D01*
X149352000Y-114181987D01*
X149352000Y-113102293D01*
X149266928Y-112674606D01*
X149024663Y-112312030D01*
X148662087Y-112069765D01*
X148234400Y-111984693D01*
X147980400Y-112035216D01*
X147980400Y-92637707D01*
X147980400Y-91558013D01*
X147895328Y-91130326D01*
X147653063Y-90767750D01*
X147290487Y-90525485D01*
X146862800Y-90440413D01*
X146837400Y-90445465D01*
X146837400Y-88902540D01*
X146837400Y-88394540D01*
X146837400Y-88089740D01*
X146837400Y-87581740D01*
X146674672Y-87068452D01*
X146327904Y-86656509D01*
X145829561Y-86411656D01*
X145618200Y-86524503D01*
X145618200Y-88089740D01*
X146837400Y-88089740D01*
X146837400Y-88394540D01*
X145618200Y-88394540D01*
X145618200Y-89959777D01*
X145829561Y-90072624D01*
X146327904Y-89827771D01*
X146674672Y-89415828D01*
X146837400Y-88902540D01*
X146837400Y-90445465D01*
X146435113Y-90525485D01*
X146072537Y-90767750D01*
X145830272Y-91130326D01*
X145745200Y-91558013D01*
X145745200Y-92637707D01*
X145830272Y-93065394D01*
X146072537Y-93427970D01*
X146435113Y-93670235D01*
X146862800Y-93755307D01*
X147290487Y-93670235D01*
X147653063Y-93427970D01*
X147895328Y-93065394D01*
X147980400Y-92637707D01*
X147980400Y-112035216D01*
X147806713Y-112069765D01*
X147444137Y-112312030D01*
X147201872Y-112674606D01*
X147116800Y-113102293D01*
X147116800Y-114181987D01*
X147201872Y-114609674D01*
X147444137Y-114972250D01*
X147806713Y-115214515D01*
X148234400Y-115299587D01*
X148662087Y-115214515D01*
X149024663Y-114972250D01*
X149266928Y-114609674D01*
X149352000Y-114181987D01*
X149352000Y-115895988D01*
X149203713Y-115925485D01*
X148841137Y-116167750D01*
X148598872Y-116530326D01*
X148513800Y-116958013D01*
X148513800Y-118037707D01*
X148598872Y-118465394D01*
X148841137Y-118827970D01*
X149203713Y-119070235D01*
X149631400Y-119155307D01*
X150059087Y-119070235D01*
X150421663Y-118827970D01*
X150663928Y-118465394D01*
X150749000Y-118037707D01*
X150749000Y-119469700D01*
X147980400Y-119469700D01*
X147980400Y-118037707D01*
X147980400Y-116958013D01*
X147895328Y-116530326D01*
X147653063Y-116167750D01*
X147290487Y-115925485D01*
X146862800Y-115840413D01*
X146837400Y-115845465D01*
X146837400Y-114302540D01*
X146837400Y-113794540D01*
X146837400Y-113489740D01*
X146837400Y-112981740D01*
X146674672Y-112468452D01*
X146327904Y-112056509D01*
X145829561Y-111811656D01*
X145618200Y-111924503D01*
X145618200Y-113489740D01*
X146837400Y-113489740D01*
X146837400Y-113794540D01*
X145618200Y-113794540D01*
X145618200Y-115359777D01*
X145829561Y-115472624D01*
X146327904Y-115227771D01*
X146674672Y-114815828D01*
X146837400Y-114302540D01*
X146837400Y-115845465D01*
X146435113Y-115925485D01*
X146072537Y-116167750D01*
X145830272Y-116530326D01*
X145745200Y-116958013D01*
X145745200Y-118037707D01*
X145830272Y-118465394D01*
X146072537Y-118827970D01*
X146435113Y-119070235D01*
X146862800Y-119155307D01*
X147290487Y-119070235D01*
X147653063Y-118827970D01*
X147895328Y-118465394D01*
X147980400Y-118037707D01*
X147980400Y-119469700D01*
X146426867Y-119469700D01*
X146335448Y-119431739D01*
X146017148Y-119431461D01*
X145722972Y-119553013D01*
X145497704Y-119777888D01*
X145375639Y-120071852D01*
X145375361Y-120390152D01*
X145496913Y-120684328D01*
X145721788Y-120909596D01*
X146015752Y-121031661D01*
X146334052Y-121031939D01*
X146426596Y-120993700D01*
X174309200Y-120993700D01*
X174309200Y-120993699D01*
X174600804Y-120935696D01*
X174600805Y-120935696D01*
X174765272Y-120825802D01*
X175738185Y-121798715D01*
X175985395Y-121963896D01*
X175985396Y-121963896D01*
X176277000Y-122021900D01*
X184785000Y-122021900D01*
X185076605Y-121963896D01*
X185323815Y-121798715D01*
X185488996Y-121551505D01*
X185547000Y-121259900D01*
X185547000Y-120959302D01*
X185669889Y-120935459D01*
X185789059Y-120857177D01*
X185868831Y-120738999D01*
X185896867Y-120599200D01*
X185896867Y-117602000D01*
X185870559Y-117466411D01*
X185792277Y-117347241D01*
X185674099Y-117267469D01*
X185534300Y-117239433D01*
X184035700Y-117239433D01*
X183900111Y-117265741D01*
X183780941Y-117344023D01*
X183701169Y-117462201D01*
X183673133Y-117602000D01*
X183673133Y-120497900D01*
X183356867Y-120497900D01*
X183356867Y-117602000D01*
X183330559Y-117466411D01*
X183252277Y-117347241D01*
X183134099Y-117267469D01*
X182994300Y-117239433D01*
X182803800Y-117239433D01*
X182803800Y-117144500D01*
X182761264Y-116930657D01*
X182761264Y-116930656D01*
X182740700Y-116899880D01*
X182740700Y-116435553D01*
X182765700Y-116440567D01*
X184264300Y-116440567D01*
X184399889Y-116414259D01*
X184519059Y-116335977D01*
X184598831Y-116217799D01*
X184626867Y-116078000D01*
X184626867Y-113080800D01*
X184600559Y-112945211D01*
X184522277Y-112826041D01*
X184404099Y-112746269D01*
X184264300Y-112718233D01*
X184073800Y-112718233D01*
X184073800Y-112623300D01*
X184031264Y-112409456D01*
X183910131Y-112228169D01*
X183907826Y-112226629D01*
X183907839Y-112212248D01*
X183786287Y-111918072D01*
X183561412Y-111692804D01*
X183267448Y-111570739D01*
X182949148Y-111570461D01*
X182654972Y-111692013D01*
X182429704Y-111916888D01*
X182389139Y-112014576D01*
X180257231Y-109882669D01*
X180075944Y-109761536D01*
X179862100Y-109719000D01*
X177601700Y-109719000D01*
X177482812Y-109599904D01*
X177188848Y-109477839D01*
X176870548Y-109477561D01*
X176576372Y-109599113D01*
X176351104Y-109823988D01*
X176229039Y-110117952D01*
X176228761Y-110436252D01*
X176350313Y-110730428D01*
X176575188Y-110955696D01*
X176869152Y-111077761D01*
X177187452Y-111078039D01*
X177481628Y-110956487D01*
X177601724Y-110836600D01*
X179630637Y-110836600D01*
X180400522Y-111606485D01*
X180181672Y-111696913D01*
X179956404Y-111921788D01*
X179834339Y-112215752D01*
X179834061Y-112534052D01*
X179955613Y-112828228D01*
X179962580Y-112835208D01*
X179891169Y-112941001D01*
X179863133Y-113080800D01*
X179863133Y-116078000D01*
X179889441Y-116213589D01*
X179967723Y-116332759D01*
X180085901Y-116412531D01*
X180225700Y-116440567D01*
X181623100Y-116440567D01*
X181623100Y-117081400D01*
X181654534Y-117239433D01*
X181495700Y-117239433D01*
X181360111Y-117265741D01*
X181240941Y-117344023D01*
X181161169Y-117462201D01*
X181133133Y-117602000D01*
X181133133Y-120497900D01*
X180816867Y-120497900D01*
X180816867Y-117602000D01*
X180790559Y-117466411D01*
X180712277Y-117347241D01*
X180594099Y-117267469D01*
X180454300Y-117239433D01*
X180365400Y-117239433D01*
X180365400Y-117042900D01*
X180315130Y-116790176D01*
X180171973Y-116575927D01*
X179766173Y-116170127D01*
X179551924Y-116026970D01*
X179546867Y-116025964D01*
X179546867Y-113080800D01*
X179520559Y-112945211D01*
X179442277Y-112826041D01*
X179324099Y-112746269D01*
X179184300Y-112718233D01*
X179095400Y-112718233D01*
X179095400Y-112521700D01*
X179045130Y-112268976D01*
X178901973Y-112054727D01*
X178193273Y-111346027D01*
X177979024Y-111202870D01*
X177726300Y-111152600D01*
X162102800Y-111152600D01*
X161850076Y-111202870D01*
X161635827Y-111346027D01*
X161492670Y-111560276D01*
X161442400Y-111813000D01*
X161442400Y-112009573D01*
X161340800Y-112009573D01*
X161205211Y-112035881D01*
X161086041Y-112114163D01*
X161006269Y-112232341D01*
X160978233Y-112372140D01*
X160978233Y-114912140D01*
X161004541Y-115047729D01*
X161082823Y-115166899D01*
X161201001Y-115246671D01*
X161340800Y-115274707D01*
X162864800Y-115274707D01*
X163000389Y-115248399D01*
X163119559Y-115170117D01*
X163199331Y-115051939D01*
X163227367Y-114912140D01*
X163227367Y-112473400D01*
X167701792Y-112473400D01*
X167463914Y-112632345D01*
X166973878Y-113365737D01*
X166801800Y-114230831D01*
X166801800Y-116909169D01*
X166973878Y-117774263D01*
X167463914Y-118507655D01*
X168197306Y-118997691D01*
X169062400Y-119169769D01*
X169927494Y-118997691D01*
X170660886Y-118507655D01*
X171150922Y-117774263D01*
X171323000Y-116909169D01*
X171323000Y-114230831D01*
X171150922Y-113365737D01*
X170660886Y-112632345D01*
X170423007Y-112473400D01*
X177452754Y-112473400D01*
X177697587Y-112718233D01*
X177685700Y-112718233D01*
X177550111Y-112744541D01*
X177430941Y-112822823D01*
X177351169Y-112941001D01*
X177323133Y-113080800D01*
X177323133Y-116078000D01*
X177349441Y-116213589D01*
X177427723Y-116332759D01*
X177545901Y-116412531D01*
X177685700Y-116440567D01*
X177774600Y-116440567D01*
X177774600Y-116637100D01*
X177824870Y-116889824D01*
X177968027Y-117104073D01*
X178182276Y-117247230D01*
X178435000Y-117297500D01*
X178771763Y-117297500D01*
X178700941Y-117344023D01*
X178621169Y-117462201D01*
X178593133Y-117602000D01*
X178593133Y-120497900D01*
X176592630Y-120497900D01*
X175495488Y-119400758D01*
X175457687Y-119309272D01*
X175232812Y-119084004D01*
X174938848Y-118961939D01*
X174620548Y-118961661D01*
X174326372Y-119083213D01*
X174101104Y-119308088D01*
X174062703Y-119400565D01*
X173993569Y-119469700D01*
X159614238Y-119469700D01*
X159786828Y-119398387D01*
X160012096Y-119173512D01*
X160103443Y-118953524D01*
X160278113Y-119070235D01*
X160705800Y-119155307D01*
X161133487Y-119070235D01*
X161496063Y-118827970D01*
X161738328Y-118465394D01*
X161823400Y-118037707D01*
X161823400Y-116958013D01*
X161738328Y-116530326D01*
X161496063Y-116167750D01*
X161133487Y-115925485D01*
X160705800Y-115840413D01*
X160278113Y-115925485D01*
X159915537Y-116167750D01*
X159893000Y-116201479D01*
X159893000Y-115126908D01*
X160124463Y-114972250D01*
X160366728Y-114609674D01*
X160451800Y-114181987D01*
X160451800Y-113102293D01*
X160366728Y-112674606D01*
X160124463Y-112312030D01*
X159761887Y-112069765D01*
X159334200Y-111984693D01*
X158906513Y-112069765D01*
X158543937Y-112312030D01*
X158301672Y-112674606D01*
X158216600Y-113102293D01*
X158216600Y-114181987D01*
X158301672Y-114609674D01*
X158543937Y-114972250D01*
X158775400Y-115126908D01*
X158775400Y-116239492D01*
X158727463Y-116167750D01*
X158597600Y-116080978D01*
X158597600Y-115668800D01*
X158547330Y-115416076D01*
X158404173Y-115201827D01*
X158189924Y-115058670D01*
X157937200Y-115008400D01*
X157301760Y-115008400D01*
X157355863Y-114972250D01*
X157598128Y-114609674D01*
X157683200Y-114181987D01*
X157683200Y-113102293D01*
X157598128Y-112674606D01*
X157355863Y-112312030D01*
X156993287Y-112069765D01*
X156565600Y-111984693D01*
X156137913Y-112069765D01*
X155775337Y-112312030D01*
X155533072Y-112674606D01*
X155448000Y-113102293D01*
X155448000Y-114181987D01*
X155533072Y-114609674D01*
X155667459Y-114810800D01*
X154695140Y-114810800D01*
X154829528Y-114609674D01*
X154914600Y-114181987D01*
X154914600Y-113102293D01*
X154829528Y-112674606D01*
X154587263Y-112312030D01*
X154355800Y-112157371D01*
X154355800Y-111914600D01*
X154355800Y-111645862D01*
X157417004Y-108584657D01*
X157492813Y-108768128D01*
X157717688Y-108993396D01*
X158011652Y-109115461D01*
X158329952Y-109115739D01*
X158624128Y-108994187D01*
X158849396Y-108769312D01*
X158971461Y-108475348D01*
X158971609Y-108305652D01*
X181628462Y-85648800D01*
X189879061Y-85648800D01*
X189689625Y-85932313D01*
X189604553Y-86360000D01*
X189689625Y-86787687D01*
X189931890Y-87150263D01*
X190294466Y-87392528D01*
X190722153Y-87477600D01*
X191801847Y-87477600D01*
X192229534Y-87392528D01*
X192592110Y-87150263D01*
X192834375Y-86787687D01*
X192919447Y-86360000D01*
X192834375Y-85932313D01*
X192592789Y-85570753D01*
X192720931Y-85485131D01*
X193485631Y-84720431D01*
X193537219Y-84643223D01*
X193850466Y-84852528D01*
X194278153Y-84937600D01*
X195357847Y-84937600D01*
X195785534Y-84852528D01*
X196148110Y-84610263D01*
X196390375Y-84247687D01*
X196475447Y-83820000D01*
X196390375Y-83392313D01*
X196148110Y-83029737D01*
X195785534Y-82787472D01*
X195357847Y-82702400D01*
X194278153Y-82702400D01*
X193850466Y-82787472D01*
X193487890Y-83029737D01*
X193333231Y-83261200D01*
X193090500Y-83261200D01*
X192876656Y-83303736D01*
X192806508Y-83350607D01*
X192592789Y-83030753D01*
X192720931Y-82945131D01*
X193485631Y-82180431D01*
X193537219Y-82103223D01*
X193850466Y-82312528D01*
X194278153Y-82397600D01*
X195357847Y-82397600D01*
X195785534Y-82312528D01*
X196148110Y-82070263D01*
X196390375Y-81707687D01*
X196475447Y-81280000D01*
X196390375Y-80852313D01*
X196148110Y-80489737D01*
X195785534Y-80247472D01*
X195357847Y-80162400D01*
X194278153Y-80162400D01*
X193850466Y-80247472D01*
X193487890Y-80489737D01*
X193333231Y-80721200D01*
X193090500Y-80721200D01*
X192876656Y-80763736D01*
X192806508Y-80810607D01*
X192592110Y-80489737D01*
X192229534Y-80247472D01*
X191801847Y-80162400D01*
X190722153Y-80162400D01*
X190294466Y-80247472D01*
X189931890Y-80489737D01*
X189777231Y-80721200D01*
X189251119Y-80721200D01*
X189274777Y-80711425D01*
X189929127Y-80058216D01*
X190283696Y-79204320D01*
X190284503Y-78279736D01*
X189931425Y-77425223D01*
X189278216Y-76770873D01*
X188912706Y-76619100D01*
X191546046Y-76619100D01*
X191342313Y-76659625D01*
X190979737Y-76901890D01*
X190737472Y-77264466D01*
X190652400Y-77692153D01*
X190652400Y-78771847D01*
X190737472Y-79199534D01*
X190979737Y-79562110D01*
X191342313Y-79804375D01*
X191770000Y-79889447D01*
X192197687Y-79804375D01*
X192560263Y-79562110D01*
X192802528Y-79199534D01*
X192887600Y-78771847D01*
X192887600Y-77692153D01*
X192802528Y-77264466D01*
X192560263Y-76901890D01*
X192197687Y-76659625D01*
X191993953Y-76619100D01*
X194086046Y-76619100D01*
X193882313Y-76659625D01*
X193519737Y-76901890D01*
X193277472Y-77264466D01*
X193192400Y-77692153D01*
X193192400Y-78771847D01*
X193277472Y-79199534D01*
X193519737Y-79562110D01*
X193882313Y-79804375D01*
X194310000Y-79889447D01*
X194737687Y-79804375D01*
X195100263Y-79562110D01*
X195342528Y-79199534D01*
X195427600Y-78771847D01*
X195427600Y-77692153D01*
X195342528Y-77264466D01*
X195100263Y-76901890D01*
X194737687Y-76659625D01*
X194533953Y-76619100D01*
X210400900Y-76619100D01*
X210400900Y-129120900D01*
M02*
